<svg width="627" height="500" viewBox="0 0 627 500" fill="none" xmlns="http://www.w3.org/2000/svg">
<path d="M239.866 13.3937H137.541V140.899H239.866V13.3937Z" stroke="#A3A3A3" stroke-miterlimit="10"/>
<path d="M235.683 18.6149H141.724V135.689H235.683V18.6149Z" stroke="#A3A3A3" stroke-miterlimit="10"/>
<path d="M206.576 54.8841H170.842V99.409H206.576V54.8841Z" fill="#D6D6D6"/>
<path d="M315.74 53.7015H246.348V140.174H315.74V53.7015Z" stroke="#A3A3A3" stroke-miterlimit="10"/>
<path d="M312.985 57.1265H249.093V136.738H312.985V57.1265Z" stroke="#A3A3A3" stroke-miterlimit="10"/>
<path d="M293.16 81.8377H268.929V112.038H293.16V81.8377Z" fill="#D6D6D6"/>
<path d="M192.374 228.354V158.961H105.901V228.354H192.374Z" stroke="#A3A3A3" stroke-miterlimit="10"/>
<path d="M188.302 225.096V162.23H109.962V225.096H188.302Z" stroke="#A3A3A3" stroke-miterlimit="10"/>
<path d="M164.238 205.773V181.542H134.038V205.773H164.238Z" fill="#D6D6D6"/>
<path d="M289.01 158.448H200.429V268.818H289.01V158.448Z" stroke="#A3A3A3" stroke-miterlimit="10"/>
<path d="M285.44 162.9H203.999V264.377H285.44V162.9Z" stroke="#A3A3A3" stroke-miterlimit="10"/>
<path d="M260.193 194.36H229.257V232.906H260.193V194.36Z" fill="#D6D6D6"/>
<path d="M25.4197 252.887L47.6765 466.24" stroke="#263238" stroke-width="2" stroke-miterlimit="10"/>
<path d="M43.5821 424.56L33.9988 414.754" stroke="#263238" stroke-width="2" stroke-miterlimit="10"/>
<path d="M37.0334 417.944C37.0142 416.312 36.6459 414.703 35.9531 413.225C35.2604 411.748 34.2593 410.435 33.0171 409.376C30.4289 407.067 16.7847 401.333 15.4906 406.13C14.1183 411.351 28.1084 421.615 37.0334 417.944Z" fill="#407BFF" stroke="#263238" stroke-miterlimit="10"/>
<path d="M37.0668 417.944L24.0808 409.856" stroke="#263238" stroke-width="0.5" stroke-miterlimit="10"/>
<path d="M45.4228 448.713L36.5312 439.007" stroke="#263238" stroke-width="2" stroke-miterlimit="10"/>
<path d="M39.5994 442.209C39.5802 440.577 39.2118 438.968 38.5191 437.49C37.8263 436.013 36.8252 434.7 35.5831 433.641C32.9948 431.332 19.3507 425.598 18.0565 430.395C16.6508 435.616 30.6074 445.88 39.5994 442.209Z" fill="#407BFF" stroke="#263238" stroke-miterlimit="10"/>
<path d="M39.5992 442.209L26.6133 434.121" stroke="#263238" stroke-width="0.5" stroke-miterlimit="10"/>
<path d="M37.4573 365.286L27.3608 354.621" stroke="#263238" stroke-width="2" stroke-miterlimit="10"/>
<path d="M30.8862 358.738C30.867 357.106 30.4987 355.497 29.8059 354.019C29.1132 352.541 28.1121 351.228 26.87 350.17C24.2817 347.86 10.6375 342.126 9.34338 346.923C7.93769 352.144 21.8942 362.408 30.8862 358.738Z" fill="#407BFF" stroke="#263238" stroke-miterlimit="10"/>
<path d="M30.8861 358.738L17.9001 350.649" stroke="#263238" stroke-width="0.5" stroke-miterlimit="10"/>
<path d="M39.443 389.607L30.3506 379.801" stroke="#263238" stroke-width="2" stroke-miterlimit="10"/>
<path d="M33.4187 383.003C33.3995 381.371 33.0312 379.762 32.3384 378.284C31.6457 376.806 30.6446 375.493 29.4024 374.435C26.8142 372.125 13.17 366.391 11.8759 371.188C10.4702 376.409 24.4267 386.673 33.4187 383.003Z" fill="#407BFF" stroke="#263238" stroke-miterlimit="10"/>
<path d="M33.4188 383.003L20.4329 374.914" stroke="#263238" stroke-width="0.5" stroke-miterlimit="10"/>
<path d="M33.4632 325.894L23.7014 316.121" stroke="#263238" stroke-width="2" stroke-miterlimit="10"/>
<path d="M26.7696 319.322C26.7504 317.69 26.3821 316.081 25.6893 314.604C24.9966 313.126 23.9955 311.813 22.7533 310.754C20.1651 308.445 6.53205 302.711 5.23792 307.508C3.83222 312.729 17.7888 322.993 26.7696 319.322Z" fill="#407BFF" stroke="#263238" stroke-miterlimit="10"/>
<path d="M26.7695 319.322L13.7947 311.234" stroke="#263238" stroke-width="0.5" stroke-miterlimit="10"/>
<path d="M28.8558 286.333L19.5737 276.538" stroke="#263238" stroke-width="2" stroke-miterlimit="10"/>
<path d="M22.6417 279.729C22.6216 278.098 22.2528 276.491 21.56 275.015C20.8673 273.539 19.8667 272.229 18.6254 271.172C16.0371 268.874 2.44871 263.117 1.0988 267.925C-0.306901 273.146 13.605 283.377 22.6417 279.729Z" fill="#407BFF" stroke="#263238" stroke-miterlimit="10"/>
<path d="M22.6417 279.729L9.65576 271.64" stroke="#263238" stroke-width="0.5" stroke-miterlimit="10"/>
<path d="M42.3994 411.05L50.075 398.543" stroke="#263238" stroke-width="2" stroke-miterlimit="10"/>
<path d="M47.7323 402.292C47.4137 400.692 47.4421 399.043 47.8154 397.455C48.1888 395.867 48.8985 394.378 49.8966 393.088C51.9494 390.288 64.1098 381.865 66.3634 386.294C68.8177 391.113 57.2821 404.032 47.7323 402.292Z" fill="#407BFF" stroke="#263238" stroke-miterlimit="10"/>
<path d="M47.7322 402.292L59.4129 391.125" stroke="#263238" stroke-width="0.5" stroke-miterlimit="10"/>
<path d="M35.728 347.202L43.4036 334.685" stroke="#263238" stroke-width="2" stroke-miterlimit="10"/>
<path d="M41.0607 338.444C40.7458 336.844 40.776 335.196 41.1492 333.609C41.5224 332.021 42.2301 330.532 43.225 329.24C45.289 326.44 57.4382 318.017 59.7029 322.446C62.1573 327.266 50.6217 340.185 41.0607 338.444Z" fill="#407BFF" stroke="#263238" stroke-miterlimit="10"/>
<path d="M41.0608 338.444L52.7526 327.277" stroke="#263238" stroke-width="0.5" stroke-miterlimit="10"/>
<path d="M32.8052 319.144L40.4807 306.627" stroke="#263238" stroke-width="2" stroke-miterlimit="10"/>
<path d="M38.1489 310.386C37.8354 308.794 37.8653 307.154 38.2366 305.574C38.608 303.995 39.3121 302.512 40.3021 301.227C42.3549 298.427 54.5152 289.992 56.7688 294.433C59.2232 299.208 47.6876 312.127 38.1489 310.386Z" fill="#407BFF" stroke="#263238" stroke-miterlimit="10"/>
<path d="M38.1377 310.386L49.8295 299.219" stroke="#263238" stroke-width="0.5" stroke-miterlimit="10"/>
<path d="M28.5098 278.011L36.1853 265.493" stroke="#263238" stroke-width="2" stroke-miterlimit="10"/>
<path d="M33.8427 269.253C33.5278 267.653 33.5579 266.004 33.9312 264.417C34.3044 262.83 35.0121 261.341 36.007 260.049C38.0598 257.249 50.2202 248.814 52.4849 253.244C54.9393 258.074 43.3925 270.982 33.8427 269.253Z" fill="#407BFF" stroke="#263238" stroke-miterlimit="10"/>
<path d="M33.8425 269.253L45.5344 258.074" stroke="#263238" stroke-width="0.5" stroke-miterlimit="10"/>
<path d="M25.2298 251.704C24.9113 250.104 24.9396 248.455 25.313 246.867C25.6864 245.279 26.3961 243.79 27.3942 242.5C29.4469 239.7 41.6073 231.277 43.8609 235.706C46.3153 240.525 34.802 253.444 25.2298 251.704Z" fill="#407BFF" stroke="#263238" stroke-miterlimit="10"/>
<path d="M25.23 251.704L36.9218 240.536" stroke="#263238" stroke-width="0.5" stroke-miterlimit="10"/>
<path d="M25.8769 252.139C24.2533 252.288 22.6165 252.087 21.077 251.55C19.5375 251.013 18.1309 250.153 16.9519 249.026C14.3859 246.684 7.27933 233.709 11.9204 231.935C16.9519 230.038 28.6325 242.868 25.8769 252.139Z" fill="#407BFF" stroke="#263238" stroke-miterlimit="10"/>
<path d="M25.9104 252.184L16.0259 239.399" stroke="#263238" stroke-width="0.5" stroke-miterlimit="10"/>
<path d="M84.1464 282.719L65.9839 466.24" stroke="#263238" stroke-width="2" stroke-miterlimit="10"/>
<path d="M66.8989 455.385L59.2122 442.868" stroke="#263238" stroke-width="2" stroke-miterlimit="10"/>
<path d="M61.5772 446.627C61.8958 445.027 61.8675 443.378 61.4941 441.79C61.1207 440.202 60.411 438.713 59.4129 437.423C57.3267 434.623 45.1663 426.178 42.9127 430.64C40.4583 435.46 52.0051 448.368 61.5772 446.627Z" fill="#407BFF" stroke="#263238" stroke-miterlimit="10"/>
<path d="M61.5549 446.627L50.5212 436.04" stroke="#263238" stroke-width="0.5" stroke-miterlimit="10"/>
<path d="M73.0461 396.167L65.3594 383.661" stroke="#263238" stroke-width="2" stroke-miterlimit="10"/>
<path d="M67.7022 387.421C68.0173 385.819 67.9872 384.169 67.614 382.58C67.2408 380.991 66.533 379.499 65.5378 378.205C63.4739 375.416 51.3135 366.993 49.0599 371.422C46.6056 376.242 58.1524 389.161 67.7022 387.421Z" fill="#407BFF" stroke="#263238" stroke-miterlimit="10"/>
<path d="M67.7021 387.421L56.6685 376.822" stroke="#263238" stroke-width="0.5" stroke-miterlimit="10"/>
<path d="M70.5246 420.432L62.8379 407.926" stroke="#263238" stroke-width="2" stroke-miterlimit="10"/>
<path d="M65.1807 411.674C65.4995 410.073 65.4712 408.422 65.0979 406.832C64.7245 405.243 64.0147 403.751 63.0164 402.459C60.9524 399.67 48.792 391.247 46.5385 395.676C44.0841 400.518 55.6309 413.426 65.1807 411.674Z" fill="#407BFF" stroke="#263238" stroke-miterlimit="10"/>
<path d="M65.1808 411.686L54.1472 401.087" stroke="#263238" stroke-width="0.5" stroke-miterlimit="10"/>
<path d="M77.1292 356.752L69.4536 344.246" stroke="#263238" stroke-width="2" stroke-miterlimit="10"/>
<path d="M71.7963 347.994C72.1034 346.39 72.0632 344.738 71.6783 343.15C71.2934 341.563 70.5728 340.076 69.5651 338.79C67.5123 335.99 55.3407 327.578 53.0872 332.007C50.6997 336.827 62.2354 349.746 71.7963 347.994Z" fill="#407BFF" stroke="#263238" stroke-miterlimit="10"/>
<path d="M71.7965 347.994L60.7517 337.407" stroke="#263238" stroke-width="0.5" stroke-miterlimit="10"/>
<path d="M81.2346 317.158L73.5591 304.652" stroke="#263238" stroke-width="2" stroke-miterlimit="10"/>
<path d="M75.9019 308.412C76.209 306.807 76.1688 305.155 75.7839 303.568C75.399 301.98 74.6784 300.493 73.6707 299.208C71.6179 296.407 59.4575 287.984 57.2039 292.413C54.8053 297.244 66.3521 310.152 75.9019 308.412Z" fill="#407BFF" stroke="#263238" stroke-miterlimit="10"/>
<path d="M75.9019 308.412L64.8572 297.824" stroke="#263238" stroke-width="0.5" stroke-miterlimit="10"/>
<path d="M68.1929 440.982L78.2782 430.317" stroke="#263238" stroke-width="2" stroke-miterlimit="10"/>
<path d="M75.2102 433.507C75.2303 431.877 75.5991 430.27 76.2918 428.794C76.9846 427.318 77.9852 426.008 79.2265 424.95C81.8148 422.63 95.4478 416.884 96.7419 421.693C98.1588 426.914 84.2022 437.178 75.2102 433.507Z" fill="#407BFF" stroke="#263238" stroke-miterlimit="10"/>
<path d="M75.2102 433.507L88.9548 424.984" stroke="#263238" stroke-width="0.5" stroke-miterlimit="10"/>
<path d="M74.8198 377.123L84.9051 366.458" stroke="#263238" stroke-width="2" stroke-miterlimit="10"/>
<path d="M81.8372 369.66C81.8564 368.028 82.2247 366.419 82.9175 364.941C83.6102 363.463 84.6113 362.15 85.8534 361.092C88.4417 358.782 102.075 353.037 103.369 357.834C104.786 363.055 90.8292 373.319 81.8372 369.66Z" fill="#407BFF" stroke="#263238" stroke-miterlimit="10"/>
<path d="M81.8372 369.66L95.5817 361.136" stroke="#263238" stroke-width="0.5" stroke-miterlimit="10"/>
<path d="M77.7317 349.065L87.817 338.4" stroke="#263238" stroke-width="2" stroke-miterlimit="10"/>
<path d="M84.749 341.59C84.7691 339.96 85.1379 338.353 85.8306 336.877C86.5234 335.401 87.524 334.091 88.7653 333.034C91.3536 330.713 104.987 324.967 106.281 329.776C107.698 334.997 93.741 345.261 84.749 341.59Z" fill="#407BFF" stroke="#263238" stroke-miterlimit="10"/>
<path d="M84.749 341.59L98.4936 333.067" stroke="#263238" stroke-width="0.5" stroke-miterlimit="10"/>
<path d="M81.9934 307.932L92.0899 297.266" stroke="#263238" stroke-width="2" stroke-miterlimit="10"/>
<path d="M89.0217 300.457C89.0409 298.825 89.4093 297.216 90.102 295.738C90.7948 294.26 91.7959 292.948 93.038 291.889C95.6263 289.58 109.259 283.834 110.553 288.631C111.959 293.853 98.0137 304.128 89.0217 300.457Z" fill="#407BFF" stroke="#263238" stroke-miterlimit="10"/>
<path d="M89.0217 300.457L102.755 291.934" stroke="#263238" stroke-width="0.5" stroke-miterlimit="10"/>
<path d="M84.2021 281.514C84.2215 279.883 84.59 278.276 85.2828 276.8C85.9756 275.324 86.9766 274.013 88.2184 272.957C90.8067 270.636 104.44 264.891 105.734 269.688C107.14 274.92 93.1941 285.184 84.2021 281.514Z" fill="#407BFF" stroke="#263238" stroke-miterlimit="10"/>
<path d="M84.2021 281.514L97.9356 272.99" stroke="#263238" stroke-width="0.5" stroke-miterlimit="10"/>
<path d="M84.7599 282.127C83.1406 281.939 81.5805 281.405 80.1851 280.562C78.7898 279.719 77.5916 278.587 76.6716 277.241C74.6411 274.418 70.3571 260.261 75.2659 259.48C80.6098 258.621 89.3563 273.57 84.7599 282.127Z" fill="#407BFF" stroke="#263238" stroke-miterlimit="10"/>
<path d="M84.7602 282.127L77.7317 267.568" stroke="#263238" stroke-width="0.5" stroke-miterlimit="10"/>
<path d="M58.7659 196.436V466.24" stroke="#263238" stroke-width="2" stroke-miterlimit="10"/>
<path d="M58.989 425.676L50.0527 414.017" stroke="#263238" stroke-width="2" stroke-miterlimit="10"/>
<path d="M52.7749 417.52C52.9208 415.897 52.7186 414.261 52.1819 412.722C51.6451 411.183 50.7861 409.776 49.6623 408.595C47.3306 406.018 34.3558 398.9 32.5708 403.541C30.6296 408.584 43.4482 420.231 52.7749 417.52Z" fill="#407BFF" stroke="#263238" stroke-miterlimit="10"/>
<path d="M52.775 417.52L40.7039 408.127" stroke="#263238" stroke-width="0.5" stroke-miterlimit="10"/>
<path d="M58.989 374.97L50.0527 363.312" stroke="#263238" stroke-width="2" stroke-miterlimit="10"/>
<path d="M52.7749 366.815C52.9208 365.191 52.7186 363.556 52.1819 362.016C51.6451 360.477 50.7861 359.071 49.6623 357.89C47.3306 355.324 34.3558 348.195 32.5708 352.836C30.6296 357.879 43.4482 369.526 52.7749 366.815Z" fill="#407BFF" stroke="#263238" stroke-miterlimit="10"/>
<path d="M52.775 366.815L40.7039 357.421" stroke="#263238" stroke-width="0.5" stroke-miterlimit="10"/>
<path d="M58.989 315.44L50.0527 303.782" stroke="#263238" stroke-width="2" stroke-miterlimit="10"/>
<path d="M52.7749 307.285C52.9208 305.661 52.7186 304.025 52.1819 302.486C51.6451 300.947 50.7861 299.54 49.6623 298.36C47.3306 295.794 34.3558 288.665 32.5708 293.317C30.6296 298.349 43.4482 309.996 52.7749 307.285Z" fill="#407BFF" stroke="#263238" stroke-miterlimit="10"/>
<path d="M52.775 307.285L40.7039 297.891" stroke="#263238" stroke-width="0.5" stroke-miterlimit="10"/>
<path d="M58.989 275.813L50.0527 264.154" stroke="#263238" stroke-width="2" stroke-miterlimit="10"/>
<path d="M52.7749 267.657C52.9208 266.034 52.7186 264.398 52.1819 262.859C51.6451 261.32 50.7861 259.913 49.6623 258.732C47.3306 256.166 34.3558 249.038 32.5708 253.679C30.6296 258.721 43.4482 270.368 52.7749 267.657Z" fill="#407BFF" stroke="#263238" stroke-miterlimit="10"/>
<path d="M52.775 267.657L40.7039 258.264" stroke="#263238" stroke-width="0.5" stroke-miterlimit="10"/>
<path d="M58.989 236.007L50.0527 224.36" stroke="#263238" stroke-width="2" stroke-miterlimit="10"/>
<path d="M52.7749 227.852C52.9208 226.228 52.7186 224.592 52.1819 223.053C51.6451 221.514 50.7861 220.107 49.6623 218.927C47.3306 216.361 34.3558 209.243 32.5708 213.884C30.6296 218.916 43.4482 230.574 52.7749 227.852Z" fill="#407BFF" stroke="#263238" stroke-miterlimit="10"/>
<path d="M52.775 227.852L40.7039 218.458" stroke="#263238" stroke-width="0.5" stroke-miterlimit="10"/>
<path d="M58.7881 441.149L67.7243 429.502" stroke="#263238" stroke-width="2" stroke-miterlimit="10"/>
<path d="M65.0022 432.994C64.8512 431.371 65.0499 429.735 65.5849 428.195C66.1199 426.656 66.9788 425.249 68.1036 424.069C70.4464 421.492 83.4101 414.374 85.1951 419.015C87.1363 424.069 74.3177 435.716 65.0022 432.994Z" fill="#407BFF" stroke="#263238" stroke-miterlimit="10"/>
<path d="M65.0022 432.994L77.7873 423.099" stroke="#263238" stroke-width="0.5" stroke-miterlimit="10"/>
<path d="M58.7881 360.512L67.7243 348.864" stroke="#263238" stroke-width="2" stroke-miterlimit="10"/>
<path d="M65.0023 352.356C64.8528 350.733 65.0521 349.097 65.5871 347.558C66.122 346.019 66.9801 344.612 68.1038 343.431C70.4466 340.865 83.4102 333.748 85.1952 338.389C87.1364 343.42 74.3178 355.078 65.0023 352.356Z" fill="#407BFF" stroke="#263238" stroke-miterlimit="10"/>
<path d="M65.0022 352.356L77.7873 342.461" stroke="#263238" stroke-width="0.5" stroke-miterlimit="10"/>
<path d="M58.7881 320.706L67.7243 309.059" stroke="#263238" stroke-width="2" stroke-miterlimit="10"/>
<path d="M65.0022 312.551C64.8512 310.928 65.0499 309.291 65.5849 307.752C66.1199 306.212 66.9788 304.805 68.1036 303.625C70.4464 301.048 83.4101 293.931 85.1951 298.572C87.1363 303.625 74.3177 315.273 65.0022 312.551Z" fill="#407BFF" stroke="#263238" stroke-miterlimit="10"/>
<path d="M65.0022 312.55L77.7873 302.655" stroke="#263238" stroke-width="0.5" stroke-miterlimit="10"/>
<path d="M58.7881 268.104L67.7243 256.457" stroke="#263238" stroke-width="2" stroke-miterlimit="10"/>
<path d="M65.0023 259.948C64.8528 258.326 65.0521 256.69 65.5871 255.15C66.122 253.611 66.9801 252.204 68.1038 251.023C70.4466 248.457 83.4102 241.34 85.1952 245.981C87.1364 251.023 74.3178 262.671 65.0023 259.948Z" fill="#407BFF" stroke="#263238" stroke-miterlimit="10"/>
<path d="M65.0022 259.948L77.7873 250.053" stroke="#263238" stroke-width="0.5" stroke-miterlimit="10"/>
<path d="M58.7881 226.747L67.7243 215.089" stroke="#263238" stroke-width="2" stroke-miterlimit="10"/>
<path d="M65.0023 218.592C64.8528 216.969 65.0521 215.333 65.5871 213.794C66.122 212.254 66.9801 210.847 68.1038 209.667C70.4466 207.101 83.4102 199.972 85.1952 204.613C87.1364 209.656 74.3178 221.303 65.0023 218.592Z" fill="#407BFF" stroke="#263238" stroke-miterlimit="10"/>
<path d="M65.0022 218.592L77.7873 208.685" stroke="#263238" stroke-width="0.5" stroke-miterlimit="10"/>
<path d="M58.2302 200.24C58.0792 198.617 58.2779 196.981 58.8129 195.441C59.3479 193.901 60.2068 192.494 61.3316 191.315C63.6745 188.738 76.6381 181.62 78.4231 186.261C80.3867 191.315 67.568 202.962 58.2302 200.24Z" fill="#407BFF" stroke="#263238" stroke-miterlimit="10"/>
<path d="M58.2527 200.24L71.0378 190.344" stroke="#263238" stroke-width="0.5" stroke-miterlimit="10"/>
<path d="M58.8775 200.82C57.2466 200.797 55.6394 200.426 54.1637 199.731C52.6879 199.037 51.3776 198.035 50.3206 196.793C48.0112 194.193 42.288 180.56 47.0853 179.266C52.3176 177.838 62.5591 191.806 58.8775 200.82Z" fill="#407BFF" stroke="#263238" stroke-miterlimit="10"/>
<path d="M58.8773 200.798L50.3762 187.042" stroke="#263238" stroke-width="0.5" stroke-miterlimit="10"/>
<path d="M213.426 466.396C209.465 454.236 199.782 424.192 200.563 423.032C201.522 421.581 201.522 413.839 201.522 413.839C201.522 413.839 170.061 417.71 147.804 398.833C125.548 379.957 98.9174 357.7 98.9174 357.7C98.9174 357.7 95.0461 369.28 91.1749 381.418C87.9061 391.649 81.5135 448.948 79.6169 466.396H213.426Z" fill="#263238" stroke="#263238" stroke-linecap="round" stroke-linejoin="round"/>
<path d="M135.566 432.682C141.211 437.903 150.973 447.107 158.157 454.838" stroke="#6E6E6E" stroke-linecap="round" stroke-linejoin="round"/>
<path d="M131.036 428.532L132.788 430.127" stroke="#6E6E6E" stroke-linecap="round" stroke-linejoin="round"/>
<path d="M240.882 224.248C240.882 224.248 207.792 238.127 192.675 248.346C177.558 258.565 146.934 288.375 137.942 300.223C128.95 312.071 106.894 337.039 101.182 343.922C95.4701 350.805 91.7885 354.956 93.3727 366.391C94.9569 377.826 104.808 396.212 115.429 405.605C126.05 414.999 147.28 426.735 174.658 425.62C190.578 424.973 199.983 421.537 208.562 412.957C217.141 404.378 230.216 381.909 241.651 370.887C253.087 359.864 272.688 337.418 272.688 337.418C272.688 337.418 324.978 356.205 329.876 356.205C334.773 356.205 359.295 342.316 359.697 338.232C360.098 334.149 305.778 298.203 300.88 289.211C295.983 280.219 285.819 263.853 285.819 263.853C285.819 263.853 261.275 228.32 240.882 224.248Z" fill="#7D7D7D" stroke="#263238" stroke-linecap="round" stroke-linejoin="round"/>
<path d="M300.925 289.178C296.016 280.197 285.808 263.853 285.808 263.853C280.679 256.637 275.042 249.796 268.94 243.381C266.92 243.712 264.995 244.473 263.295 245.613C250.621 254.95 256.601 278.289 257.951 296.932C258.878 308.422 262.305 319.57 267.991 329.597L248.256 364.294C259.356 352.736 272.8 337.373 272.8 337.373C272.8 337.373 325.089 356.161 329.987 356.161C334.885 356.161 359.406 342.271 359.808 338.188C360.21 334.105 305.823 298.17 300.925 289.178Z" fill="#263238" stroke="#263238" stroke-linecap="round" stroke-linejoin="round"/>
<path d="M225.731 233.787C225.731 233.787 217.687 229.771 212.053 249.082C206.42 268.394 220.9 319.099 228.152 319.903C235.404 320.706 250.688 282.886 253.098 271.618C255.507 260.35 248.267 226.546 225.731 233.787Z" fill="#407BFF" stroke="#263238" stroke-linecap="round" stroke-linejoin="round"/>
<path d="M250.677 275.701C250.677 275.701 246.504 279.249 240.469 283.868C233.53 289.178 232.247 299.062 227.349 293.339C222.451 287.616 215.144 247.52 219.64 239.343C224.136 231.165 240.837 220.143 242.098 219.328C243.358 218.514 254.76 233.631 255.586 244.653C256.411 255.676 250.677 275.701 250.677 275.701Z" fill="white" stroke="#263238" stroke-linecap="round" stroke-linejoin="round"/>
<path d="M242.098 219.328C240.882 220.143 224.125 231.176 219.64 239.343C217.866 242.556 217.933 250.722 218.948 259.781C220.555 260.874 222.295 262.038 224.169 263.273C239.308 273.258 250.677 275.701 250.677 275.701L251.514 232.046C247.888 224.784 242.89 218.804 242.098 219.328Z" fill="#263238" stroke="#263238" stroke-linecap="round" stroke-linejoin="round"/>
<path d="M314.826 229.949L297.667 259.357C291.944 269.164 285.395 280.554 273.971 283.053C262.547 285.552 251.514 287.136 245.378 277.33C239.242 267.524 232.715 254.46 236.798 236.487C240.882 218.514 247.832 213.203 256.411 206.666C264.99 200.128 273.547 196.045 283.354 199.704C293.16 203.364 314.826 229.949 314.826 229.949Z" fill="white" stroke="#263238" stroke-linecap="round" stroke-linejoin="round"/>
<path d="M280.096 240.046C279.237 241.563 277.798 242.377 276.894 241.853C275.99 241.329 275.946 239.689 276.805 238.171C277.664 236.654 279.103 235.851 280.018 236.364C280.933 236.877 280.966 238.528 280.096 240.046Z" fill="#263238" stroke="#263238" stroke-linecap="round" stroke-linejoin="round"/>
<path d="M297.846 248.446C296.987 249.964 295.548 250.778 294.644 250.265C293.74 249.752 293.696 248.089 294.555 246.572C295.414 245.055 296.853 244.251 297.768 244.765C298.682 245.278 298.716 246.94 297.846 248.446Z" fill="#263238" stroke="#263238" stroke-linecap="round" stroke-linejoin="round"/>
<path d="M275.109 227.807C277.167 227.438 279.279 227.496 281.313 227.977C283.348 228.459 285.261 229.354 286.935 230.607" stroke="#263238" stroke-width="2" stroke-linecap="round" stroke-linejoin="round"/>
<path d="M297.544 236.643C297.544 236.643 305.856 237.078 305.499 243.114" stroke="#263238" stroke-width="2" stroke-linecap="round" stroke-linejoin="round"/>
<path d="M266.028 257.963C266.028 257.963 268.259 265.069 279.058 268.282" stroke="#263238" stroke-linecap="round" stroke-linejoin="round"/>
<path d="M294.9 242.098L292.379 248C292.379 248 286.801 261.957 285.808 263.82C284.815 265.683 277.207 261.901 275.109 258.532" stroke="#263238" stroke-linecap="round" stroke-linejoin="round"/>
<path d="M247.408 226.68C247.408 226.68 248.635 226.68 251.87 224.639C255.106 222.597 258.821 226.279 266.574 223.411C274.328 220.544 263.306 209.522 273.926 208.707C284.547 207.893 290.271 225.051 303.335 231.176C316.399 237.301 325.402 234.858 331.114 220.143C336.826 205.427 328.671 196.859 322.133 190.333C315.595 183.807 322.133 182.524 320.091 172.36C318.05 162.197 307.819 158.058 298.035 161.739C288.251 165.421 290.672 168.277 285.362 168.277C280.051 168.277 275.154 161.327 260.45 164.183C245.746 167.039 234.31 182.568 232.67 197.272C231.03 211.976 235.939 227.495 237.981 228.32C240.022 229.146 247.408 226.68 247.408 226.68Z" fill="#263238" stroke="#263238" stroke-linecap="round" stroke-linejoin="round"/>
<path d="M247.43 232.058C247.43 232.058 251.469 219.518 247.185 215.803C242.901 212.088 235.794 214.464 234.333 220.009C232.871 225.553 230.562 235.505 232.983 238.049C235.404 240.592 240.134 239.822 240.134 239.822" fill="white"/>
<path d="M247.43 232.058C247.43 232.058 251.469 219.518 247.185 215.803C242.901 212.088 235.794 214.464 234.333 220.009C232.871 225.553 230.562 235.505 232.983 238.049C235.404 240.592 240.134 239.822 240.134 239.822" stroke="#263238" stroke-linecap="round" stroke-linejoin="round"/>
<path d="M382.879 466.396L365.319 401.879C364.024 397.114 361.196 392.908 357.272 389.91C353.348 386.912 348.547 385.288 343.609 385.29H273.358C267.746 385.288 262.336 387.384 258.19 391.165C254.043 394.946 251.459 400.14 250.945 405.728L245.366 466.396H382.879Z" fill="#263238" stroke="#263238" stroke-linecap="round" stroke-linejoin="round"/>
<path d="M332.787 334.138C332.787 334.138 280.085 357.834 277.642 360.277C275.198 362.72 260.07 466.396 260.07 466.396H441.851C441.851 466.396 413.659 357.008 409.989 354.565C406.319 352.122 358.112 332.096 356.885 332.096C355.658 332.096 332.787 334.138 332.787 334.138Z" fill="#407BFF" stroke="#263238" stroke-linecap="round" stroke-linejoin="round"/>
<path d="M396.267 338.6C396.267 338.6 401.477 338.846 402.425 340.263C403.373 341.68 405.772 350.448 404.79 352.535C403.808 354.621 401.711 352.769 400.328 350.17C398.944 347.57 397.717 344.96 397.717 344.96L395.106 343.063L396.267 338.6Z" fill="white" stroke="#263238" stroke-linecap="round" stroke-linejoin="round"/>
<path d="M389.573 333.39C389.573 333.39 396.211 334.104 397.159 336.47C398.108 338.835 397.862 345.004 396.914 348.552C395.966 352.1 394.314 354.476 392.886 353.293C391.458 352.111 388.625 339.549 388.625 338.132C388.625 336.715 388.859 333.39 389.573 333.39Z" fill="white" stroke="#263238" stroke-linecap="round" stroke-linejoin="round"/>
<path d="M384.843 330.077C384.843 330.077 391.001 331.739 392.184 333.424C393.366 335.109 393.366 344.324 392.184 347.871C391.001 351.419 388.156 352.334 386.728 351.43C385.3 350.527 383.895 344.558 383.895 341.713C383.895 338.868 384.843 330.077 384.843 330.077Z" fill="white" stroke="#263238" stroke-linecap="round" stroke-linejoin="round"/>
<path d="M377.011 329.051C377.011 329.051 383.27 326.641 385.189 329.051C387.107 331.46 386.148 349.734 384.709 351.665C383.27 353.595 378.93 351.665 378.93 349.255C378.93 346.845 377.301 340.274 377.301 340.274L369.837 337.239C369.837 337.239 373.642 329.051 377.011 329.051Z" fill="white" stroke="#263238" stroke-linecap="round" stroke-linejoin="round"/>
<path d="M377.256 340.263L376.553 334.584" stroke="#263238" stroke-linecap="round" stroke-linejoin="round"/>
<path d="M329.853 335.945C329.853 335.945 321.899 337.529 321.374 343.9C320.85 350.27 322.434 381.53 326.674 384.71C330.913 387.889 351.641 373.04 351.641 373.04C351.641 373.04 368.008 381.552 371.723 378.875C375.438 376.197 372.247 348.663 364.304 338.065C356.361 327.466 329.853 335.945 329.853 335.945Z" fill="white" stroke="#263238" stroke-linecap="round" stroke-linejoin="round"/>
<path d="M297.355 432.213L305.41 389.563" stroke="#263238" stroke-linecap="round" stroke-linejoin="round"/>
<path d="M396.345 381.508L406.006 416.472L399.569 465.214" stroke="#263238" stroke-linecap="round" stroke-linejoin="round"/>
<path d="M306.681 329.095C320.557 329.095 331.805 318.396 331.805 305.198C331.805 292.001 320.557 281.302 306.681 281.302C292.806 281.302 281.557 292.001 281.557 305.198C281.557 318.396 292.806 329.095 306.681 329.095Z" fill="#263238" stroke="#263238" stroke-linecap="round" stroke-linejoin="round"/>
<path d="M316.086 326.886C317.342 326.393 318.545 325.777 319.679 325.046" stroke="#6E6E6E" stroke-linecap="round" stroke-linejoin="round"/>
<path d="M284.703 294.254C284.703 294.254 278.768 310.319 288.552 321.141C295.436 328.772 304.919 329.642 312.114 328.024" stroke="#6E6E6E" stroke-linecap="round" stroke-linejoin="round"/>
<path d="M327.878 320.661C327.878 320.661 327.477 336.592 327.477 341.088C327.477 345.584 340.954 365.632 349.12 366.815C357.286 367.997 360.555 352.925 360.968 345.986C361.381 339.047 363.01 329.252 363.01 329.252C363.01 329.252 339.369 334.138 327.878 320.661Z" fill="white" stroke="#263238" stroke-linecap="round" stroke-linejoin="round"/>
<path d="M357.699 336.001L353.549 330.099C345.65 330.166 334.583 328.616 327.89 320.661C327.89 320.661 327.633 330.947 327.521 337.318C346.487 341.323 357.699 336.001 357.699 336.001Z" fill="#263238" stroke="#263238" stroke-linecap="round" stroke-linejoin="round"/>
<path d="M319.712 308.813C319.712 308.813 324.61 322.29 331.56 328.828C338.51 335.365 351.987 343.944 361.381 339.036C370.775 334.127 376.899 327.6 379.354 312.495C381.808 297.389 379.354 262.659 379.354 262.659C379.354 262.659 378.127 255.307 365.051 252.853C351.976 250.399 329.518 254.895 325.022 263.887C320.526 272.879 319.288 284.715 319.288 292.067C319.288 299.419 319.712 308.813 319.712 308.813Z" fill="white" stroke="#263238" stroke-linecap="round" stroke-linejoin="round"/>
<path d="M350.292 298.148C351.339 298.148 352.188 296.734 352.188 294.99C352.188 293.247 351.339 291.833 350.292 291.833C349.244 291.833 348.395 293.247 348.395 294.99C348.395 296.734 349.244 298.148 350.292 298.148Z" fill="#263238" stroke="#263238" stroke-linecap="round" stroke-linejoin="round"/>
<path d="M371.778 293.507C371.778 295.258 370.931 296.675 369.882 296.675C368.833 296.675 367.985 295.258 367.985 293.507C367.985 291.755 368.833 290.349 369.882 290.349C370.931 290.349 371.778 291.766 371.778 293.507Z" fill="#263238" stroke="#263238" stroke-linecap="round" stroke-linejoin="round"/>
<path d="M344.602 288.04C344.602 288.04 346.286 282.562 353.449 283.399" stroke="#263238" stroke-linecap="round" stroke-linejoin="round"/>
<path d="M365.665 283.377C365.665 283.377 369.882 277.486 375.773 285.061" stroke="#263238" stroke-linecap="round" stroke-linejoin="round"/>
<path d="M365.665 295.649C365.665 295.649 363.98 300.279 365.665 302.342C367.35 304.406 368.198 308.668 365.241 309.505C363.05 310.047 360.804 310.331 358.547 310.353" stroke="#263238" stroke-linecap="round" stroke-linejoin="round"/>
<path d="M348.819 317.515C348.819 317.515 354.297 322.58 365.241 320.048" stroke="#263238" stroke-linecap="round" stroke-linejoin="round"/>
<path d="M372.403 261.923L380.826 281.714C380.826 281.714 390.521 274.139 388.837 261.499C387.152 248.859 379.99 248.022 379.99 248.022L372.403 261.923Z" fill="#263238" stroke="#263238" stroke-linecap="round" stroke-linejoin="round"/>
<path d="M317.258 289.613C317.258 289.613 318.842 295.191 323.74 291.51C328.637 287.828 334.004 276.136 334.004 276.136C334.004 276.136 327.477 284.715 331.56 287.17C335.643 289.624 352.757 285.117 371.589 266.743C390.421 248.368 386.706 237.736 377.714 230.384C368.722 223.032 348.306 234.847 348.306 234.847C348.306 234.847 334.003 230.384 316.042 240.972C298.08 251.559 301.327 276.516 304.194 281C307.061 285.485 307.463 293.696 317.258 289.613Z" fill="#263238" stroke="#263238" stroke-linecap="round" stroke-linejoin="round"/>
<path d="M321.709 294.076C321.709 294.076 318.44 283.856 313.13 284.269C307.819 284.682 304.55 301.004 311.088 308.367C317.626 315.73 321.296 309.594 321.296 309.594" fill="white"/>
<path d="M321.709 294.076C321.709 294.076 318.44 283.856 313.13 284.269C307.819 284.682 304.55 301.004 311.088 308.367C317.626 315.73 321.296 309.594 321.296 309.594" stroke="#263238" stroke-linecap="round" stroke-linejoin="round"/>
<path d="M318.819 307.921C318.822 308.442 318.669 308.952 318.381 309.386C318.093 309.821 317.683 310.16 317.202 310.361C316.721 310.562 316.191 310.616 315.68 310.515C315.168 310.415 314.698 310.165 314.329 309.797C313.96 309.43 313.708 308.961 313.605 308.45C313.503 307.939 313.554 307.409 313.753 306.927C313.952 306.445 314.289 306.033 314.723 305.743C315.156 305.454 315.665 305.299 316.187 305.299C316.883 305.299 317.551 305.575 318.044 306.066C318.538 306.557 318.817 307.224 318.819 307.921Z" fill="#407BFF" stroke="#263238" stroke-linecap="round" stroke-linejoin="round"/>
<path d="M372.002 371.311L384.274 397.863C384.274 397.863 430.84 425.229 433.696 426.456C436.552 427.684 444.317 435.036 445.544 444.831C446.771 454.626 441.082 460.361 434.109 460.361C427.136 460.361 420.632 458.721 415.322 454.236C410.011 449.751 374.467 405.628 374.467 405.628C374.467 405.628 366.714 401.165 364.672 399.492C362.63 397.818 360.578 393.367 360.578 393.367C360.578 393.367 356.494 395.408 353.638 395.007C350.782 394.605 346.286 385.2 346.286 385.2C346.286 385.2 350.749 370.496 352.01 368.466C353.27 366.435 364.281 366.012 364.281 366.012L372.002 371.311Z" fill="white" stroke="#263238" stroke-linecap="round" stroke-linejoin="round"/>
<path d="M355.245 389.284L359.741 387.644L360.556 389.696V393.367" stroke="#263238" stroke-linecap="round" stroke-linejoin="round"/>
<path d="M329.519 393.824L339.727 362.776C339.727 362.776 351.575 358.314 354.843 357.466C358.112 356.618 367.907 365.275 369.96 365.632C372.013 365.989 373.218 370.943 372.002 371.355C370.786 371.768 366.691 369.715 366.691 369.715L354.419 371.768C354.419 371.768 350.749 390.957 346.666 395.453C343.314 398.829 339.615 401.843 335.632 404.445C335.632 404.445 296.016 451.837 293.16 456.3C290.304 460.762 276.426 468.962 266.608 463.239C256.79 457.516 262.145 443.637 264.979 438.695C267.813 433.753 329.519 393.824 329.519 393.824Z" fill="white" stroke="#263238" stroke-linecap="round" stroke-linejoin="round"/>
<path d="M369.96 365.588L359.451 363.312L351.999 364.974" stroke="#263238" stroke-linecap="round" stroke-linejoin="round"/>
<path d="M347.558 362.096L358.625 360.009L361.939 360.422" stroke="#263238" stroke-linecap="round" stroke-linejoin="round"/>
<path d="M201.422 253.712C201.422 253.712 208.785 273.325 207.558 292.927C206.331 312.528 212.455 376.666 214.095 383.605C215.735 390.544 217.766 402.403 217.766 402.403C217.766 402.403 281.892 433.44 293.339 437.936C301.741 441.079 310.334 443.687 319.065 445.746C319.065 445.746 343.163 437.568 345.617 435.527C348.072 433.485 354.196 436.341 354.196 436.341C354.196 436.341 367.272 440.023 368.086 441.25C368.9 442.477 368.488 458.81 368.488 458.81C368.488 458.81 370.128 463.272 368.9 463.719C367.673 464.165 354.196 467.389 349.7 466.162C345.204 464.935 333.368 459.624 333.368 459.624C333.368 459.624 324.376 462.893 319.88 462.079C315.384 461.264 309.672 460.037 309.672 460.037C309.672 460.037 233.697 447.765 213.27 442.879C192.843 437.992 180.191 435.125 178.15 427.773C176.108 420.421 155.268 330.144 154.454 325.246" fill="#7D7D7D"/>
<path d="M201.422 253.712C201.422 253.712 208.785 273.325 207.558 292.927C206.331 312.528 212.455 376.666 214.095 383.605C215.735 390.544 217.766 402.403 217.766 402.403C217.766 402.403 281.892 433.44 293.339 437.936C301.741 441.079 310.334 443.687 319.065 445.746C319.065 445.746 343.163 437.568 345.617 435.527C348.072 433.485 354.196 436.341 354.196 436.341C354.196 436.341 367.272 440.023 368.086 441.25C368.9 442.477 368.488 458.81 368.488 458.81C368.488 458.81 370.128 463.272 368.9 463.719C367.673 464.165 354.196 467.389 349.7 466.162C345.204 464.935 333.368 459.624 333.368 459.624C333.368 459.624 324.376 462.893 319.88 462.079C315.384 461.264 309.672 460.037 309.672 460.037C309.672 460.037 233.697 447.765 213.27 442.879C192.843 437.992 180.191 435.125 178.15 427.773C176.108 420.421 155.268 330.144 154.454 325.246" stroke="#263238" stroke-linecap="round" stroke-linejoin="round"/>
<path d="M338.41 450.398H363.913C366.369 450.398 368.725 451.374 370.461 453.11C372.198 454.847 373.173 457.202 373.173 459.658V466.352H329.15V459.658C329.15 457.202 330.126 454.847 331.863 453.11C333.599 451.374 335.954 450.398 338.41 450.398Z" fill="#263238" stroke="#263238" stroke-linecap="round" stroke-linejoin="round"/>
<path d="M349.7 466.117C354.163 467.344 367.673 464.076 368.9 463.674C370.128 463.272 368.488 458.765 368.488 458.765C368.488 458.765 368.9 442.432 368.086 441.205C367.271 439.978 354.196 436.296 354.196 436.296C354.196 436.296 348.071 433.44 345.617 435.482C343.163 437.524 319.065 445.701 319.065 445.701C310.333 443.643 301.741 441.035 293.339 437.892C289.289 436.308 278.668 431.399 266.619 425.72C251.235 429.848 249.996 443.269 250.376 449.952C278.266 454.883 309.671 459.992 309.671 459.992C309.671 459.992 315.395 461.22 319.879 462.034C324.364 462.848 333.367 459.58 333.367 459.58C333.367 459.58 345.215 464.89 349.7 466.117Z" fill="white" stroke="#263238" stroke-linecap="round" stroke-linejoin="round"/>
<path d="M353.783 440.391C353.783 440.391 360.734 448.557 363.177 451.826C365.62 455.095 368.487 458.765 368.487 458.765" stroke="#263238" stroke-linecap="round" stroke-linejoin="round"/>
<path d="M343.575 442.834C343.575 442.834 354.196 453.868 357.052 455.909C359.908 457.951 363.59 464.89 363.59 464.89" stroke="#263238" stroke-linecap="round" stroke-linejoin="round"/>
<path d="M334.996 449.784C334.996 449.784 348.473 459.58 350.113 460.807C351.986 462.471 353.759 464.244 355.423 466.117" stroke="#263238" stroke-linecap="round" stroke-linejoin="round"/>
<path d="M275.845 430.082C272.934 428.732 269.832 427.282 266.619 425.765C251.235 429.893 249.996 443.314 250.376 449.996L261.443 451.938C262.804 439.755 270.992 433.039 275.845 430.082Z" fill="#407BFF" stroke="#263238" stroke-linecap="round" stroke-linejoin="round"/>
<path d="M401.287 459.156H567.36V466.34H394.739V465.649C394.756 463.922 395.453 462.273 396.679 461.057C397.905 459.842 399.561 459.159 401.287 459.156Z" fill="#263238" stroke="#263238" stroke-linecap="round" stroke-linejoin="round"/>
<path d="M567.36 459.156H462.335V466.396H567.36V459.156Z" fill="white" stroke="#263238" stroke-linecap="round" stroke-linejoin="round"/>
<path d="M578.829 377.67H473.803L462.335 458.542H567.36L578.829 377.67Z" fill="white" stroke="#263238" stroke-linecap="round" stroke-linejoin="round"/>
<path d="M567.36 458.531L577.401 387.521C563.824 398.086 544.256 414.408 521.854 432.983C504.751 447.218 490.426 454.66 479.939 458.531H567.36Z" fill="#263238" stroke="#263238" stroke-linecap="round" stroke-linejoin="round"/>
<path d="M523.103 431.376C528.661 431.376 533.166 427.595 533.166 422.931C533.166 418.267 528.661 414.486 523.103 414.486C517.546 414.486 513.04 418.267 513.04 422.931C513.04 427.595 517.546 431.376 523.103 431.376Z" fill="white" stroke="#263238" stroke-linecap="round" stroke-linejoin="round"/>
<path d="M609.353 466.396H619.226" stroke="#263238" stroke-linecap="round" stroke-linejoin="round"/>
<path d="M11.3738 466.396H601.543" stroke="#263238" stroke-linecap="round" stroke-linejoin="round"/>
<path d="M505.927 146.409C508.03 136.28 501.524 126.364 491.395 124.26C481.266 122.157 471.35 128.664 469.247 138.793C467.143 148.922 473.65 158.838 483.779 160.941C493.908 163.044 503.824 156.538 505.927 146.409Z" fill="#407BFF" stroke="#263238" stroke-linecap="round" stroke-linejoin="round"/>
<path d="M487.023 140.442V212.612" stroke="#263238" stroke-linecap="round" stroke-linejoin="round"/>
<path d="M487.023 151.096L497.678 140.051" stroke="#263238" stroke-linecap="round" stroke-linejoin="round"/>
<path d="M486.232 156.619L480.118 150.505" stroke="#263238" stroke-linecap="round" stroke-linejoin="round"/>
<path d="M465.719 177.594C472.093 174.933 475.103 167.608 472.442 161.235C469.781 154.861 462.457 151.851 456.083 154.512C449.709 157.173 446.699 164.497 449.36 170.871C452.021 177.245 459.345 180.255 465.719 177.594Z" fill="#407BFF" stroke="#263238" stroke-linecap="round" stroke-linejoin="round"/>
<path d="M460.505 164.584V212.78" stroke="#263238" stroke-linecap="round" stroke-linejoin="round"/>
<path d="M460.505 171.691L467.623 164.316" stroke="#263238" stroke-linecap="round" stroke-linejoin="round"/>
<path d="M459.981 175.372L455.897 171.3" stroke="#263238" stroke-linecap="round" stroke-linejoin="round"/>
<path d="M581.35 168.333C588.257 168.333 593.856 162.733 593.856 155.826C593.856 148.919 588.257 143.32 581.35 143.32C574.443 143.32 568.844 148.919 568.844 155.826C568.844 162.733 574.443 168.333 581.35 168.333Z" fill="#407BFF" stroke="#263238" stroke-linecap="round" stroke-linejoin="round"/>
<path d="M580.949 154.376V202.583" stroke="#263238" stroke-linecap="round" stroke-linejoin="round"/>
<path d="M580.949 161.494L588.066 154.12" stroke="#263238" stroke-linecap="round" stroke-linejoin="round"/>
<path d="M580.424 165.175L576.341 161.092" stroke="#263238" stroke-linecap="round" stroke-linejoin="round"/>
<path d="M589.327 185.937H461.587V226.245H589.327V185.937Z" fill="white" stroke="#263238" stroke-linecap="round" stroke-linejoin="round"/>
<path d="M525.625 149.155L461.933 185.937H589.327L525.625 149.155Z" fill="#407BFF" stroke="#263238" stroke-linecap="round" stroke-linejoin="round"/>
<path d="M551.34 182.657H519.734V226.245H551.34V182.657Z" fill="white" stroke="#263238" stroke-linecap="round" stroke-linejoin="round"/>
<path d="M551.34 182.657H519.734V184.509H551.34V182.657Z" fill="#263238" stroke="#263238" stroke-linecap="round" stroke-linejoin="round"/>
<path d="M543.43 226.245H527.644V199.001C527.644 196.91 528.475 194.903 529.954 193.424C531.433 191.945 533.439 191.114 535.531 191.114C536.568 191.112 537.595 191.315 538.553 191.711C539.511 192.107 540.382 192.688 541.116 193.42C541.849 194.153 542.431 195.023 542.828 195.98C543.226 196.938 543.43 197.965 543.43 199.001V226.245Z" fill="#263238" stroke="#263238" stroke-linecap="round" stroke-linejoin="round"/>
<path d="M525.636 192.999H452.417V226.245H525.636V192.999Z" fill="white" stroke="#263238" stroke-linecap="round" stroke-linejoin="round"/>
<path d="M525.636 192.999H452.417V194.483H525.636V192.999Z" fill="#263238" stroke="#263238" stroke-linecap="round" stroke-linejoin="round"/>
<path d="M517.581 195.744H460.471V226.245H517.581V195.744Z" fill="#407BFF" stroke="#263238" stroke-linecap="round" stroke-linejoin="round"/>
<path d="M489.032 168.679L450.174 191.114H527.889L489.032 168.679Z" fill="#407BFF" stroke="#263238" stroke-linecap="round" stroke-linejoin="round"/>
<path d="M527.889 191.114H450.174V192.999H527.889V191.114Z" fill="white" stroke="#263238" stroke-linecap="round" stroke-linejoin="round"/>
<path d="M535.531 170.006L515.405 181.631H555.657L535.531 170.006Z" fill="#407BFF" stroke="#263238" stroke-linecap="round" stroke-linejoin="round"/>
<path d="M555.669 181.631H515.417V183.494H555.669V181.631Z" fill="white" stroke="#263238" stroke-linecap="round" stroke-linejoin="round"/>
<path d="M467.188 198.187H462.558V202.817H467.188V198.187Z" fill="white" stroke="#263238" stroke-width="0.5" stroke-linecap="round" stroke-linejoin="round"/>
<path d="M474.127 198.187H469.497V202.817H474.127V198.187Z" fill="white" stroke="#263238" stroke-width="0.5" stroke-linecap="round" stroke-linejoin="round"/>
<path d="M481.055 198.187H476.425V202.817H481.055V198.187Z" fill="white" stroke="#263238" stroke-width="0.5" stroke-linecap="round" stroke-linejoin="round"/>
<path d="M487.994 198.187H483.364V202.817H487.994V198.187Z" fill="white" stroke="#263238" stroke-width="0.5" stroke-linecap="round" stroke-linejoin="round"/>
<path d="M494.933 198.187H490.303V202.817H494.933V198.187Z" fill="white" stroke="#263238" stroke-width="0.5" stroke-linecap="round" stroke-linejoin="round"/>
<path d="M501.873 198.187H497.243V202.817H501.873V198.187Z" fill="white" stroke="#263238" stroke-width="0.5" stroke-linecap="round" stroke-linejoin="round"/>
<path d="M508.801 198.187H504.171V202.817H508.801V198.187Z" fill="white" stroke="#263238" stroke-width="0.5" stroke-linecap="round" stroke-linejoin="round"/>
<path d="M515.74 198.187H511.11V202.817H515.74V198.187Z" fill="white" stroke="#263238" stroke-width="0.5" stroke-linecap="round" stroke-linejoin="round"/>
<path d="M467.188 204.992H462.558V209.622H467.188V204.992Z" fill="white" stroke="#263238" stroke-width="0.5" stroke-linecap="round" stroke-linejoin="round"/>
<path d="M474.127 204.992H469.497V209.622H474.127V204.992Z" fill="white" stroke="#263238" stroke-width="0.5" stroke-linecap="round" stroke-linejoin="round"/>
<path d="M481.055 204.992H476.425V209.622H481.055V204.992Z" fill="white" stroke="#263238" stroke-width="0.5" stroke-linecap="round" stroke-linejoin="round"/>
<path d="M487.994 204.992H483.364V209.622H487.994V204.992Z" fill="white" stroke="#263238" stroke-width="0.5" stroke-linecap="round" stroke-linejoin="round"/>
<path d="M494.933 204.992H490.303V209.622H494.933V204.992Z" fill="white" stroke="#263238" stroke-width="0.5" stroke-linecap="round" stroke-linejoin="round"/>
<path d="M501.873 204.992H497.243V209.622H501.873V204.992Z" fill="white" stroke="#263238" stroke-width="0.5" stroke-linecap="round" stroke-linejoin="round"/>
<path d="M508.801 204.992H504.171V209.622H508.801V204.992Z" fill="white" stroke="#263238" stroke-width="0.5" stroke-linecap="round" stroke-linejoin="round"/>
<path d="M515.74 204.992H511.11V209.622H515.74V204.992Z" fill="white" stroke="#263238" stroke-width="0.5" stroke-linecap="round" stroke-linejoin="round"/>
<path d="M467.188 211.798H462.558V216.428H467.188V211.798Z" fill="white" stroke="#263238" stroke-width="0.5" stroke-linecap="round" stroke-linejoin="round"/>
<path d="M474.127 211.798H469.497V216.428H474.127V211.798Z" fill="white" stroke="#263238" stroke-width="0.5" stroke-linecap="round" stroke-linejoin="round"/>
<path d="M481.055 211.798H476.425V216.428H481.055V211.798Z" fill="white" stroke="#263238" stroke-width="0.5" stroke-linecap="round" stroke-linejoin="round"/>
<path d="M487.994 211.798H483.364V216.428H487.994V211.798Z" fill="white" stroke="#263238" stroke-width="0.5" stroke-linecap="round" stroke-linejoin="round"/>
<path d="M494.933 211.798H490.303V216.428H494.933V211.798Z" fill="white" stroke="#263238" stroke-width="0.5" stroke-linecap="round" stroke-linejoin="round"/>
<path d="M501.873 211.798H497.243V216.428H501.873V211.798Z" fill="white" stroke="#263238" stroke-width="0.5" stroke-linecap="round" stroke-linejoin="round"/>
<path d="M508.801 211.798H504.171V216.428H508.801V211.798Z" fill="white" stroke="#263238" stroke-width="0.5" stroke-linecap="round" stroke-linejoin="round"/>
<path d="M515.74 211.798H511.11V216.428H515.74V211.798Z" fill="white" stroke="#263238" stroke-width="0.5" stroke-linecap="round" stroke-linejoin="round"/>
<path d="M467.188 218.603H462.558V223.233H467.188V218.603Z" fill="white" stroke="#263238" stroke-width="0.5" stroke-linecap="round" stroke-linejoin="round"/>
<path d="M474.127 218.603H469.497V223.233H474.127V218.603Z" fill="white" stroke="#263238" stroke-width="0.5" stroke-linecap="round" stroke-linejoin="round"/>
<path d="M481.055 218.603H476.425V223.233H481.055V218.603Z" fill="white" stroke="#263238" stroke-width="0.5" stroke-linecap="round" stroke-linejoin="round"/>
<path d="M487.994 218.603H483.364V223.233H487.994V218.603Z" fill="white" stroke="#263238" stroke-width="0.5" stroke-linecap="round" stroke-linejoin="round"/>
<path d="M494.933 218.603H490.303V223.233H494.933V218.603Z" fill="white" stroke="#263238" stroke-width="0.5" stroke-linecap="round" stroke-linejoin="round"/>
<path d="M501.873 218.603H497.243V223.233H501.873V218.603Z" fill="white" stroke="#263238" stroke-width="0.5" stroke-linecap="round" stroke-linejoin="round"/>
<path d="M508.801 218.603H504.171V223.233H508.801V218.603Z" fill="white" stroke="#263238" stroke-width="0.5" stroke-linecap="round" stroke-linejoin="round"/>
<path d="M515.74 218.603H511.11V223.233H515.74V218.603Z" fill="white" stroke="#263238" stroke-width="0.5" stroke-linecap="round" stroke-linejoin="round"/>
<path d="M592.953 226.245H546.241V182.657L569.603 170.006L592.953 182.657V226.245Z" fill="white" stroke="#263238" stroke-linecap="round" stroke-linejoin="round"/>
<path d="M596.523 184.521L569.603 169.928L542.682 184.521L541.834 182.97L569.603 167.931L597.36 182.97L596.523 184.521Z" fill="white" stroke="#263238" stroke-linecap="round" stroke-linejoin="round"/>
<path d="M546.241 182.657V183.717L569.603 171.066L592.953 183.717V182.657L569.603 170.006L546.241 182.657Z" fill="#263238" stroke="#263238" stroke-linecap="round" stroke-linejoin="round"/>
<path d="M578.182 197.596H570.35V203.04H578.182V197.596Z" fill="#263238" stroke="#263238" stroke-linecap="round" stroke-linejoin="round"/>
<path d="M578.182 204.836H570.35V210.281H578.182V204.836Z" fill="#263238" stroke="#263238" stroke-linecap="round" stroke-linejoin="round"/>
<path d="M578.182 189.998H570.35V195.811H578.182V189.998Z" fill="#263238" stroke="#263238" stroke-linecap="round" stroke-linejoin="round"/>
<path d="M568.554 189.998H560.722V195.811H568.554V189.998Z" fill="#263238" stroke="#263238" stroke-linecap="round" stroke-linejoin="round"/>
<path d="M568.554 204.836H560.722V210.281H568.554V204.836Z" fill="#263238" stroke="#263238" stroke-linecap="round" stroke-linejoin="round"/>
<path d="M568.554 197.596H560.722V203.04H568.554V197.596Z" fill="#263238" stroke="#263238" stroke-linecap="round" stroke-linejoin="round"/>
<path d="M578.182 212.077H570.35V217.086H578.182V212.077Z" fill="#263238" stroke="#263238" stroke-linecap="round" stroke-linejoin="round"/>
<path d="M568.554 212.077H560.722V217.086H568.554V212.077Z" fill="#263238" stroke="#263238" stroke-linecap="round" stroke-linejoin="round"/>
<path d="M563.511 243.058H482.561C478.248 243.058 474.752 246.554 474.752 250.867V272.265C474.752 276.578 478.248 280.074 482.561 280.074H563.511C567.824 280.074 571.321 276.578 571.321 272.265V250.867C571.321 246.554 567.824 243.058 563.511 243.058Z" fill="#407BFF" stroke="#263238" stroke-linecap="round" stroke-linejoin="round"/>
<path d="M503.602 254.147C505.833 254.147 507.038 255.508 507.038 257.896V258.364H504.807V257.717C504.807 256.657 504.383 256.256 503.636 256.256C502.888 256.256 502.52 256.657 502.52 257.717C502.52 260.785 507.083 261.354 507.083 265.605C507.083 267.992 505.9 269.353 503.602 269.353C501.304 269.353 500.11 267.992 500.11 265.605V264.69H502.341V265.806C502.341 266.865 502.81 267.245 503.557 267.245C504.305 267.245 504.773 266.865 504.773 265.806C504.773 262.738 500.199 262.169 500.199 257.918C500.155 255.486 501.326 254.147 503.602 254.147Z" fill="#263238"/>
<path d="M510.742 260.595H513.944V262.715H510.742V267.077H514.781V269.197H508.399V254.37H514.781V256.49H510.742V260.595Z" fill="#263238"/>
<path d="M516.22 254.37H518.551V267.122H522.4V269.242H516.22V254.37Z" fill="#263238"/>
<path d="M525.758 260.595H529.027V262.715H525.814V267.077H529.853V269.197H523.449V254.37H529.83V256.49H525.792L525.758 260.595Z" fill="#263238"/>
<path d="M538.019 263.652V265.627C538.019 268.014 536.825 269.376 534.538 269.376C532.251 269.376 531.046 268.014 531.046 265.627V257.896C531.046 255.508 532.24 254.147 534.538 254.147C536.837 254.147 538.019 255.508 538.019 257.896V259.335H535.788V257.717C535.788 256.657 535.319 256.256 534.572 256.256C533.824 256.256 533.367 256.657 533.367 257.717V265.761C533.367 266.821 533.835 267.2 534.572 267.2C535.308 267.2 535.788 266.821 535.788 265.761V263.63L538.019 263.652Z" fill="#263238"/>
<path d="M538.767 254.37H545.985V256.49H543.53V269.242H541.199V256.445H538.755L538.767 254.37Z" fill="#263238"/>
<path d="M554.687 297.077C554.687 297.077 549.889 289.334 548.339 288.152C546.788 286.969 543.073 287.036 542.459 289.691C541.846 292.346 543.385 293.719 544.467 294.801C545.871 296.579 547.164 298.442 548.339 300.379C549.666 302.532 549.956 305.846 551.128 308.188C553.805 313.555 559.06 318.106 565.307 318.14C572.224 318.14 578.851 312.216 579.811 305.321C580.19 302.398 580.257 294.254 580.268 291.443C580.278 290.815 580.06 290.204 579.654 289.725C579.134 289.125 578.418 288.729 577.633 288.608C576.849 288.488 576.046 288.65 575.37 289.067L574.857 289.379L574.311 288.52C573.913 287.842 573.323 287.298 572.615 286.958C572.013 286.64 571.323 286.527 570.651 286.636C569.979 286.744 569.36 287.069 568.889 287.56L568.353 288.152L567.728 287.136C566.367 285.496 563.422 285.34 562.15 287.058V274.786C562.15 273.819 561.766 272.891 561.082 272.207C560.397 271.523 559.47 271.138 558.502 271.138C557.534 271.138 556.607 271.523 555.922 272.207C555.238 272.891 554.854 273.819 554.854 274.786L554.687 297.077Z" fill="white" stroke="#263238" stroke-linecap="round" stroke-linejoin="round"/>
<path d="M568.264 288.107V295.225" stroke="#263238" stroke-linecap="round" stroke-linejoin="round"/>
<path d="M574.768 289.334V295.682" stroke="#263238" stroke-linecap="round" stroke-linejoin="round"/>
<path d="M562.072 287.014V294.288" stroke="#263238" stroke-linecap="round" stroke-linejoin="round"/>
<path d="M558.424 261.198V268.427" stroke="#263238" stroke-linecap="round" stroke-linejoin="round"/>
<path d="M564.27 272.879H570.395" stroke="#263238" stroke-linecap="round" stroke-linejoin="round"/>
<path d="M545.628 272.879H551.753" stroke="#263238" stroke-linecap="round" stroke-linejoin="round"/>
<path d="M562.875 268.427L565.386 265.37" stroke="#263238" stroke-linecap="round" stroke-linejoin="round"/>
<path d="M553.136 268.427L550.637 265.37" stroke="#263238" stroke-linecap="round" stroke-linejoin="round"/>
<path d="M599.624 96.9769H446.928C442.202 96.9769 438.371 100.808 438.371 105.534V320.193C438.371 324.918 442.202 328.75 446.928 328.75H599.624C604.35 328.75 608.181 324.918 608.181 320.193V105.534C608.181 100.808 604.35 96.9769 599.624 96.9769Z" stroke="#263238" stroke-linecap="round" stroke-linejoin="round"/>
<path d="M598.933 96.9769H447.586C445.13 96.9769 442.775 97.9524 441.038 99.689C439.302 101.426 438.326 103.781 438.326 106.237V108.222H608.237V106.214C608.236 104.996 607.993 103.79 607.524 102.666C607.056 101.541 606.369 100.52 605.504 99.662C604.64 98.8036 603.614 98.1245 602.486 97.6637C601.359 97.2029 600.151 96.9695 598.933 96.9769Z" fill="#263238" stroke="#263238" stroke-linecap="round" stroke-linejoin="round"/>
<path d="M582.433 104.998C583.874 104.998 585.043 103.829 585.043 102.388C585.043 100.946 583.874 99.7771 582.433 99.7771C580.991 99.7771 579.822 100.946 579.822 102.388C579.822 103.829 580.991 104.998 582.433 104.998Z" fill="white" stroke="#263238" stroke-linecap="round" stroke-linejoin="round"/>
<path d="M592.094 104.998C593.536 104.998 594.705 103.829 594.705 102.388C594.705 100.946 593.536 99.7771 592.094 99.7771C590.652 99.7771 589.483 100.946 589.483 102.388C589.483 103.829 590.652 104.998 592.094 104.998Z" fill="white" stroke="#263238" stroke-linecap="round" stroke-linejoin="round"/>
<path d="M527.845 329.553V377.848" stroke="#263238" stroke-linecap="round" stroke-linejoin="round"/>
</svg>
