<svg width="247" height="509" viewBox="0 0 247 509" fill="none" xmlns="http://www.w3.org/2000/svg">
<path d="M209.387 509L37.6147 508.9C32.7024 508.898 27.8385 507.922 23.3009 506.027C18.7633 504.133 14.6408 501.357 11.1687 497.859C7.69671 494.36 4.94314 490.207 3.06526 485.638C1.18738 481.068 0.221957 476.17 0.224125 471.225V37.6588C0.224123 32.7106 1.19279 27.8109 3.07474 23.2397C4.95668 18.6686 7.71502 14.5156 11.1921 11.0183C14.6692 7.52089 18.7968 4.74766 23.339 2.85708C27.8813 0.966505 32.7491 -0.00435078 37.6642 1.46565e-05L209.437 0.0996873C219.356 0.108494 228.867 4.08174 235.878 11.1463C242.889 18.2108 246.827 27.7887 246.827 37.7751L246.745 471.341C246.745 481.32 242.81 490.891 235.806 497.952C228.801 505.013 219.3 508.987 209.387 509Z" fill="#455A64"/>
<path d="M210.757 15.4322H177.458C176.372 15.4537 175.301 15.6911 174.306 16.1307C173.311 16.5702 172.412 17.2033 171.66 17.9936C170.909 18.7839 170.32 19.7158 169.928 20.7358C169.535 21.7558 169.347 22.8438 169.373 23.9374V30.0173C169.399 31.1108 169.211 32.1988 168.818 33.2188C168.426 34.2388 167.837 35.1707 167.086 35.961C166.334 36.7513 165.435 37.3844 164.44 37.824C163.446 38.2635 162.374 38.5009 161.288 38.5225H96.3739C95.2861 38.5009 94.2133 38.263 93.2172 37.8224C92.2212 37.3818 91.3215 36.7472 90.57 35.9552C89.8185 35.1631 89.2301 34.2292 88.8385 33.2073C88.447 32.1854 88.2601 31.0956 88.2886 30.0007V23.8709C88.3149 22.7774 88.1263 21.6894 87.7338 20.6694C87.3412 19.6494 86.7524 18.7175 86.0012 17.9272C85.2499 17.1369 84.351 16.5038 83.356 16.0642C82.361 15.6247 81.2896 15.3873 80.2032 15.3657H39.3309C32.387 15.3701 25.7279 18.1457 20.8132 23.0842C15.8984 28.0227 13.1288 34.7213 13.1113 41.7119L13.0288 464.862C13.0288 471.859 15.7895 478.568 20.7035 483.516C25.6176 488.463 32.2824 491.242 39.2319 491.242L210.641 491.342C214.084 491.346 217.494 490.667 220.676 489.343C223.858 488.019 226.75 486.076 229.185 483.626C231.621 481.176 233.552 478.266 234.869 475.064C236.186 471.861 236.863 468.428 236.861 464.962L236.943 41.8282C236.944 34.8333 234.186 28.1244 229.276 23.1751C224.366 18.2259 217.705 15.441 210.757 15.4322Z" fill="white"/>
<path d="M210.757 15.4321H211.664C212.553 15.4357 213.441 15.5023 214.321 15.6314C220.393 16.4531 225.987 19.3922 230.128 23.9373C232.233 26.2426 233.91 28.9095 235.079 31.8112C236.456 35.2162 237.135 38.8664 237.075 42.5424C237.075 46.4296 237.075 50.5825 237.075 54.968C237.075 90.1184 237.075 140.983 237.158 203.826C237.24 266.668 237.158 341.487 237.158 424.579V464.115C237.202 466.829 236.863 469.536 236.151 472.155C235.434 474.79 234.321 477.3 232.851 479.597C231.331 481.883 229.491 483.936 227.389 485.693C223.081 489.204 217.791 491.271 212.258 491.607C206.763 491.773 201.302 491.607 195.757 491.607H162.426H93.9316H41.2118C35.1616 491.943 29.1687 490.275 24.1501 486.856C19.1606 483.362 15.4959 478.267 13.7546 472.404C12.9326 469.506 12.5652 466.496 12.6656 463.484V454.596C12.6656 442.758 12.6656 430.997 12.6656 419.313C12.6656 395.957 12.6656 372.966 12.6656 350.341C12.6656 305.124 12.6656 261.502 12.6656 219.956C12.6656 178.41 12.6656 138.924 12.6656 102.012C12.6656 83.5402 12.6656 65.7158 12.6656 48.5392V42.1271C12.6656 41.064 12.7646 39.9842 12.8141 38.9211C12.8636 37.8579 13.0781 36.8114 13.3586 35.7814C14.3013 31.672 16.189 27.8427 18.8699 24.6018C21.4864 21.4709 24.7796 18.9839 28.4976 17.3313C32.2155 15.6786 36.2597 14.904 40.3208 15.0666H63.1578H79.5265C81.3604 14.9736 83.1741 15.487 84.6912 16.5285C86.1777 17.5627 87.2988 19.0462 87.8923 20.7644C88.3896 22.4492 88.5742 24.2118 88.4369 25.9639C88.4369 26.8277 88.4369 27.6251 88.4369 28.5387C88.395 29.3743 88.395 30.2115 88.4369 31.0471C88.6411 32.6836 89.3246 34.2219 90.4005 35.4658C91.4427 36.7045 92.8454 37.582 94.4101 37.9742C95.1821 38.1615 95.9763 38.2397 96.7697 38.2068H108.634H143.186H158.433C159.621 38.2068 160.858 38.2068 161.997 38.2068C163.137 38.0748 164.232 37.6828 165.198 37.0605C166.134 36.4679 166.942 35.6919 167.574 34.7788C168.206 33.8656 168.65 32.8338 168.878 31.7448C169.059 30.6921 169.126 29.6226 169.076 28.5553C169.076 27.4756 169.076 26.429 169.076 25.3991C169.029 24.3673 169.073 23.3333 169.208 22.3093C169.375 21.318 169.71 20.3628 170.198 19.4853C171.118 17.7948 172.594 16.4793 174.373 15.7643C176.057 15.2325 177.83 15.0461 179.587 15.2161H196.583H207.027H210.592C210.592 15.2161 209.387 15.2161 207.027 15.2161H196.583H179.587C177.861 15.0478 176.12 15.2401 174.472 15.7809C172.742 16.4768 171.307 17.7572 170.412 19.4023C169.946 20.2551 169.628 21.1822 169.472 22.1432C169.344 23.1511 169.3 24.1679 169.34 25.1832V28.3394C169.401 29.4508 169.334 30.5656 169.142 31.6617C168.902 32.7877 168.444 33.8548 167.792 34.8014C167.141 35.748 166.31 36.5553 165.347 37.1768C164.347 37.8138 163.22 38.2221 162.047 38.3729C160.825 38.4725 159.654 38.3729 158.449 38.3729H96.9182C96.0857 38.4054 95.2527 38.3216 94.4431 38.1237C92.8455 37.8241 91.374 37.0486 90.2189 35.8977C89.0926 34.583 88.3703 32.967 88.1398 31.2464C88.0549 30.391 88.0274 29.5308 88.0574 28.6716V26.0137C88.188 24.3351 88.0147 22.6465 87.5458 21.0302C86.9698 19.4115 85.909 18.0127 84.5097 17.0268C83.0539 16.0357 81.3136 15.5568 79.5595 15.6646H40.4033C36.4343 15.5205 32.4849 16.2877 28.8541 17.9081C25.2233 19.5285 22.0065 21.9595 19.4474 25.017C16.8323 28.2011 14.9904 31.955 14.0682 35.9808C13.8042 36.9775 13.7216 38.024 13.5401 39.054C13.3586 40.0839 13.4081 41.1304 13.4081 42.1936V101.996C13.4081 138.94 13.4081 178.41 13.4081 219.939V350.358C13.4081 372.972 13.4081 395.962 13.4081 419.33V463.5C13.3112 466.445 13.6674 469.387 14.4642 472.221C16.1685 477.909 19.7258 482.854 24.5626 486.258C29.4603 489.591 35.3095 491.214 41.2118 490.876H58.9006H93.9316H162.426H195.807C201.302 490.876 206.829 490.959 212.225 490.876C217.612 490.553 222.764 488.544 226.96 485.129C229.005 483.412 230.794 481.41 232.274 479.182C233.737 476.959 234.851 474.521 235.574 471.956C236.267 469.396 236.595 466.751 236.547 464.098V456.174C236.547 445.543 236.547 435.022 236.547 424.612C236.547 341.553 236.547 266.701 236.679 203.842C236.811 140.984 236.778 90.1516 236.811 55.0012C236.811 50.6157 236.811 46.4628 236.811 42.5756C236.878 38.9392 236.227 35.3256 234.897 31.9441C233.728 29.0524 232.052 26.3963 229.947 24.1034C225.843 19.58 220.298 16.6421 214.271 15.7975C213.397 15.6576 212.516 15.5744 211.631 15.5484L210.757 15.4321Z" fill="#263238"/>
<path d="M215.789 63.6563C215.789 63.7726 211.449 63.9055 206.12 63.9387C200.79 63.9719 196.434 63.9387 196.434 63.8224C196.434 63.7062 200.774 63.5733 206.103 63.54C211.433 63.5068 215.789 63.54 215.789 63.6563Z" fill="#263238"/>
<path d="M215.822 68.6392C215.822 68.7555 211.499 68.8884 206.153 68.9216C200.807 68.9549 196.483 68.9216 196.483 68.8053C196.483 68.6891 200.807 68.5562 206.153 68.523C211.499 68.4897 215.822 68.523 215.822 68.6392Z" fill="#263238"/>
<path d="M215.872 73.6231C215.872 73.7394 211.532 73.8723 206.203 73.9055C200.873 73.9387 196.517 73.9055 196.517 73.7892C196.517 73.673 200.856 73.5401 206.186 73.5068C211.516 73.4736 215.872 73.5068 215.872 73.6231Z" fill="#263238"/>
<path d="M39.5452 75.168H39.9577H41.0797L45.2049 75.0683L45.0894 75.1846C45.0894 74.271 45.0894 73.2577 45.0894 72.1779C45.0894 71.6131 45.0894 71.0815 45.0894 70.5167C45.1636 70.1868 45.3361 69.8875 45.5838 69.659C45.8314 69.4304 46.1425 69.2834 46.4755 69.2376C47.152 69.2376 47.7295 69.2376 48.4556 69.2376C48.84 69.3084 49.1869 69.5142 49.4347 69.8184C49.6825 70.1226 49.815 70.5054 49.8086 70.8988C49.8086 72.3108 49.8086 73.7726 49.8086 75.3009L49.6271 75.1182H54.8248L54.6268 75.3341C54.6268 73.2078 54.6268 71.0317 54.6268 68.7891C54.6268 68.2243 54.6268 67.6761 54.6268 67.1279C54.6068 66.8786 54.5311 66.6371 54.4053 66.4214C54.2796 66.2057 54.1072 66.0213 53.9008 65.8821L51.6237 63.6229L49.4126 61.4467L48.3565 60.3836C47.9935 60.0347 47.6965 59.6527 47.2675 59.5696C47.0649 59.5154 46.8527 59.5081 46.6469 59.5484C46.4411 59.5887 46.2471 59.6755 46.0795 59.8022C45.7659 60.0679 45.4359 60.45 45.1059 60.7656L43.2413 62.6594C42.0698 63.8886 40.8322 65.0182 39.9412 66.0814C39.6847 66.7004 39.5992 67.3777 39.6937 68.0416C39.6937 68.6894 39.6937 69.3041 39.6937 69.8855C39.6937 71.0151 39.6937 72.0118 39.6937 72.859C39.6937 73.7062 39.6937 74.2544 39.6937 74.7693C39.7071 74.9962 39.7071 75.2236 39.6937 75.4504C39.6937 75.4504 39.6937 75.2511 39.6937 74.8192C39.6937 74.3873 39.6937 73.6896 39.6937 72.942C39.6937 72.1945 39.6937 71.0815 39.6937 69.9519C39.6937 69.3539 39.6937 68.7227 39.6937 68.0582C39.6937 67.726 39.6937 67.3771 39.6937 67.0283C39.6887 66.6442 39.7855 66.2657 39.9742 65.9319C40.9477 64.7358 42.0863 63.6893 43.2743 62.4268L45.1389 60.5165C45.4689 60.1842 45.7494 59.852 46.1455 59.5031C46.3585 59.3452 46.6035 59.2365 46.8631 59.1848C47.1226 59.1331 47.3903 59.1397 47.647 59.2041C48.1387 59.382 48.5725 59.6923 48.9011 60.1012L49.5776 60.8155L51.7887 62.9916L54.0658 65.2508C54.2824 65.4375 54.4762 65.6494 54.6433 65.8821C54.8096 66.1468 54.9061 66.4498 54.9238 66.7625C54.9238 67.3107 54.9238 67.8755 54.9238 68.4236C54.9238 70.6385 54.9238 72.8147 54.9238 74.9521V75.168H54.7258H49.5116H49.3136V74.9687C49.3136 73.4404 49.3136 71.9786 49.3136 70.5666C49.314 70.2645 49.2082 69.972 49.0149 69.7409C48.8216 69.5098 48.5533 69.3551 48.2575 69.3041C47.6635 69.3041 46.954 69.3041 46.36 69.3041C46.0886 69.3338 45.8337 69.4496 45.632 69.6347C45.4303 69.8198 45.2923 70.0647 45.2379 70.334C45.2379 70.8656 45.2379 71.4802 45.2379 71.9952V75.1182H45.1224H40.9312H39.8257C39.7345 75.1461 39.6403 75.1628 39.5452 75.168Z" fill="#263238"/>
<path d="M178.811 337.6H74.9227C64.4062 337.6 55.8809 346.183 55.8809 356.77V362.086C55.8809 372.673 64.4062 381.256 74.9227 381.256H178.811C189.328 381.256 197.853 372.673 197.853 362.086V356.77C197.853 346.183 189.328 337.6 178.811 337.6Z" fill="#FF725E"/>
<path d="M99.74 363.532L100.499 361.87C101.442 362.521 102.557 362.873 103.7 362.884C105.037 362.884 105.581 362.435 105.581 361.837C105.581 360.01 99.938 361.256 99.938 357.634C99.938 355.973 101.258 354.578 104.03 354.578C105.189 354.567 106.329 354.871 107.33 355.458L106.637 357.12C105.821 356.636 104.895 356.373 103.948 356.355C102.611 356.355 102.1 356.854 102.1 357.468C102.1 359.279 107.743 358.033 107.743 361.621C107.743 363.282 106.406 364.645 103.618 364.645C102.244 364.668 100.895 364.28 99.74 363.532Z" fill="white"/>
<path d="M116.868 362.684V364.494H109.343V354.727H116.686V356.504H111.571V358.63H116.092V360.391H111.571V362.65L116.868 362.684Z" fill="white"/>
<path d="M118.649 354.727H120.894V362.65H125.761V364.494H118.649V354.727Z" fill="white"/>
<path d="M134.54 362.684V364.494H127.015V354.727H134.358V356.504H129.259V358.63H133.731V360.391H129.226V362.65L134.54 362.684Z" fill="white"/>
<path d="M135.678 359.611C135.741 358.556 136.11 357.543 136.74 356.698C137.371 355.853 138.234 355.214 139.223 354.859C140.212 354.505 141.282 354.452 142.301 354.706C143.32 354.96 144.242 355.51 144.952 356.288L143.516 357.617C143.217 357.258 142.844 356.969 142.422 356.771C142 356.573 141.54 356.471 141.074 356.471C140.647 356.44 140.217 356.497 139.813 356.641C139.409 356.784 139.038 357.009 138.724 357.303C138.41 357.597 138.16 357.953 137.988 358.348C137.817 358.744 137.729 359.171 137.729 359.602C137.729 360.034 137.817 360.461 137.988 360.856C138.16 361.252 138.41 361.608 138.724 361.902C139.038 362.196 139.409 362.421 139.813 362.564C140.217 362.707 140.647 362.765 141.074 362.734C141.542 362.739 142.005 362.637 142.428 362.436C142.851 362.234 143.223 361.938 143.516 361.571L144.952 362.916C144.242 363.694 143.32 364.245 142.301 364.499C141.282 364.753 140.212 364.7 139.223 364.345C138.234 363.991 137.371 363.352 136.74 362.507C136.11 361.662 135.741 360.649 135.678 359.594V359.611Z" fill="white"/>
<path d="M148.367 356.505H145.282V354.661H153.747V356.505H150.628V364.428H148.384L148.367 356.505Z" fill="white"/>
<path d="M218.891 168.958C219.271 166.134 215.327 163.825 212.291 163.576C210.873 163.63 209.455 163.507 208.067 163.21C205.163 162.197 204.008 158.409 201.17 157.213C200.066 156.889 198.906 156.805 197.768 156.968C196.63 157.132 195.539 157.538 194.569 158.16C192.624 159.405 190.454 160.252 188.184 160.652C186.204 160.785 184.025 160.037 182.276 161.017C180.989 161.748 180.296 163.26 179.108 164.14C177.862 164.921 176.417 165.319 174.95 165.287C173.489 165.246 172.034 165.483 170.66 165.984C169.969 166.239 169.383 166.72 168.994 167.349C168.605 167.978 168.437 168.72 168.515 169.456L218.891 168.958Z" fill="#EBEBEB"/>
<path d="M67.5138 299.277C67.5138 296.253 67.5138 256.302 67.3818 191.899V191.749H195.427V191.915C195.427 230.803 195.427 267.498 195.427 299.293V299.443H195.279L67.5304 299.293L195.279 299.144L195.114 299.293C195.114 267.498 195.114 230.803 195.114 191.915L195.295 192.098H67.5633L67.7119 191.948C67.5799 256.302 67.5303 296.253 67.5138 299.277Z" fill="#263238"/>
<path d="M109.31 268.047H96.0437V299.277H109.31V268.047Z" fill="#455A64"/>
<path d="M97.4294 285.622C97.4294 285.713 97.4474 285.803 97.4825 285.887C97.5175 285.97 97.5688 286.046 97.6334 286.11C97.698 286.173 97.7745 286.223 97.8585 286.256C97.9425 286.289 98.0322 286.305 98.1225 286.303C98.3019 286.303 98.474 286.231 98.6009 286.104C98.7277 285.976 98.799 285.803 98.799 285.622C98.8012 285.531 98.7853 285.441 98.7523 285.356C98.7193 285.272 98.6698 285.195 98.6068 285.13C98.5437 285.065 98.4684 285.013 98.3852 284.978C98.3021 284.942 98.2127 284.924 98.1225 284.924C97.9387 284.924 97.7624 284.998 97.6324 285.129C97.5025 285.26 97.4294 285.437 97.4294 285.622Z" fill="#FAFAFA"/>
<path d="M67.5137 238.877C67.5137 238.877 96.0269 238.993 131.223 238.993C166.419 238.993 194.932 238.993 194.932 238.877C194.932 238.76 166.402 238.76 131.223 238.76C96.0434 238.76 67.5137 238.81 67.5137 238.877Z" fill="#E0E0E0"/>
<path d="M67.5137 242.681C67.5137 242.681 96.0269 242.797 131.223 242.797C166.419 242.797 194.932 242.797 194.932 242.681C194.932 242.564 166.402 242.564 131.223 242.564C96.0434 242.564 67.5137 242.614 67.5137 242.681Z" fill="#E0E0E0"/>
<path d="M67.5137 246.485C67.5137 246.485 96.0269 246.602 131.223 246.602C166.419 246.602 194.932 246.602 194.932 246.485C194.932 246.369 166.402 246.369 131.223 246.369C96.0434 246.369 67.5137 246.419 67.5137 246.485Z" fill="#E0E0E0"/>
<path d="M67.5137 250.289C67.5137 250.289 96.0269 250.405 131.223 250.405C166.419 250.405 194.932 250.405 194.932 250.289C194.932 250.173 166.402 250.189 131.223 250.189C96.0434 250.189 67.5137 250.189 67.5137 250.289Z" fill="#E0E0E0"/>
<path d="M67.5137 254.093C67.5137 254.093 96.0269 254.209 131.223 254.209C166.419 254.209 194.932 254.209 194.932 254.093C194.932 253.977 166.402 253.977 131.223 253.977C96.0434 253.977 67.5137 254.026 67.5137 254.093Z" fill="#E0E0E0"/>
<path d="M67.5137 257.897C67.5137 257.897 96.0269 258.013 131.223 258.013C166.419 258.013 194.932 258.013 194.932 257.897C194.932 257.781 166.402 257.781 131.223 257.781C96.0434 257.781 67.5137 257.831 67.5137 257.897Z" fill="#E0E0E0"/>
<path d="M67.5137 261.701C67.5137 261.701 96.0269 261.818 131.223 261.818C166.419 261.818 194.932 261.818 194.932 261.701C194.932 261.585 166.402 261.585 131.223 261.585C96.0434 261.585 67.5137 261.635 67.5137 261.701Z" fill="#E0E0E0"/>
<path d="M67.5137 265.505C67.5137 265.505 96.0269 265.622 131.223 265.622C166.419 265.622 194.932 265.622 194.932 265.505C194.932 265.389 166.402 265.389 131.223 265.389C96.0434 265.389 67.5137 265.439 67.5137 265.505Z" fill="#E0E0E0"/>
<path d="M134.886 225.903H144.754V206.45H134.886V225.903Z" fill="white"/>
<path d="M134.886 225.903C134.893 225.87 134.893 225.836 134.886 225.804V225.521C134.886 225.255 134.886 224.906 134.886 224.441C134.886 223.478 134.886 222.116 134.886 220.405C134.886 216.949 134.886 212.099 134.886 206.451L134.771 206.567H144.671C144.671 206.567 144.44 206.351 144.556 206.451V217.032C144.556 220.355 144.556 223.312 144.556 225.87H144.655H137.477H135.464H137.411H144.655V225.77C144.655 223.212 144.655 220.222 144.655 216.933V206.351L144.539 206.235H134.556V206.351C134.556 212.032 134.556 216.916 134.556 220.371V224.391V225.804L134.886 225.903Z" fill="#263238"/>
<path d="M139.787 225.886C139.787 225.886 139.903 221.518 139.903 216.119C139.903 210.72 139.903 206.334 139.787 206.334C139.672 206.334 139.672 210.72 139.672 216.119C139.672 221.518 139.721 225.886 139.787 225.886Z" fill="#263238"/>
<path d="M135.002 216.85C135.002 216.85 137.23 216.966 139.952 216.966C142.675 216.966 144.902 216.966 144.902 216.85C144.902 216.733 142.675 216.733 139.952 216.733C137.23 216.733 135.002 216.783 135.002 216.85Z" fill="#263238"/>
<path d="M78.6023 288.313H88.4697V268.861H78.6023V288.313Z" fill="#FAFAFA"/>
<path d="M78.6023 288.396C78.6023 288.396 78.6023 288.396 78.6023 288.297V288.014C78.6023 287.749 78.6023 287.4 78.6023 286.935C78.6023 285.971 78.6023 284.609 78.6023 282.898C78.6023 279.443 78.6023 274.592 78.6023 268.944L78.4868 269.06H88.3872L88.2717 268.944V279.526C88.2717 282.848 88.2717 285.805 88.2717 288.363H81.0939H79.2788H81.2259H88.4698H88.5522V288.396C88.5522 285.838 88.5522 282.848 88.5522 279.559V268.977C88.6677 269.077 88.4202 268.828 88.4367 268.861H78.5363V268.977C78.5363 274.658 78.5363 279.542 78.5363 282.998V287.018V288.396H78.6023Z" fill="#263238"/>
<path d="M83.5029 288.396C83.5029 288.396 83.6185 284.011 83.6185 278.612C83.6185 273.213 83.6184 268.828 83.5029 268.828C83.3874 268.828 83.3875 273.213 83.3875 278.612C83.3875 284.011 83.4369 288.396 83.5029 288.396Z" fill="#263238"/>
<path d="M78.718 279.26C78.718 279.26 80.9456 279.376 83.6682 279.376C86.3908 279.376 88.6184 279.376 88.6184 279.26C88.6184 279.144 86.3908 279.144 83.6682 279.144C80.9456 279.144 78.718 279.193 78.718 279.26Z" fill="#263238"/>
<path d="M148.829 232.199C148.836 232.11 148.836 232.021 148.829 231.933V231.185C148.829 230.521 148.829 229.607 148.829 228.494V228.577H158.73L158.614 228.461V232.149L158.73 232.032H151.667H149.588H151.635C153.4 232.032 155.892 232.032 158.779 232.032H158.895V228.594C158.895 228.594 158.68 228.361 158.779 228.461C154.852 228.461 151.321 228.461 148.879 228.461H148.796V228.544C148.796 229.674 148.796 230.604 148.796 231.285V231.916C148.797 232.011 148.808 232.106 148.829 232.199Z" fill="#E0E0E0"/>
<path d="M86.7866 202.613C86.7928 202.53 86.7928 202.447 86.7866 202.364C86.7866 202.165 86.7866 201.949 86.7866 201.666C86.7866 201.035 86.7866 200.204 86.7866 199.174V199.257H93.9314L93.8159 199.141V200.802C93.8159 201.367 93.8159 201.932 93.8159 202.464L93.9149 202.347C91.8523 202.347 90.0867 202.347 88.8162 202.347H87.3311H86.7701C86.9402 202.364 87.1115 202.364 87.2816 202.347H88.7502H93.9149H94.1294V198.842C94.1294 198.842 93.8984 198.61 93.9974 198.726H86.8526H86.7536C86.7536 199.772 86.7536 200.636 86.7536 201.268C86.7536 201.533 86.7536 201.766 86.7536 201.949C86.6887 202.167 86.7003 202.402 86.7866 202.613Z" fill="#E0E0E0"/>
<path d="M142.493 235.721H152.08V232.199H142.493V235.721Z" fill="#E0E0E0"/>
<path d="M130.712 203.776H140.299V200.255H130.712V203.776Z" fill="#E0E0E0"/>
<path d="M84.3943 232.514H93.9812V228.992H84.3943V232.514Z" fill="#E0E0E0"/>
<path d="M67.9428 219.491H75.4836V215.969H67.9428V219.491Z" fill="#E0E0E0"/>
<path d="M89.1793 156.217L176.996 156.848L205.278 191.899H61.2437L89.1793 156.217Z" fill="#FF725E"/>
<path d="M89.1794 156.217C89.1794 156.217 88.5359 157.081 87.2818 158.709L81.7541 165.802L61.3427 192.048L61.2437 191.849H177.029H205.278L205.146 192.131C195.064 179.623 185.56 167.812 176.881 157.064H176.996L113.501 156.532L95.5652 156.366H89.1794C89.1794 156.366 91.3905 156.366 95.5322 156.366H113.452L176.996 156.748L205.295 191.799L205.526 192.065H177.029H61.2437H61.0127L61.1612 191.882L81.6881 165.735L87.2488 158.692L89.1794 156.217Z" fill="#263238"/>
<path d="M133.269 171.599L126.52 182.912H96.1094V171.599L109.376 147.346L126.52 171.4L133.269 171.599Z" fill="#F5F5F5"/>
<path d="M110.597 172.33C113.34 172.33 115.564 170.092 115.564 167.33C115.564 164.569 113.34 162.33 110.597 162.33C107.854 162.33 105.631 164.569 105.631 167.33C105.631 170.092 107.854 172.33 110.597 172.33Z" fill="white"/>
<path d="M105.68 167.329C105.647 166.917 105.681 166.502 105.779 166.1C106.037 164.978 106.672 163.98 107.578 163.276C108.25 162.747 109.045 162.397 109.887 162.261C110.73 162.124 111.593 162.205 112.396 162.495C113.385 162.856 114.239 163.514 114.843 164.38C115.447 165.247 115.771 166.279 115.771 167.338C115.771 168.396 115.447 169.429 114.843 170.295C114.239 171.162 113.385 171.82 112.396 172.18C111.593 172.47 110.73 172.551 109.887 172.415C109.045 172.278 108.25 171.929 107.578 171.399C106.672 170.696 106.037 169.698 105.779 168.575C105.681 168.168 105.647 167.747 105.68 167.329C105.68 167.329 105.68 167.778 105.911 168.542C106.085 169.199 106.394 169.812 106.816 170.342C107.239 170.872 107.767 171.307 108.367 171.62C108.966 171.933 109.624 172.116 110.298 172.158C110.972 172.2 111.647 172.1 112.281 171.864C112.93 171.623 113.52 171.244 114.011 170.753C114.502 170.261 114.882 169.669 115.125 169.016C115.368 168.364 115.468 167.666 115.419 166.971C115.37 166.276 115.173 165.6 114.841 164.988C114.509 164.376 114.05 163.844 113.496 163.427C112.941 163.01 112.304 162.718 111.627 162.572C110.95 162.425 110.25 162.427 109.574 162.577C108.898 162.727 108.262 163.022 107.71 163.442C106.832 164.108 106.199 165.049 105.911 166.117C105.68 166.898 105.68 167.346 105.68 167.329Z" fill="#263238"/>
<path d="M92.7106 232.249H124.656V198.892H92.7106V232.249Z" fill="white"/>
<path d="M92.7271 232.265V231.634C92.7271 231.219 92.7271 230.621 92.7271 229.84C92.7271 228.262 92.7271 225.953 92.7271 223.046C92.7271 217.198 92.7271 208.876 92.7271 198.909L92.6281 199.009H124.574L124.458 198.892C124.458 211.119 124.458 222.581 124.458 232.249L124.557 232.132H101.456H94.8557H101.341H124.54H124.64V232.033C124.64 222.365 124.64 210.903 124.64 198.676V198.543H92.4631V198.66C92.4631 208.627 92.4631 216.933 92.4631 222.863C92.4631 225.77 92.4631 228.062 92.4631 229.624C92.4631 230.405 92.4631 231.003 92.4631 231.401V231.867C92.4718 231.95 92.5003 232.029 92.5463 232.099C92.5923 232.168 92.6543 232.225 92.7271 232.265Z" fill="#263238"/>
<path d="M108.089 231.8C108.089 231.8 108.205 224.491 108.205 215.454C108.205 206.418 108.205 199.108 108.089 199.108C107.974 199.108 107.974 206.434 107.974 215.454C107.974 224.475 108.023 231.8 108.089 231.8Z" fill="#263238"/>
<path d="M93.0735 216.65C93.0735 216.65 100.07 216.766 108.7 216.766C117.33 216.766 124.326 216.766 124.326 216.65C124.326 216.534 117.33 216.534 108.7 216.534C100.07 216.534 93.0735 216.584 93.0735 216.65Z" fill="#263238"/>
<path d="M74.3782 225.504H84.2456V206.052H74.3782V225.504Z" fill="#FAFAFA"/>
<path d="M74.3286 225.505C74.325 225.472 74.325 225.438 74.3286 225.405V224.043V220.006C74.3286 216.551 74.3286 211.7 74.3286 206.052L74.2131 206.169H84.1135L83.998 206.052V216.634C83.998 219.956 83.998 222.913 83.998 225.471H84.097H76.9027H74.9061H76.8532H84.097H84.1795V225.372C84.1795 222.814 84.1795 219.823 84.1795 216.534C84.1795 214.873 84.1795 213.212 84.1795 211.401V205.953C84.2785 206.069 84.031 205.803 84.064 205.836H74.1636V205.953C74.1636 211.634 74.1636 216.518 74.1636 219.973C74.1636 221.634 74.1636 223.046 74.1636 223.993C74.1636 224.442 74.1636 224.79 74.1636 225.056V225.405L74.3286 225.505Z" fill="#263238"/>
<path d="M79.2788 225.504C79.2788 225.504 79.3944 221.119 79.3944 215.72C79.3944 210.321 79.3944 205.936 79.2788 205.936C79.1633 205.936 79.1633 210.321 79.1633 215.72C79.1633 221.119 79.2788 225.504 79.2788 225.504Z" fill="#263238"/>
<path d="M74.4937 216.451C74.4937 216.451 76.7212 216.567 79.4439 216.567C82.1665 216.567 84.3941 216.567 84.3941 216.451C84.3941 216.334 82.15 216.334 79.4439 216.334C76.7377 216.334 74.4937 216.384 74.4937 216.451Z" fill="#263238"/>
<path d="M60.0391 261.236H55.1714V299.277H60.0391V261.236Z" fill="#F5F5F5"/>
<path d="M55.1714 299.277C55.1714 299.277 55.1714 299.045 55.1714 298.546C55.1714 298.048 55.1714 297.251 55.1714 296.387C55.1714 294.377 55.1714 291.669 55.1714 288.363C55.1714 281.386 55.1714 271.901 55.1714 261.236V261.054H60.2041C60.5506 261.403 60.2041 261.17 60.3691 261.236V273.214C60.3691 277.001 60.3691 280.573 60.3691 283.878C60.3691 290.307 60.3691 295.606 60.2866 299.261H56.6399H55.4189H56.6894H60.2866L60.2041 299.344C60.2041 295.689 60.2041 290.39 60.2041 283.961C60.2041 280.639 60.2041 277.084 60.2041 273.297C60.2041 271.386 60.2041 269.426 60.2041 267.433V261.32C60.2866 261.32 60.0391 261.137 60.3856 261.486H55.4354L55.6004 261.32C55.6004 271.951 55.6004 281.386 55.6004 288.314C55.6004 291.636 55.6004 294.377 55.6004 296.387C55.6004 297.267 55.6004 298.048 55.6004 298.58C55.6004 299.111 55.1714 299.277 55.1714 299.277Z" fill="#263238"/>
<path d="M120.762 261.236H115.894V299.277H120.762V261.236Z" fill="#F5F5F5"/>
<path d="M115.894 299.277C115.894 299.277 115.894 299.045 115.894 298.546C115.894 298.048 115.894 297.251 115.894 296.387C115.894 294.377 115.894 291.669 115.894 288.363C115.894 281.386 115.894 271.901 115.894 261.236V261.054H120.844C121.191 261.403 120.943 261.17 121.009 261.236V273.214C121.009 277.001 121.009 280.573 121.009 283.878C121.009 290.307 121.009 295.606 121.009 299.261H120.927H117.28H116.059H117.33H120.927V299.344C120.927 295.689 120.927 290.39 120.927 283.961C120.927 280.639 120.927 277.084 120.927 273.297V261.32L121.092 261.486H116.224L116.406 261.32C116.406 271.951 116.406 281.386 116.323 288.314C116.323 291.636 116.323 294.377 116.323 296.387C116.323 297.267 116.323 298.048 116.323 298.58C116.323 299.111 115.894 299.277 115.894 299.277Z" fill="#263238"/>
<path d="M153.961 261.419H48.8022L71.6722 242.398H128.583L153.961 261.419Z" fill="#FF725E"/>
<g opacity="0.3">
<path d="M153.961 261.419H48.8022L71.6722 242.398H128.583L153.961 261.419Z" fill="black"/>
</g>
<path d="M128.583 242.398L108.667 261.419H154.11L128.583 242.398Z" fill="#FF725E"/>
<path d="M96.1096 171.599H92.4299L107.693 145.087L109.376 147.346L96.1096 171.599Z" fill="#FF725E"/>
<path d="M96.1098 171.616H92.4796L107.759 145.038L109.409 147.297L96.1098 171.616ZM92.4631 171.616H96.0933L109.294 147.38L107.644 145.154L92.4631 171.616Z" fill="#263238"/>
<g opacity="0.3">
<path d="M96.1096 171.599H92.4299L107.693 145.087L109.376 147.346L96.1096 171.599Z" fill="black"/>
</g>
<path d="M126.521 182.912V171.417H133.369L126.521 182.912Z" fill="#EBEBEB"/>
<path d="M133.269 171.599H138.764L119.722 144.97L107.693 145.086L126.52 171.399L133.269 171.599Z" fill="#FF725E"/>
<path d="M133.269 171.599H131.504L126.553 171.483L107.644 145.22L107.462 144.954H107.792H113.369H119.821H119.904L138.879 171.649L138.978 171.782H138.814V171.915L119.689 145.336H119.838H113.402H107.809L107.941 145.054L126.718 171.4L131.669 171.599H133.269Z" fill="#263238"/>
<path d="M164.835 192.048C164.918 192.048 165 216.069 165 245.688C165 275.306 165 299.327 164.835 299.327C164.67 299.327 164.654 275.323 164.654 245.688C164.654 216.052 164.736 192.048 164.835 192.048Z" fill="#263238"/>
<path d="M131.487 288.895H141.355V269.442H131.487V288.895Z" fill="#FAFAFA"/>
<path d="M131.504 288.894V287.416C131.504 286.469 131.504 285.09 131.504 283.379C131.504 279.941 131.504 275.073 131.504 269.425L131.388 269.542H141.289L141.173 269.425V274.857C141.173 276.635 141.173 278.363 141.173 280.007C141.173 283.329 141.173 286.27 141.173 288.845L141.256 288.745H134.078H131.586C131.471 288.745 131.405 288.745 131.405 288.745H134.028H141.256H141.355C141.355 286.17 141.355 283.18 141.355 279.907V274.758C141.355 273.877 141.355 272.98 141.355 272.067V269.326L141.223 269.193H131.322V269.293C131.322 274.99 131.322 279.858 131.322 283.329C131.322 284.991 131.322 286.386 131.322 287.333V288.662C131.406 288.717 131.47 288.799 131.504 288.894Z" fill="#263238"/>
<path d="M136.404 288.878C136.404 288.878 136.52 284.493 136.52 279.094C136.52 273.695 136.52 269.326 136.404 269.326C136.289 269.326 136.272 273.695 136.272 279.094C136.272 284.493 136.338 288.878 136.404 288.878Z" fill="#263238"/>
<path d="M131.619 279.841C131.619 279.841 133.847 279.957 136.569 279.957C139.292 279.957 141.52 279.957 141.52 279.841C138.222 279.666 134.917 279.666 131.619 279.841Z" fill="#263238"/>
<path d="M204.684 299.227C204.684 299.227 168.944 299.393 124.87 299.393C80.797 299.393 45.0564 299.31 45.0564 299.227C45.0564 299.144 80.7805 299.044 124.87 299.044C168.96 299.044 204.684 299.127 204.684 299.227Z" fill="#263238"/>
<path d="M165.71 98.242C165.71 98.4911 147.328 98.6739 124.656 98.6739C101.984 98.6739 83.6021 98.4911 83.6021 98.242C83.6021 97.9928 101.984 97.8101 124.656 97.8101C147.328 97.8101 165.71 98.0094 165.71 98.242Z" fill="#263238"/>
<path d="M147.311 104.77C147.311 105.003 137.939 105.202 126.355 105.202C114.772 105.202 105.399 105.003 105.399 104.77C105.399 104.538 114.788 104.338 126.355 104.338C137.922 104.338 147.311 104.521 147.311 104.77Z" fill="#263238"/>
<path d="M202.787 411.49C202.787 411.722 170.148 411.921 129.887 411.921C89.625 411.921 56.9866 411.722 56.9866 411.49C56.9866 411.257 89.625 411.058 129.887 411.058C170.148 411.058 202.787 411.323 202.787 411.49Z" fill="#263238"/>
<path d="M202.787 428.965C202.787 429.214 170.148 429.397 129.887 429.397C89.625 429.397 56.9866 429.214 56.9866 428.965C56.9866 428.715 89.625 428.533 129.887 428.533C170.148 428.533 202.787 428.732 202.787 428.965Z" fill="#263238"/>
<path d="M202.787 446.706C202.787 446.938 170.148 447.138 129.887 447.138C89.625 447.138 56.9866 446.938 56.9866 446.706C56.9866 446.473 89.625 446.274 129.887 446.274C170.148 446.274 202.787 446.457 202.787 446.706Z" fill="#263238"/>
<path d="M89.1793 142.213C89.5588 139.389 85.6152 137.08 82.579 136.847C81.1605 136.905 79.7404 136.777 78.3549 136.465C75.4507 135.452 74.2957 131.681 71.4575 130.468C70.3539 130.144 69.1941 130.06 68.0557 130.223C66.9174 130.387 65.8269 130.793 64.8573 131.415C62.9152 132.666 60.7439 133.514 58.4715 133.907C56.4749 134.04 54.3133 133.292 52.5642 134.272C51.2607 135.003 50.5842 136.515 49.3796 137.412C48.1298 138.182 46.6864 138.574 45.2214 138.542C43.7649 138.506 42.3148 138.749 40.9477 139.256C40.2599 139.51 39.6757 139.988 39.2873 140.614C38.8989 141.239 38.7284 141.977 38.8026 142.711L89.1793 142.213Z" fill="#EBEBEB"/>
<path d="M211.796 16.6402H178.497C177.411 16.6617 176.34 16.8991 175.345 17.3387C174.35 17.7782 173.451 18.4113 172.7 19.2016C171.948 19.9919 171.359 20.9238 170.967 21.9438C170.574 22.9638 170.386 24.0518 170.412 25.1454V31.2253C170.438 32.3188 170.25 33.4068 169.857 34.4269C169.465 35.4469 168.876 36.3787 168.125 37.169C167.373 37.9593 166.475 38.5924 165.48 39.032C164.485 39.4715 163.413 39.7089 162.327 39.7305H97.413C96.3252 39.709 95.2524 39.471 94.2563 39.0304C93.2602 38.5898 92.3605 37.9552 91.609 37.1632C90.8576 36.3711 90.2691 35.4372 89.8776 34.4153C89.486 33.3934 89.2991 32.3036 89.3276 31.2087V25.0789C89.3539 23.9854 89.1654 22.8974 88.7728 21.8774C88.3803 20.8574 87.7915 19.9255 87.0402 19.1352C86.289 18.3449 85.39 17.7118 84.395 17.2722C83.4001 16.8327 82.3286 16.5953 81.2423 16.5737H40.37C33.426 16.5781 26.767 19.3537 21.8522 24.2922C16.9374 29.2307 14.1678 35.9293 14.1504 42.9199L14.0679 466.07C14.0679 473.067 16.8286 479.776 21.7426 484.724C26.6566 489.671 33.3215 492.45 40.271 492.45L211.68 492.55C215.123 492.554 218.534 491.875 221.716 490.551C224.898 489.227 227.789 487.284 230.224 484.834C232.66 482.384 234.591 479.474 235.908 476.272C237.225 473.069 237.902 469.636 237.9 466.17L237.983 43.0362C237.983 36.0413 235.225 29.3324 230.315 24.3831C225.405 19.4339 218.744 16.649 211.796 16.6402Z" fill="white"/>
<path d="M51.3786 328.362C91.6499 350.089 156.943 350.089 197.215 328.362C237.486 306.635 237.481 271.413 197.215 249.686C156.948 227.959 91.6499 227.959 51.3786 249.686C11.1073 271.413 11.1117 306.639 51.3786 328.362Z" fill="#D9D9D9"/>
<path d="M64.4846 187.781L61.3652 189.575C61.3652 189.436 61.392 189.297 61.392 189.162V188.265C61.392 186.659 60.269 186.022 58.8876 186.811C58.2914 187.178 57.7819 187.671 57.3947 188.256C57.1674 186.233 55.6122 185.479 53.6782 186.592C51.6105 187.794 49.9304 190.719 49.9304 193.128V194.474C49.9241 195.023 50.043 195.567 50.278 196.062L47.7068 197.556C47.3024 197.822 46.9657 198.179 46.7242 198.6C46.4826 199.021 46.3429 199.493 46.3164 199.979C46.3164 200.876 46.9403 201.235 47.7068 200.786L64.4846 191.011C64.8893 190.745 65.2261 190.388 65.4677 189.967C65.7092 189.546 65.8488 189.073 65.875 188.588C65.8839 187.7 65.26 187.336 64.4846 187.781Z" fill="#D7D5D5"/>
<path d="M77.7507 196.87L75.4111 198.216C75.4176 198.111 75.4176 198.006 75.4111 197.902V197.233C75.4111 196.022 74.5644 195.529 73.5216 196.134C73.0731 196.413 72.6888 196.784 72.3942 197.224C72.2249 195.699 71.035 195.134 69.5912 195.973C68.7665 196.512 68.0803 197.241 67.5885 198.098C67.0967 198.956 66.8133 199.919 66.7615 200.908V201.926C66.7527 202.334 66.8349 202.739 67.0021 203.11L65.0592 204.236C64.7542 204.437 64.5004 204.708 64.3185 205.026C64.1365 205.344 64.0315 205.7 64.012 206.067C64.012 206.74 64.4799 207.013 65.0592 206.677L77.7284 199.31C78.0333 199.11 78.2871 198.841 78.469 198.524C78.651 198.206 78.756 197.85 78.7756 197.485C78.7979 196.807 78.33 196.533 77.7507 196.87Z" fill="#D7D5D5"/>
<path d="M202.963 209.104L200.624 210.449C200.63 210.345 200.63 210.24 200.624 210.135V209.453C200.624 208.242 199.777 207.749 198.734 208.359C198.284 208.635 197.899 209.007 197.607 209.449C197.438 207.924 196.27 207.354 194.804 208.193C193.98 208.733 193.295 209.462 192.804 210.319C192.313 211.177 192.03 212.139 191.979 213.128V214.146C191.967 214.554 192.048 214.959 192.215 215.33L190.276 216.456C189.971 216.657 189.716 216.927 189.534 217.245C189.351 217.563 189.245 217.92 189.225 218.287C189.225 218.96 189.697 219.233 190.276 218.897L202.945 211.531C203.25 211.331 203.504 211.061 203.686 210.744C203.868 210.427 203.973 210.071 203.993 209.705C204.011 209.041 203.543 208.767 202.963 209.104Z" fill="#D7D5D5"/>
<path d="M63.3035 252.787L28.5491 272.988V274.671L60.407 293.185L95.1614 272.988V271.306L63.3035 252.787Z" fill="#263238"/>
<path opacity="0.15" d="M28.5491 272.988L60.407 291.503V293.185L28.5491 274.671V272.988Z" fill="black"/>
<path opacity="0.1" d="M60.4072 291.503L95.1617 271.306V272.988L60.4072 293.186V291.503Z" fill="black"/>
<path d="M92.069 265.231L90.6956 267.956L90.9181 268.069L92.2916 265.345L92.069 265.231Z" fill="#455A64"/>
<path d="M89.5308 265.018L89.3186 265.15L90.6579 267.328L90.8701 267.196L89.5308 265.018Z" fill="#455A64"/>
<path d="M91.0172 264.765V271.333C91.0163 271.351 91.0104 271.368 91.0002 271.383C90.99 271.398 90.9758 271.41 90.9593 271.418C90.914 271.442 90.8635 271.455 90.8122 271.455C90.7609 271.455 90.7104 271.442 90.6652 271.418C90.6478 271.411 90.6327 271.399 90.6217 271.384C90.6106 271.369 90.6041 271.351 90.6028 271.333V264.765H91.0172Z" fill="#455A64"/>
<path d="M95.9502 262.724C95.9502 263.327 95.7725 263.917 95.4395 264.418C95.1065 264.92 94.6333 265.311 94.0795 265.542C93.5258 265.773 92.9166 265.833 92.3287 265.716C91.7409 265.598 91.201 265.307 90.7772 264.881C90.3534 264.454 90.0648 263.91 89.9479 263.319C89.831 262.727 89.891 262.114 90.1203 261.556C90.3497 260.999 90.7381 260.522 91.2364 260.187C91.7347 259.852 92.3206 259.673 92.9199 259.673C93.7232 259.674 94.4933 259.996 95.0613 260.568C95.6294 261.14 95.949 261.915 95.9502 262.724Z" fill="#263238"/>
<path opacity="0.2" d="M93.869 261.943C94.2612 260.704 94.6756 260.22 94.4127 260.067C93.9109 259.781 93.3382 259.644 92.762 259.674C92.1858 259.704 91.63 259.898 91.1599 260.235C90.6898 260.572 90.325 261.037 90.1084 261.575C89.8918 262.114 89.8323 262.703 89.9371 263.274C90.0418 263.845 90.3063 264.375 90.6996 264.8C91.0928 265.225 91.5984 265.528 92.157 265.674C92.7155 265.819 93.3037 265.802 93.8525 265.622C94.4013 265.443 94.8879 265.11 95.2549 264.661C94.3414 264.926 93.361 263.549 93.869 261.943Z" fill="black"/>
<path d="M90.2773 263.585C90.2773 264.009 90.1524 264.424 89.9183 264.776C89.6842 265.129 89.3516 265.404 88.9623 265.566C88.5731 265.728 88.1448 265.771 87.7316 265.688C87.3184 265.605 86.9389 265.401 86.641 265.101C86.3431 264.801 86.1402 264.419 86.058 264.003C85.9758 263.587 86.018 263.156 86.1792 262.764C86.3405 262.372 86.6135 262.037 86.9638 261.802C87.3141 261.566 87.7259 261.44 88.1472 261.44C88.7121 261.44 89.2539 261.666 89.6534 262.069C90.0529 262.471 90.2773 263.016 90.2773 263.585Z" fill="#263238"/>
<path opacity="0.2" d="M88.1471 261.44C87.7002 261.44 87.2648 261.583 86.9038 261.849C86.8459 263.154 87.9511 264.433 87.6391 264.863C87.3272 265.294 86.5741 265.029 86.3022 264.662C86.4899 264.987 86.7593 265.257 87.0834 265.444C87.4075 265.632 87.7749 265.73 88.1487 265.729C88.5224 265.729 88.8894 265.629 89.2128 265.44C89.5361 265.251 89.8044 264.98 89.9908 264.654C90.1772 264.328 90.275 263.958 90.2745 263.582C90.274 263.206 90.1751 262.836 89.9878 262.51C89.8005 262.185 89.5315 261.914 89.2076 261.727C88.8837 261.539 88.5164 261.44 88.1427 261.44H88.1471Z" fill="black"/>
<path d="M90.812 265.209C92.9704 265.209 94.7201 263.448 94.7201 261.275C94.7201 259.102 92.9704 257.34 90.812 257.34C88.6535 257.34 86.9038 259.102 86.9038 261.275C86.9038 263.448 88.6535 265.209 90.812 265.209Z" fill="#263238"/>
<path opacity="0.1" d="M94.6134 262.172C94.4658 262.809 94.1628 263.399 93.7318 263.888C93.3008 264.378 92.7553 264.751 92.1448 264.975C91.5343 265.199 90.8779 265.266 90.2352 265.17C89.5924 265.075 88.9835 264.819 88.4636 264.427C87.9437 264.034 87.5291 263.518 87.2573 262.924C86.9856 262.33 86.8653 261.677 86.9074 261.024C86.9494 260.371 87.1524 259.739 87.4981 259.185C87.8438 258.631 88.3211 258.173 88.887 257.852C88.5568 258.048 88.2566 258.291 87.9958 258.574C87.8015 259.415 87.8878 260.297 88.2413 261.084C88.5948 261.87 89.1958 262.518 89.9514 262.926C90.7071 263.335 91.5753 263.481 92.422 263.343C93.2687 263.205 94.0466 262.791 94.6356 262.163L94.6134 262.172Z" fill="black"/>
<path d="M34.1655 266.908L32.792 269.632L33.0145 269.746L34.388 267.022L34.1655 266.908Z" fill="#455A64"/>
<path d="M31.616 266.691L31.4038 266.823L32.7432 269.001L32.9553 268.869L31.616 266.691Z" fill="#455A64"/>
<path d="M33.108 266.438V273.006C33.1063 273.024 33.0995 273.042 33.0885 273.057C33.0775 273.072 33.0627 273.084 33.0456 273.091C32.9998 273.113 32.9495 273.125 32.8986 273.125C32.8477 273.125 32.7974 273.113 32.7515 273.091C32.735 273.084 32.7208 273.072 32.7106 273.057C32.7004 273.042 32.6945 273.024 32.6936 273.006V266.438H33.108Z" fill="#455A64"/>
<path d="M38.041 264.392C38.041 264.996 37.8633 265.586 37.5303 266.087C37.1973 266.589 36.7241 266.98 36.1704 267.211C35.6167 267.442 35.0074 267.502 34.4196 267.384C33.8317 267.267 33.2918 266.976 32.868 266.55C32.4442 266.123 32.1556 265.579 32.0387 264.988C31.9218 264.396 31.9818 263.782 32.2111 263.225C32.4405 262.668 32.8289 262.191 33.3272 261.856C33.8255 261.521 34.4114 261.342 35.0107 261.342C35.8144 261.342 36.5852 261.663 37.1535 262.235C37.7217 262.807 38.041 263.583 38.041 264.392Z" fill="#263238"/>
<path opacity="0.2" d="M35.9643 263.612C36.3564 262.374 36.7709 261.889 36.5079 261.741C36.0539 261.478 35.5389 261.34 35.0151 261.342C34.5045 261.342 34.0021 261.471 33.5546 261.719C33.1071 261.966 32.729 262.324 32.4554 262.757C32.1817 263.191 32.0214 263.688 31.9894 264.201C31.9573 264.714 32.0546 265.227 32.272 265.692C32.4895 266.157 32.8202 266.559 33.2334 266.861C33.6466 267.163 34.1289 267.355 34.6354 267.419C35.142 267.483 35.6565 267.418 36.1311 267.228C36.6057 267.039 37.0251 266.731 37.3502 266.335C36.45 266.6 35.4518 265.218 35.9643 263.612Z" fill="black"/>
<path d="M32.3679 265.258C32.3679 265.682 32.2429 266.097 32.0089 266.45C31.7748 266.802 31.4421 267.077 31.0529 267.239C30.6637 267.402 30.2354 267.444 29.8222 267.361C29.409 267.279 29.0295 267.074 28.7316 266.775C28.4337 266.475 28.2308 266.093 28.1486 265.677C28.0664 265.261 28.1086 264.829 28.2698 264.438C28.431 264.046 28.7041 263.711 29.0543 263.475C29.4046 263.24 29.8165 263.114 30.2378 263.114C30.5177 263.113 30.7949 263.168 31.0536 263.276C31.3123 263.383 31.5474 263.541 31.7453 263.741C31.9432 263.94 32.1001 264.176 32.2069 264.437C32.3138 264.697 32.3685 264.976 32.3679 265.258Z" fill="#263238"/>
<path opacity="0.2" d="M30.2382 263.114C29.7917 263.112 29.3563 263.254 28.9949 263.518C28.937 264.828 30.0377 266.106 29.7302 266.532C29.4227 266.959 28.6607 266.698 28.3933 266.335C28.581 266.66 28.8504 266.93 29.1745 267.118C29.4986 267.305 29.866 267.403 30.2397 267.403C30.6135 267.402 30.9805 267.302 31.3038 267.113C31.6272 266.925 31.8955 266.654 32.0819 266.327C32.2682 266.001 32.3661 265.631 32.3655 265.255C32.365 264.879 32.2662 264.509 32.0789 264.184C31.8916 263.858 31.6225 263.588 31.2987 263.4C30.9748 263.212 30.6075 263.113 30.2338 263.114H30.2382Z" fill="black"/>
<path d="M32.8984 266.878C35.0568 266.878 36.8065 265.116 36.8065 262.943C36.8065 260.77 35.0568 259.009 32.8984 259.009C30.74 259.009 28.9902 260.77 28.9902 262.943C28.9902 265.116 30.74 266.878 32.8984 266.878Z" fill="#263238"/>
<path opacity="0.1" d="M36.6996 263.845C36.5504 264.48 36.2464 265.068 35.8151 265.555C35.3838 266.042 34.8388 266.413 34.2293 266.635C33.6197 266.858 32.9648 266.923 32.3237 266.827C31.6826 266.73 31.0754 266.475 30.557 266.083C30.0386 265.691 29.6253 265.175 29.3543 264.583C29.0834 263.99 28.9634 263.338 29.0052 262.687C29.0469 262.036 29.2491 261.405 29.5935 260.852C29.9379 260.299 30.4136 259.842 30.9778 259.52C30.6406 259.716 30.333 259.959 30.0642 260.242C29.8716 261.082 29.9588 261.963 30.3122 262.748C30.6657 263.534 31.2659 264.18 32.0203 264.588C32.7748 264.996 33.6415 265.143 34.4871 265.006C35.3327 264.87 36.1101 264.457 36.6996 263.831V263.845Z" fill="black"/>
<path d="M71.1912 280.184L76.044 277.367L80.3978 279.897L75.5494 282.71L71.1912 280.184Z" fill="#F0F0F0"/>
<path d="M37.2432 272.988L37.2388 257.838L60.4114 271.301V286.456L37.2432 272.988Z" fill="#F0F0F0"/>
<path d="M37.2388 263.849L60.4114 277.322V271.301L37.2388 257.838V263.849Z" fill="#E0E0E0"/>
<path d="M86.4717 271.301V256.573L77.7819 254.469V252.787L60.4114 271.301V286.456L86.4717 271.301Z" fill="#FAFAFA"/>
<path d="M77.7822 252.787V254.469L87.9202 256.995V255.312L77.7822 252.787Z" fill="#263238"/>
<path d="M64.7565 241.845L87.9202 255.312L77.7822 252.787L54.614 239.319L64.7565 241.845Z" fill="#37474F"/>
<path d="M58.9585 273.836L77.7863 252.786V251.104L57.5103 274.67L58.9585 273.836Z" fill="#37474F"/>
<path d="M54.6183 237.637L77.7865 251.104L57.5461 274.693L34.3423 261.203L54.6183 237.637Z" fill="#455A64"/>
<path d="M47.3499 259.458L50.2687 261.153V265.411L47.3499 263.728V259.458Z" fill="#263238"/>
<path d="M50.269 261.153L53.1834 259.458V262.046L50.269 265.411V261.153Z" fill="#37474F"/>
<path d="M50.2688 256.573L47.0469 258.444V259.292L50.2688 261.154L53.4862 259.292V258.444L50.2688 256.573Z" fill="#F5F5F5"/>
<path d="M47.0469 259.292L50.2688 261.154V260.306L47.0469 258.444V259.292Z" fill="#E0E0E0"/>
<path d="M53.4865 259.292L50.269 261.154V260.306L53.4865 258.444V259.292Z" fill="#EBEBEB"/>
<path d="M48.1299 258.444L50.2689 257.201L52.4079 258.444L50.2689 259.682L48.1299 258.444Z" fill="#263238"/>
<path d="M50.2689 257.201V259.682L48.1299 258.444L50.2689 257.201Z" fill="#37474F"/>
<path d="M50.269 257.201L52.4081 258.444L50.269 259.682V257.201Z" fill="#263238"/>
<path d="M62.2876 275.262L68.8071 271.476V276.528L62.2876 280.314V275.262Z" fill="#455A64"/>
<path d="M68.5175 276.358V271.647L62.2876 275.263V279.978L68.5175 276.358Z" fill="#E0E0E0"/>
<path d="M68.8071 276.528L68.5175 276.357L62.2876 279.978V280.314L68.8071 276.528Z" fill="#37474F"/>
<path d="M62.2876 277.788L68.8071 274.002V273.661L62.2876 277.448V277.788Z" fill="#455A64"/>
<path d="M78.2188 265.998L84.7338 262.212V267.263L78.2188 271.05V265.998Z" fill="#455A64"/>
<path d="M84.4442 267.093V262.383L78.2188 265.999V270.714L84.4442 267.093Z" fill="#E0E0E0"/>
<path d="M84.7338 267.264L84.4442 267.093L78.2188 270.714V271.05L84.7338 267.264Z" fill="#37474F"/>
<path d="M78.2188 268.524L84.7338 264.738V264.397L78.2188 268.188V268.524Z" fill="#455A64"/>
<path d="M71.1912 280.184V270.085L76.044 267.268V277.366L71.1912 280.184Z" fill="#37474F"/>
<path d="M75.8747 277.236V267.367L71.1912 270.085V279.955L75.8747 277.236Z" fill="#455A64"/>
<path d="M76.0441 267.268L75.8748 267.366V277.236L76.0441 277.366V267.268Z" fill="#263238"/>
<path d="M55.1219 273.285L51.7173 271.306V276.353L55.1219 278.332V273.285Z" fill="#455A64"/>
<path d="M52.0068 276.183V271.472L55.1218 273.285V277.995L52.0068 276.183Z" fill="#FAFAFA"/>
<path d="M51.7173 276.353L52.0069 276.183L55.1219 277.995V278.332L51.7173 276.353Z" fill="#37474F"/>
<path d="M55.1219 275.792L51.7173 273.827V273.486L55.1219 275.451V275.792Z" fill="#455A64"/>
<path d="M52.0068 271.472L55.1218 273.285V274.258L52.0068 272.459V271.472Z" fill="#F5F5F5"/>
<path d="M44.9837 267.389L41.5791 265.411V270.462L44.9837 272.441V267.389Z" fill="#455A64"/>
<path d="M41.8733 270.292V265.581L44.9838 267.389V272.1L41.8733 270.292Z" fill="#FAFAFA"/>
<path d="M41.5791 270.462L41.8732 270.292L44.9837 272.099V272.44L41.5791 270.462Z" fill="#37474F"/>
<path d="M44.9837 269.897L41.5791 267.932V267.591L44.9837 269.556V269.897Z" fill="#455A64"/>
<path d="M41.8733 265.581L44.9838 267.389V268.322L41.8733 266.528V265.581Z" fill="#F5F5F5"/>
<path d="M183.85 251.315L149.096 271.517V273.199L183.85 293.401L218.609 273.199V271.517L183.85 251.315Z" fill="#263238"/>
<path opacity="0.15" d="M149.096 271.517L183.855 291.719L183.85 293.401L149.096 273.199V271.517Z" fill="black"/>
<path opacity="0.1" d="M183.855 291.719L218.609 271.517V273.199L183.85 293.401L183.855 291.719Z" fill="black"/>
<path d="M215.613 265.497L214.24 268.222L214.462 268.335L215.836 265.611L215.613 265.497Z" fill="#455A64"/>
<path d="M213.423 264.518L213.211 264.651L214.56 266.828L214.772 266.695L213.423 264.518Z" fill="#455A64"/>
<path d="M214.567 265.034V271.602C214.566 271.62 214.56 271.637 214.55 271.652C214.54 271.667 214.526 271.679 214.509 271.687C214.464 271.711 214.414 271.724 214.362 271.724C214.311 271.724 214.26 271.711 214.215 271.687C214.198 271.68 214.183 271.668 214.172 271.653C214.161 271.638 214.155 271.62 214.153 271.602V265.034H214.567Z" fill="#455A64"/>
<path d="M219.5 262.993C219.5 263.596 219.323 264.186 218.99 264.688C218.657 265.19 218.184 265.581 217.63 265.811C217.076 266.042 216.467 266.103 215.879 265.985C215.291 265.867 214.751 265.577 214.327 265.15C213.904 264.724 213.615 264.18 213.498 263.588C213.381 262.996 213.441 262.383 213.671 261.826C213.9 261.268 214.288 260.792 214.787 260.457C215.285 260.121 215.871 259.942 216.47 259.942C217.274 259.942 218.045 260.264 218.613 260.836C219.181 261.408 219.5 262.184 219.5 262.993Z" fill="#263238"/>
<path opacity="0.2" d="M217.419 262.212C217.812 260.974 218.231 260.489 217.963 260.337C217.461 260.051 216.888 259.915 216.312 259.945C215.736 259.975 215.18 260.171 214.711 260.508C214.241 260.845 213.877 261.311 213.661 261.849C213.445 262.388 213.386 262.977 213.491 263.548C213.596 264.119 213.861 264.648 214.255 265.073C214.648 265.497 215.154 265.8 215.713 265.945C216.272 266.091 216.86 266.072 217.408 265.892C217.957 265.713 218.443 265.379 218.81 264.931C217.91 265.195 216.916 263.805 217.419 262.212Z" fill="black"/>
<path d="M213.827 263.854C213.827 264.278 213.702 264.693 213.468 265.045C213.234 265.398 212.902 265.673 212.512 265.835C212.123 265.997 211.695 266.04 211.282 265.957C210.868 265.874 210.489 265.67 210.191 265.37C209.893 265.07 209.69 264.688 209.608 264.272C209.526 263.856 209.568 263.425 209.729 263.033C209.891 262.641 210.164 262.307 210.514 262.071C210.864 261.835 211.276 261.709 211.697 261.709C212.262 261.709 212.804 261.935 213.203 262.338C213.603 262.74 213.827 263.285 213.827 263.854Z" fill="#263238"/>
<path opacity="0.2" d="M211.697 261.709C211.251 261.71 210.815 261.853 210.454 262.118C210.396 263.423 211.501 264.702 211.194 265.132C210.886 265.563 210.124 265.298 209.857 264.931C210.045 265.256 210.314 265.526 210.638 265.713C210.962 265.901 211.33 265.999 211.703 265.998C212.077 265.998 212.444 265.898 212.767 265.709C213.091 265.52 213.359 265.249 213.546 264.923C213.732 264.597 213.83 264.227 213.829 263.851C213.829 263.475 213.73 263.105 213.543 262.779C213.355 262.454 213.086 262.184 212.762 261.996C212.438 261.808 212.071 261.709 211.697 261.709Z" fill="black"/>
<path d="M214.362 265.478C216.521 265.478 218.27 263.717 218.27 261.544C218.27 259.371 216.521 257.609 214.362 257.609C212.204 257.609 210.454 259.371 210.454 261.544C210.454 263.717 212.204 265.478 214.362 265.478Z" fill="#263238"/>
<path opacity="0.1" d="M218.163 262.459C218.012 263.094 217.707 263.681 217.274 264.167C216.842 264.653 216.296 265.023 215.686 265.244C215.076 265.465 214.421 265.53 213.78 265.433C213.139 265.335 212.532 265.079 212.014 264.687C211.496 264.295 211.083 263.779 210.812 263.186C210.541 262.593 210.421 261.941 210.463 261.29C210.504 260.639 210.706 260.008 211.05 259.455C211.394 258.902 211.869 258.443 212.433 258.121C212.092 258.314 211.783 258.558 211.515 258.843C211.32 259.684 211.407 260.566 211.76 261.353C212.114 262.14 212.715 262.788 213.47 263.196C214.226 263.604 215.094 263.751 215.941 263.613C216.788 263.475 217.566 263.06 218.155 262.432L218.163 262.459Z" fill="black"/>
<path d="M154.701 265.354L153.327 268.078L153.55 268.192L154.923 265.468L154.701 265.354Z" fill="#455A64"/>
<path d="M152.528 264.591L152.315 264.725L153.664 266.902L153.876 266.769L152.528 264.591Z" fill="#455A64"/>
<path d="M153.654 264.891V271.459C153.652 271.477 153.645 271.494 153.634 271.509C153.623 271.524 153.609 271.536 153.592 271.544C153.546 271.566 153.496 271.578 153.445 271.578C153.394 271.578 153.344 271.566 153.298 271.544C153.282 271.535 153.269 271.523 153.259 271.508C153.249 271.493 153.242 271.476 153.24 271.459V264.891H153.654Z" fill="#455A64"/>
<path d="M158.587 262.845C158.587 263.448 158.41 264.038 158.077 264.539C157.744 265.041 157.27 265.432 156.717 265.663C156.163 265.894 155.554 265.954 154.966 265.837C154.378 265.719 153.838 265.428 153.414 265.002C152.991 264.575 152.702 264.032 152.585 263.44C152.468 262.848 152.528 262.235 152.758 261.677C152.987 261.12 153.375 260.643 153.874 260.308C154.372 259.973 154.958 259.794 155.557 259.794C156.36 259.795 157.131 260.117 157.699 260.689C158.267 261.261 158.586 262.036 158.587 262.845Z" fill="#263238"/>
<path opacity="0.2" d="M156.506 262.064C156.899 260.826 157.313 260.341 157.05 260.189C156.548 259.902 155.976 259.766 155.4 259.797C154.824 259.827 154.269 260.022 153.799 260.358C153.329 260.695 152.965 261.16 152.748 261.698C152.532 262.236 152.472 262.825 152.577 263.396C152.681 263.967 152.946 264.496 153.339 264.921C153.731 265.346 154.237 265.65 154.795 265.796C155.353 265.942 155.941 265.924 156.49 265.746C157.038 265.567 157.525 265.234 157.892 264.787C156.997 265.047 155.998 263.67 156.506 262.064Z" fill="black"/>
<path d="M152.915 263.706C152.916 264.13 152.791 264.545 152.558 264.898C152.324 265.252 151.992 265.527 151.603 265.69C151.214 265.853 150.785 265.896 150.372 265.814C149.958 265.732 149.578 265.528 149.28 265.228C148.982 264.929 148.778 264.546 148.696 264.13C148.613 263.714 148.655 263.283 148.816 262.891C148.977 262.499 149.25 262.163 149.601 261.928C149.951 261.692 150.363 261.566 150.785 261.566C151.349 261.566 151.89 261.791 152.289 262.192C152.689 262.594 152.914 263.138 152.915 263.706Z" fill="#263238"/>
<path opacity="0.2" d="M150.785 261.562C150.338 261.56 149.903 261.701 149.542 261.965C149.484 263.275 150.589 264.549 150.277 264.98C149.965 265.411 149.207 265.146 148.94 264.783C149.128 265.108 149.397 265.378 149.721 265.565C150.045 265.753 150.413 265.851 150.786 265.85C151.16 265.85 151.527 265.75 151.85 265.561C152.174 265.372 152.442 265.101 152.629 264.775C152.815 264.449 152.913 264.079 152.912 263.703C152.912 263.327 152.813 262.957 152.626 262.632C152.438 262.306 152.169 262.036 151.845 261.848C151.521 261.66 151.154 261.561 150.78 261.562H150.785Z" fill="black"/>
<path d="M153.445 265.33C155.603 265.33 157.353 263.568 157.353 261.395C157.353 259.222 155.603 257.461 153.445 257.461C151.287 257.461 149.537 259.222 149.537 261.395C149.537 263.568 151.287 265.33 153.445 265.33Z" fill="#263238"/>
<path opacity="0.1" d="M157.251 262.297C157.102 262.933 156.799 263.523 156.367 264.012C155.936 264.5 155.39 264.873 154.78 265.096C154.169 265.32 153.513 265.386 152.871 265.29C152.228 265.194 151.62 264.938 151.1 264.546C150.581 264.153 150.167 263.637 149.895 263.043C149.624 262.449 149.504 261.796 149.546 261.143C149.588 260.491 149.791 259.859 150.136 259.306C150.482 258.752 150.959 258.294 151.524 257.972C151.186 258.166 150.878 258.41 150.611 258.694C150.42 259.535 150.509 260.414 150.864 261.199C151.218 261.983 151.818 262.628 152.572 263.036C153.326 263.444 154.192 263.591 155.038 263.455C155.883 263.319 156.66 262.907 157.251 262.283V262.297Z" fill="black"/>
<path d="M190.851 242.531L193.765 244.227V247.618L190.851 245.922V242.531Z" fill="#E0E0E0"/>
<path d="M193.765 244.227L196.684 242.531V249.309L193.765 247.618V244.227Z" fill="#F0F0F0"/>
<path d="M193.766 239.646L190.548 241.512V242.36L193.766 244.226L196.987 242.36V241.512L193.766 239.646Z" fill="#455A64"/>
<path d="M190.548 242.36L193.766 244.226V243.378L190.548 241.512V242.36Z" fill="#37474F"/>
<path d="M196.987 242.36L193.765 244.226V243.378L196.987 241.512V242.36Z" fill="#263238"/>
<path d="M191.626 241.513L193.765 240.274L195.909 241.513L193.765 242.755L191.626 241.513Z" fill="#263238"/>
<path d="M193.765 240.274V242.755L191.626 241.513L193.765 240.274Z" fill="#37474F"/>
<path d="M193.765 240.274L195.909 241.513L193.765 242.755V240.274Z" fill="#263238"/>
<path d="M183.855 276.568L183.85 261.418L192.526 266.465V281.615L183.855 276.568Z" fill="#F0F0F0"/>
<path d="M183.85 261.418L192.526 266.465V272.499L183.85 267.461V261.418Z" fill="#E0E0E0"/>
<path d="M209.919 271.517V256.367L201.212 251.315L192.526 266.466V281.616L209.919 271.517Z" fill="#FAFAFA"/>
<path d="M191.091 268.991L201.212 251.315V249.632L189.643 269.834L191.091 268.991Z" fill="#37474F"/>
<path d="M183.85 239.534L201.212 249.633L189.643 269.834L183.855 266.465L183.85 239.534Z" fill="#455A64"/>
<path d="M201.212 251.315L211.368 257.205L212.816 256.366L201.212 249.632V251.315Z" fill="#263238"/>
<path d="M204.844 264.679L208.248 262.714V267.766L204.844 269.731V264.679Z" fill="#455A64"/>
<path d="M207.959 267.596V262.885L204.844 264.68V269.39L207.959 267.596Z" fill="#E0E0E0"/>
<path d="M208.248 267.766L207.959 267.595L204.844 269.39V269.731L208.248 267.766Z" fill="#37474F"/>
<path d="M204.844 267.205L208.248 265.24V264.899L204.844 266.864V267.205Z" fill="#455A64"/>
<path d="M194.157 270.884L197.562 268.919V273.966L194.157 275.935V270.884Z" fill="#455A64"/>
<path d="M197.272 273.801V269.085L194.157 270.884V275.595L197.272 273.801Z" fill="#E0E0E0"/>
<path d="M197.562 273.966L197.272 273.8L194.157 275.595V275.936L197.562 273.966Z" fill="#37474F"/>
<path d="M194.157 273.41L197.562 271.445V271.104L194.157 273.069V273.41Z" fill="#455A64"/>
<path d="M199.042 258.892L203.386 256.367V260.153L199.042 262.679V258.892Z" fill="#455A64"/>
<path d="M203.097 259.982V256.532L199.042 258.892V262.342L203.097 259.982Z" fill="#E0E0E0"/>
<path d="M203.386 260.153L203.097 259.982L199.042 262.342V262.679L203.386 260.153Z" fill="#37474F"/>
<path d="M211.367 257.206H209.919V256.367L211.367 257.206Z" fill="black"/>
<path d="M198.788 277.972V267.874L203.64 265.056V275.155L198.788 277.972Z" fill="#37474F"/>
<path d="M203.471 275.025V265.155L198.788 267.873V277.743L203.471 275.025Z" fill="#455A64"/>
<path d="M203.641 265.056L203.471 265.155V275.025L203.641 275.155V265.056Z" fill="#263238"/>
<path d="M183.85 276.568V261.418L175.178 266.465V281.615L183.85 276.568Z" fill="#FAFAFA"/>
<path d="M183.85 261.418L175.178 266.465V272.499L183.855 267.461L183.85 261.418Z" fill="#F5F5F5"/>
<path d="M157.785 271.517V256.367L166.489 251.315L175.178 266.466V281.616L157.785 271.517Z" fill="#EBEBEB"/>
<path d="M176.613 268.991L166.489 251.315V249.632L178.061 269.834L176.613 268.991Z" fill="#455A64"/>
<path d="M183.85 239.534L166.489 249.633L178.061 269.834L183.85 266.465V239.534Z" fill="#37474F"/>
<path d="M166.489 251.315L156.337 257.205L154.889 256.366L166.489 249.632V251.315Z" fill="#263238"/>
<path d="M164.087 265.066L160.682 263.101V268.152L164.087 270.113V265.066Z" fill="#455A64"/>
<path d="M160.972 267.981V263.266L164.087 265.065V269.776L160.972 267.981Z" fill="#FAFAFA"/>
<path d="M160.972 263.266L164.087 265.079V265.702L160.972 263.903V263.266Z" fill="#F5F5F5"/>
<path d="M169.154 268.021L172.268 269.834V270.458L169.154 268.659V268.021Z" fill="#F5F5F5"/>
<path d="M160.682 268.152L160.972 267.981L164.087 269.776V270.112L160.682 268.152Z" fill="#37474F"/>
<path d="M164.087 267.591L160.682 265.626V265.285L164.087 267.25V267.591Z" fill="#455A64"/>
<path d="M168.663 258.892L164.318 256.367V260.153L168.663 262.679V258.892Z" fill="#455A64"/>
<path d="M164.608 259.982V256.532L168.663 258.892V262.342L164.608 259.982Z" fill="#FAFAFA"/>
<path d="M164.608 256.532L168.663 258.892V259.516L164.608 257.174V256.532Z" fill="#F5F5F5"/>
<path d="M164.318 260.153L164.608 259.982L168.663 262.342V262.679L164.318 260.153Z" fill="#37474F"/>
<path d="M156.337 257.206H157.785V256.367L156.337 257.206Z" fill="black"/>
<path d="M172.268 269.834L168.864 267.856V272.903L172.268 274.881V269.834Z" fill="#455A64"/>
<path d="M169.154 272.732V268.021L172.268 269.834V274.545L169.154 272.732Z" fill="#FAFAFA"/>
<path d="M168.864 272.903L169.153 272.732L172.268 274.545V274.881L168.864 272.903Z" fill="#37474F"/>
<path d="M172.268 272.342L168.864 270.377V270.036L172.268 272.001V272.342Z" fill="#455A64"/>
<path d="M169.154 268.021L172.268 269.834V270.458L169.154 268.659V268.021Z" fill="#F5F5F5"/>
<path d="M189.643 269.834L185.294 267.304V271.96L189.643 274.486V269.834Z" fill="#263238"/>
<path d="M185.562 271.804V267.461L189.643 269.834V274.177L185.562 271.804Z" fill="#FAFAFA"/>
<path d="M185.562 267.461V268.47L189.643 270.848V269.834L185.562 267.461Z" fill="#F0F0F0"/>
<path d="M185.294 271.961L185.561 271.804L189.643 274.177V274.486L185.294 271.961Z" fill="#37474F"/>
<path d="M185.294 269.633L185.561 269.476L189.643 271.849V272.163L185.294 269.633Z" fill="#37474F"/>
<path d="M187.38 273.172L187.647 273.324V268.672L187.38 268.515V273.172Z" fill="#37474F"/>
<path d="M180.878 279.955L181.649 279.507C181.861 278.245 181.893 276.959 181.742 275.689C181.355 273.212 179.675 272.355 179.068 272.602C178.462 272.849 178.32 273.585 179.421 275.016C180.416 276.464 180.926 278.195 180.878 279.955Z" fill="#263238"/>
<g opacity="0.2">
<path d="M180.878 279.955L181.649 279.507C181.861 278.245 181.893 276.959 181.742 275.689C181.355 273.212 179.675 272.355 179.068 272.602C178.462 272.849 178.32 273.585 179.421 275.016C180.416 276.464 180.926 278.195 180.878 279.955Z" fill="black"/>
</g>
<path d="M181.159 278.986C181.151 278.986 181.144 278.984 181.137 278.98C181.131 278.977 181.125 278.972 181.12 278.966C181.116 278.96 181.112 278.953 181.11 278.946C181.109 278.938 181.108 278.931 181.11 278.923C181.43 276.604 180.504 274.06 179.461 273.033C179.451 273.023 179.445 273.009 179.445 272.995C179.445 272.981 179.451 272.967 179.461 272.957C179.471 272.947 179.484 272.941 179.499 272.941C179.513 272.941 179.526 272.947 179.537 272.957C180.597 273.998 181.542 276.582 181.221 278.941C181.22 278.948 181.217 278.955 181.214 278.961C181.21 278.968 181.205 278.973 181.199 278.977C181.193 278.981 181.187 278.984 181.18 278.986C181.173 278.987 181.166 278.988 181.159 278.986Z" fill="white"/>
<path d="M178.738 281.216C178.614 281.288 178.364 281.135 178.266 281.068C178.102 280.954 177.97 280.8 177.883 280.62C177.784 280.417 177.75 280.188 177.785 279.965C177.804 279.846 177.831 279.729 177.865 279.615C177.901 279.498 177.932 279.386 177.963 279.274C178.004 279.163 178.02 279.046 178.012 278.928C177.982 278.815 177.929 278.71 177.857 278.618C177.785 278.526 177.695 278.45 177.593 278.394C177.479 278.328 177.381 278.235 177.308 278.123C177.236 278.012 177.19 277.885 177.174 277.753C177.189 277.535 177.275 277.328 177.419 277.165C177.553 276.995 177.709 276.847 177.829 276.667C177.912 276.57 177.96 276.449 177.968 276.322C177.976 276.195 177.943 276.069 177.874 275.963C177.761 275.789 177.663 275.606 177.58 275.415C177.539 275.32 177.527 275.215 177.543 275.112C177.56 275.01 177.605 274.914 177.673 274.837C177.741 274.786 177.818 274.749 177.9 274.728C177.982 274.707 178.067 274.703 178.15 274.716C178.309 274.734 178.461 274.788 178.596 274.873C179.041 275.119 179.291 275.649 179.759 275.837C179.944 275.897 180.133 275.943 180.325 275.976C180.421 275.993 180.513 276.031 180.594 276.087C180.674 276.142 180.742 276.215 180.793 276.299C180.967 276.645 180.646 277.071 180.766 277.439C180.886 277.807 181.189 277.887 181.363 278.183C181.438 278.31 181.468 278.459 181.448 278.605C181.432 278.855 181.372 279.099 181.27 279.327C181.153 279.551 181.022 279.767 180.877 279.973L178.738 281.216Z" fill="#263238"/>
<g opacity="0.1">
<path d="M178.738 281.216C178.614 281.288 178.364 281.135 178.266 281.068C178.102 280.954 177.97 280.8 177.883 280.62C177.784 280.417 177.75 280.188 177.785 279.965C177.804 279.846 177.831 279.729 177.865 279.615C177.901 279.498 177.932 279.386 177.963 279.274C178.004 279.163 178.02 279.046 178.012 278.928C177.982 278.815 177.929 278.71 177.857 278.618C177.785 278.526 177.695 278.45 177.593 278.394C177.479 278.328 177.381 278.235 177.308 278.123C177.236 278.012 177.19 277.885 177.174 277.753C177.189 277.535 177.275 277.328 177.419 277.165C177.553 276.995 177.709 276.847 177.829 276.667C177.912 276.57 177.96 276.449 177.968 276.322C177.976 276.195 177.943 276.069 177.874 275.963C177.761 275.789 177.663 275.606 177.58 275.415C177.539 275.32 177.527 275.215 177.543 275.112C177.56 275.01 177.605 274.914 177.673 274.837C177.741 274.786 177.818 274.749 177.9 274.728C177.982 274.707 178.067 274.703 178.15 274.716C178.309 274.734 178.461 274.788 178.596 274.873C179.041 275.119 179.291 275.649 179.759 275.837C179.944 275.897 180.133 275.943 180.325 275.976C180.421 275.993 180.513 276.031 180.594 276.087C180.674 276.142 180.742 276.215 180.793 276.299C180.967 276.645 180.646 277.071 180.766 277.439C180.886 277.807 181.189 277.887 181.363 278.183C181.438 278.31 181.468 278.459 181.448 278.605C181.432 278.855 181.372 279.099 181.27 279.327C181.153 279.551 181.022 279.767 180.877 279.973L178.738 281.216Z" fill="black"/>
</g>
<path d="M179.991 280.547C179.977 280.545 179.964 280.538 179.954 280.528C179.944 280.517 179.938 280.503 179.937 280.489C180.031 278.291 179.002 275.864 178.253 275.159C178.248 275.154 178.243 275.148 178.24 275.142C178.237 275.135 178.236 275.128 178.236 275.121C178.235 275.113 178.237 275.106 178.239 275.099C178.242 275.092 178.246 275.086 178.251 275.081C178.256 275.076 178.262 275.071 178.268 275.068C178.275 275.065 178.282 275.064 178.289 275.063C178.296 275.063 178.304 275.065 178.31 275.067C178.317 275.07 178.323 275.074 178.329 275.079C179.091 275.796 180.142 278.264 180.049 280.494C180.048 280.508 180.041 280.522 180.03 280.532C180.02 280.542 180.005 280.547 179.991 280.547Z" fill="white"/>
<path d="M179.661 277.95C179.143 277.808 178.611 277.723 178.075 277.694C178.067 277.694 178.06 277.693 178.053 277.69C178.046 277.687 178.04 277.682 178.035 277.677C178.03 277.671 178.026 277.665 178.024 277.658C178.021 277.651 178.021 277.643 178.021 277.636C178.022 277.621 178.029 277.607 178.04 277.598C178.05 277.588 178.064 277.582 178.079 277.582C178.625 277.611 179.166 277.699 179.692 277.847C179.699 277.849 179.705 277.852 179.711 277.857C179.716 277.861 179.721 277.867 179.724 277.873C179.727 277.879 179.729 277.886 179.73 277.893C179.731 277.9 179.73 277.907 179.728 277.914C179.723 277.927 179.713 277.938 179.701 277.944C179.689 277.951 179.675 277.953 179.661 277.95Z" fill="white"/>
<path d="M198.788 277.973L203.64 275.155L207.994 277.686L203.141 280.498L198.788 277.973Z" fill="#F0F0F0"/>
<path d="M120.313 285.294L77.9512 309.915V311.808L121.939 337.375L164.296 312.754V310.861L120.313 285.294Z" fill="#263238"/>
<path d="M139.862 319.385L144.72 322.243L152.879 317.501L148.008 314.652L139.862 319.385Z" fill="#F0F0F0"/>
<path opacity="0.15" d="M77.9512 309.915L121.939 335.482V337.375L77.9512 311.808V309.915Z" fill="black"/>
<path opacity="0.1" d="M121.939 335.481L164.296 310.861V312.754L121.939 337.375V335.481Z" fill="black"/>
<path d="M159.536 302.477L157.649 306.222L157.955 306.378L159.842 302.634L159.536 302.477Z" fill="#263238"/>
<path d="M156.029 302.159L155.741 302.338L157.582 305.333L157.87 305.153L156.029 302.159Z" fill="#263238"/>
<path d="M158.066 301.812V310.834C158.063 310.86 158.054 310.884 158.039 310.904C158.024 310.925 158.004 310.941 157.981 310.951C157.919 310.983 157.849 311 157.779 311C157.708 311 157.639 310.983 157.576 310.951C157.553 310.941 157.534 310.924 157.52 310.904C157.506 310.883 157.497 310.859 157.496 310.834V301.812H158.066Z" fill="#263238"/>
<path d="M160.691 303.194C162.99 303.194 164.853 301.318 164.853 299.004C164.853 296.689 162.99 294.813 160.691 294.813C158.392 294.813 156.529 296.689 156.529 299.004C156.529 301.318 158.392 303.194 160.691 303.194Z" fill="#455A64"/>
<path d="M161.996 297.936C162.531 296.231 163.106 295.567 162.741 295.361C162.051 294.968 161.265 294.781 160.474 294.822C159.682 294.863 158.919 295.131 158.274 295.594C157.628 296.057 157.128 296.695 156.831 297.435C156.533 298.174 156.452 298.984 156.596 299.768C156.74 300.552 157.103 301.279 157.643 301.863C158.183 302.446 158.878 302.863 159.645 303.063C160.412 303.263 161.22 303.238 161.973 302.992C162.727 302.746 163.395 302.288 163.899 301.673C162.669 302.032 161.301 300.143 161.996 297.936Z" fill="#37474F"/>
<path d="M154.136 303.136C155.75 303.136 157.059 301.818 157.059 300.193C157.059 298.568 155.75 297.25 154.136 297.25C152.521 297.25 151.212 298.568 151.212 300.193C151.212 301.818 152.521 303.136 154.136 303.136Z" fill="#455A64"/>
<path d="M154.136 297.246C153.522 297.245 152.923 297.44 152.425 297.802C152.349 299.596 153.864 301.355 153.441 301.947C153.018 302.539 151.97 302.172 151.609 301.674C151.868 302.119 152.238 302.488 152.683 302.744C153.128 303 153.632 303.133 154.144 303.132C154.657 303.13 155.159 302.992 155.602 302.733C156.045 302.474 156.413 302.102 156.668 301.655C156.923 301.207 157.057 300.7 157.057 300.185C157.056 299.669 156.921 299.162 156.664 298.716C156.408 298.269 156.039 297.898 155.595 297.64C155.152 297.382 154.648 297.246 154.136 297.246Z" fill="#37474F"/>
<path d="M163.011 298.248C163.692 295.345 161.906 292.435 159.022 291.75C156.138 291.065 153.248 292.863 152.567 295.766C151.887 298.67 153.673 301.579 156.557 302.264C159.441 302.949 162.331 301.151 163.011 298.248Z" fill="#455A64"/>
<path d="M163.017 298.25C162.808 299.116 162.389 299.916 161.798 300.578C161.206 301.241 160.461 301.745 159.628 302.046C158.795 302.348 157.901 302.436 157.025 302.303C156.15 302.171 155.321 301.822 154.613 301.287C153.905 300.753 153.34 300.05 152.968 299.241C152.596 298.433 152.43 297.544 152.483 296.655C152.536 295.766 152.808 294.903 153.274 294.146C153.74 293.388 154.385 292.759 155.152 292.314C154.687 292.581 154.264 292.915 153.895 293.306C153.802 293.711 153.754 294.124 153.753 294.54C153.744 295.625 154.061 296.688 154.662 297.589C155.264 298.489 156.122 299.186 157.123 299.587C158.125 299.989 159.224 300.075 160.276 299.837C161.328 299.598 162.283 299.045 163.017 298.25Z" fill="#37474F"/>
<path d="M86.2701 301.407L84.3823 305.152L84.6883 305.308L86.5761 301.564L86.2701 301.407Z" fill="#263238"/>
<path d="M82.7716 301.11L82.4836 301.289L84.325 304.283L84.6129 304.104L82.7716 301.11Z" fill="#263238"/>
<path d="M84.8187 300.758V309.78C84.817 309.805 84.8086 309.829 84.7945 309.85C84.7804 309.87 84.761 309.886 84.7385 309.897C84.6757 309.929 84.6062 309.946 84.5357 309.946C84.4652 309.946 84.3957 309.929 84.333 309.897C84.3099 309.887 84.2899 309.87 84.275 309.85C84.2601 309.83 84.2509 309.805 84.2483 309.78V300.758H84.8187Z" fill="#263238"/>
<path d="M87.4344 302.144C89.7331 302.144 91.5965 300.268 91.5965 297.954C91.5965 295.64 89.7331 293.764 87.4344 293.764C85.1357 293.764 83.2722 295.64 83.2722 297.954C83.2722 300.268 85.1357 302.144 87.4344 302.144Z" fill="#455A64"/>
<path d="M88.7399 296.882C89.2747 295.177 89.8451 294.513 89.4841 294.307C88.7947 293.914 88.0082 293.727 87.2169 293.768C86.4257 293.809 85.6625 294.077 85.0172 294.54C84.3719 295.002 83.8712 295.641 83.574 296.381C83.2767 297.12 83.1953 297.929 83.3393 298.714C83.4833 299.498 83.8467 300.225 84.3868 300.809C84.9268 301.392 85.6212 301.808 86.3882 302.009C87.1552 302.209 87.963 302.184 88.7166 301.938C89.4703 301.692 90.1385 301.234 90.6427 300.619C89.4128 300.982 88.0403 299.089 88.7399 296.882Z" fill="#37474F"/>
<path d="M80.8791 302.082C82.4936 302.082 83.8024 300.764 83.8024 299.139C83.8024 297.513 82.4936 296.196 80.8791 296.196C79.2646 296.196 77.9558 297.513 77.9558 299.139C77.9558 300.764 79.2646 302.082 80.8791 302.082Z" fill="#455A64"/>
<path d="M80.8791 296.196C80.2654 296.195 79.6668 296.388 79.1679 296.748C79.0876 298.542 80.6072 300.301 80.1839 300.893C79.7605 301.485 78.7133 301.117 78.3479 300.619C78.6057 301.065 78.9755 301.435 79.42 301.692C79.8646 301.948 80.3684 302.083 80.881 302.082C81.3935 302.081 81.8967 301.944 82.3401 301.685C82.7836 301.426 83.1516 301.055 83.4075 300.608C83.6633 300.161 83.7979 299.654 83.7977 299.138C83.7975 298.622 83.6626 298.115 83.4065 297.668C83.1504 297.221 82.7821 296.85 82.3385 296.591C81.8949 296.333 81.3916 296.197 80.8791 296.196Z" fill="#37474F"/>
<path d="M88.3282 299.782C90.4235 297.673 90.4235 294.253 88.3282 292.143C86.2329 290.034 82.8357 290.034 80.7404 292.143C78.6451 294.253 78.6451 297.673 80.7404 299.782C82.8357 301.892 86.2329 301.892 88.3282 299.782Z" fill="#455A64"/>
<path d="M89.756 297.196C89.5476 298.062 89.1288 298.863 88.5372 299.526C87.9456 300.189 87.1997 300.694 86.3664 300.995C85.5332 301.297 84.6387 301.385 83.7631 301.252C82.8876 301.12 82.0585 300.771 81.3502 300.236C80.6419 299.701 80.0766 298.997 79.705 298.188C79.3334 297.379 79.1671 296.49 79.2211 295.6C79.2752 294.711 79.5478 293.849 80.0145 293.091C80.4812 292.334 81.1274 291.705 81.8951 291.261C81.4289 291.525 81.0052 291.86 80.6385 292.252C80.5453 292.657 80.4975 293.071 80.4959 293.486C80.4877 294.57 80.8051 295.632 81.4065 296.532C82.0078 297.431 82.865 298.127 83.8659 298.528C84.8667 298.929 85.9646 299.017 87.0156 298.779C88.0666 298.541 89.0217 297.99 89.756 297.196Z" fill="#37474F"/>
<path d="M97.501 304.235L131.716 324.118V293.818L97.501 273.935V304.235Z" fill="#F0F0F0"/>
<path d="M121.939 312.754V329.802L87.7285 309.914V292.871L121.939 312.754Z" fill="#F0F0F0"/>
<path d="M87.7285 298.551L121.939 318.438V312.754L87.7285 292.871V298.551Z" fill="#E0E0E0"/>
<path d="M97.501 279.614L131.716 299.497V293.818L97.501 273.93V279.614Z" fill="#E0E0E0"/>
<path d="M131.716 293.818L154.524 280.561V310.861L131.716 324.118V293.818Z" fill="#FAFAFA"/>
<path d="M121.939 312.755L131.716 303.289V324.118L121.939 329.802V312.755Z" fill="#FAFAFA"/>
<path d="M143.12 273.93L131.716 293.818L154.524 280.561L143.12 273.93Z" fill="#FAFAFA"/>
<path d="M130.085 296.658L143.12 273.93V272.513L130.085 295.24V296.658Z" fill="#263238"/>
<path opacity="0.1" d="M130.085 296.658L143.12 273.93V272.513L130.085 295.24V296.658Z" fill="black"/>
<path d="M108.906 252.629L95.8738 275.354L130.086 295.239L143.118 272.514L108.906 252.629Z" fill="#263238"/>
<path d="M95.8743 275.353L130.085 295.24V296.658L95.8743 276.775V275.353Z" fill="#263238"/>
<path opacity="0.15" d="M95.8743 275.353L130.085 295.24V296.658L95.8743 276.775V275.353Z" fill="black"/>
<path d="M143.12 272.513L157.376 280.799L156.15 281.508L143.12 273.93V272.513Z" fill="#263238"/>
<path opacity="0.15" d="M143.12 272.513L157.376 280.799L156.15 281.508L143.12 273.93V272.513Z" fill="black"/>
<path d="M156.15 281.508H154.523V280.561L156.15 281.508Z" fill="#263238"/>
<path opacity="0.3" d="M156.15 281.508H154.523V280.561L156.15 281.508Z" fill="black"/>
<path d="M102.75 275.083V268.264L106.649 265.999L110.535 272.773V279.614L102.75 275.083Z" fill="#F0F0F0"/>
<path opacity="0.2" d="M106.65 265.999L101.837 268.793L101.222 268.435L106.65 265.281V265.999Z" fill="black"/>
<path d="M110.536 279.615L114.426 272.822L116.413 269.35L110.536 272.773V279.615Z" fill="#FAFAFA"/>
<path opacity="0.4" d="M101.837 268.793H102.751V268.264L101.837 268.793Z" fill="black"/>
<path d="M111.462 274.388L106.65 265.999V265.281L112.064 274.738L111.462 274.388Z" fill="#263238"/>
<path opacity="0.1" d="M111.462 274.388L106.65 265.999V265.281L112.064 274.738L111.462 274.388Z" fill="black"/>
<path d="M112.064 274.737L106.65 265.28L112.251 262.023L117.666 271.48L112.064 274.737Z" fill="#263238"/>
<path opacity="0.3" d="M112.064 274.737L106.65 265.28L112.251 262.023L117.666 271.48L112.064 274.737Z" fill="white"/>
<path d="M108.593 271.678L104.698 269.413V273.935L108.593 276.2V271.678Z" fill="#455A64"/>
<path d="M105.094 273.701V269.641L108.592 271.678V275.733L105.094 273.701Z" fill="#E0E0E0"/>
<path d="M104.698 273.935L105.095 273.702L108.593 275.734V276.201L104.698 273.935Z" fill="#37474F"/>
<path d="M119.038 284.553V277.734L122.942 275.469L126.828 282.243V289.085L119.038 284.553Z" fill="#F0F0F0"/>
<path opacity="0.2" d="M122.942 275.469L118.129 278.264L117.51 277.905L122.942 274.751V275.469Z" fill="black"/>
<path d="M126.828 289.085L130.714 282.293L132.701 278.82L126.828 282.243V289.085Z" fill="#FAFAFA"/>
<path opacity="0.4" d="M118.129 278.264H119.038V277.735L118.129 278.264Z" fill="black"/>
<path d="M127.755 283.859L122.942 275.469V274.751L128.352 284.208L127.755 283.859Z" fill="#263238"/>
<path opacity="0.1" d="M127.755 283.859L122.942 275.469V274.751L128.352 284.208L127.755 283.859Z" fill="black"/>
<path d="M128.352 284.208L122.942 274.751L128.539 271.49L133.953 280.947L128.352 284.208Z" fill="#263238"/>
<path opacity="0.3" d="M128.352 284.208L122.942 274.751L128.539 271.49L133.953 280.947L128.352 284.208Z" fill="white"/>
<path d="M124.88 281.144L120.986 278.883V283.405L124.88 285.671V281.144Z" fill="#455A64"/>
<path d="M121.386 283.172V279.112L124.88 281.145V285.205L121.386 283.172Z" fill="#E0E0E0"/>
<path d="M120.986 283.405L121.387 283.172L124.88 285.204V285.671L120.986 283.405Z" fill="#37474F"/>
<path d="M97.501 282.122L131.716 302.005V303.288L120.313 315.599L86.0974 295.711V294.432L97.501 282.122Z" fill="#263238"/>
<path d="M97.501 282.122L131.716 302.005L120.313 314.315L86.0974 294.432L97.501 282.122Z" fill="#263238"/>
<path opacity="0.1" d="M120.313 314.315V315.598L131.716 303.288V302.005L120.313 314.315Z" fill="black"/>
<path opacity="0.15" d="M120.313 315.598L86.0974 295.711V294.432L120.313 314.315V315.598Z" fill="black"/>
<path d="M100.763 304.23L92.6172 299.497V308.209L100.763 312.942V304.23Z" fill="#263238"/>
<path d="M93.1162 307.918V299.789L100.763 304.235V312.36L93.1162 307.918Z" fill="#FAFAFA"/>
<path d="M93.1162 299.789V301.687L100.763 306.128V304.23L93.1162 299.789Z" fill="#F0F0F0"/>
<path d="M92.6172 308.21L93.1163 307.918L100.763 312.359V312.943L92.6172 308.21Z" fill="#37474F"/>
<path d="M92.6172 303.854L93.1163 303.562L100.763 308.003V308.587L92.6172 303.854Z" fill="#37474F"/>
<path d="M96.5208 310.48L97.0199 310.771V302.059L96.5208 301.768V310.48Z" fill="#37474F"/>
<path d="M115.424 312.754L107.278 308.021V316.733L115.424 321.466V312.754Z" fill="#263238"/>
<path d="M107.777 316.442V308.313L115.424 312.754V320.883L107.777 316.442Z" fill="#FAFAFA"/>
<path d="M107.777 308.313V310.206L115.424 314.652V312.754L107.777 308.313Z" fill="#F0F0F0"/>
<path d="M107.278 316.734L107.777 316.442L115.424 320.883V321.467L107.278 316.734Z" fill="#37474F"/>
<path d="M107.278 312.378L107.777 312.086L115.424 316.527V317.111L107.278 312.378Z" fill="#37474F"/>
<path d="M111.182 319.003L111.681 319.295V310.583L111.182 310.291V319.003Z" fill="#37474F"/>
<path d="M126.828 313.705L134.974 308.968V317.68L126.828 322.413V313.705Z" fill="#263238"/>
<path d="M134.475 317.389V309.26L126.828 313.706V321.83L134.475 317.389Z" fill="#E6E6E6"/>
<path d="M134.475 309.26V310.094L126.828 314.536V313.706L134.475 309.26Z" fill="#E0E0E0"/>
<path d="M134.974 317.68L134.475 317.389L126.828 321.83V322.413L134.974 317.68Z" fill="#37474F"/>
<path d="M134.974 313.324L134.475 313.033L126.828 317.474V318.057L134.974 313.324Z" fill="#37474F"/>
<path d="M131.07 319.95L130.571 320.242V311.529L131.07 311.238V319.95Z" fill="#37474F"/>
<path d="M139.711 285.509L147.857 280.776V289.489L139.711 294.222V285.509Z" fill="#263238"/>
<path d="M147.358 289.197V281.068L139.711 285.509V293.638L147.358 289.197Z" fill="#E6E6E6"/>
<path d="M147.358 281.068V281.902L139.711 286.344V285.509L147.358 281.068Z" fill="#E0E0E0"/>
<path d="M147.857 289.489L147.358 289.197L139.711 293.639V294.222L147.857 289.489Z" fill="#37474F"/>
<path d="M147.857 285.132L147.358 284.841L139.711 289.287V289.87L147.857 285.132Z" fill="#37474F"/>
<path d="M143.953 291.759L143.454 292.05V283.338L143.953 283.046V291.759Z" fill="#37474F"/>
<path d="M139.862 319.385V304.235L148.008 299.497V314.652L139.862 319.385Z" fill="#37474F"/>
<path d="M147.71 314.423V299.672L139.862 304.234V318.985L147.71 314.423Z" fill="#455A64"/>
<path d="M148.009 299.497L147.71 299.672V314.423L148.009 314.652V299.497Z" fill="#263238"/>
<path d="M186.337 193.573C186.312 192.385 186.009 191.219 185.453 190.171C184.897 189.122 184.104 188.221 183.137 187.539C182.246 186.969 181.39 186.884 180.766 187.207C177.001 189.109 150.54 206.188 148.851 207.031H148.828C148.65 207.15 148.507 207.315 148.413 207.508C148.319 207.701 148.278 207.916 148.294 208.131C148.304 208.73 148.455 209.317 148.735 209.846C149.014 210.375 149.415 210.829 149.902 211.172C150.071 211.305 150.272 211.39 150.484 211.418C150.697 211.447 150.913 211.418 151.11 211.334H151.137C153.81 209.849 179.929 198.642 185.267 195.762C185.896 195.412 186.301 194.658 186.337 193.573Z" fill="#263238"/>
<path opacity="0.1" d="M185.299 189.889C184.775 188.943 184.034 188.137 183.137 187.538C182.246 186.969 181.399 186.883 180.776 187.202L180.695 187.247C177.26 189.014 157.567 201.661 150.941 205.775L150.896 205.802L150.629 205.968L150.549 206.017L150.397 206.111L150.219 206.219C149.519 206.668 149.047 206.928 148.882 207.022H148.86C148.803 207.056 148.751 207.097 148.704 207.143C148.579 207.272 148.481 207.426 148.416 207.594C148.351 207.762 148.32 207.941 148.325 208.121C148.316 208.248 148.316 208.376 148.325 208.503C148.325 208.552 148.325 208.601 148.347 208.651C148.37 208.7 148.374 208.803 148.392 208.884C148.41 208.965 148.423 209.01 148.441 209.068C148.459 209.126 148.485 209.216 148.512 209.288C148.539 209.359 148.552 209.395 148.57 209.449V209.476L185.299 189.889Z" fill="black"/>
<path d="M149.898 211.176C149.413 210.834 149.014 210.382 148.734 209.855C148.455 209.329 148.302 208.744 148.289 208.148C148.329 207.053 149.105 206.632 150.027 207.21C150.513 207.553 150.912 208.006 151.192 208.533C151.471 209.06 151.623 209.646 151.636 210.243C151.6 211.338 150.82 211.764 149.898 211.176Z" fill="#263238"/>
<path d="M141.988 211.912C141.999 212.37 142.116 212.819 142.33 213.224C142.545 213.628 142.85 213.976 143.223 214.24C143.352 214.341 143.505 214.405 143.668 214.426C143.83 214.448 143.994 214.425 144.145 214.361L150.544 210.929C150.68 210.838 150.79 210.713 150.862 210.566C150.934 210.418 150.966 210.254 150.954 210.09C150.944 209.632 150.828 209.182 150.613 208.778C150.399 208.373 150.093 208.025 149.72 207.762C149.591 207.66 149.438 207.595 149.276 207.573C149.113 207.551 148.948 207.573 148.797 207.636L142.398 211.068C142.262 211.16 142.152 211.286 142.079 211.434C142.007 211.582 141.976 211.747 141.988 211.912Z" fill="#37474F"/>
<path d="M142.407 211.068C142.269 211.159 142.157 211.284 142.083 211.433C142.01 211.581 141.977 211.746 141.988 211.912C141.986 212.252 142.052 212.59 142.184 212.903L150.437 208.471C150.25 208.19 150.009 207.949 149.729 207.762C149.6 207.66 149.447 207.595 149.284 207.573C149.122 207.551 148.957 207.573 148.806 207.636L142.407 211.068Z" fill="#263238"/>
<path d="M150.201 217.628C150.201 213.5 147.492 209.373 142.068 206.223C131.231 199.92 113.655 199.92 102.813 206.223C97.3942 209.364 94.6848 213.5 94.6848 217.628V225.254C94.6848 229.382 97.3942 233.509 102.818 236.663C113.655 242.943 131.231 242.943 142.068 236.663C147.492 233.522 150.201 229.382 150.201 225.254V217.628ZM104.145 208.561C108.985 205.748 115.478 204.2 122.416 204.2C129.355 204.2 135.861 205.748 140.687 208.561C145.063 211.105 147.474 214.326 147.474 217.632C147.474 220.938 145.063 224.155 140.687 226.699C135.847 229.512 129.355 231.059 122.416 231.059C115.478 231.059 108.972 229.512 104.145 226.699C99.765 224.155 97.3586 220.934 97.3586 217.632C97.3586 214.33 99.7783 211.105 104.145 208.561Z" fill="#263238"/>
<path opacity="0.3" d="M102.808 229.036C113.651 235.339 131.222 235.339 142.064 229.036C152.906 222.733 152.906 212.522 142.064 206.223C131.222 199.925 113.651 199.92 102.808 206.223C91.9663 212.526 91.9752 222.737 102.808 229.036ZM97.3629 217.632C97.3629 214.325 99.7737 211.104 104.15 208.561C108.994 205.748 115.487 204.2 122.42 204.2C129.354 204.2 135.865 205.748 140.691 208.561C145.067 211.104 147.478 214.325 147.478 217.632C147.478 220.938 145.067 224.155 140.691 226.699C135.847 229.511 129.354 231.059 122.42 231.059C115.487 231.059 108.976 229.511 104.15 226.699C99.7782 224.155 97.3673 220.934 97.3673 217.632H97.3629Z" fill="white"/>
<path d="M97.3674 217.628C97.3832 218.972 97.7572 220.287 98.4503 221.436C99.551 219.516 101.489 217.717 104.159 216.17C108.994 213.352 115.491 211.804 122.43 211.804C129.368 211.804 135.874 213.352 140.7 216.17C143.374 217.717 145.308 219.516 146.413 221.436C147.103 220.286 147.475 218.971 147.492 217.628C147.492 214.326 145.081 211.105 140.7 208.561C135.865 205.748 129.368 204.2 122.43 204.2C115.491 204.2 108.98 205.748 104.159 208.561C99.7783 211.105 97.3674 214.326 97.3674 217.628Z" fill="#263238"/>
<path opacity="0.1" d="M97.3674 217.628C97.3832 218.972 97.7572 220.287 98.4503 221.436C99.551 219.516 101.489 217.717 104.159 216.17C108.994 213.352 115.491 211.804 122.43 211.804C129.368 211.804 135.874 213.352 140.7 216.17C143.374 217.717 145.308 219.516 146.413 221.436C147.103 220.286 147.475 218.971 147.492 217.628C147.492 214.326 145.081 211.105 140.7 208.561C135.865 205.748 129.368 204.2 122.43 204.2C115.491 204.2 108.98 205.748 104.159 208.561C99.7783 211.105 97.3674 214.326 97.3674 217.628Z" fill="black"/>
<path opacity="0.4" d="M104.146 212.006C108.99 209.193 115.482 207.641 122.416 207.641C129.35 207.641 135.861 209.193 140.687 212.006C144.297 214.106 146.565 216.663 147.251 219.35C146.565 222.042 144.297 224.599 140.687 226.699C135.843 229.512 129.35 231.059 122.416 231.059C115.482 231.059 108.972 229.512 104.146 226.699C100.536 224.599 98.2678 222.038 97.5815 219.35C98.2767 216.663 100.545 214.106 104.146 212.006Z" fill="white"/>
<path opacity="0.1" d="M115.901 233.298V240.925C111.106 240.252 106.543 238.83 102.817 236.654C97.394 233.514 94.6846 229.373 94.6846 225.241V217.614C94.6865 216.774 94.7973 215.937 95.0144 215.125C93.6775 220.037 96.2978 225.237 102.808 229.032C106.561 231.217 111.106 232.639 115.901 233.298Z" fill="black"/>
<path d="M182.27 135.345C183.955 137.88 186.349 139.856 189.149 141.021C191.949 142.187 195.029 142.491 198.001 141.894C200.972 141.297 203.701 139.826 205.842 137.668C207.983 135.509 209.441 132.76 210.03 129.768C210.619 126.776 210.313 123.675 209.152 120.858C207.991 118.041 206.026 115.633 203.505 113.94C200.985 112.247 198.022 111.345 194.992 111.347C191.962 111.349 189.001 112.256 186.483 113.952C183.106 116.227 180.766 119.759 179.976 123.77C179.186 127.782 180.011 131.946 182.27 135.345ZM205.22 119.888C206.573 121.922 207.296 124.315 207.298 126.763C207.299 129.212 206.58 131.606 205.23 133.642C203.881 135.679 201.961 137.267 199.715 138.205C197.469 139.143 194.997 139.39 192.611 138.914C190.226 138.438 188.034 137.26 186.313 135.53C184.593 133.8 183.421 131.594 182.945 129.193C182.469 126.792 182.712 124.303 183.641 122.041C184.571 119.779 186.146 117.845 188.167 116.484C190.877 114.659 194.196 113.993 197.394 114.631C200.592 115.269 203.407 117.16 205.22 119.888Z" fill="black"/>
<path d="M206.864 116.994L208.169 118.939C208.382 119.256 208.809 119.34 209.124 119.126L219.304 112.204C219.619 111.99 219.702 111.559 219.489 111.242L218.184 109.297C217.971 108.98 217.544 108.897 217.229 109.111L207.049 116.032C206.734 116.246 206.651 116.677 206.864 116.994Z" fill="black"/>
<path d="M232.449 99.9309L234.209 102.577C234.338 102.77 234.428 102.988 234.474 103.216C234.52 103.444 234.521 103.678 234.477 103.906C234.434 104.134 234.346 104.35 234.219 104.543C234.092 104.736 233.929 104.901 233.739 105.029L218.453 115.199C218.304 115.3 218.137 115.369 217.961 115.404C217.785 115.438 217.604 115.437 217.428 115.401C217.251 115.365 217.084 115.294 216.934 115.192C216.784 115.091 216.655 114.961 216.555 114.809L214.372 111.519C214.271 111.368 214.201 111.198 214.164 111.02C214.128 110.842 214.127 110.658 214.162 110.48C214.196 110.302 214.264 110.133 214.364 109.983C214.463 109.832 214.591 109.704 214.74 109.604L230.025 99.4333C230.409 99.1756 230.88 99.0833 231.334 99.1766C231.788 99.2698 232.189 99.5411 232.449 99.9309Z" fill="#2E7AFF"/>
<path d="M208.27 118.499C210.519 121.946 211.329 126.142 210.523 130.166C209.717 134.19 207.36 137.713 203.97 139.961C200.581 142.209 196.435 142.999 192.444 142.157C188.454 141.314 184.943 138.909 182.685 135.469C180.427 132.029 179.604 127.835 180.399 123.809C181.194 119.782 183.54 116.252 186.924 113.994C190.307 111.736 194.45 110.934 198.443 111.765C202.436 112.596 205.953 114.991 208.221 118.425L208.27 118.499ZM182.842 135.418L182.891 135.492C185.154 138.831 188.621 141.145 192.54 141.932C196.459 142.72 200.515 141.918 203.828 139.7C207.141 137.482 209.445 134.028 210.24 130.085C211.034 126.141 210.257 122.028 208.074 118.635L208.026 118.561C205.762 115.222 202.296 112.908 198.377 112.121C194.457 111.333 190.402 112.135 187.089 114.353C183.776 116.57 181.472 120.025 180.677 123.968C179.882 127.911 180.66 132.025 182.842 135.418ZM205.76 120.169C207.449 122.939 208.013 126.254 207.336 129.416C206.658 132.579 204.791 135.342 202.127 137.125C199.462 138.908 196.209 139.572 193.05 138.978C189.892 138.383 187.075 136.576 185.191 133.936L185.151 133.876C183.463 131.106 182.898 127.791 183.576 124.628C184.253 121.466 186.121 118.703 188.785 116.92C191.449 115.136 194.703 114.472 197.861 115.067C201.02 115.662 203.837 117.469 205.72 120.109L205.76 120.169ZM185.352 133.748L185.392 133.808C187.24 136.396 190.003 138.167 193.1 138.749C196.197 139.332 199.387 138.68 201.999 136.932C204.612 135.183 206.443 132.473 207.108 129.373C207.772 126.272 207.219 123.022 205.564 120.305L205.525 120.245C203.677 117.657 200.914 115.886 197.817 115.304C194.72 114.721 191.53 115.373 188.917 117.121C186.305 118.87 184.474 121.579 183.809 124.68C183.144 127.781 183.697 131.031 185.352 133.748Z" fill="#263238"/>
<path d="M220.622 111.386C220.735 111.561 220.773 111.774 220.728 111.981C220.683 112.188 220.559 112.371 220.382 112.491L210.167 119.369C209.987 119.488 209.769 119.532 209.56 119.493C209.457 119.474 209.359 119.435 209.273 119.378C209.186 119.321 209.112 119.247 209.055 119.16L207.798 117.271C207.686 117.094 207.648 116.88 207.691 116.671C207.712 116.568 207.754 116.47 207.814 116.382C207.874 116.294 207.951 116.219 208.04 116.16L218.255 109.282C218.433 109.162 218.65 109.116 218.858 109.154C219.066 109.192 219.248 109.31 219.364 109.483L220.62 111.374L220.622 111.386ZM207.997 117.138L209.256 119.03C209.296 119.09 209.348 119.142 209.409 119.183C209.47 119.223 209.538 119.25 209.61 119.264C209.757 119.29 209.91 119.258 210.036 119.174L220.253 112.294C220.378 112.209 220.466 112.08 220.497 111.933C220.513 111.862 220.515 111.788 220.502 111.716C220.489 111.645 220.461 111.577 220.421 111.517L219.166 109.626C219.084 109.504 218.956 109.42 218.81 109.393C218.663 109.367 218.51 109.399 218.385 109.483L208.167 116.363C208.105 116.404 208.051 116.457 208.009 116.519C207.967 116.581 207.937 116.65 207.922 116.722C207.889 116.867 207.915 117.018 207.993 117.141L207.997 117.138Z" fill="white"/>
<path d="M234.681 102.787C234.957 103.208 235.059 103.72 234.965 104.211C234.871 104.702 234.588 105.133 234.178 105.41L218.865 115.599C218.538 115.819 218.136 115.897 217.748 115.817C217.359 115.736 217.016 115.503 216.794 115.169L214.593 111.857C214.373 111.522 214.292 111.115 214.367 110.725C214.442 110.334 214.667 109.991 214.993 109.772L230.309 99.5812C230.513 99.4442 230.742 99.3494 230.983 99.3025C231.224 99.2555 231.472 99.2572 231.714 99.3074C231.955 99.3576 232.186 99.4554 232.391 99.5953C232.597 99.7351 232.774 99.9141 232.912 100.122L234.68 102.785L234.681 102.787ZM214.794 111.726L216.994 115.037C217.086 115.175 217.204 115.295 217.342 115.388C217.479 115.482 217.633 115.547 217.794 115.58C217.956 115.614 218.122 115.615 218.283 115.583C218.443 115.552 218.596 115.488 218.732 115.397L234.046 105.208C234.403 104.966 234.649 104.591 234.731 104.163C234.813 103.734 234.724 103.289 234.483 102.922L232.715 100.259C232.594 100.077 232.44 99.9211 232.261 99.799C232.082 99.6769 231.881 99.5915 231.67 99.5477C231.459 99.5039 231.242 99.5024 231.032 99.5435C230.821 99.5846 230.622 99.6674 230.444 99.7871L215.131 109.976C214.857 110.16 214.668 110.448 214.605 110.776C214.542 111.104 214.61 111.445 214.794 111.726Z" fill="#263238"/>
<path d="M59.3025 120.896L37.0812 98.4517L14.8599 120.896H23.1564V142.741H51.006V120.896H59.3025Z" fill="#407BFF"/>
<path d="M175.145 108.53V142.741H171.941L170.418 139.886C168.492 142.213 166.041 143.376 163.065 143.376C156.727 143.376 153.558 139.005 153.558 130.263C153.558 121.238 156.937 116.726 163.695 116.726C165.831 116.726 167.879 117.361 169.84 118.63V109.218L175.145 108.53ZM164.535 140.732C166.636 140.732 168.405 139.745 169.84 137.771V121.326C168.335 120.198 166.706 119.634 164.956 119.634C162.96 119.634 161.437 120.533 160.386 122.331C159.371 124.129 158.863 126.773 158.863 130.263C158.863 133.717 159.336 136.326 160.281 138.088C161.262 139.851 162.68 140.732 164.535 140.732Z" fill="black"/>
<path d="M133.717 143.375C131.582 143.375 129.883 142.794 128.623 141.63C127.397 140.432 126.784 138.81 126.784 136.766C126.784 134.58 127.555 132.871 129.095 131.637C130.671 130.368 133.052 129.451 136.239 128.887L142.069 127.935V125.344C142.069 121.361 140.563 119.369 137.552 119.369C135.766 119.369 134.47 119.881 133.665 120.903C132.86 121.925 132.404 123.494 132.299 125.609L127.887 125.133C128.098 122.348 128.938 120.251 130.409 118.841C131.879 117.431 134.295 116.726 137.657 116.726C140.913 116.726 143.347 117.466 144.957 118.946C146.568 120.392 147.374 122.595 147.374 125.556V142.741H144.012L142.384 139.039C141.298 140.45 140.003 141.525 138.497 142.265C136.991 143.005 135.398 143.375 133.717 143.375ZM135.608 140.573C136.799 140.573 137.972 140.22 139.127 139.515C140.318 138.81 141.298 137.982 142.069 137.03V130.103L136.921 131.108C135.171 131.496 133.84 132.113 132.93 132.959C132.054 133.805 131.617 134.95 131.617 136.396C131.617 137.665 131.967 138.687 132.667 139.462C133.402 140.203 134.383 140.573 135.608 140.573Z" fill="black"/>
<path d="M124.54 141.842C122.684 142.864 120.898 143.375 119.182 143.375C117.432 143.375 116.119 143.058 115.243 142.424C114.403 141.754 113.878 140.961 113.668 140.044C113.457 139.128 113.352 138 113.352 136.66V120.057H109.256V117.36H113.352V113.236L118.71 111.227V117.36H124.067V120.057H118.71V137.295C118.71 138.458 118.85 139.269 119.13 139.727C119.445 140.15 119.953 140.362 120.653 140.362C121.634 140.362 122.702 140.044 123.857 139.41L124.54 141.842Z" fill="black"/>
<path d="M96.5616 116.726C101.954 116.726 104.65 119.422 104.65 124.816V142.741H99.3453V125.239C99.3453 123.335 99.0127 121.943 98.3474 121.061C97.6821 120.145 96.6316 119.687 95.196 119.687C93.0601 119.687 90.9591 120.497 88.8932 122.119V142.741H83.5884V117.36H85.8994L88.0003 120.004C89.2609 119.017 90.644 118.224 92.1497 117.624C93.6903 117.025 95.161 116.726 96.5616 116.726Z" fill="black"/>
<path d="M60.6386 130.368V130.473C60.6386 134.21 61.0763 136.854 61.9517 138.405C62.8621 139.956 64.4027 140.732 66.5737 140.732C70.1453 140.732 72.0186 138.881 72.1937 135.18L76.5531 135.391C76.308 137.859 75.4151 139.815 73.8744 141.26C72.3337 142.67 69.8476 143.375 66.4161 143.375C62.4594 143.375 59.6231 142.283 57.9074 140.097C56.1916 137.876 55.3337 134.527 55.3337 130.05C55.3337 126.032 56.1391 122.806 57.7498 120.374C59.3955 117.942 62.2668 116.726 66.3636 116.726C70.3203 116.726 73.0691 117.942 74.6097 120.374C76.1504 122.771 76.9208 125.926 76.9208 129.839V130.368H60.6386ZM66.2586 119.369C64.4027 119.369 63.0546 120.057 62.2143 121.432C61.3739 122.806 60.8662 124.904 60.6911 127.724H71.7735C71.6684 124.974 71.1957 122.895 70.3554 121.484C69.55 120.074 68.1844 119.369 66.2586 119.369Z" fill="black"/>
<path d="M50.7758 142.741H44.9983L40.4813 131.478C40.0611 130.456 39.5359 129.786 38.9056 129.469C38.3103 129.116 37.3824 128.94 36.1218 128.94H33.6533V142.741H28.2959V110.328H39.0631C42.8798 110.328 45.5585 111.279 47.0992 113.183C48.6399 115.051 49.4102 117.325 49.4102 120.004C49.4102 121.978 48.9375 123.741 47.9921 125.292C47.0817 126.807 45.4885 127.865 43.2125 128.464C44.473 128.923 45.3834 129.769 45.9437 131.002L50.7758 142.741ZM38.4854 126.984C40.3762 126.984 41.7768 126.314 42.6872 124.974C43.5976 123.6 44.0528 121.943 44.0528 120.004C44.0528 117.854 43.5976 116.038 42.6872 114.558C41.7768 113.077 40.3762 112.337 38.4854 112.337H33.6533V126.984H38.4854Z" fill="white"/>
</svg>
