<svg width="247" height="509" viewBox="0 0 247 509" fill="none" xmlns="http://www.w3.org/2000/svg">
<path d="M209.387 509L37.6147 508.9C32.7024 508.898 27.8385 507.922 23.3009 506.027C18.7633 504.133 14.6408 501.357 11.1687 497.859C7.69671 494.36 4.94314 490.207 3.06526 485.638C1.18738 481.068 0.221957 476.17 0.224125 471.225V37.6588C0.224123 32.7106 1.19279 27.8109 3.07474 23.2397C4.95668 18.6686 7.71502 14.5156 11.1921 11.0183C14.6692 7.52089 18.7968 4.74766 23.339 2.85708C27.8813 0.966505 32.7491 -0.00435078 37.6642 1.46565e-05L209.437 0.0996873C219.356 0.108494 228.867 4.08174 235.878 11.1463C242.889 18.2108 246.827 27.7887 246.827 37.7751L246.745 471.341C246.745 481.32 242.81 490.891 235.806 497.952C228.801 505.013 219.3 508.987 209.387 509Z" fill="#455A64"/>
<path d="M210.757 15.4322H177.458C176.372 15.4537 175.301 15.6911 174.306 16.1307C173.311 16.5702 172.412 17.2033 171.66 17.9936C170.909 18.7839 170.32 19.7158 169.928 20.7358C169.535 21.7558 169.347 22.8438 169.373 23.9374V30.0173C169.399 31.1108 169.211 32.1988 168.818 33.2188C168.426 34.2388 167.837 35.1707 167.086 35.961C166.334 36.7513 165.435 37.3844 164.44 37.824C163.446 38.2635 162.374 38.5009 161.288 38.5225H96.3739C95.2861 38.5009 94.2133 38.263 93.2172 37.8224C92.2212 37.3818 91.3215 36.7472 90.57 35.9552C89.8185 35.1631 89.2301 34.2292 88.8385 33.2073C88.447 32.1854 88.2601 31.0956 88.2886 30.0007V23.8709C88.3149 22.7774 88.1263 21.6894 87.7338 20.6694C87.3412 19.6494 86.7524 18.7175 86.0012 17.9272C85.2499 17.1369 84.351 16.5038 83.356 16.0642C82.361 15.6247 81.2896 15.3873 80.2032 15.3657H39.3309C32.387 15.3701 25.7279 18.1457 20.8132 23.0842C15.8984 28.0227 13.1288 34.7213 13.1113 41.7119L13.0288 464.862C13.0288 471.859 15.7895 478.568 20.7035 483.516C25.6176 488.463 32.2824 491.242 39.2319 491.242L210.641 491.342C214.084 491.346 217.494 490.667 220.676 489.343C223.858 488.019 226.75 486.076 229.185 483.626C231.621 481.176 233.552 478.266 234.869 475.064C236.186 471.861 236.863 468.428 236.861 464.962L236.943 41.8282C236.944 34.8333 234.186 28.1244 229.276 23.1751C224.366 18.2259 217.705 15.441 210.757 15.4322Z" fill="white"/>
<path d="M210.757 15.4321H211.664C212.553 15.4357 213.441 15.5023 214.321 15.6314C220.393 16.4531 225.987 19.3922 230.128 23.9373C232.233 26.2426 233.91 28.9095 235.079 31.8112C236.456 35.2162 237.135 38.8664 237.075 42.5424C237.075 46.4296 237.075 50.5825 237.075 54.968C237.075 90.1184 237.075 140.983 237.158 203.826C237.24 266.668 237.158 341.487 237.158 424.579V464.115C237.202 466.829 236.863 469.536 236.151 472.155C235.434 474.79 234.321 477.3 232.851 479.597C231.331 481.883 229.491 483.936 227.389 485.693C223.081 489.204 217.791 491.271 212.258 491.607C206.763 491.773 201.302 491.607 195.757 491.607H162.426H93.9316H41.2118C35.1616 491.943 29.1687 490.275 24.1501 486.856C19.1606 483.362 15.4959 478.267 13.7546 472.404C12.9326 469.506 12.5652 466.496 12.6656 463.484V454.596C12.6656 442.758 12.6656 430.997 12.6656 419.313C12.6656 395.957 12.6656 372.966 12.6656 350.341C12.6656 305.124 12.6656 261.502 12.6656 219.956C12.6656 178.41 12.6656 138.924 12.6656 102.012C12.6656 83.5402 12.6656 65.7158 12.6656 48.5392V42.1271C12.6656 41.064 12.7646 39.9842 12.8141 38.9211C12.8636 37.8579 13.0781 36.8114 13.3586 35.7814C14.3013 31.672 16.189 27.8427 18.8699 24.6018C21.4864 21.4709 24.7796 18.9839 28.4976 17.3313C32.2155 15.6786 36.2597 14.904 40.3208 15.0666H63.1578H79.5265C81.3604 14.9736 83.1741 15.487 84.6912 16.5285C86.1777 17.5627 87.2988 19.0462 87.8923 20.7644C88.3896 22.4492 88.5742 24.2118 88.4369 25.9639C88.4369 26.8277 88.4369 27.6251 88.4369 28.5387C88.395 29.3743 88.395 30.2115 88.4369 31.0471C88.6411 32.6836 89.3246 34.2219 90.4005 35.4658C91.4427 36.7045 92.8454 37.582 94.4101 37.9742C95.1821 38.1615 95.9763 38.2397 96.7697 38.2068H108.634H143.186H158.433C159.621 38.2068 160.858 38.2068 161.997 38.2068C163.137 38.0748 164.232 37.6828 165.198 37.0605C166.134 36.4679 166.942 35.6919 167.574 34.7788C168.206 33.8656 168.65 32.8338 168.878 31.7448C169.059 30.6921 169.126 29.6226 169.076 28.5553C169.076 27.4756 169.076 26.429 169.076 25.3991C169.029 24.3673 169.073 23.3333 169.208 22.3093C169.375 21.318 169.71 20.3628 170.198 19.4853C171.118 17.7948 172.594 16.4793 174.373 15.7643C176.057 15.2325 177.83 15.0461 179.587 15.2161H196.583H207.027H210.592C210.592 15.2161 209.387 15.2161 207.027 15.2161H196.583H179.587C177.861 15.0478 176.12 15.2401 174.472 15.7809C172.742 16.4768 171.307 17.7572 170.412 19.4023C169.946 20.2551 169.628 21.1822 169.472 22.1432C169.344 23.1511 169.3 24.1679 169.34 25.1832V28.3394C169.401 29.4508 169.334 30.5656 169.142 31.6617C168.902 32.7877 168.444 33.8548 167.792 34.8014C167.141 35.748 166.31 36.5553 165.347 37.1768C164.347 37.8138 163.22 38.2221 162.047 38.3729C160.825 38.4725 159.654 38.3729 158.449 38.3729H96.9182C96.0857 38.4054 95.2527 38.3216 94.4431 38.1237C92.8455 37.8241 91.374 37.0486 90.2189 35.8977C89.0926 34.583 88.3703 32.967 88.1398 31.2464C88.0549 30.391 88.0274 29.5308 88.0574 28.6716V26.0137C88.188 24.3351 88.0147 22.6465 87.5458 21.0302C86.9698 19.4115 85.909 18.0127 84.5097 17.0268C83.0539 16.0357 81.3136 15.5568 79.5595 15.6646H40.4033C36.4343 15.5205 32.4849 16.2877 28.8541 17.9081C25.2233 19.5285 22.0065 21.9595 19.4474 25.017C16.8323 28.2011 14.9904 31.955 14.0682 35.9808C13.8042 36.9775 13.7216 38.024 13.5401 39.054C13.3586 40.0839 13.4081 41.1304 13.4081 42.1936V101.996C13.4081 138.94 13.4081 178.41 13.4081 219.939V350.358C13.4081 372.972 13.4081 395.962 13.4081 419.33V463.5C13.3112 466.445 13.6674 469.387 14.4642 472.221C16.1685 477.909 19.7258 482.854 24.5626 486.258C29.4603 489.591 35.3095 491.214 41.2118 490.876H58.9006H93.9316H162.426H195.807C201.302 490.876 206.829 490.959 212.225 490.876C217.612 490.553 222.764 488.544 226.96 485.129C229.005 483.412 230.794 481.41 232.274 479.182C233.737 476.959 234.851 474.521 235.574 471.956C236.267 469.396 236.595 466.751 236.547 464.098V456.174C236.547 445.543 236.547 435.022 236.547 424.612C236.547 341.553 236.547 266.701 236.679 203.842C236.811 140.984 236.778 90.1516 236.811 55.0012C236.811 50.6157 236.811 46.4628 236.811 42.5756C236.878 38.9392 236.227 35.3256 234.897 31.9441C233.728 29.0524 232.052 26.3963 229.947 24.1034C225.843 19.58 220.298 16.6421 214.271 15.7975C213.397 15.6576 212.516 15.5744 211.631 15.5484L210.757 15.4321Z" fill="#263238"/>
<path d="M215.789 63.6563C215.789 63.7726 211.449 63.9055 206.12 63.9387C200.79 63.9719 196.434 63.9387 196.434 63.8224C196.434 63.7062 200.774 63.5733 206.103 63.54C211.433 63.5068 215.789 63.54 215.789 63.6563Z" fill="#263238"/>
<path d="M215.822 68.6392C215.822 68.7555 211.499 68.8884 206.153 68.9216C200.807 68.9549 196.483 68.9216 196.483 68.8053C196.483 68.6891 200.807 68.5562 206.153 68.523C211.499 68.4897 215.822 68.523 215.822 68.6392Z" fill="#263238"/>
<path d="M215.872 73.6231C215.872 73.7394 211.532 73.8723 206.203 73.9055C200.873 73.9387 196.517 73.9055 196.517 73.7892C196.517 73.673 200.856 73.5401 206.186 73.5068C211.516 73.4736 215.872 73.5068 215.872 73.6231Z" fill="#263238"/>
<path d="M39.5452 75.168H39.9577H41.0797L45.2049 75.0683L45.0894 75.1846C45.0894 74.271 45.0894 73.2577 45.0894 72.1779C45.0894 71.6131 45.0894 71.0815 45.0894 70.5167C45.1636 70.1868 45.3361 69.8875 45.5838 69.659C45.8314 69.4304 46.1425 69.2834 46.4755 69.2376C47.152 69.2376 47.7295 69.2376 48.4556 69.2376C48.84 69.3084 49.1869 69.5142 49.4347 69.8184C49.6825 70.1226 49.815 70.5054 49.8086 70.8988C49.8086 72.3108 49.8086 73.7726 49.8086 75.3009L49.6271 75.1182H54.8248L54.6268 75.3341C54.6268 73.2078 54.6268 71.0317 54.6268 68.7891C54.6268 68.2243 54.6268 67.6761 54.6268 67.1279C54.6068 66.8786 54.5311 66.6371 54.4053 66.4214C54.2796 66.2057 54.1072 66.0213 53.9008 65.8821L51.6237 63.6229L49.4126 61.4467L48.3565 60.3836C47.9935 60.0347 47.6965 59.6527 47.2675 59.5696C47.0649 59.5154 46.8527 59.5081 46.6469 59.5484C46.4411 59.5887 46.2471 59.6755 46.0795 59.8022C45.7659 60.0679 45.4359 60.45 45.1059 60.7656L43.2413 62.6594C42.0698 63.8886 40.8322 65.0182 39.9412 66.0814C39.6847 66.7004 39.5992 67.3777 39.6937 68.0416C39.6937 68.6894 39.6937 69.3041 39.6937 69.8855C39.6937 71.0151 39.6937 72.0118 39.6937 72.859C39.6937 73.7062 39.6937 74.2544 39.6937 74.7693C39.7071 74.9962 39.7071 75.2236 39.6937 75.4504C39.6937 75.4504 39.6937 75.2511 39.6937 74.8192C39.6937 74.3873 39.6937 73.6896 39.6937 72.942C39.6937 72.1945 39.6937 71.0815 39.6937 69.9519C39.6937 69.3539 39.6937 68.7227 39.6937 68.0582C39.6937 67.726 39.6937 67.3771 39.6937 67.0283C39.6887 66.6442 39.7855 66.2657 39.9742 65.9319C40.9477 64.7358 42.0863 63.6893 43.2743 62.4268L45.1389 60.5165C45.4689 60.1842 45.7494 59.852 46.1455 59.5031C46.3585 59.3452 46.6035 59.2365 46.8631 59.1848C47.1226 59.1331 47.3903 59.1397 47.647 59.2041C48.1387 59.382 48.5725 59.6923 48.9011 60.1012L49.5776 60.8155L51.7887 62.9916L54.0658 65.2508C54.2824 65.4375 54.4762 65.6494 54.6433 65.8821C54.8096 66.1468 54.9061 66.4498 54.9238 66.7625C54.9238 67.3107 54.9238 67.8755 54.9238 68.4236C54.9238 70.6385 54.9238 72.8147 54.9238 74.9521V75.168H54.7258H49.5116H49.3136V74.9687C49.3136 73.4404 49.3136 71.9786 49.3136 70.5666C49.314 70.2645 49.2082 69.972 49.0149 69.7409C48.8216 69.5098 48.5533 69.3551 48.2575 69.3041C47.6635 69.3041 46.954 69.3041 46.36 69.3041C46.0886 69.3338 45.8337 69.4496 45.632 69.6347C45.4303 69.8198 45.2923 70.0647 45.2379 70.334C45.2379 70.8656 45.2379 71.4802 45.2379 71.9952V75.1182H45.1224H40.9312H39.8257C39.7345 75.1461 39.6403 75.1628 39.5452 75.168Z" fill="#263238"/>
<path d="M178.811 337.6H74.9227C64.4062 337.6 55.8809 346.183 55.8809 356.77V362.086C55.8809 372.673 64.4062 381.256 74.9227 381.256H178.811C189.328 381.256 197.853 372.673 197.853 362.086V356.77C197.853 346.183 189.328 337.6 178.811 337.6Z" fill="#FF725E"/>
<path d="M99.74 363.532L100.499 361.87C101.442 362.521 102.557 362.873 103.7 362.884C105.037 362.884 105.581 362.435 105.581 361.837C105.581 360.01 99.938 361.256 99.938 357.634C99.938 355.973 101.258 354.578 104.03 354.578C105.189 354.567 106.329 354.871 107.33 355.458L106.637 357.12C105.821 356.636 104.895 356.373 103.948 356.355C102.611 356.355 102.1 356.854 102.1 357.468C102.1 359.279 107.743 358.033 107.743 361.621C107.743 363.282 106.406 364.645 103.618 364.645C102.244 364.668 100.895 364.28 99.74 363.532Z" fill="white"/>
<path d="M116.868 362.684V364.494H109.343V354.727H116.686V356.504H111.571V358.63H116.092V360.391H111.571V362.65L116.868 362.684Z" fill="white"/>
<path d="M118.649 354.727H120.894V362.65H125.761V364.494H118.649V354.727Z" fill="white"/>
<path d="M134.54 362.684V364.494H127.015V354.727H134.358V356.504H129.259V358.63H133.731V360.391H129.226V362.65L134.54 362.684Z" fill="white"/>
<path d="M135.678 359.611C135.741 358.556 136.11 357.543 136.74 356.698C137.371 355.853 138.234 355.214 139.223 354.859C140.212 354.505 141.282 354.452 142.301 354.706C143.32 354.96 144.242 355.51 144.952 356.288L143.516 357.617C143.217 357.258 142.844 356.969 142.422 356.771C142 356.573 141.54 356.471 141.074 356.471C140.647 356.44 140.217 356.497 139.813 356.641C139.409 356.784 139.038 357.009 138.724 357.303C138.41 357.597 138.16 357.953 137.988 358.348C137.817 358.744 137.729 359.171 137.729 359.602C137.729 360.034 137.817 360.461 137.988 360.856C138.16 361.252 138.41 361.608 138.724 361.902C139.038 362.196 139.409 362.421 139.813 362.564C140.217 362.707 140.647 362.765 141.074 362.734C141.542 362.739 142.005 362.637 142.428 362.436C142.851 362.234 143.223 361.938 143.516 361.571L144.952 362.916C144.242 363.694 143.32 364.245 142.301 364.499C141.282 364.753 140.212 364.7 139.223 364.345C138.234 363.991 137.371 363.352 136.74 362.507C136.11 361.662 135.741 360.649 135.678 359.594V359.611Z" fill="white"/>
<path d="M148.367 356.505H145.282V354.661H153.747V356.505H150.628V364.428H148.384L148.367 356.505Z" fill="white"/>
<path d="M218.891 168.958C219.271 166.134 215.327 163.825 212.291 163.576C210.873 163.63 209.455 163.507 208.067 163.21C205.163 162.197 204.008 158.409 201.17 157.213C200.066 156.889 198.906 156.805 197.768 156.968C196.63 157.132 195.539 157.538 194.569 158.16C192.624 159.405 190.454 160.252 188.184 160.652C186.204 160.785 184.025 160.037 182.276 161.017C180.989 161.748 180.296 163.26 179.108 164.14C177.862 164.921 176.417 165.319 174.95 165.287C173.489 165.246 172.034 165.483 170.66 165.984C169.969 166.239 169.383 166.72 168.994 167.349C168.605 167.978 168.437 168.72 168.515 169.456L218.891 168.958Z" fill="#EBEBEB"/>
<path d="M67.5138 299.277C67.5138 296.253 67.5138 256.302 67.3818 191.899V191.749H195.427V191.915C195.427 230.803 195.427 267.498 195.427 299.293V299.443H195.279L67.5304 299.293L195.279 299.144L195.114 299.293C195.114 267.498 195.114 230.803 195.114 191.915L195.295 192.098H67.5633L67.7119 191.948C67.5799 256.302 67.5303 296.253 67.5138 299.277Z" fill="#263238"/>
<path d="M109.31 268.047H96.0437V299.277H109.31V268.047Z" fill="#455A64"/>
<path d="M97.4294 285.622C97.4294 285.713 97.4474 285.803 97.4825 285.887C97.5175 285.97 97.5688 286.046 97.6334 286.11C97.698 286.173 97.7745 286.223 97.8585 286.256C97.9425 286.289 98.0322 286.305 98.1225 286.303C98.3019 286.303 98.474 286.231 98.6009 286.104C98.7277 285.976 98.799 285.803 98.799 285.622C98.8012 285.531 98.7853 285.441 98.7523 285.356C98.7193 285.272 98.6698 285.195 98.6068 285.13C98.5437 285.065 98.4684 285.013 98.3852 284.978C98.3021 284.942 98.2127 284.924 98.1225 284.924C97.9387 284.924 97.7624 284.998 97.6324 285.129C97.5025 285.26 97.4294 285.437 97.4294 285.622Z" fill="#FAFAFA"/>
<path d="M67.5137 238.877C67.5137 238.877 96.0269 238.993 131.223 238.993C166.419 238.993 194.932 238.993 194.932 238.877C194.932 238.76 166.402 238.76 131.223 238.76C96.0434 238.76 67.5137 238.81 67.5137 238.877Z" fill="#E0E0E0"/>
<path d="M67.5137 242.681C67.5137 242.681 96.0269 242.797 131.223 242.797C166.419 242.797 194.932 242.797 194.932 242.681C194.932 242.564 166.402 242.564 131.223 242.564C96.0434 242.564 67.5137 242.614 67.5137 242.681Z" fill="#E0E0E0"/>
<path d="M67.5137 246.485C67.5137 246.485 96.0269 246.602 131.223 246.602C166.419 246.602 194.932 246.602 194.932 246.485C194.932 246.369 166.402 246.369 131.223 246.369C96.0434 246.369 67.5137 246.419 67.5137 246.485Z" fill="#E0E0E0"/>
<path d="M67.5137 250.289C67.5137 250.289 96.0269 250.405 131.223 250.405C166.419 250.405 194.932 250.405 194.932 250.289C194.932 250.173 166.402 250.189 131.223 250.189C96.0434 250.189 67.5137 250.189 67.5137 250.289Z" fill="#E0E0E0"/>
<path d="M67.5137 254.093C67.5137 254.093 96.0269 254.209 131.223 254.209C166.419 254.209 194.932 254.209 194.932 254.093C194.932 253.977 166.402 253.977 131.223 253.977C96.0434 253.977 67.5137 254.026 67.5137 254.093Z" fill="#E0E0E0"/>
<path d="M67.5137 257.897C67.5137 257.897 96.0269 258.013 131.223 258.013C166.419 258.013 194.932 258.013 194.932 257.897C194.932 257.781 166.402 257.781 131.223 257.781C96.0434 257.781 67.5137 257.831 67.5137 257.897Z" fill="#E0E0E0"/>
<path d="M67.5137 261.701C67.5137 261.701 96.0269 261.818 131.223 261.818C166.419 261.818 194.932 261.818 194.932 261.701C194.932 261.585 166.402 261.585 131.223 261.585C96.0434 261.585 67.5137 261.635 67.5137 261.701Z" fill="#E0E0E0"/>
<path d="M67.5137 265.505C67.5137 265.505 96.0269 265.622 131.223 265.622C166.419 265.622 194.932 265.622 194.932 265.505C194.932 265.389 166.402 265.389 131.223 265.389C96.0434 265.389 67.5137 265.439 67.5137 265.505Z" fill="#E0E0E0"/>
<path d="M134.886 225.903H144.754V206.45H134.886V225.903Z" fill="white"/>
<path d="M134.886 225.903C134.893 225.87 134.893 225.836 134.886 225.804V225.521C134.886 225.255 134.886 224.906 134.886 224.441C134.886 223.478 134.886 222.116 134.886 220.405C134.886 216.949 134.886 212.099 134.886 206.451L134.771 206.567H144.671C144.671 206.567 144.44 206.351 144.556 206.451V217.032C144.556 220.355 144.556 223.312 144.556 225.87H144.655H137.477H135.464H137.411H144.655V225.77C144.655 223.212 144.655 220.222 144.655 216.933V206.351L144.539 206.235H134.556V206.351C134.556 212.032 134.556 216.916 134.556 220.371V224.391V225.804L134.886 225.903Z" fill="#263238"/>
<path d="M139.787 225.886C139.787 225.886 139.903 221.518 139.903 216.119C139.903 210.72 139.903 206.334 139.787 206.334C139.672 206.334 139.672 210.72 139.672 216.119C139.672 221.518 139.721 225.886 139.787 225.886Z" fill="#263238"/>
<path d="M135.002 216.85C135.002 216.85 137.23 216.966 139.952 216.966C142.675 216.966 144.902 216.966 144.902 216.85C144.902 216.733 142.675 216.733 139.952 216.733C137.23 216.733 135.002 216.783 135.002 216.85Z" fill="#263238"/>
<path d="M78.6023 288.313H88.4697V268.861H78.6023V288.313Z" fill="#FAFAFA"/>
<path d="M78.6023 288.396C78.6023 288.396 78.6023 288.396 78.6023 288.297V288.014C78.6023 287.749 78.6023 287.4 78.6023 286.935C78.6023 285.971 78.6023 284.609 78.6023 282.898C78.6023 279.443 78.6023 274.592 78.6023 268.944L78.4868 269.06H88.3872L88.2717 268.944V279.526C88.2717 282.848 88.2717 285.805 88.2717 288.363H81.0939H79.2788H81.2259H88.4698H88.5522V288.396C88.5522 285.838 88.5522 282.848 88.5522 279.559V268.977C88.6677 269.077 88.4202 268.828 88.4367 268.861H78.5363V268.977C78.5363 274.658 78.5363 279.542 78.5363 282.998V287.018V288.396H78.6023Z" fill="#263238"/>
<path d="M83.5029 288.396C83.5029 288.396 83.6185 284.011 83.6185 278.612C83.6185 273.213 83.6184 268.828 83.5029 268.828C83.3874 268.828 83.3875 273.213 83.3875 278.612C83.3875 284.011 83.4369 288.396 83.5029 288.396Z" fill="#263238"/>
<path d="M78.718 279.26C78.718 279.26 80.9456 279.376 83.6682 279.376C86.3908 279.376 88.6184 279.376 88.6184 279.26C88.6184 279.144 86.3908 279.144 83.6682 279.144C80.9456 279.144 78.718 279.193 78.718 279.26Z" fill="#263238"/>
<path d="M148.829 232.199C148.836 232.11 148.836 232.021 148.829 231.933V231.185C148.829 230.521 148.829 229.607 148.829 228.494V228.577H158.73L158.614 228.461V232.149L158.73 232.032H151.667H149.588H151.635C153.4 232.032 155.892 232.032 158.779 232.032H158.895V228.594C158.895 228.594 158.68 228.361 158.779 228.461C154.852 228.461 151.321 228.461 148.879 228.461H148.796V228.544C148.796 229.674 148.796 230.604 148.796 231.285V231.916C148.797 232.011 148.808 232.106 148.829 232.199Z" fill="#E0E0E0"/>
<path d="M86.7866 202.613C86.7928 202.53 86.7928 202.447 86.7866 202.364C86.7866 202.165 86.7866 201.949 86.7866 201.666C86.7866 201.035 86.7866 200.204 86.7866 199.174V199.257H93.9314L93.8159 199.141V200.802C93.8159 201.367 93.8159 201.932 93.8159 202.464L93.9149 202.347C91.8523 202.347 90.0867 202.347 88.8162 202.347H87.3311H86.7701C86.9402 202.364 87.1115 202.364 87.2816 202.347H88.7502H93.9149H94.1294V198.842C94.1294 198.842 93.8984 198.61 93.9974 198.726H86.8526H86.7536C86.7536 199.772 86.7536 200.636 86.7536 201.268C86.7536 201.533 86.7536 201.766 86.7536 201.949C86.6887 202.167 86.7003 202.402 86.7866 202.613Z" fill="#E0E0E0"/>
<path d="M142.493 235.721H152.08V232.199H142.493V235.721Z" fill="#E0E0E0"/>
<path d="M130.712 203.776H140.299V200.255H130.712V203.776Z" fill="#E0E0E0"/>
<path d="M84.3943 232.514H93.9812V228.992H84.3943V232.514Z" fill="#E0E0E0"/>
<path d="M67.9428 219.491H75.4836V215.969H67.9428V219.491Z" fill="#E0E0E0"/>
<path d="M89.1793 156.217L176.996 156.848L205.278 191.899H61.2437L89.1793 156.217Z" fill="#FF725E"/>
<path d="M89.1794 156.217C89.1794 156.217 88.5359 157.081 87.2818 158.709L81.7541 165.802L61.3427 192.048L61.2437 191.849H177.029H205.278L205.146 192.131C195.064 179.623 185.56 167.812 176.881 157.064H176.996L113.501 156.532L95.5652 156.366H89.1794C89.1794 156.366 91.3905 156.366 95.5322 156.366H113.452L176.996 156.748L205.295 191.799L205.526 192.065H177.029H61.2437H61.0127L61.1612 191.882L81.6881 165.735L87.2488 158.692L89.1794 156.217Z" fill="#263238"/>
<path d="M133.269 171.599L126.52 182.912H96.1094V171.599L109.376 147.346L126.52 171.4L133.269 171.599Z" fill="#F5F5F5"/>
<path d="M110.597 172.33C113.34 172.33 115.564 170.092 115.564 167.33C115.564 164.569 113.34 162.33 110.597 162.33C107.854 162.33 105.631 164.569 105.631 167.33C105.631 170.092 107.854 172.33 110.597 172.33Z" fill="white"/>
<path d="M105.68 167.329C105.647 166.917 105.681 166.502 105.779 166.1C106.037 164.978 106.672 163.98 107.578 163.276C108.25 162.747 109.045 162.397 109.887 162.261C110.73 162.124 111.593 162.205 112.396 162.495C113.385 162.856 114.239 163.514 114.843 164.38C115.447 165.247 115.771 166.279 115.771 167.338C115.771 168.396 115.447 169.429 114.843 170.295C114.239 171.162 113.385 171.82 112.396 172.18C111.593 172.47 110.73 172.551 109.887 172.415C109.045 172.278 108.25 171.929 107.578 171.399C106.672 170.696 106.037 169.698 105.779 168.575C105.681 168.168 105.647 167.747 105.68 167.329C105.68 167.329 105.68 167.778 105.911 168.542C106.085 169.199 106.394 169.812 106.816 170.342C107.239 170.872 107.767 171.307 108.367 171.62C108.966 171.933 109.624 172.116 110.298 172.158C110.972 172.2 111.647 172.1 112.281 171.864C112.93 171.623 113.52 171.244 114.011 170.753C114.502 170.261 114.882 169.669 115.125 169.016C115.368 168.364 115.468 167.666 115.419 166.971C115.37 166.276 115.173 165.6 114.841 164.988C114.509 164.376 114.05 163.844 113.496 163.427C112.941 163.01 112.304 162.718 111.627 162.572C110.95 162.425 110.25 162.427 109.574 162.577C108.898 162.727 108.262 163.022 107.71 163.442C106.832 164.108 106.199 165.049 105.911 166.117C105.68 166.898 105.68 167.346 105.68 167.329Z" fill="#263238"/>
<path d="M92.7106 232.249H124.656V198.892H92.7106V232.249Z" fill="white"/>
<path d="M92.7271 232.265V231.634C92.7271 231.219 92.7271 230.621 92.7271 229.84C92.7271 228.262 92.7271 225.953 92.7271 223.046C92.7271 217.198 92.7271 208.876 92.7271 198.909L92.6281 199.009H124.574L124.458 198.892C124.458 211.119 124.458 222.581 124.458 232.249L124.557 232.132H101.456H94.8557H101.341H124.54H124.64V232.033C124.64 222.365 124.64 210.903 124.64 198.676V198.543H92.4631V198.66C92.4631 208.627 92.4631 216.933 92.4631 222.863C92.4631 225.77 92.4631 228.062 92.4631 229.624C92.4631 230.405 92.4631 231.003 92.4631 231.401V231.867C92.4718 231.95 92.5003 232.029 92.5463 232.099C92.5923 232.168 92.6543 232.225 92.7271 232.265Z" fill="#263238"/>
<path d="M108.089 231.8C108.089 231.8 108.205 224.491 108.205 215.454C108.205 206.418 108.205 199.108 108.089 199.108C107.974 199.108 107.974 206.434 107.974 215.454C107.974 224.475 108.023 231.8 108.089 231.8Z" fill="#263238"/>
<path d="M93.0735 216.65C93.0735 216.65 100.07 216.766 108.7 216.766C117.33 216.766 124.326 216.766 124.326 216.65C124.326 216.534 117.33 216.534 108.7 216.534C100.07 216.534 93.0735 216.584 93.0735 216.65Z" fill="#263238"/>
<path d="M74.3782 225.504H84.2456V206.052H74.3782V225.504Z" fill="#FAFAFA"/>
<path d="M74.3286 225.505C74.325 225.472 74.325 225.438 74.3286 225.405V224.043V220.006C74.3286 216.551 74.3286 211.7 74.3286 206.052L74.2131 206.169H84.1135L83.998 206.052V216.634C83.998 219.956 83.998 222.913 83.998 225.471H84.097H76.9027H74.9061H76.8532H84.097H84.1795V225.372C84.1795 222.814 84.1795 219.823 84.1795 216.534C84.1795 214.873 84.1795 213.212 84.1795 211.401V205.953C84.2785 206.069 84.031 205.803 84.064 205.836H74.1636V205.953C74.1636 211.634 74.1636 216.518 74.1636 219.973C74.1636 221.634 74.1636 223.046 74.1636 223.993C74.1636 224.442 74.1636 224.79 74.1636 225.056V225.405L74.3286 225.505Z" fill="#263238"/>
<path d="M79.2788 225.504C79.2788 225.504 79.3944 221.119 79.3944 215.72C79.3944 210.321 79.3944 205.936 79.2788 205.936C79.1633 205.936 79.1633 210.321 79.1633 215.72C79.1633 221.119 79.2788 225.504 79.2788 225.504Z" fill="#263238"/>
<path d="M74.4937 216.451C74.4937 216.451 76.7212 216.567 79.4439 216.567C82.1665 216.567 84.3941 216.567 84.3941 216.451C84.3941 216.334 82.15 216.334 79.4439 216.334C76.7377 216.334 74.4937 216.384 74.4937 216.451Z" fill="#263238"/>
<path d="M60.0391 261.236H55.1714V299.277H60.0391V261.236Z" fill="#F5F5F5"/>
<path d="M55.1714 299.277C55.1714 299.277 55.1714 299.045 55.1714 298.546C55.1714 298.048 55.1714 297.251 55.1714 296.387C55.1714 294.377 55.1714 291.669 55.1714 288.363C55.1714 281.386 55.1714 271.901 55.1714 261.236V261.054H60.2041C60.5506 261.403 60.2041 261.17 60.3691 261.236V273.214C60.3691 277.001 60.3691 280.573 60.3691 283.878C60.3691 290.307 60.3691 295.606 60.2866 299.261H56.6399H55.4189H56.6894H60.2866L60.2041 299.344C60.2041 295.689 60.2041 290.39 60.2041 283.961C60.2041 280.639 60.2041 277.084 60.2041 273.297C60.2041 271.386 60.2041 269.426 60.2041 267.433V261.32C60.2866 261.32 60.0391 261.137 60.3856 261.486H55.4354L55.6004 261.32C55.6004 271.951 55.6004 281.386 55.6004 288.314C55.6004 291.636 55.6004 294.377 55.6004 296.387C55.6004 297.267 55.6004 298.048 55.6004 298.58C55.6004 299.111 55.1714 299.277 55.1714 299.277Z" fill="#263238"/>
<path d="M120.762 261.236H115.894V299.277H120.762V261.236Z" fill="#F5F5F5"/>
<path d="M115.894 299.277C115.894 299.277 115.894 299.045 115.894 298.546C115.894 298.048 115.894 297.251 115.894 296.387C115.894 294.377 115.894 291.669 115.894 288.363C115.894 281.386 115.894 271.901 115.894 261.236V261.054H120.844C121.191 261.403 120.943 261.17 121.009 261.236V273.214C121.009 277.001 121.009 280.573 121.009 283.878C121.009 290.307 121.009 295.606 121.009 299.261H120.927H117.28H116.059H117.33H120.927V299.344C120.927 295.689 120.927 290.39 120.927 283.961C120.927 280.639 120.927 277.084 120.927 273.297V261.32L121.092 261.486H116.224L116.406 261.32C116.406 271.951 116.406 281.386 116.323 288.314C116.323 291.636 116.323 294.377 116.323 296.387C116.323 297.267 116.323 298.048 116.323 298.58C116.323 299.111 115.894 299.277 115.894 299.277Z" fill="#263238"/>
<path d="M153.961 261.419H48.8022L71.6722 242.398H128.583L153.961 261.419Z" fill="#FF725E"/>
<g opacity="0.3">
<path d="M153.961 261.419H48.8022L71.6722 242.398H128.583L153.961 261.419Z" fill="black"/>
</g>
<path d="M128.583 242.398L108.667 261.419H154.11L128.583 242.398Z" fill="#FF725E"/>
<path d="M96.1096 171.599H92.4299L107.693 145.087L109.376 147.346L96.1096 171.599Z" fill="#FF725E"/>
<path d="M96.1098 171.616H92.4796L107.759 145.038L109.409 147.297L96.1098 171.616ZM92.4631 171.616H96.0933L109.294 147.38L107.644 145.154L92.4631 171.616Z" fill="#263238"/>
<g opacity="0.3">
<path d="M96.1096 171.599H92.4299L107.693 145.087L109.376 147.346L96.1096 171.599Z" fill="black"/>
</g>
<path d="M126.521 182.912V171.417H133.369L126.521 182.912Z" fill="#EBEBEB"/>
<path d="M133.269 171.599H138.764L119.722 144.97L107.693 145.086L126.52 171.399L133.269 171.599Z" fill="#FF725E"/>
<path d="M133.269 171.599H131.504L126.553 171.483L107.644 145.22L107.462 144.954H107.792H113.369H119.821H119.904L138.879 171.649L138.978 171.782H138.814V171.915L119.689 145.336H119.838H113.402H107.809L107.941 145.054L126.718 171.4L131.669 171.599H133.269Z" fill="#263238"/>
<path d="M164.835 192.048C164.918 192.048 165 216.069 165 245.688C165 275.306 165 299.327 164.835 299.327C164.67 299.327 164.654 275.323 164.654 245.688C164.654 216.052 164.736 192.048 164.835 192.048Z" fill="#263238"/>
<path d="M131.487 288.895H141.355V269.442H131.487V288.895Z" fill="#FAFAFA"/>
<path d="M131.504 288.894V287.416C131.504 286.469 131.504 285.09 131.504 283.379C131.504 279.941 131.504 275.073 131.504 269.425L131.388 269.542H141.289L141.173 269.425V274.857C141.173 276.635 141.173 278.363 141.173 280.007C141.173 283.329 141.173 286.27 141.173 288.845L141.256 288.745H134.078H131.586C131.471 288.745 131.405 288.745 131.405 288.745H134.028H141.256H141.355C141.355 286.17 141.355 283.18 141.355 279.907V274.758C141.355 273.877 141.355 272.98 141.355 272.067V269.326L141.223 269.193H131.322V269.293C131.322 274.99 131.322 279.858 131.322 283.329C131.322 284.991 131.322 286.386 131.322 287.333V288.662C131.406 288.717 131.47 288.799 131.504 288.894Z" fill="#263238"/>
<path d="M136.404 288.878C136.404 288.878 136.52 284.493 136.52 279.094C136.52 273.695 136.52 269.326 136.404 269.326C136.289 269.326 136.272 273.695 136.272 279.094C136.272 284.493 136.338 288.878 136.404 288.878Z" fill="#263238"/>
<path d="M131.619 279.841C131.619 279.841 133.847 279.957 136.569 279.957C139.292 279.957 141.52 279.957 141.52 279.841C138.222 279.666 134.917 279.666 131.619 279.841Z" fill="#263238"/>
<path d="M204.684 299.227C204.684 299.227 168.944 299.393 124.87 299.393C80.797 299.393 45.0564 299.31 45.0564 299.227C45.0564 299.144 80.7805 299.044 124.87 299.044C168.96 299.044 204.684 299.127 204.684 299.227Z" fill="#263238"/>
<path d="M165.71 98.242C165.71 98.4911 147.328 98.6739 124.656 98.6739C101.984 98.6739 83.6021 98.4911 83.6021 98.242C83.6021 97.9928 101.984 97.8101 124.656 97.8101C147.328 97.8101 165.71 98.0094 165.71 98.242Z" fill="#263238"/>
<path d="M147.311 104.77C147.311 105.003 137.939 105.202 126.355 105.202C114.772 105.202 105.399 105.003 105.399 104.77C105.399 104.538 114.788 104.338 126.355 104.338C137.922 104.338 147.311 104.521 147.311 104.77Z" fill="#263238"/>
<path d="M202.787 411.49C202.787 411.722 170.148 411.921 129.887 411.921C89.625 411.921 56.9866 411.722 56.9866 411.49C56.9866 411.257 89.625 411.058 129.887 411.058C170.148 411.058 202.787 411.323 202.787 411.49Z" fill="#263238"/>
<path d="M202.787 428.965C202.787 429.214 170.148 429.397 129.887 429.397C89.625 429.397 56.9866 429.214 56.9866 428.965C56.9866 428.715 89.625 428.533 129.887 428.533C170.148 428.533 202.787 428.732 202.787 428.965Z" fill="#263238"/>
<path d="M202.787 446.706C202.787 446.938 170.148 447.138 129.887 447.138C89.625 447.138 56.9866 446.938 56.9866 446.706C56.9866 446.473 89.625 446.274 129.887 446.274C170.148 446.274 202.787 446.457 202.787 446.706Z" fill="#263238"/>
<path d="M89.1793 142.213C89.5588 139.389 85.6152 137.08 82.579 136.847C81.1605 136.905 79.7404 136.777 78.3549 136.465C75.4507 135.452 74.2957 131.681 71.4575 130.468C70.3539 130.144 69.1941 130.06 68.0557 130.223C66.9174 130.387 65.8269 130.793 64.8573 131.415C62.9152 132.666 60.7439 133.514 58.4715 133.907C56.4749 134.04 54.3133 133.292 52.5642 134.272C51.2607 135.003 50.5842 136.515 49.3796 137.412C48.1298 138.182 46.6864 138.574 45.2214 138.542C43.7649 138.506 42.3148 138.749 40.9477 139.256C40.2599 139.51 39.6757 139.988 39.2873 140.614C38.8989 141.239 38.7284 141.977 38.8026 142.711L89.1793 142.213Z" fill="#EBEBEB"/>
<path d="M211.796 16.6402H178.497C177.411 16.6617 176.34 16.8991 175.345 17.3387C174.35 17.7782 173.451 18.4113 172.7 19.2016C171.948 19.9919 171.359 20.9238 170.967 21.9438C170.574 22.9638 170.386 24.0518 170.412 25.1454V31.2253C170.438 32.3188 170.25 33.4068 169.857 34.4269C169.465 35.4469 168.876 36.3787 168.125 37.169C167.373 37.9593 166.475 38.5924 165.48 39.032C164.485 39.4715 163.413 39.7089 162.327 39.7305H97.413C96.3252 39.709 95.2524 39.471 94.2563 39.0304C93.2602 38.5898 92.3605 37.9552 91.609 37.1632C90.8576 36.3711 90.2691 35.4372 89.8776 34.4153C89.486 33.3934 89.2991 32.3036 89.3276 31.2087V25.0789C89.3539 23.9854 89.1654 22.8974 88.7728 21.8774C88.3803 20.8574 87.7915 19.9255 87.0402 19.1352C86.289 18.3449 85.39 17.7118 84.395 17.2722C83.4001 16.8327 82.3286 16.5953 81.2423 16.5737H40.37C33.426 16.5781 26.767 19.3537 21.8522 24.2922C16.9374 29.2307 14.1678 35.9293 14.1504 42.9199L14.0679 466.07C14.0679 473.067 16.8286 479.776 21.7426 484.724C26.6566 489.671 33.3215 492.45 40.271 492.45L211.68 492.55C215.123 492.554 218.534 491.875 221.716 490.551C224.898 489.227 227.789 487.284 230.224 484.834C232.66 482.384 234.591 479.474 235.908 476.272C237.225 473.069 237.902 469.636 237.9 466.17L237.983 43.0362C237.983 36.0413 235.225 29.3324 230.315 24.3831C225.405 19.4339 218.744 16.649 211.796 16.6402Z" fill="white"/>
</svg>
