<svg width="588" height="444" viewBox="0 0 588 444" fill="none" xmlns="http://www.w3.org/2000/svg">
<path d="M587.97 390.895H0V391.189H587.97V390.895Z" fill="#E6E6E6"/>
<path d="M91.9821 404.018H60.7374V404.312H91.9821V404.018Z" fill="#E6E6E6"/>
<path d="M103.283 398.138H76.3538V398.432H103.283V398.138Z" fill="#E6E6E6"/>
<path d="M382.663 399.008H310.401V399.302H382.663V399.008Z" fill="#E6E6E6"/>
<path d="M406.77 399.008H389.436V399.302H406.77V399.008Z" fill="#E6E6E6"/>
<path d="M505.325 401.019H448.104V401.313H505.325V401.019Z" fill="#E6E6E6"/>
<path d="M227.156 405.711H125.285V406.005H227.156V405.711Z" fill="#E6E6E6"/>
<path d="M523.987 401.019H515.65V401.313H523.987V401.019Z" fill="#E6E6E6"/>
<path d="M278.698 338.448H51.6355C49.8568 338.444 48.1519 337.736 46.8952 336.477C45.6385 335.218 44.9327 333.512 44.9327 331.733V12.5473C44.9482 10.7787 45.6608 9.08765 46.9158 7.84143C48.1709 6.59522 49.8669 5.89449 51.6355 5.89146H278.698C280.479 5.89146 282.187 6.5989 283.446 7.85813C284.705 9.11737 285.413 10.8253 285.413 12.6061V331.733C285.413 333.514 284.705 335.222 283.446 336.481C282.187 337.74 280.479 338.448 278.698 338.448ZM51.6355 6.12665C49.9347 6.12977 48.3046 6.8076 47.1031 8.01136C45.9015 9.21513 45.2267 10.8465 45.2267 12.5473V331.733C45.2267 333.434 45.9015 335.065 47.1031 336.269C48.3046 337.473 49.9347 338.15 51.6355 338.154H278.698C280.4 338.15 282.031 337.473 283.235 336.27C284.438 335.066 285.116 333.435 285.119 331.733V12.5473C285.116 10.8454 284.438 9.21408 283.235 8.01065C282.031 6.80722 280.4 6.12976 278.698 6.12665H51.6355Z" fill="#E6E6E6"/>
<path d="M533.066 338.448H305.992C304.212 338.444 302.506 337.736 301.247 336.477C299.989 335.219 299.28 333.513 299.277 331.733V12.5473C299.296 10.7776 300.011 9.08659 301.268 7.8407C302.525 6.5948 304.222 5.89446 305.992 5.89146H533.066C534.832 5.89758 536.525 6.59967 537.778 7.84556C539.03 9.09144 539.741 10.7807 539.757 12.5473V331.733C539.757 333.51 539.053 335.214 537.799 336.473C536.544 337.731 534.842 338.441 533.066 338.448ZM305.992 6.12665C304.29 6.12976 302.658 6.80722 301.455 8.01065C300.251 9.21408 299.574 10.8454 299.571 12.5473V331.733C299.574 333.435 300.251 335.066 301.455 336.27C302.658 337.473 304.29 338.15 305.992 338.154H533.066C534.768 338.15 536.399 337.473 537.602 336.27C538.806 335.066 539.483 333.435 539.486 331.733V12.5473C539.483 10.8454 538.806 9.21408 537.602 8.01065C536.399 6.80722 534.768 6.12976 533.066 6.12665H305.992Z" fill="#E6E6E6"/>
<path d="M180.423 188.659C183.697 174.458 174.838 160.292 160.636 157.018C146.435 153.745 132.269 162.604 128.995 176.805C125.722 191.006 134.581 205.172 148.782 208.446C162.984 211.719 177.15 202.86 180.423 188.659Z" fill="#F0F0F0"/>
<path d="M334.649 177.273C331.368 170.217 333.979 165.102 342.022 165.102C347.055 165.102 353.311 167.101 359.403 170.335C360.097 168.489 362.025 167.383 365.141 167.383C370.633 167.383 378.194 170.805 384.121 175.615C385.95 174.391 388.106 173.748 390.307 173.769C395.563 173.557 401.913 175.521 407.44 178.719C407.764 178.412 408.146 178.173 408.564 178.015C408.983 177.858 409.428 177.785 409.874 177.802C411.626 177.861 413.346 178.286 414.924 179.049C416.501 179.813 417.902 180.898 419.035 182.236C419.164 182.388 419.27 182.553 419.388 182.706H330.569C327.758 180.201 330.863 177.402 334.649 177.273Z" fill="#F5F5F5"/>
<path d="M161.621 231.872L234.389 215.209V390.894H161.621V231.872Z" fill="#FAFAFA"/>
<path d="M272.148 215.209H234.389V390.894H272.148V215.209Z" fill="#EBEBEB"/>
<path d="M259.812 390.895H321.749V173.193H259.812V390.895Z" fill="#FAFAFA"/>
<path d="M353.888 173.193H321.749V390.895H353.888V173.193Z" fill="#EBEBEB"/>
<path d="M268.15 173.193H321.749V157.012H268.15V173.193Z" fill="#FAFAFA"/>
<path d="M268.15 173.193H321.749V169.559H268.15V173.193Z" fill="#EBEBEB"/>
<path d="M345.562 157.012H321.749V173.193H345.562V157.012Z" fill="#EBEBEB"/>
<path d="M276.475 157.012H321.737V140.831H276.475V157.012Z" fill="#FAFAFA"/>
<path d="M276.475 157.012H321.737V153.378H276.475V157.012Z" fill="#EBEBEB"/>
<path d="M337.225 140.842H321.749V157.023H337.225V140.842Z" fill="#EBEBEB"/>
<path d="M308.355 118.241H305.345V140.842H308.355V118.241Z" fill="#EBEBEB"/>
<path d="M343.622 390.895H388.848V201.486H343.622V390.895Z" fill="#FAFAFA"/>
<path d="M412.332 201.486H388.86V390.894H412.332V201.486Z" fill="#EBEBEB"/>
<path d="M400.596 239.904L434.886 269.302V390.895H400.596V239.904Z" fill="#FAFAFA"/>
<path d="M452.69 269.302H434.886V390.894H452.69V269.302Z" fill="#EBEBEB"/>
<path d="M452.69 269.302H434.886L400.596 239.904H418.388L452.69 269.302Z" fill="#EBEBEB"/>
<path d="M517.296 390.895C517.801 388.07 519.002 385.415 520.79 383.171C522.578 380.927 524.898 379.164 527.539 378.042C525.22 381.907 524.168 386.401 524.528 390.895H517.296Z" fill="#EBEBEB"/>
<path d="M219.078 390.895C218.573 388.07 217.373 385.415 215.584 383.171C213.796 380.927 211.476 379.164 208.835 378.042C211.154 381.907 212.206 386.401 211.846 390.895H219.078Z" fill="#EBEBEB"/>
<path d="M69.2276 390.894C69.2276 390.894 68.6514 375.842 62.3601 371.468C64.9354 377.618 64.3827 390.894 64.3827 390.894H69.2276Z" fill="#EBEBEB"/>
<path d="M66.864 390.894C66.864 390.894 67.4519 382.251 73.7432 379.747C71.1561 383.274 71.7206 390.894 71.7206 390.894H66.864Z" fill="#EBEBEB"/>
<path d="M224.464 390.894C224.464 390.894 223.829 376.642 212.422 371.468C217.526 378.782 217.232 390.894 217.232 390.894H224.464Z" fill="#EBEBEB"/>
<path d="M110.162 294.949L118.464 353.511L119.287 359.368H124.614L123.78 353.511L115.477 294.949H110.162Z" fill="#E0E0E0"/>
<path d="M338.283 294.949L346.585 353.511L347.408 359.368H352.735L351.9 353.511L343.598 294.949H338.283Z" fill="#E0E0E0"/>
<path d="M144.253 353.511L145.088 359.368L149.568 390.942H154.895L150.415 359.368L149.591 353.511H144.253Z" fill="#E6E6E6"/>
<path d="M372.385 353.511L373.22 359.368L377.689 390.942H383.004L378.535 359.368L377.712 353.511H372.385Z" fill="#E6E6E6"/>
<path d="M345.503 353.511L344.668 359.368L340.188 390.942H334.861L339.341 359.368L340.164 353.511H345.503Z" fill="#E6E6E6"/>
<path d="M117.371 353.511L116.536 359.368L112.067 390.942H106.752L111.22 359.368L112.055 353.511H117.371Z" fill="#E6E6E6"/>
<path d="M102.507 303.099H346.315L341.787 286.788H97.9794L102.507 303.099Z" fill="#F5F5F5"/>
<path d="M108.069 303.099H351.889L347.361 286.788H103.542L108.069 303.099Z" fill="#E6E6E6"/>
<path d="M105.905 323.431H349.713L345.186 307.132H101.366L105.905 323.431Z" fill="#F5F5F5"/>
<path d="M111.467 323.431H355.275L350.748 307.132H106.94L111.467 323.431Z" fill="#E6E6E6"/>
<path d="M109.292 343.798H353.112L348.584 327.499H104.765L109.292 343.798Z" fill="#F5F5F5"/>
<path d="M114.866 343.798H358.674L354.146 327.499H110.339L114.866 343.798Z" fill="#E6E6E6"/>
<path d="M380.864 353.511H138.126V359.368H380.864V353.511Z" fill="#E6E6E6"/>
<path d="M138.126 353.511H104.765V359.368H138.126V353.511Z" fill="#F5F5F5"/>
<path d="M86.4317 114.631C81.8808 104.8 85.5027 97.803 96.6271 97.803C103.6 97.803 112.244 100.555 120.675 105.035C121.628 102.483 124.309 100.955 128.613 100.955C136.209 100.955 146.663 105.658 154.871 112.373C157.398 110.678 160.378 109.788 163.42 109.821C170.688 109.515 179.484 112.244 187.127 116.665C188.036 115.813 189.246 115.356 190.491 115.395C194.677 115.219 200.345 117.97 203.156 121.522C203.332 121.745 203.485 121.957 203.638 122.18H80.7871C76.9065 118.688 81.1987 114.807 86.4317 114.631Z" fill="#F5F5F5"/>
<path d="M409.122 134.904C409.431 134.886 409.741 134.886 410.051 134.904C409.768 131.694 411.426 129.636 414.99 129.636C418.156 129.85 421.221 130.839 423.915 132.517C422.998 126.284 425.949 122.227 432.605 122.227C437.979 122.227 444.788 124.861 451.514 129.165C452.102 126.719 454.078 125.249 457.394 125.249C463.274 125.249 471.505 129.789 478.208 136.186C479.969 134.585 482.272 133.71 484.652 133.74C490.214 133.446 497.129 136.092 503.256 140.302C503.55 139.915 503.934 139.607 504.375 139.402C504.815 139.197 505.299 139.102 505.784 139.126C508.83 138.973 513.016 141.313 515.462 144.441H404.23C401.607 139.596 403.689 135.445 409.122 134.904Z" fill="#F5F5F5"/>
<path d="M221.994 63.783C222.3 63.7652 222.606 63.7652 222.911 63.783C222.629 60.561 224.299 58.5148 227.85 58.5148C231.021 58.7271 234.09 59.7165 236.787 61.3959C235.87 55.1516 238.81 51.0946 245.466 51.0946C250.852 51.0946 257.649 53.7405 264.375 58.0444C264.963 55.5985 266.939 54.1286 270.255 54.1286C276.134 54.1286 284.366 58.6559 291.069 65.0648C292.834 63.4684 295.133 62.5914 297.513 62.6071C303.075 62.3249 309.99 64.959 316.116 69.1688C316.412 68.7835 316.796 68.4753 317.236 68.2705C317.676 68.0657 318.16 67.9705 318.645 67.9929C321.69 67.8283 325.888 70.1684 328.323 73.3082H217.09C214.48 68.475 216.561 64.324 221.994 63.783Z" fill="#F5F5F5"/>
<path d="M499.504 370.551L478.608 349.654H462.333L480.395 367.717H475.433V390.894H494.542V370.551H499.504Z" fill="#EBEBEB"/>
<path d="M483.229 370.551L462.333 349.654L441.436 370.551H449.233V390.894H475.433V370.551H483.229Z" fill="#FAFAFA"/>
<path d="M293.985 444C419.908 444 521.988 438.04 521.988 430.688C521.988 423.337 419.908 417.377 293.985 417.377C168.063 417.377 65.9821 423.337 65.9821 430.688C65.9821 438.04 168.063 444 293.985 444Z" fill="#F5F5F5"/>
<path d="M491.92 192.984L460.581 161.633H436.168L463.262 188.727H455.806V223.476H484.464V192.984H491.92Z" fill="#407BFF"/>
<path opacity="0.4" d="M491.92 192.984L460.581 161.633H436.168L463.262 188.727H455.806V223.476H484.464V192.984H491.92Z" fill="white"/>
<path d="M467.507 192.984L436.168 161.633L404.829 192.984H416.518V223.476H455.806V192.984H467.507Z" fill="#407BFF"/>
<path opacity="0.7" d="M467.507 192.984L436.168 161.633L404.829 192.984H416.518V223.476H455.806V192.984H467.507Z" fill="white"/>
<path d="M350.877 225.569L319.527 194.23H295.126L322.22 221.312H314.764V256.073H343.422V225.569H350.877Z" fill="#407BFF"/>
<path opacity="0.4" d="M350.877 225.569L319.527 194.23H295.126L322.22 221.312H314.764V256.073H343.422V225.569H350.877Z" fill="white"/>
<path d="M326.465 225.569L295.126 194.23L263.787 225.569H275.476V256.061H314.764V225.569H326.465Z" fill="#407BFF"/>
<path opacity="0.7" d="M326.465 225.569L295.126 194.23L263.787 225.569H275.476V256.061H314.764V225.569H326.465Z" fill="white"/>
<path d="M349.008 120.263H332.145L329.734 117.865L310.154 81.4104L349.008 120.263Z" fill="#2F54C6"/>
<path d="M332.086 155.671H367.611V112.585H332.086V155.671Z" fill="#407BFF"/>
<path opacity="0.3" d="M332.086 155.671H367.611V112.585H332.086V155.671Z" fill="black"/>
<path d="M346.597 117.865H376.866L338.001 78.9997H307.744L346.597 117.865Z" fill="#407BFF"/>
<path opacity="0.3" d="M346.597 117.865H376.866L338.001 78.9997H307.744L346.597 117.865Z" fill="black"/>
<path d="M332.086 106.964V155.671H283.39V106.964L307.744 83.3154L307.991 83.5624L310.154 85.6555L332.086 106.964Z" fill="#407BFF"/>
<path opacity="0.3" d="M310.154 81.4104V98.2734L288.153 120.263H283.39V108.175L307.991 83.5624L310.154 81.4104Z" fill="black"/>
<path d="M346.597 117.865H329.734L307.744 95.8627V78.9997L346.597 117.865Z" fill="#407BFF"/>
<path d="M268.879 117.865H285.742L307.744 95.8627V78.9997L268.879 117.865Z" fill="#407BFF"/>
<path d="M263.411 167.442C253.38 175.58 243.032 183.235 232.625 190.761C222.218 198.287 211.669 205.601 201.086 212.857C190.502 220.113 179.743 227.098 168.936 234.024C163.562 237.552 158.105 240.891 152.684 244.325C150.01 246.168 147.056 247.566 143.935 248.465C142.243 248.921 140.51 249.204 138.761 249.311C136.796 249.474 134.818 249.367 132.881 248.994C131.365 248.685 129.925 248.081 128.643 247.215C127.361 246.349 126.263 245.238 125.411 243.947C124.559 242.656 123.97 241.209 123.678 239.69C123.386 238.171 123.396 236.609 123.709 235.094C123.709 234.918 123.791 234.694 123.838 234.506C124.366 232.602 125.158 230.781 126.19 229.097C127.059 227.597 128.08 226.19 129.236 224.899C131.414 222.49 133.968 220.449 136.797 218.854C142.265 215.491 147.686 212.069 153.178 208.777C164.126 202.085 175.18 195.582 186.293 189.162C197.405 182.741 208.635 176.52 219.96 170.453C231.284 164.385 242.702 158.47 254.415 153.013C256.304 152.194 258.426 152.08 260.392 152.693C262.358 153.306 264.039 154.604 265.129 156.352C266.219 158.1 266.645 160.181 266.329 162.216C266.014 164.252 264.978 166.106 263.411 167.442Z" fill="#407BFF"/>
<path d="M263.411 167.442C253.38 175.58 243.032 183.235 232.625 190.761C222.218 198.287 211.669 205.601 201.086 212.857C190.502 220.113 179.743 227.098 168.936 234.024C163.562 237.552 158.105 240.891 152.684 244.325C150.01 246.168 147.056 247.566 143.935 248.465C142.243 248.921 140.51 249.204 138.761 249.311C136.796 249.474 134.818 249.367 132.881 248.994C131.365 248.685 129.925 248.081 128.643 247.215C127.361 246.349 126.263 245.238 125.411 243.947C124.559 242.656 123.97 241.209 123.678 239.69C123.386 238.171 123.396 236.609 123.709 235.094C123.709 234.918 123.791 234.694 123.838 234.506C124.366 232.602 125.158 230.781 126.19 229.097C127.059 227.597 128.08 226.19 129.236 224.899C131.414 222.49 133.968 220.449 136.797 218.854C142.265 215.491 147.686 212.069 153.178 208.777C164.126 202.085 175.18 195.582 186.293 189.162C197.405 182.741 208.635 176.52 219.96 170.453C231.284 164.385 242.702 158.47 254.415 153.013C256.304 152.194 258.426 152.08 260.392 152.693C262.358 153.306 264.039 154.604 265.129 156.352C266.219 158.1 266.645 160.181 266.329 162.216C266.014 164.252 264.978 166.106 263.411 167.442Z" fill="#407BFF"/>
<path opacity="0.5" d="M263.411 167.442C253.38 175.58 243.032 183.235 232.625 190.761C222.218 198.287 211.669 205.601 201.086 212.857C190.502 220.113 179.743 227.098 168.936 234.024C163.562 237.552 158.105 240.891 152.684 244.325C150.01 246.168 147.056 247.566 143.935 248.465C142.243 248.921 140.51 249.204 138.761 249.311C136.796 249.474 134.818 249.367 132.881 248.994C131.365 248.685 129.925 248.081 128.643 247.215C127.361 246.349 126.263 245.238 125.411 243.947C124.559 242.656 123.97 241.209 123.678 239.69C123.386 238.171 123.396 236.609 123.709 235.094C123.709 234.918 123.791 234.694 123.838 234.506C124.366 232.602 125.158 230.781 126.19 229.097C127.059 227.597 128.08 226.19 129.236 224.899C131.414 222.49 133.968 220.449 136.797 218.854C142.265 215.491 147.686 212.069 153.178 208.777C164.126 202.085 175.18 195.582 186.293 189.162C197.405 182.741 208.635 176.52 219.96 170.453C231.284 164.385 242.702 158.47 254.415 153.013C256.304 152.194 258.426 152.08 260.392 152.693C262.358 153.306 264.039 154.604 265.129 156.352C266.219 158.1 266.645 160.181 266.329 162.216C266.014 164.252 264.978 166.106 263.411 167.442Z" fill="white"/>
<path d="M220.019 420.563L229.614 418.341L225.122 395.963L215.526 398.185L220.019 420.563Z" fill="#EBB376"/>
<path d="M155.318 153.155C153.989 157.858 152.708 162.809 151.485 167.654C150.262 172.499 149.133 177.414 148.192 182.306C147.675 184.74 147.228 187.233 146.84 189.526C146.452 191.819 146.228 194.23 146.087 196.641C145.964 199.038 145.964 201.44 146.087 203.838C146.087 205.014 146.24 206.189 146.358 207.436C146.475 208.682 146.687 209.87 146.851 210.893L142.148 212.669C141.53 211.405 141 210.101 140.56 208.765C140.1 207.481 139.708 206.174 139.384 204.849C138.741 202.205 138.3 199.516 138.067 196.805C137.85 194.067 137.81 191.317 137.95 188.574C138.138 185.799 138.467 183.247 138.832 180.66C139.572 175.497 140.525 170.382 141.654 165.373C142.783 160.363 144.006 155.318 145.593 150.25L155.318 153.155Z" fill="#EBB376"/>
<path d="M141.477 154.777L151.367 162.656L157.306 167.36C157.306 167.36 157.929 165.702 158.681 163.326C160.116 158.74 161.986 151.473 160.692 148.133C158.658 142.842 154.813 138.067 149.944 139.126C145.817 140.055 141.477 154.777 141.477 154.777Z" fill="#263238"/>
<path d="M155.142 420.634H164.985L164.22 397.821H154.366L155.142 420.634Z" fill="#EBB376"/>
<path d="M225.122 395.975L227.533 407.957L217.843 409.721L215.515 398.197L225.122 395.975Z" fill="#DA9D62"/>
<path d="M154.366 397.821H164.22L164.608 409.58H154.754L154.366 397.821Z" fill="#DA9D62"/>
<path d="M186.469 198.887C186.469 198.887 180.754 266.492 174.827 304.592C170.041 335.367 166.254 407.311 166.254 407.311H152.872C152.872 407.311 146.475 337.836 148.909 307.356C155.06 230.343 144.206 216.702 157.082 198.852L186.469 198.887Z" fill="#407BFF"/>
<path opacity="0.6" d="M186.469 198.887C186.469 198.887 180.754 266.492 174.827 304.592C170.041 335.367 166.254 407.311 166.254 407.311H152.872C152.872 407.311 146.475 337.836 148.909 307.356C155.06 230.343 144.206 216.702 157.082 198.852L186.469 198.887Z" fill="black"/>
<path d="M142.795 211.905L136.985 215.856L137.809 219.231C137.809 219.231 149.909 212.951 146.675 210.435L142.795 211.905Z" fill="#EBB376"/>
<path d="M169.136 421.21C168.259 421.188 167.388 421.07 166.537 420.857C166.493 420.844 166.454 420.82 166.423 420.787C166.393 420.754 166.371 420.713 166.36 420.669C166.353 420.624 166.359 420.578 166.378 420.536C166.397 420.494 166.428 420.459 166.466 420.434C166.807 420.211 169.782 418.282 170.935 418.8C171.065 418.857 171.178 418.948 171.261 419.064C171.344 419.18 171.394 419.316 171.405 419.458C171.451 419.68 171.44 419.91 171.372 420.126C171.304 420.342 171.182 420.537 171.017 420.693C170.472 421.085 169.805 421.269 169.136 421.21ZM167.195 420.516C168.912 420.869 170.206 420.799 170.723 420.352C170.831 420.245 170.91 420.112 170.954 419.966C170.997 419.82 171.002 419.666 170.97 419.517C170.966 419.455 170.945 419.395 170.91 419.343C170.875 419.291 170.827 419.25 170.77 419.223C170.147 418.952 168.418 419.823 167.195 420.516Z" fill="#407BFF"/>
<path d="M166.596 420.857C166.557 420.87 166.516 420.87 166.478 420.857C166.443 420.836 166.415 420.807 166.394 420.772C166.374 420.737 166.362 420.698 166.36 420.658C166.36 420.528 166.36 417.694 167.442 416.742C167.573 416.619 167.73 416.527 167.901 416.474C168.072 416.421 168.253 416.408 168.43 416.436C168.615 416.437 168.795 416.502 168.938 416.62C169.082 416.738 169.18 416.901 169.218 417.083C169.441 418.259 167.642 420.328 166.713 420.857C166.675 420.869 166.634 420.869 166.596 420.857ZM168.265 416.871C168.075 416.876 167.892 416.946 167.748 417.071C167.131 417.987 166.815 419.072 166.842 420.175C167.771 419.423 168.9 417.824 168.759 417.153C168.759 417.047 168.677 416.906 168.371 416.871H168.265Z" fill="#407BFF"/>
<path d="M230.484 416.859C230.441 416.857 230.398 416.843 230.362 416.818C230.325 416.794 230.296 416.76 230.276 416.721C230.257 416.681 230.249 416.637 230.252 416.593C230.256 416.549 230.271 416.507 230.296 416.471C230.614 416.095 233.354 412.873 234.753 412.873H234.847C234.975 412.882 235.098 412.925 235.203 412.997C235.308 413.069 235.393 413.169 235.447 413.284C235.542 413.466 235.591 413.668 235.591 413.872C235.591 414.077 235.542 414.279 235.447 414.46C234.835 415.754 232.072 416.483 230.473 416.812L230.484 416.859ZM234.741 413.331C233.977 413.331 232.284 414.931 231.119 416.236C233.271 415.73 234.73 415.06 235.071 414.296C235.14 414.176 235.176 414.04 235.176 413.902C235.176 413.764 235.14 413.628 235.071 413.508C235.05 413.46 235.018 413.419 234.977 413.388C234.935 413.357 234.887 413.338 234.835 413.331H234.741Z" fill="#407BFF"/>
<path d="M230.484 416.859C230.445 416.853 230.408 416.835 230.379 416.808C230.349 416.781 230.329 416.745 230.32 416.706C230.32 416.601 229.473 414.061 230.226 412.638C230.329 412.429 230.474 412.244 230.653 412.095C230.831 411.945 231.038 411.834 231.261 411.767C231.884 411.579 232.19 411.767 232.319 412.038C232.919 413.002 231.59 415.848 230.708 416.742C230.685 416.78 230.652 416.81 230.612 416.831C230.573 416.852 230.529 416.862 230.484 416.859ZM231.66 412.156C231.571 412.141 231.48 412.141 231.39 412.156C231.225 412.203 231.073 412.283 230.941 412.393C230.809 412.502 230.702 412.637 230.626 412.79C230.284 413.861 230.284 415.012 230.626 416.083C231.46 414.907 232.272 412.802 231.919 412.226C231.88 412.179 231.827 412.146 231.767 412.133C231.707 412.12 231.645 412.128 231.59 412.156H231.66Z" fill="#407BFF"/>
<path d="M167.454 115.336C168.63 121.216 170.982 132.975 166.925 136.915C166.925 136.915 168.524 142.795 179.39 142.795C191.326 142.795 185.093 136.915 185.093 136.915C178.578 135.363 178.743 130.529 179.884 125.979L167.454 115.336Z" fill="#EBB376"/>
<path d="M191.184 102.801C191.088 102.802 190.993 102.774 190.914 102.718C190.864 102.682 190.821 102.636 190.788 102.584C190.756 102.531 190.734 102.472 190.724 102.411C190.714 102.35 190.717 102.287 190.731 102.227C190.746 102.167 190.772 102.11 190.808 102.06C191.233 101.456 191.793 100.96 192.445 100.612C193.097 100.265 193.821 100.076 194.559 100.061C194.67 100.078 194.77 100.135 194.843 100.22C194.916 100.305 194.956 100.413 194.956 100.525C194.956 100.637 194.916 100.745 194.843 100.831C194.77 100.916 194.67 100.972 194.559 100.99C193.972 101.006 193.397 101.162 192.882 101.444C192.367 101.726 191.926 102.127 191.596 102.613C191.55 102.677 191.487 102.728 191.415 102.761C191.343 102.794 191.263 102.808 191.184 102.801Z" fill="#263238"/>
<path d="M193.795 108.41C194.429 110.252 195.316 111.997 196.429 113.596C196.011 113.867 195.539 114.044 195.046 114.115C194.552 114.186 194.049 114.15 193.572 114.007L193.795 108.41Z" fill="#DE5753"/>
<path d="M193.137 107.022C193.137 107.822 193.501 108.481 194.018 108.492C194.536 108.504 194.983 107.893 195.018 107.093C195.053 106.293 194.653 105.647 194.136 105.623C193.619 105.599 193.172 106.235 193.137 107.022Z" fill="#263238"/>
<path d="M193.901 105.658L195.829 105.188C195.829 105.188 194.795 106.634 193.901 105.658Z" fill="#263238"/>
<path d="M165.808 419.493H154.742C154.551 419.486 154.363 419.551 154.218 419.675C154.072 419.799 153.978 419.974 153.954 420.164L152.696 428.913C152.669 429.134 152.69 429.359 152.757 429.572C152.824 429.785 152.936 429.981 153.086 430.147C153.235 430.313 153.418 430.445 153.623 430.534C153.827 430.624 154.048 430.668 154.272 430.665C158.129 430.606 159.987 430.371 164.855 430.371C167.854 430.371 172.217 430.688 176.356 430.688C180.495 430.688 180.707 426.596 178.99 426.232C171.276 424.562 170.053 422.28 167.454 420.093C166.991 419.709 166.409 419.497 165.808 419.493Z" fill="#263238"/>
<path d="M229.426 415.813L219.207 420.058C219.03 420.127 218.884 420.258 218.798 420.427C218.711 420.596 218.689 420.791 218.737 420.975L220.924 429.548C220.986 429.762 221.093 429.96 221.237 430.129C221.381 430.299 221.56 430.436 221.761 430.532C221.962 430.627 222.181 430.679 222.404 430.684C222.626 430.688 222.847 430.646 223.052 430.559C226.58 429.019 228.227 428.101 232.719 426.232C235.482 425.056 241.327 422.998 245.148 421.41C248.97 419.823 247.594 415.966 245.866 416.283C238.105 417.718 234.412 416.765 231.178 415.742C230.604 415.559 229.984 415.584 229.426 415.813Z" fill="#263238"/>
<path d="M207.177 149.109C209.094 153.625 211.164 158.246 213.257 162.738C214.315 164.996 215.417 167.215 216.561 169.394C217.737 171.582 218.913 173.722 220.089 175.768C220.712 176.779 221.336 177.791 221.982 178.72L222.947 180.06C223.144 180.34 223.369 180.6 223.617 180.836C224.899 181.95 226.5 182.633 228.191 182.788C232.201 183.364 237.234 182.553 241.738 181.342L243.831 185.869C242.641 186.584 241.408 187.224 240.139 187.786C238.89 188.367 237.605 188.87 236.294 189.291C233.528 190.233 230.63 190.729 227.709 190.761C226.08 190.776 224.457 190.562 222.888 190.126C221.146 189.647 219.507 188.849 218.055 187.774C217.311 187.209 216.622 186.575 215.997 185.881C215.468 185.281 215.08 184.776 214.609 184.211C213.727 183.106 212.939 181.989 212.151 180.871C209.221 176.462 206.582 171.866 204.249 167.113C201.897 162.409 199.781 157.705 197.829 152.837L207.177 149.109Z" fill="#EBB376"/>
<path d="M240.727 186.422L251.475 184.729L248.617 178.637C248.617 178.637 240.292 180.084 238.693 183.847L240.727 186.422Z" fill="#EBB376"/>
<path d="M251.463 179.978L250.287 177.379L248.617 178.637L251.463 184.729V179.978Z" fill="#EBB376"/>
<path d="M166.56 103.248C166.772 113.02 166.654 117.159 171.382 122.357C178.437 130.177 190.455 127.778 193.16 118.135C195.594 109.457 194.83 94.9337 185.446 90.6768C183.38 89.7294 181.106 89.3259 178.84 89.5046C176.574 89.6833 174.391 90.4382 172.499 91.6977C170.607 92.9571 169.068 94.6794 168.028 96.7008C166.989 98.7223 166.484 100.976 166.56 103.248Z" fill="#EBB376"/>
<path d="M158.681 85.5967C168.724 78.3177 179.942 82.4452 186.081 87.4782C192.502 92.7465 191.478 102.871 187.551 107.058C187.958 107.677 188.228 108.376 188.341 109.109C188.455 109.841 188.41 110.589 188.209 111.303C188.705 114.436 188.016 117.641 186.277 120.293C184.537 122.946 181.873 124.855 178.802 125.649L178.249 125.79C165.702 128.777 151.202 120.287 149.015 107.587C147.686 99.8374 149.803 92.0174 158.681 85.5967Z" fill="#263238"/>
<path d="M185.305 107.775C185.465 109.617 186.254 111.349 187.539 112.679C189.279 114.478 191.067 113.443 191.384 111.315C191.655 109.398 191.079 106.152 188.962 105.129C186.845 104.106 185.152 105.599 185.305 107.775Z" fill="#EBB376"/>
<path opacity="0.3" d="M172.863 230.496C171.746 250.699 176.615 265.951 178.837 274.876C180.413 261.682 181.859 247.912 183.07 235.764C178.919 222.006 173.675 215.291 172.863 230.496Z" fill="black"/>
<path d="M168.101 407.569H150.991L150.085 401.572L168.195 400.961L168.101 407.569Z" fill="#407BFF"/>
<path opacity="0.3" d="M151.367 162.656L157.306 167.36C157.306 167.36 157.929 165.702 158.681 163.326L155.154 145.864L151.367 162.656Z" fill="black"/>
<path d="M164.279 87.2313C167.348 83.8328 177.779 78.6469 186.728 82.7157C189.28 83.8784 191.443 85.7526 192.958 88.1137C194.472 90.4747 195.273 93.2224 195.265 96.0273L187.198 101.437L164.279 87.2313Z" fill="#263238"/>
<path d="M156.047 96.1567C160.481 92.523 165.455 79.3525 156.047 83.9387C146.64 88.5248 143.782 106.211 156.047 96.1567Z" fill="#407BFF"/>
<path d="M157.047 87.7134C158.964 82.116 146.322 70.9798 137.797 81.5633C129.271 92.1467 151.532 103.824 157.047 87.7134Z" fill="#263238"/>
<path d="M176.826 95.5217C169.477 92.3937 165.819 80.5402 178.437 80.8812C191.055 81.2222 190.691 101.437 176.826 95.5217Z" fill="#407BFF"/>
<path d="M174.451 89.3833C169.994 83.8211 174.921 69.5216 187.704 74.096C200.486 78.6705 184.681 102.095 174.451 89.3833Z" fill="#263238"/>
<path d="M197.041 198.887C197.041 198.887 208.142 274.735 212.046 304.58C216.103 335.566 227.956 405.041 227.956 405.041L214.786 407.052C214.786 407.052 193.971 340.788 188.174 310.625C181.848 277.757 169.359 198.91 169.359 198.91L197.041 198.887Z" fill="#407BFF"/>
<path opacity="0.6" d="M197.041 198.887C197.041 198.887 208.142 274.735 212.046 304.58C216.103 335.566 227.956 405.041 227.956 405.041L214.786 407.052C214.786 407.052 193.971 340.788 188.174 310.625C181.848 277.757 169.359 198.91 169.359 198.91L197.041 198.887Z" fill="black"/>
<path d="M201.744 139.443C206.636 140.619 212.669 154.072 212.669 154.072L201.015 169.006C201.015 169.006 188.974 151.967 190.585 146.769C192.255 141.348 195.806 137.997 201.744 139.443Z" fill="#263238"/>
<path d="M185.799 138.832C187.41 139.067 185.916 135.386 185.246 134.998C183.706 134.081 164.079 132.235 164.302 134.304C164.421 135.539 164.951 136.699 165.808 137.597C166.69 138.185 171.687 136.562 185.799 138.832Z" fill="#407BFF"/>
<path opacity="0.6" d="M185.799 138.832C187.41 139.067 185.916 135.386 185.246 134.998C183.706 134.081 164.079 132.235 164.302 134.304C164.421 135.539 164.951 136.699 165.808 137.597C166.69 138.185 171.687 136.562 185.799 138.832Z" fill="white"/>
<path d="M201.744 139.443C201.744 139.443 206.448 141.089 197.041 198.887H157.059C157.729 182.612 157.752 172.569 150.003 139.149C155.602 137.994 161.277 137.247 166.984 136.915C173.032 136.479 179.104 136.479 185.152 136.915C192.854 137.597 201.744 139.443 201.744 139.443Z" fill="#263238"/>
<path d="M156.4 196.547L154.601 200.075C154.46 200.357 154.789 200.639 155.248 200.639H197.205C197.558 200.639 197.864 200.463 197.887 200.227L198.24 196.7C198.24 196.453 197.958 196.241 197.558 196.241H157.082C156.951 196.223 156.818 196.242 156.697 196.296C156.577 196.35 156.474 196.437 156.4 196.547Z" fill="#407BFF"/>
<path opacity="0.6" d="M156.4 196.547L154.601 200.075C154.46 200.357 154.789 200.639 155.248 200.639H197.205C197.558 200.639 197.864 200.463 197.887 200.227L198.24 196.7C198.24 196.453 197.958 196.241 197.558 196.241H157.082C156.951 196.223 156.818 196.242 156.697 196.296C156.577 196.35 156.474 196.437 156.4 196.547Z" fill="white"/>
<path d="M161.88 201.098H160.786C160.575 201.098 160.41 200.98 160.422 200.851L160.939 196.147C160.939 196.006 161.139 195.9 161.351 195.9H162.444C162.656 195.9 162.821 196.006 162.809 196.147L162.292 200.851C162.28 200.957 162.092 201.098 161.88 201.098Z" fill="#407BFF"/>
<path d="M188.151 201.098H187.069C186.845 201.098 186.681 200.98 186.704 200.851L187.21 196.147C187.21 196.006 187.41 195.9 187.633 195.9H188.715C188.927 195.9 189.091 196.006 189.08 196.147L188.574 200.851C188.574 200.957 188.386 201.098 188.151 201.098Z" fill="#407BFF"/>
<path opacity="0.6" d="M161.88 201.098H160.786C160.575 201.098 160.41 200.98 160.422 200.851L160.939 196.147C160.939 196.006 161.139 195.9 161.351 195.9H162.444C162.656 195.9 162.821 196.006 162.809 196.147L162.292 200.851C162.28 200.957 162.092 201.098 161.88 201.098Z" fill="black"/>
<path opacity="0.6" d="M188.151 201.098H187.069C186.845 201.098 186.681 200.98 186.704 200.851L187.21 196.147C187.21 196.006 187.41 195.9 187.633 195.9H188.715C188.927 195.9 189.091 196.006 189.08 196.147L188.574 200.851C188.574 200.957 188.386 201.098 188.151 201.098Z" fill="black"/>
<path d="M229.896 405.041L213.033 407.91L211.117 401.549L229.167 398.456L229.896 405.041Z" fill="#407BFF"/>
<path d="M397.95 76.7537C388.981 62.3909 375.954 51.0103 360.516 44.0509C345.079 37.0916 327.925 34.866 311.223 37.6557C294.52 40.4454 279.021 48.125 266.683 59.7235C254.345 71.3219 245.724 86.3184 241.909 102.817C238.094 119.315 239.257 136.574 245.25 152.411C251.244 168.248 261.799 181.953 275.581 191.791C289.363 201.63 305.753 207.161 322.678 207.685C339.603 208.209 356.304 203.703 370.668 194.736C380.207 188.781 388.48 181.005 395.013 171.853C401.547 162.701 406.214 152.352 408.747 141.396C411.28 130.44 411.631 119.092 409.778 108.001C407.926 96.9094 403.907 86.2916 397.95 76.7537ZM268.02 157.894C260.945 146.559 257.39 133.381 257.804 120.026C258.218 106.671 262.582 93.739 270.346 82.8646C278.11 71.9902 288.924 63.6622 301.421 58.9337C313.917 54.2051 327.536 53.2885 340.553 56.2995C353.571 59.3105 365.404 66.1141 374.555 75.8499C383.706 85.5857 389.765 97.8164 391.965 110.995C394.165 124.174 392.407 137.71 386.915 149.89C381.423 162.071 372.442 172.349 361.108 179.425C353.581 184.123 345.203 187.293 336.451 188.753C327.7 190.213 318.746 189.935 310.102 187.934C301.458 185.934 293.292 182.25 286.072 177.094C278.852 171.937 272.718 165.409 268.02 157.882V157.894Z" fill="#407BFF"/>
<path d="M397.95 76.7537C388.981 62.3909 375.954 51.0103 360.516 44.0509C345.079 37.0916 327.925 34.866 311.223 37.6557C294.52 40.4454 279.021 48.125 266.683 59.7235C254.345 71.3219 245.724 86.3184 241.909 102.817C238.094 119.315 239.257 136.574 245.25 152.411C251.244 168.248 261.799 181.953 275.581 191.791C289.363 201.63 305.753 207.161 322.678 207.685C339.603 208.209 356.304 203.703 370.668 194.736C380.207 188.781 388.48 181.005 395.013 171.853C401.547 162.701 406.214 152.352 408.747 141.396C411.28 130.44 411.631 119.092 409.778 108.001C407.926 96.9094 403.907 86.2916 397.95 76.7537ZM268.02 157.894C260.945 146.559 257.39 133.381 257.804 120.026C258.218 106.671 262.582 93.739 270.346 82.8646C278.11 71.9902 288.924 63.6622 301.421 58.9337C313.917 54.2051 327.536 53.2885 340.553 56.2995C353.571 59.3105 365.404 66.1141 374.555 75.8499C383.706 85.5857 389.765 97.8164 391.965 110.995C394.165 124.174 392.407 137.71 386.915 149.89C381.423 162.071 372.442 172.349 361.108 179.425C353.581 184.123 345.203 187.293 336.451 188.753C327.7 190.213 318.746 189.935 310.102 187.934C301.458 185.934 293.292 182.25 286.072 177.094C278.852 171.937 272.718 165.409 268.02 157.882V157.894Z" fill="#407BFF"/>
<path opacity="0.5" d="M397.95 76.7537C388.981 62.3909 375.954 51.0103 360.516 44.0509C345.079 37.0916 327.925 34.866 311.223 37.6557C294.52 40.4454 279.021 48.125 266.683 59.7235C254.345 71.3219 245.724 86.3184 241.909 102.817C238.094 119.315 239.257 136.574 245.25 152.411C251.244 168.248 261.799 181.953 275.581 191.791C289.363 201.63 305.753 207.161 322.678 207.685C339.603 208.209 356.304 203.703 370.668 194.736C380.207 188.781 388.48 181.005 395.013 171.853C401.547 162.701 406.214 152.352 408.747 141.396C411.28 130.44 411.631 119.092 409.778 108.001C407.926 96.9094 403.907 86.2916 397.95 76.7537ZM268.02 157.894C260.945 146.559 257.39 133.381 257.804 120.026C258.218 106.671 262.582 93.739 270.346 82.8646C278.11 71.9902 288.924 63.6622 301.421 58.9337C313.917 54.2051 327.536 53.2885 340.553 56.2995C353.571 59.3105 365.404 66.1141 374.555 75.8499C383.706 85.5857 389.765 97.8164 391.965 110.995C394.165 124.174 392.407 137.71 386.915 149.89C381.423 162.071 372.442 172.349 361.108 179.425C353.581 184.123 345.203 187.293 336.451 188.753C327.7 190.213 318.746 189.935 310.102 187.934C301.458 185.934 293.292 182.25 286.072 177.094C278.852 171.937 272.718 165.409 268.02 157.882V157.894Z" fill="white"/>
<path opacity="0.2" d="M388.296 82.7862C396.069 95.2413 399.974 109.721 399.518 124.396C399.062 139.07 394.265 153.28 385.734 165.229C377.203 177.177 365.32 186.327 351.589 191.523C337.858 196.719 322.894 197.726 308.59 194.418C294.286 191.111 281.284 183.635 271.228 172.939C261.172 162.242 254.513 148.803 252.094 134.322C249.675 119.842 251.604 104.969 257.637 91.5839C263.67 78.1992 273.537 66.904 285.989 59.1263C294.259 53.9604 303.467 50.4746 313.085 48.8678C322.703 47.2611 332.543 47.565 342.044 49.7622C351.544 51.9593 360.519 56.0066 368.455 61.673C376.391 67.3394 383.133 74.5137 388.296 82.7862Z" fill="#FAFAFA"/>
<path opacity="0.1" d="M398.844 111.597L283.602 183.541C274.204 177.164 266.395 168.716 260.777 158.846L386.602 80.2815C393.023 89.6469 397.211 100.36 398.844 111.597Z" fill="#E6E6E6"/>
</svg>
