<svg width="565" height="451" viewBox="0 0 565 451" fill="none" xmlns="http://www.w3.org/2000/svg">
<path d="M523.71 194.544H482.05V244.907H471.328V216.392H418.344V261.538H411.332V155.585H365.287V184.675H341.686V220.852H334.542V198.093H292.678V266.011H280.438V210.792H242.151V168.871H216.117V144.997H186.011V250.902H175.891V206.703H126.28V269.968H119.425V218.334H69.1156V171.809H40.9248V388.488H523.71V194.544Z" fill="#EBEBEB"/>
<path d="M511.554 210.504H518.602V200.875H511.554V210.504Z" fill="white"/>
<path d="M499.338 210.504H506.385V200.875H499.338V210.504Z" fill="white"/>
<path d="M487.11 210.504H494.157V200.875H487.11V210.504Z" fill="white"/>
<path d="M511.554 224.99H518.602V215.361H511.554V224.99Z" fill="white"/>
<path d="M499.338 224.99H506.385V215.361H499.338V224.99Z" fill="white"/>
<path d="M487.11 224.99H494.157V215.361H487.11V224.99Z" fill="white"/>
<path d="M511.554 239.475H518.602V229.846H511.554V239.475Z" fill="white"/>
<path d="M499.338 239.475H506.385V229.846H499.338V239.475Z" fill="white"/>
<path d="M487.11 239.475H494.157V229.846H487.11V239.475Z" fill="white"/>
<path d="M511.554 253.972H518.602V244.343H511.554V253.972Z" fill="white"/>
<path d="M499.338 253.972H506.385V244.343H499.338V253.972Z" fill="white"/>
<path d="M487.11 253.972H494.157V244.343H487.11V253.972Z" fill="white"/>
<path d="M267.511 225.721H274.559V217.687H267.511V225.721Z" fill="white"/>
<path d="M255.295 225.721H262.343V217.687H255.295V225.721Z" fill="white"/>
<path d="M243.067 225.721H250.115V217.687H243.067V225.721Z" fill="white"/>
<path d="M267.511 237.796H274.559V229.762H267.511V237.796Z" fill="white"/>
<path d="M255.295 237.796H262.343V229.762H255.295V237.796Z" fill="white"/>
<path d="M243.067 237.796H250.115V229.762H243.067V237.796Z" fill="white"/>
<path d="M267.511 249.883H274.559V241.849H267.511V249.883Z" fill="white"/>
<path d="M255.295 249.883H262.343V241.849H255.295V249.883Z" fill="white"/>
<path d="M243.067 249.883H250.115V241.849H243.067V249.883Z" fill="white"/>
<path d="M267.511 261.97H274.559V253.936H267.511V261.97Z" fill="white"/>
<path d="M255.295 261.97H262.343V253.936H255.295V261.97Z" fill="white"/>
<path d="M243.067 261.97H250.115V253.936H243.067V261.97Z" fill="white"/>
<path d="M267.511 274.357H274.559V266.323H267.511V274.357Z" fill="white"/>
<path d="M255.295 274.357H262.343V266.323H255.295V274.357Z" fill="white"/>
<path d="M243.067 274.357H250.115V266.323H243.067V274.357Z" fill="white"/>
<path d="M267.511 286.744H274.559V278.71H267.511V286.744Z" fill="white"/>
<path d="M255.295 286.744H262.343V278.71H255.295V286.744Z" fill="white"/>
<path d="M243.067 286.744H250.115V278.71H243.067V286.744Z" fill="white"/>
<path d="M267.511 299.119H274.559V291.085H267.511V299.119Z" fill="white"/>
<path d="M255.295 299.119H262.343V291.085H255.295V299.119Z" fill="white"/>
<path d="M243.067 299.119H250.115V291.085H243.067V299.119Z" fill="white"/>
<path d="M267.511 311.505H274.559V303.471H267.511V311.505Z" fill="white"/>
<path d="M255.295 311.505H262.343V303.471H255.295V311.505Z" fill="white"/>
<path d="M243.067 311.505H250.115V303.471H243.067V311.505Z" fill="white"/>
<path d="M424.729 228.587H465.304V222.567H424.729V228.587Z" fill="white"/>
<path d="M424.729 240.278H465.304V234.259H424.729V240.278Z" fill="white"/>
<path d="M424.729 251.958H465.304V245.938H424.729V251.958Z" fill="white"/>
<path d="M424.729 263.637H465.304V257.617H424.729V263.637Z" fill="white"/>
<path d="M424.729 275.328H465.304V269.309H424.729V275.328Z" fill="white"/>
<path d="M424.729 287.008H465.304V280.988H424.729V287.008Z" fill="white"/>
<path d="M424.729 298.699H465.304V292.679H424.729V298.699Z" fill="white"/>
<path d="M424.729 310.366H465.304V304.347H424.729V310.366Z" fill="white"/>
<path d="M132.569 218.334H169.879V212.315H132.569V218.334Z" fill="white"/>
<path d="M132.569 230.026H169.879V224.006H132.569V230.026Z" fill="white"/>
<path d="M132.569 241.717H169.879V235.698H132.569V241.717Z" fill="white"/>
<path d="M132.569 253.396H169.879V247.377H132.569V253.396Z" fill="white"/>
<path d="M132.569 265.076H169.879V259.056H132.569V265.076Z" fill="white"/>
<path d="M132.569 276.767H169.879V270.748H132.569V276.767Z" fill="white"/>
<path d="M132.569 288.447H169.879V282.427H132.569V288.447Z" fill="white"/>
<path d="M132.569 300.138H169.879V294.118H132.569V300.138Z" fill="white"/>
<path d="M132.569 311.229H169.879V305.21H132.569V311.229Z" fill="white"/>
<path d="M132.569 322.333H169.879V316.314H132.569V322.333Z" fill="white"/>
<path d="M132.569 333.437H169.879V327.417H132.569V333.437Z" fill="white"/>
<path d="M132.569 344.529H169.879V338.509H132.569V344.529Z" fill="white"/>
<path d="M132.569 355.633H169.879V349.613H132.569V355.633Z" fill="white"/>
<path d="M72.2599 232.448H111.667V226.428H72.2599V232.448Z" fill="white"/>
<path d="M72.2599 244.139H111.667V238.12H72.2599V244.139Z" fill="white"/>
<path d="M72.2599 255.831H111.667V249.811H72.2599V255.831Z" fill="white"/>
<path d="M72.2599 267.51H111.667V261.49H72.2599V267.51Z" fill="white"/>
<path d="M72.2599 279.189H111.667V273.17H72.2599V279.189Z" fill="white"/>
<path d="M72.2599 290.881H111.667V284.861H72.2599V290.881Z" fill="white"/>
<path d="M72.2599 302.56H111.667V296.541H72.2599V302.56Z" fill="white"/>
<path d="M72.2599 314.251H111.667V308.232H72.2599V314.251Z" fill="white"/>
<path d="M72.2599 324.708H111.667V318.688H72.2599V324.708Z" fill="white"/>
<path d="M72.2599 335.164H111.667V329.144H72.2599V335.164Z" fill="white"/>
<path d="M72.2599 345.62H111.667V339.601H72.2599V345.62Z" fill="white"/>
<path d="M309.761 209.365H322.29V203.549H309.761V209.365Z" fill="white"/>
<path d="M309.761 220.649H322.29V214.833H309.761V220.649Z" fill="white"/>
<path d="M309.761 231.932H322.29V226.117H309.761V231.932Z" fill="white"/>
<path d="M309.761 243.216H322.29V237.4H309.761V243.216Z" fill="white"/>
<path d="M309.761 254.5H322.29V248.684H309.761V254.5Z" fill="white"/>
<path d="M309.761 265.783H322.29V259.968H309.761V265.783Z" fill="white"/>
<path d="M309.761 277.067H322.29V271.251H309.761V277.067Z" fill="white"/>
<path d="M309.761 288.351H322.29V282.535H309.761V288.351Z" fill="white"/>
<path d="M292.714 209.365H305.243V203.549H292.714V209.365Z" fill="white"/>
<path d="M292.714 220.649H305.243V214.833H292.714V220.649Z" fill="white"/>
<path d="M292.714 231.932H305.243V226.117H292.714V231.932Z" fill="white"/>
<path d="M292.714 243.216H305.243V237.4H292.714V243.216Z" fill="white"/>
<path d="M292.714 254.5H305.243V248.684H292.714V254.5Z" fill="white"/>
<path d="M292.714 265.783H305.243V259.968H292.714V265.783Z" fill="white"/>
<path d="M292.714 277.067H305.243V271.251H292.714V277.067Z" fill="white"/>
<path d="M292.714 288.351H305.243V282.535H292.714V288.351Z" fill="white"/>
<path d="M391.285 170.862H404.344V161.688H391.285V170.862Z" fill="white"/>
<path d="M371.829 170.862H384.888V161.688H371.829V170.862Z" fill="white"/>
<path d="M391.285 184.328H404.344V175.154H391.285V184.328Z" fill="white"/>
<path d="M371.829 184.328H384.888V175.154H371.829V184.328Z" fill="white"/>
<path d="M391.285 197.806H404.344V188.632H391.285V197.806Z" fill="white"/>
<path d="M371.829 197.806H384.888V188.632H371.829V197.806Z" fill="white"/>
<path d="M391.285 211.271H404.344V202.098H391.285V211.271Z" fill="white"/>
<path d="M371.829 211.271H384.888V202.098H371.829V211.271Z" fill="white"/>
<path d="M391.285 224.75H404.344V215.576H391.285V224.75Z" fill="white"/>
<path d="M371.829 224.75H384.888V215.576H371.829V224.75Z" fill="white"/>
<path d="M391.285 238.228H404.344V229.054H391.285V238.228Z" fill="white"/>
<path d="M371.829 238.228H384.888V229.054H371.829V238.228Z" fill="white"/>
<path d="M391.285 251.694H404.344V242.52H391.285V251.694Z" fill="white"/>
<path d="M371.829 251.694H384.888V242.52H371.829V251.694Z" fill="white"/>
<path d="M391.285 265.172H404.344V255.998H391.285V265.172Z" fill="white"/>
<path d="M371.829 265.172H384.888V255.998H371.829V265.172Z" fill="white"/>
<path d="M347.698 197.806H360.757V188.632H347.698V197.806Z" fill="white"/>
<path d="M347.698 211.271H360.757V202.098H347.698V211.271Z" fill="white"/>
<path d="M347.698 224.75H360.757V215.576H347.698V224.75Z" fill="white"/>
<path d="M347.698 238.228H360.757V229.054H347.698V238.228Z" fill="white"/>
<path d="M347.698 251.694H360.757V242.52H347.698V251.694Z" fill="white"/>
<path d="M347.698 265.172H360.757V255.998H347.698V265.172Z" fill="white"/>
<path d="M391.285 278.482H404.344V269.309H391.285V278.482Z" fill="white"/>
<path d="M371.829 278.482H384.888V269.309H371.829V278.482Z" fill="white"/>
<path d="M347.698 278.482H360.757V269.309H347.698V278.482Z" fill="white"/>
<path d="M391.285 291.78H404.344V282.607H391.285V291.78Z" fill="white"/>
<path d="M371.829 291.78H384.888V282.607H371.829V291.78Z" fill="white"/>
<path d="M347.698 291.78H360.757V282.607H347.698V291.78Z" fill="white"/>
<path d="M391.285 305.09H404.344V295.917H391.285V305.09Z" fill="white"/>
<path d="M371.829 305.09H384.888V295.917H371.829V305.09Z" fill="white"/>
<path d="M347.698 305.09H360.757V295.917H347.698V305.09Z" fill="white"/>
<path d="M391.285 318.4H404.344V309.227H391.285V318.4Z" fill="white"/>
<path d="M371.829 318.4H384.888V309.227H371.829V318.4Z" fill="white"/>
<path d="M347.698 318.4H360.757V309.227H347.698V318.4Z" fill="white"/>
<path d="M391.285 331.71H404.344V322.537H391.285V331.71Z" fill="white"/>
<path d="M371.829 331.71H384.888V322.537H371.829V331.71Z" fill="white"/>
<path d="M347.698 331.71H360.757V322.537H347.698V331.71Z" fill="white"/>
<path d="M229.791 182.805H236.838V174.771H229.791V182.805Z" fill="white"/>
<path d="M217.575 182.805H224.622V174.771H217.575V182.805Z" fill="white"/>
<path d="M229.791 194.892H236.838V186.858H229.791V194.892Z" fill="white"/>
<path d="M217.575 194.892H224.622V186.858H217.575V194.892Z" fill="white"/>
<path d="M229.791 206.979H236.838V198.945H229.791V206.979Z" fill="white"/>
<path d="M217.575 206.979H224.622V198.945H217.575V206.979Z" fill="white"/>
<path d="M229.791 219.078H236.838V211.044H229.791V219.078Z" fill="white"/>
<path d="M217.575 219.078H224.622V211.044H217.575V219.078Z" fill="white"/>
<path d="M229.791 231.465H236.838V223.431H229.791V231.465Z" fill="white"/>
<path d="M217.575 231.465H224.622V223.431H217.575V231.465Z" fill="white"/>
<path d="M229.791 243.839H236.838V235.805H229.791V243.839Z" fill="white"/>
<path d="M217.575 243.839H224.622V235.805H217.575V243.839Z" fill="white"/>
<path d="M229.791 256.226H236.838V248.192H229.791V256.226Z" fill="white"/>
<path d="M217.575 256.226H224.622V248.192H217.575V256.226Z" fill="white"/>
<path d="M229.791 268.613H236.838V260.579H229.791V268.613Z" fill="white"/>
<path d="M217.575 268.613H224.622V260.579H217.575V268.613Z" fill="white"/>
<path d="M229.791 281.132H236.838V273.098H229.791V281.132Z" fill="white"/>
<path d="M217.575 281.132H224.622V273.098H217.575V281.132Z" fill="white"/>
<path d="M229.791 293.639H236.838V285.605H229.791V293.639Z" fill="white"/>
<path d="M217.575 293.639H224.622V285.605H217.575V293.639Z" fill="white"/>
<path d="M229.791 306.157H236.838V298.123H229.791V306.157Z" fill="white"/>
<path d="M217.575 306.157H224.622V298.123H217.575V306.157Z" fill="white"/>
<path d="M229.791 318.688H236.838V310.654H229.791V318.688Z" fill="white"/>
<path d="M217.575 318.688H224.622V310.654H217.575V318.688Z" fill="white"/>
<path d="M57.6464 185.539H64.6941V176.078H57.6464V185.539Z" fill="white"/>
<path d="M45.4425 185.539H52.4902V176.078H45.4425V185.539Z" fill="white"/>
<path d="M57.6464 199.784H64.6941V190.323H57.6464V199.784Z" fill="white"/>
<path d="M45.4425 199.784H52.4902V190.323H45.4425V199.784Z" fill="white"/>
<path d="M57.6464 214.018H64.6941V204.557H57.6464V214.018Z" fill="white"/>
<path d="M45.4425 214.018H52.4902V204.557H45.4425V214.018Z" fill="white"/>
<path d="M57.6464 228.263H64.6941V218.802H57.6464V228.263Z" fill="white"/>
<path d="M45.4425 228.263H52.4902V218.802H45.4425V228.263Z" fill="white"/>
<path d="M57.6464 242.856H64.6941V233.395H57.6464V242.856Z" fill="white"/>
<path d="M45.4425 242.856H52.4902V233.395H45.4425V242.856Z" fill="white"/>
<path d="M57.6464 257.449H64.6941V247.988H57.6464V257.449Z" fill="white"/>
<path d="M45.4425 257.449H52.4902V247.988H45.4425V257.449Z" fill="white"/>
<path d="M57.6464 272.031H64.6941V262.57H57.6464V272.031Z" fill="white"/>
<path d="M45.4425 272.031H52.4902V262.57H45.4425V272.031Z" fill="white"/>
<path d="M57.6464 286.636H64.6941V277.175H57.6464V286.636Z" fill="white"/>
<path d="M45.4425 286.636H52.4902V277.175H45.4425V286.636Z" fill="white"/>
<path d="M57.6464 301.385H64.6941V291.924H57.6464V301.385Z" fill="white"/>
<path d="M45.4425 301.385H52.4902V291.924H45.4425V301.385Z" fill="white"/>
<path d="M57.6464 316.122H64.6941V306.661H57.6464V316.122Z" fill="white"/>
<path d="M45.4425 316.122H52.4902V306.661H45.4425V316.122Z" fill="white"/>
<path d="M57.6464 330.871H64.6941V321.41H57.6464V330.871Z" fill="white"/>
<path d="M45.4425 330.871H52.4902V321.41H45.4425V330.871Z" fill="white"/>
<path d="M57.6464 345.62H64.6941V336.159H57.6464V345.62Z" fill="white"/>
<path d="M45.4425 345.62H52.4902V336.159H45.4425V345.62Z" fill="white"/>
<path d="M203.648 182.805H210.696V174.771H203.648V182.805Z" fill="white"/>
<path d="M191.432 182.805H198.48V174.771H191.432V182.805Z" fill="white"/>
<path d="M203.648 170.418H210.696V162.384H203.648V170.418Z" fill="white"/>
<path d="M191.432 170.418H198.48V162.384H191.432V170.418Z" fill="white"/>
<path d="M203.648 158.031H210.696V149.997H203.648V158.031Z" fill="white"/>
<path d="M191.432 158.031H198.48V149.997H191.432V158.031Z" fill="white"/>
<path d="M203.648 194.892H210.696V186.858H203.648V194.892Z" fill="white"/>
<path d="M191.432 194.892H198.48V186.858H191.432V194.892Z" fill="white"/>
<path d="M203.648 206.979H210.696V198.945H203.648V206.979Z" fill="white"/>
<path d="M191.432 206.979H198.48V198.945H191.432V206.979Z" fill="white"/>
<path d="M203.648 219.078H210.696V211.044H203.648V219.078Z" fill="white"/>
<path d="M191.432 219.078H198.48V211.044H191.432V219.078Z" fill="white"/>
<path d="M203.648 231.465H210.696V223.431H203.648V231.465Z" fill="white"/>
<path d="M191.432 231.465H198.48V223.431H191.432V231.465Z" fill="white"/>
<path d="M203.648 243.839H210.696V235.805H203.648V243.839Z" fill="white"/>
<path d="M191.432 243.839H198.48V235.805H191.432V243.839Z" fill="white"/>
<path d="M203.648 256.226H210.696V248.192H203.648V256.226Z" fill="white"/>
<path d="M191.432 256.226H198.48V248.192H191.432V256.226Z" fill="white"/>
<path d="M203.648 268.613H210.696V260.579H203.648V268.613Z" fill="white"/>
<path d="M191.432 268.613H198.48V260.579H191.432V268.613Z" fill="white"/>
<path d="M203.648 281.132H210.696V273.098H203.648V281.132Z" fill="white"/>
<path d="M191.432 281.132H198.48V273.098H191.432V281.132Z" fill="white"/>
<path d="M203.648 293.639H210.696V285.605H203.648V293.639Z" fill="white"/>
<path d="M191.432 293.639H198.48V285.605H191.432V293.639Z" fill="white"/>
<path d="M203.648 306.157H210.696V298.123H203.648V306.157Z" fill="white"/>
<path d="M191.432 306.157H198.48V298.123H191.432V306.157Z" fill="white"/>
<path d="M203.648 318.688H210.696V310.654H203.648V318.688Z" fill="white"/>
<path d="M191.432 318.688H198.48V310.654H191.432V318.688Z" fill="white"/>
<path d="M518.577 127.73H388.864C388.864 127.73 401.73 92.7634 421.524 92.7634C441.318 92.7634 447.51 116.902 447.51 116.902C447.51 116.902 460.871 103.783 471.846 103.783C482.821 103.783 492.326 121.11 492.326 121.11C492.326 121.11 507.855 111.793 518.577 127.73Z" fill="#EBEBEB"/>
<path d="M445.98 58.5766H385.358C385.358 58.5766 398.899 39.0431 409.573 39.0431C420.247 39.0431 423.403 52.0654 423.403 52.0654C423.403 52.0654 430.933 45.9859 437.86 47.0771C444.787 48.1683 445.98 58.5766 445.98 58.5766Z" fill="#EBEBEB"/>
<path d="M164.133 117.321H46.0691C46.0691 117.321 62.2366 81.3478 79.5366 79.1414C96.8365 76.9351 105.101 105.834 105.101 105.834C105.101 105.834 116.257 95.6052 125.027 95.6052C133.798 95.6052 140.58 109.083 140.58 109.083C140.58 109.083 158.109 99.8501 164.133 117.321Z" fill="#EBEBEB"/>
<path d="M276.354 28.383H196.588C196.588 28.383 210.286 2.35026 225.153 2.00252C240.019 1.65478 247.826 21.7039 247.826 21.7039C247.826 21.7039 270.945 3.20163 276.354 28.383Z" fill="#EBEBEB"/>
<path d="M330.82 450.806C439.299 450.806 527.24 445.014 527.24 437.868C527.24 430.722 439.299 424.929 330.82 424.929C222.34 424.929 134.4 430.722 134.4 437.868C134.4 445.014 222.34 450.806 330.82 450.806Z" fill="#EBEBEB"/>
<path d="M564.634 388.488L494.049 388.776L423.476 388.884L282.317 389.076L141.159 388.884L70.5853 388.776L0 388.488L70.5853 388.189L141.159 388.081L282.317 387.889L423.476 388.081L494.049 388.189L564.634 388.488Z" fill="#263238"/>
<path d="M273.511 203.022C293.895 224.126 355.131 318.053 359.902 320.859C359.902 320.859 359.902 382.289 325.796 370.022C291.69 357.755 260.427 247.545 253.753 212.411C250.235 193.861 256.861 185.803 273.511 203.022Z" fill="#D3766A"/>
<path d="M268.318 275.64L330.82 268.565C330.82 268.565 292.051 217.375 272.017 199.101C251.127 180.059 240.886 182.733 250.572 218.802C260.307 255.087 268.318 275.64 268.318 275.64Z" fill="#407BFF"/>
<path d="M265.379 241.753C264.692 243.469 264.254 245.274 264.078 247.113C266.258 244.114 267.616 240.601 268.017 236.921C266.902 238.393 266.013 240.021 265.379 241.753ZM300.485 243.156C298.765 242.471 296.956 242.035 295.112 241.861C298.119 244.034 301.645 245.386 305.34 245.782C303.863 244.67 302.226 243.785 300.485 243.156ZM291.172 267.354C290.437 265.663 289.463 264.084 288.281 262.666C288.557 264.487 289.093 266.259 289.871 267.93C290.583 269.632 291.55 271.216 292.738 272.63C292.468 270.807 291.941 269.031 291.172 267.354ZM254.5 189.412C254.187 188.752 253.874 188.105 253.512 187.457C253.084 187.416 252.652 187.416 252.223 187.457C252.512 188.333 252.838 189.172 253.199 190.011C253.923 191.71 254.893 193.294 256.078 194.712C255.807 192.88 255.276 191.095 254.5 189.412ZM326.531 262.965L325.326 263.445C323.621 264.175 322.028 265.14 320.592 266.311C322.428 266.04 324.217 265.511 325.905 264.74C326.387 264.524 326.856 264.296 327.326 264.045L326.531 262.965ZM278.342 213.55C276.641 214.276 275.051 215.237 273.619 216.404C275.456 216.142 277.246 215.617 278.932 214.845C280.635 214.117 282.225 213.153 283.655 211.979C281.809 212.243 280.011 212.772 278.318 213.55H278.342ZM274.149 213.658C274.078 213.706 274.01 213.758 273.944 213.814H274.161C274.161 213.814 274.125 213.694 274.125 213.658H274.149Z" fill="white"/>
<path d="M271.318 264.452C272.776 264.116 274.306 263.985 275.788 263.781L280.39 263.145C283.486 262.714 286.594 262.33 289.702 261.946C295.919 261.227 302.135 260.471 308.364 259.86C310.074 259.692 311.797 259.524 313.508 259.392C315.218 259.26 317.122 259.26 318.929 259.128C319.037 259.128 319.037 259.284 318.929 259.296C317.399 259.524 315.881 259.872 314.351 260.111C312.821 260.351 311.195 260.567 309.616 260.759C306.52 261.155 303.4 261.514 300.292 261.862C294.172 262.522 288.04 263.217 281.896 263.757L276.763 264.188C274.968 264.344 273.149 264.608 271.342 264.596C271.328 264.591 271.316 264.582 271.306 264.571C271.297 264.559 271.29 264.546 271.288 264.531C271.286 264.517 271.287 264.502 271.292 264.488C271.298 264.474 271.306 264.462 271.318 264.452Z" fill="#263238"/>
<path opacity="0.1" d="M298.641 272.211L268.33 275.64C268.33 275.64 260.319 255.087 250.572 218.802C246.464 203.501 245.946 194.208 248.308 190.023L298.641 272.211Z" fill="black"/>
<path d="M285.654 403.585H190.589C189.806 400.54 189.047 397.59 188.288 394.592C187.42 391.199 186.565 387.889 185.746 384.663C185.565 383.944 185.372 383.225 185.192 382.517C184.565 380.047 183.951 377.649 183.348 375.322C182.987 373.895 182.625 372.492 182.276 371.101C181.927 369.711 181.553 368.296 181.204 366.941C181.108 366.581 181.023 366.221 180.927 365.873L180.638 364.674L180.276 363.271C180.144 362.78 180.023 362.3 179.903 361.82C179.662 360.909 179.433 360.01 179.216 359.134C178.879 357.839 178.553 356.568 178.24 355.333C178.108 354.794 177.963 354.254 177.831 353.726C177.602 352.863 177.385 352.024 177.18 351.196C177.035 350.645 176.903 350.105 176.77 349.577C176.208 347.403 175.686 345.365 175.204 343.462C175.072 342.958 174.951 342.467 174.819 341.987C174.614 341.16 174.409 340.368 174.216 339.589C174.08 339.109 173.959 338.642 173.855 338.186C173.433 336.555 173.048 335.068 172.723 333.761C172.626 333.413 172.542 333.078 172.458 332.754C172.241 331.891 172.036 331.123 171.867 330.44C171.795 330.164 171.735 329.9 171.662 329.66L171.47 328.905C171.47 328.737 171.385 328.569 171.349 328.425L171.181 327.778C171.181 327.674 171.156 327.578 171.108 327.49L170.891 326.638H263.427C263.427 326.638 266.475 337.095 271.354 353.954C272.342 357.384 273.414 361.149 274.559 365.022C277.799 376.27 281.582 389.388 285.654 403.585Z" fill="#37474F"/>
<path d="M206.154 403.585H203.744C200.227 389.092 196.817 374.571 193.516 360.021C192.713 356.48 191.91 352.939 191.107 349.397L190.89 348.402C190.886 348.368 190.894 348.333 190.914 348.304C190.934 348.275 190.963 348.255 190.997 348.246C191.031 348.237 191.067 348.241 191.098 348.256C191.129 348.272 191.154 348.298 191.167 348.33C191.167 348.438 191.227 348.546 191.263 348.654C192.332 352.459 193.396 356.268 194.456 360.081C198.528 374.543 202.427 389.044 206.154 403.585Z" fill="#263238"/>
<path d="M260.427 326.65L256.343 347.035L252.994 363.727L247.296 392.17L246.705 395.084L245.729 399.94L244.97 403.585H190.577C189.806 400.528 189.035 397.59 188.288 394.592C187.42 391.199 186.565 387.889 185.746 384.663C185.565 383.944 185.372 383.225 185.192 382.517C184.565 380.047 183.951 377.649 183.348 375.322C182.987 373.895 182.625 372.492 182.276 371.101C181.927 369.711 181.553 368.296 181.204 366.941C181.108 366.581 181.023 366.221 180.927 365.873L180.638 364.674L180.276 363.271C180.144 362.78 180.023 362.3 179.903 361.82C179.662 360.909 179.433 360.01 179.216 359.134C178.879 357.839 178.553 356.568 178.24 355.333C178.096 354.782 177.963 354.254 177.831 353.726C177.602 352.863 177.385 352.024 177.18 351.196C177.035 350.645 176.903 350.105 176.77 349.577C176.208 347.403 175.686 345.365 175.204 343.462C175.072 342.958 174.951 342.467 174.819 341.987C174.614 341.16 174.409 340.368 174.216 339.589C174.08 339.109 173.959 338.642 173.855 338.186C173.433 336.555 173.048 335.068 172.723 333.761C172.626 333.413 172.542 333.078 172.458 332.754C172.241 331.891 172.036 331.123 171.867 330.44C171.795 330.164 171.735 329.9 171.662 329.66L171.47 328.905C171.47 328.737 171.385 328.569 171.349 328.425L171.181 327.778C171.181 327.674 171.156 327.578 171.108 327.49L170.891 326.638L260.427 326.65Z" fill="#263238"/>
<path d="M260.439 326.614C260.439 327.118 260.054 332.61 259.162 341.004C258.909 343.402 258.608 346.136 258.259 349.014C257.717 353.558 257.054 358.607 256.211 363.871C254.789 373.116 252.934 383.2 250.524 393.057C249.669 396.654 248.729 400.12 247.729 403.561H128.28C129.69 385.443 130.979 369.051 132.003 356.136C133.436 337.958 134.412 326.578 134.412 326.578H242.766L260.439 326.614Z" fill="#37474F"/>
<path d="M260.186 337.538C260.054 341.795 259.873 346.04 259.596 350.273C259.307 354.865 258.885 359.446 258.283 364.027C258.283 364.195 258.283 364.362 258.223 364.53C257.66 368.823 257.014 373.104 256.283 377.373C255.596 381.354 255.078 385.647 253.319 389.364C252.651 390.789 251.7 392.066 250.524 393.117C249.448 394.097 248.131 394.776 246.705 395.084C246.472 395.142 246.234 395.182 245.995 395.204H245.79C245.834 395.229 245.87 395.266 245.893 395.31C245.917 395.355 245.927 395.405 245.922 395.455C245.922 396.882 245.922 398.333 245.754 399.748C245.754 399.808 245.754 399.868 245.754 399.928C245.609 401.127 245.38 402.386 245.151 403.609H243.103V403.537C243.465 402.194 243.766 400.839 244.103 399.484C244.44 398.129 244.922 396.75 245.248 395.347C245.266 395.295 245.299 395.249 245.344 395.216C244.044 395.278 242.756 394.942 241.653 394.254C240.551 393.566 239.686 392.558 239.176 391.366C238.662 389.543 238.629 387.618 239.079 385.779C239.453 383.38 239.814 380.91 240.188 378.476C240.887 374.003 241.79 369.579 242.597 365.13L242.959 363.103C244.561 354.05 246.236 344.997 248.247 336.027C248.32 335.656 248.404 335.284 248.488 334.912C248.573 334.54 248.946 334.732 248.922 334.972C248.862 335.572 248.802 336.171 248.729 336.783C248.376 340.228 247.974 343.658 247.525 347.071C246.946 351.088 246.549 355.129 245.983 359.146C245.79 360.513 245.597 361.88 245.392 363.247C244.465 369.854 243.501 376.437 242.368 383.045C241.838 386.102 239.959 391.582 244.344 392.53C245.357 392.753 246.417 392.622 247.344 392.158C249.296 390.987 250.756 389.15 251.452 386.99C252.537 383.391 253.322 379.709 253.801 375.982C254.524 371.985 255.167 367.952 255.729 363.883C256.452 358.838 257.207 353.798 257.994 348.762C258.387 346.196 258.789 343.63 259.198 341.064L259.777 337.466C259.789 337.214 260.186 337.286 260.186 337.538Z" fill="#263238"/>
<path d="M154.483 369.147C159.457 369.095 164.406 368.431 169.217 367.168C171.434 366.605 173.626 365.897 175.807 365.19C177.967 364.596 179.989 363.586 181.758 362.216C185.107 359.338 186.661 354.817 188.119 350.788C189.702 346.252 190.985 341.617 191.962 336.915C191.962 336.687 192.348 336.771 192.36 336.987C192.475 342.305 191.797 347.611 190.348 352.731C189.143 357.084 187.529 361.928 183.999 364.974C180.469 368.02 175.253 369.315 170.494 369.89C165.158 370.508 159.764 370.436 154.447 369.674C154.377 369.67 154.311 369.637 154.265 369.584C154.218 369.532 154.195 369.463 154.2 369.393C154.205 369.323 154.237 369.258 154.29 369.211C154.343 369.165 154.413 369.142 154.483 369.147Z" fill="#263238"/>
<path d="M146.182 337.059C145.917 343.71 145.636 350.369 145.339 357.036C144.656 372.552 143.905 388.069 143.086 403.585H140.845C141.873 388.037 142.954 372.496 144.086 356.964C144.576 350.321 145.082 343.682 145.604 337.047C145.606 336.97 145.638 336.898 145.693 336.845C145.748 336.792 145.823 336.763 145.899 336.765C145.976 336.766 146.049 336.798 146.102 336.853C146.155 336.908 146.184 336.982 146.182 337.059Z" fill="#263238"/>
<path d="M281.004 375.862L118.955 363.631C118.955 363.631 151.555 235.026 215.924 187.745C232.381 175.67 250.392 183.416 258.5 192.446C279.101 215.445 281.486 375.346 281.004 375.862Z" fill="#407BFF"/>
<path d="M223.418 193.597C222.738 195.311 222.3 197.111 222.117 198.945C223.226 197.48 224.118 195.865 224.767 194.148C225.447 192.434 225.885 190.634 226.068 188.8C224.963 190.268 224.071 191.882 223.418 193.597ZM205.829 262.977C205.136 264.691 204.701 266.497 204.54 268.337C206.71 265.334 208.063 261.823 208.467 258.145C207.361 259.623 206.472 261.25 205.829 262.977ZM147.929 292.727C147.244 294.444 146.806 296.249 146.628 298.087C148.808 295.088 150.166 291.575 150.567 287.895C149.471 289.378 148.583 291.004 147.929 292.727ZM194.661 336.555C193.961 338.263 193.523 340.066 193.36 341.903C195.53 338.899 196.883 335.388 197.287 331.711C196.182 333.191 195.298 334.823 194.661 336.555ZM265.379 241.729C264.692 243.445 264.254 245.25 264.077 247.089C266.258 244.09 267.616 240.577 268.017 236.897C266.9 238.376 266.011 240.013 265.379 241.753V241.729ZM236.537 328.965C235.837 330.673 235.394 332.475 235.224 334.313C236.332 332.849 237.22 331.233 237.862 329.516C238.548 327.804 238.986 326.003 239.164 324.168C238.06 325.632 237.175 327.248 236.537 328.965ZM178.144 238.468C177.457 240.18 177.019 241.98 176.843 243.816C179.026 240.819 180.381 237.304 180.77 233.623C179.661 235.101 178.776 236.733 178.144 238.468ZM242.886 215.445C241.168 214.754 239.358 214.318 237.513 214.15C238.986 215.245 240.609 216.125 242.332 216.764C244.053 217.457 245.868 217.893 247.717 218.059C246.242 216.96 244.615 216.079 242.886 215.445ZM261.246 273.254C259.528 272.566 257.718 272.13 255.873 271.959C257.343 273.059 258.966 273.94 260.692 274.573C262.41 275.265 264.22 275.705 266.065 275.88C264.593 274.792 262.97 273.924 261.246 273.302V273.254ZM266.174 342.347C264.454 341.663 262.644 341.227 260.801 341.052C262.27 342.156 263.893 343.041 265.62 343.678C267.34 344.359 269.149 344.795 270.993 344.973C269.515 343.894 267.893 343.026 266.174 342.395V342.347ZM150.82 336.663C149.101 335.978 147.291 335.542 145.447 335.368C148.455 337.541 151.981 338.892 155.676 339.289C154.189 338.203 152.554 337.335 150.82 336.711V336.663ZM192.516 292.296C190.797 291.608 188.988 291.168 187.143 290.989C188.615 292.092 190.238 292.98 191.962 293.627C193.684 294.303 195.493 294.739 197.335 294.922C195.861 293.835 194.238 292.962 192.516 292.332V292.296ZM254.5 189.376C254.331 189.016 254.162 188.668 253.982 188.321C253.391 187.877 252.777 187.445 252.114 187.026C252.413 188.031 252.775 189.016 253.199 189.975C253.922 191.674 254.892 193.258 256.078 194.676C255.803 192.856 255.272 191.084 254.5 189.412V189.376ZM207.142 226.668C206.415 224.971 205.445 223.388 204.262 221.968C204.842 225.625 206.379 229.067 208.72 231.944C208.455 230.119 207.923 228.341 207.142 226.668ZM248.958 368.559C248.231 366.865 247.266 365.282 246.091 363.859C246.357 365.683 246.885 367.459 247.657 369.135C248.344 370.712 249.23 372.195 250.295 373.548H250.488C250.21 371.823 249.695 370.144 248.958 368.559ZM233.574 284.993C232.841 283.299 231.871 281.717 230.694 280.293C231.293 283.942 232.824 287.378 235.14 290.269C234.873 288.445 234.346 286.668 233.574 284.993ZM123.196 348.714C123.124 348.966 123.051 349.218 122.967 349.457C123.124 349.625 123.268 349.805 123.413 349.973C123.365 349.561 123.292 349.153 123.196 348.75V348.714ZM171.385 316.722C170.654 315.031 169.684 313.452 168.506 312.033C169.088 315.686 170.626 319.123 172.963 321.998C172.676 320.184 172.133 318.42 171.349 316.758L171.385 316.722ZM181.722 362.887C180.991 361.193 180.021 359.61 178.843 358.187C179.439 361.843 180.975 365.284 183.3 368.176C183.017 366.361 182.473 364.596 181.686 362.935L181.722 362.887ZM262.764 307.345C261.063 308.075 259.473 309.04 258.042 310.21C259.875 309.941 261.66 309.412 263.343 308.64C265.051 307.916 266.646 306.951 268.077 305.774C266.225 306.048 264.423 306.589 262.728 307.381L262.764 307.345ZM134.942 314.347L134.328 316.002C135.627 315.378 136.841 314.592 137.942 313.664C136.908 313.798 135.89 314.04 134.906 314.383L134.942 314.347ZM217.563 354.302C215.859 355.023 214.269 355.984 212.84 357.156C214.676 356.889 216.465 356.364 218.153 355.597C219.855 354.862 221.444 353.893 222.876 352.719C221.022 352.991 219.219 353.536 217.527 354.338L217.563 354.302ZM143.676 364.998L142.845 365.394L145.676 365.609C146.86 365.015 147.968 364.282 148.977 363.427C147.131 363.708 145.334 364.249 143.64 365.034L143.676 364.998ZM172.06 266.395C170.363 267.133 168.774 268.097 167.337 269.261C171.009 268.67 174.466 267.146 177.373 264.836C175.521 265.106 173.72 265.644 172.024 266.431L172.06 266.395ZM213.599 312.321C211.896 313.053 210.306 314.022 208.877 315.199C212.552 314.611 216.01 313.082 218.912 310.762C217.062 311.037 215.26 311.574 213.563 312.357L213.599 312.321ZM235.284 249.188C233.585 249.923 231.996 250.887 230.562 252.053C234.233 251.474 237.689 249.949 240.585 247.629C238.726 247.901 236.917 248.438 235.212 249.224L235.284 249.188Z" fill="white"/>
<path d="M249.32 219.318C239.971 217.939 230.478 199.161 228.839 186.354C228.731 185.467 243.296 157.803 245.573 152.035C246.043 150.836 278.522 175.25 278.522 175.25C278.522 175.25 270.089 185.946 266.15 196.055C265.873 196.894 258.355 220.637 249.32 219.318Z" fill="#D3766A"/>
<path d="M278.571 175.25C278.571 175.25 270.137 185.947 266.186 196.043C266.114 196.247 265.632 197.734 264.837 199.856C248.139 191.462 241.332 176.474 238.585 166.581C241.742 160.286 244.681 154.374 245.621 152.036C246.091 150.848 278.571 175.25 278.571 175.25Z" fill="#263238"/>
<path d="M253.078 107.105C243.573 118.053 234.068 157.539 239.501 169.674C247.392 187.253 268.414 197.818 285.425 186.582C301.966 175.682 313.435 124 306.605 112.153C296.557 94.6939 267.101 90.9407 253.078 107.105Z" fill="#D3766A"/>
<path d="M278.474 139.181C277.269 139.277 276.065 139.181 274.86 139.181C273.581 139.355 272.281 139.102 271.161 138.462C270.849 138.192 270.635 137.827 270.552 137.424C270.47 137.021 270.523 136.601 270.704 136.231C271.174 135.555 271.817 135.016 272.567 134.671C273.317 134.325 274.146 134.185 274.968 134.265C276.658 134.166 278.324 134.696 279.643 135.752C279.922 136.013 280.12 136.349 280.212 136.72C280.305 137.09 280.289 137.479 280.166 137.84C280.043 138.202 279.818 138.52 279.518 138.758C279.218 138.996 278.856 139.143 278.474 139.181Z" fill="#263238"/>
<path d="M277.414 144.973C277.414 144.865 277.173 145.057 277.149 145.177C276.703 147.875 275.727 150.896 273.113 151.304C273.029 151.304 273.005 151.448 273.113 151.46C276.161 151.628 277.414 147.611 277.414 144.973Z" fill="#263238"/>
<path d="M275.559 141.687C271.282 140.488 269.21 149.11 273.149 150.201C277.089 151.292 279.137 142.683 275.559 141.687Z" fill="#263238"/>
<path d="M292.955 148.294C292.955 148.198 293.136 148.474 293.112 148.582C292.389 151.22 292.003 154.374 294.208 155.777C294.28 155.777 294.208 155.957 294.148 155.921C291.292 154.865 291.847 150.693 292.955 148.294Z" fill="#263238"/>
<path d="M296.015 146.088C300.4 146.783 298.678 155.453 294.618 154.805C290.558 154.158 292.341 145.5 296.015 146.088Z" fill="#263238"/>
<path d="M300.461 141.819C299.353 141.307 298.276 140.735 297.232 140.104C296.007 139.654 294.969 138.81 294.28 137.706C294.129 137.32 294.111 136.896 294.229 136.498C294.347 136.101 294.594 135.754 294.931 135.512C296.413 134.553 298.123 134.996 299.641 135.74C301.189 136.441 302.421 137.689 303.099 139.241C303.241 139.606 303.273 140.005 303.19 140.388C303.108 140.771 302.914 141.121 302.633 141.395C302.352 141.67 301.997 141.856 301.611 141.931C301.225 142.007 300.825 141.968 300.461 141.819Z" fill="#263238"/>
<path d="M268.451 168.056C268.933 168.835 269.366 169.842 270.318 170.154C271.322 170.37 272.361 170.37 273.366 170.154C273.386 170.152 273.407 170.157 273.424 170.167C273.442 170.178 273.455 170.193 273.464 170.212C273.472 170.231 273.473 170.251 273.469 170.271C273.464 170.291 273.454 170.309 273.438 170.322C272.931 170.753 272.316 171.04 271.659 171.152C271.001 171.264 270.326 171.197 269.704 170.958C269.19 170.689 268.77 170.273 268.495 169.765C268.22 169.256 268.104 168.678 268.161 168.104C268.161 167.948 268.378 167.936 268.451 168.056Z" fill="#263238"/>
<path d="M273.173 160.753C273.603 161.968 274.279 163.081 275.16 164.024C276.041 164.966 277.108 165.719 278.293 166.233C279.324 166.696 280.415 167.011 281.534 167.168C281.744 167.215 281.958 167.24 282.173 167.24C282.377 167.253 282.582 167.253 282.787 167.24C282.936 167.249 283.084 167.208 283.206 167.123C283.328 167.038 283.418 166.915 283.462 166.773C283.467 166.677 283.467 166.581 283.462 166.485V166.245C284.004 164.207 284.558 161.041 284.558 161.041C285.221 161.593 288.642 164.231 288.847 163.139C290.449 154.146 292.22 144.146 291.907 134.852C291.907 134.786 291.88 134.722 291.833 134.674C291.785 134.627 291.721 134.601 291.654 134.601C291.587 134.601 291.522 134.627 291.475 134.674C291.427 134.722 291.401 134.786 291.401 134.852C289.521 143.438 289.172 152.299 287.413 160.957C286.235 159.994 284.925 159.202 283.522 158.607C283.209 158.607 282.57 164.746 282.245 165.634C282.248 165.666 282.248 165.698 282.245 165.73C278.631 165.346 276.318 163.679 273.511 160.573C273.33 160.37 273.065 160.501 273.173 160.753Z" fill="#263238"/>
<path d="M280.57 165.837C279.086 167.029 277.319 167.822 275.438 168.14C274.409 168.282 273.36 168.102 272.439 167.624C270.439 166.557 270.848 164.59 271.643 163.007C272.076 162.173 272.606 161.392 273.222 160.681C275.055 163.137 277.63 164.944 280.57 165.837Z" fill="#263238"/>
<path d="M275.438 168.14C274.409 168.282 273.36 168.102 272.439 167.624C270.439 166.557 270.848 164.59 271.643 163.007C273.884 163.787 275.776 165.885 275.438 168.14Z" fill="#FF97B8"/>
<path d="M310.243 127.526C293.377 134.552 276.318 115.115 276.318 115.115C274.385 118.065 271.546 120.315 268.225 121.529C264.904 122.743 261.277 122.857 257.885 121.854C257.885 121.854 249.789 146.16 243.187 144.697C233.152 142.563 237.164 107.956 241.706 101.937C246.247 95.9171 255.163 95.941 255.163 95.941C255.163 95.941 256.861 90.8928 264.065 87.4513C272.017 83.6382 294.184 95.5933 294.184 95.5933C296.196 92.7212 298.858 90.3595 301.954 88.6984C302.702 88.2802 303.527 88.0174 304.38 87.926C305.232 87.8345 306.095 87.9162 306.915 88.1662C307.735 88.4163 308.495 88.8293 309.15 89.3804C309.805 89.9315 310.341 90.6092 310.725 91.3724C309.079 92.9482 307.815 94.8752 307.026 97.0083C304.316 104.059 310.303 105.294 311.64 98.663C312.221 96.2021 311.897 93.6153 310.725 91.3724C314.58 87.6552 319.7 87.2475 322.146 90.1733C326.639 95.5334 324.278 121.698 310.243 127.526Z" fill="#263238"/>
<path d="M268.872 158.319C266.797 157.657 264.95 156.428 263.542 154.772C262.134 153.116 261.222 151.1 260.908 148.954C260.595 146.807 260.894 144.616 261.77 142.63C262.647 140.644 264.066 138.943 265.866 137.72C267.667 136.498 269.776 135.803 271.953 135.715C274.131 135.627 276.289 136.149 278.183 137.222C280.077 138.295 281.63 139.876 282.666 141.785C283.701 143.694 284.177 145.854 284.04 148.019C283.926 149.777 283.411 151.486 282.534 153.016C281.658 154.546 280.442 155.858 278.98 156.851C277.518 157.844 275.848 158.492 274.096 158.746C272.345 159.001 270.558 158.855 268.872 158.319ZM275.522 137.754C274.741 137.502 273.932 137.345 273.113 137.286C270.545 137.105 268.005 137.906 266.01 139.525C264.014 141.144 262.715 143.46 262.377 146C262.039 148.541 262.688 151.113 264.19 153.194C265.693 155.274 267.936 156.706 270.463 157.196C272.99 157.687 275.609 157.199 277.787 155.833C279.965 154.467 281.537 152.325 282.182 149.844C282.828 147.364 282.498 144.732 281.26 142.485C280.023 140.238 277.971 138.546 275.522 137.754Z" fill="#407BFF"/>
<path d="M294.545 163.163C290.377 161.604 288.208 155.969 289.726 150.081C290.373 147.264 291.895 144.722 294.075 142.814C294.956 141.931 296.053 141.289 297.257 140.953C298.462 140.618 299.733 140.599 300.947 140.898C302.161 141.198 303.276 141.806 304.183 142.663C305.091 143.52 305.759 144.597 306.123 145.788C307.144 148.494 307.291 151.449 306.544 154.242C305.002 160.429 299.979 164.542 295.34 163.391C295.069 163.339 294.803 163.263 294.545 163.163ZM301.063 142.599L300.497 142.431C299.523 142.235 298.517 142.276 297.563 142.549C296.609 142.822 295.735 143.321 295.015 144.002C293.091 145.701 291.747 147.957 291.172 150.453C289.835 155.825 291.823 160.957 295.642 161.892C299.461 162.828 303.629 159.23 304.966 153.87C305.637 151.396 305.51 148.775 304.605 146.376C304.314 145.534 303.848 144.763 303.238 144.112C302.628 143.461 301.887 142.946 301.063 142.599Z" fill="#407BFF"/>
<path d="M283.401 149.266L282.655 147.911C284.666 146.796 289.052 145.644 291.256 149.11L289.931 149.925C287.967 146.82 283.582 149.158 283.401 149.266Z" fill="#407BFF"/>
<path d="M231.984 142.191L230.779 141.232C231.237 140.668 235.297 135.716 238.802 135.836C242.091 135.956 262.162 141.831 263.017 142.131L262.572 143.618C256.813 141.915 241.296 137.466 238.754 137.382C236.417 137.299 233.08 140.824 231.984 142.191Z" fill="#407BFF"/>
<path d="M247.488 142.443C247.488 142.443 244.248 126.998 237.549 127.658C230.851 128.317 229.718 148.187 235.08 153.259C235.72 153.956 236.495 154.517 237.359 154.908C238.223 155.3 239.157 155.513 240.106 155.535C241.055 155.558 241.998 155.389 242.88 155.039C243.761 154.689 244.563 154.165 245.235 153.499L247.488 142.443Z" fill="#D3766A"/>
<path d="M237.369 133.365C237.272 133.306 237.188 133.437 237.26 133.521C240.959 137.215 241.525 142.335 241.344 147.299C240.718 145.093 239.296 143.414 236.405 144.05C236.26 144.05 236.296 144.301 236.405 144.337C237.297 144.419 238.141 144.777 238.819 145.359C239.497 145.942 239.976 146.721 240.188 147.587C240.541 149.033 240.739 150.512 240.778 152C240.778 152.491 241.621 152.587 241.67 152C241.664 151.96 241.664 151.92 241.67 151.88C244.248 146.34 243.236 136.531 237.369 133.365Z" fill="#263238"/>
<path d="M330.085 250.842C333.133 242.856 403.802 257.318 400.983 269.561C390.635 314.407 361.793 354.482 354.505 363.643C344.939 375.634 325.904 372.972 318.965 365.705C308.906 355.165 327.073 258.757 330.085 250.842Z" fill="#D3766A"/>
<path d="M325.109 272.858C323.539 277.156 322.294 281.565 321.387 286.048C320.363 290.485 319.471 294.946 318.748 299.43C317.32 308.502 316.515 317.661 316.339 326.842C316.206 331.974 316.339 337.095 316.339 342.227C316.339 342.347 316.532 342.335 316.532 342.227C316.532 337.682 316.809 333.101 317.182 328.569C317.556 324.036 318.014 319.42 318.604 314.875C319.748 305.942 321.013 297.02 322.64 288.159C323.089 285.673 323.559 283.194 324.049 280.724C324.567 278.158 325.158 275.604 325.495 273.002C325.495 272.81 325.194 272.642 325.109 272.858Z" fill="#263238"/>
<path d="M313.038 124.444C312.573 130.551 311.655 136.615 310.291 142.587C310.062 143.606 309.809 144.649 309.556 145.68C308.544 149.781 307.339 153.906 305.942 157.875C305.621 158.834 305.283 159.782 304.93 160.717C300.653 172.217 295.003 182.109 288.642 186.306C287.027 187.384 285.312 188.308 283.522 189.064C274.403 183.771 266.788 176.255 261.393 167.224C255.997 158.193 252.999 147.944 252.681 137.442L250.753 136.915C251.054 136.447 251.368 135.967 251.669 135.464C251.97 134.96 252.343 134.325 252.669 133.725C253.151 118.287 259.417 103.586 270.234 92.5116C285.377 88.4586 303.508 94.2503 311.134 107.477C312.99 110.75 313.556 116.914 313.038 124.444Z" fill="#D3766A"/>
<path d="M281.293 136.099C280.013 136.165 278.73 136.165 277.45 136.099C275.968 136.099 274.788 136.207 273.523 135.332C273.182 135.045 272.949 134.652 272.862 134.217C272.774 133.781 272.837 133.329 273.041 132.934C273.968 131.303 275.776 130.883 277.559 130.847C279.348 130.742 281.112 131.302 282.51 132.418C282.82 132.692 283.042 133.049 283.15 133.447C283.258 133.845 283.247 134.266 283.118 134.657C282.988 135.048 282.747 135.394 282.422 135.65C282.098 135.906 281.706 136.063 281.293 136.099Z" fill="#263238"/>
<path d="M280.173 142.299C280.173 142.191 279.92 142.395 279.896 142.503C279.426 145.368 278.39 148.57 275.619 149.002C275.535 149.002 275.511 149.158 275.619 149.17C278.848 149.289 280.173 145.033 280.173 142.299Z" fill="#263238"/>
<path d="M278.209 138.761C273.679 137.502 271.487 146.616 275.679 147.779C279.872 148.942 282.004 139.817 278.209 138.761Z" fill="#263238"/>
<path d="M296.641 145.752C296.641 145.656 296.834 145.944 296.798 146.064C296.027 148.858 295.593 152.191 298.003 153.738C298.075 153.738 298.003 153.93 297.943 153.894C294.883 152.707 295.461 148.294 296.641 145.752Z" fill="#263238"/>
<path d="M299.882 143.414C304.52 144.157 302.689 153.343 298.388 152.659C294.088 151.976 295.991 142.79 299.882 143.414Z" fill="#263238"/>
<path d="M304.581 138.893C303.376 138.378 302.328 137.694 301.171 137.083C299.88 136.611 298.78 135.73 298.039 134.577C297.881 134.169 297.863 133.722 297.987 133.303C298.111 132.885 298.371 132.519 298.726 132.262C300.304 131.243 302.111 131.711 303.713 132.502C305.337 133.249 306.625 134.57 307.328 136.207C307.464 136.587 307.489 136.997 307.399 137.39C307.308 137.783 307.107 138.143 306.818 138.425C306.529 138.708 306.164 138.902 305.768 138.985C305.372 139.068 304.96 139.036 304.581 138.893Z" fill="#263238"/>
<path d="M270.68 166.689C271.198 167.504 271.655 168.571 272.667 168.907C273.727 169.141 274.825 169.141 275.884 168.907C275.905 168.906 275.926 168.912 275.944 168.923C275.962 168.934 275.977 168.95 275.986 168.969C275.995 168.988 275.998 169.01 275.995 169.031C275.992 169.052 275.983 169.071 275.968 169.087C275.43 169.545 274.778 169.849 274.08 169.968C273.382 170.086 272.665 170.014 272.005 169.758C271.464 169.472 271.02 169.031 270.73 168.493C270.441 167.955 270.318 167.344 270.378 166.737C270.366 166.569 270.595 166.569 270.68 166.689Z" fill="#263238"/>
<path d="M275.691 158.942C276.141 160.231 276.853 161.413 277.784 162.414C278.715 163.415 279.844 164.213 281.1 164.758C282.192 165.248 283.348 165.579 284.534 165.741C284.759 165.792 284.989 165.82 285.221 165.825C285.433 165.839 285.647 165.839 285.859 165.825C286.017 165.835 286.175 165.792 286.306 165.703C286.437 165.614 286.534 165.484 286.582 165.334C286.594 165.238 286.594 165.141 286.582 165.046V164.794C287.16 162.636 287.787 159.278 287.787 159.278C288.485 159.866 292.112 162.66 292.317 161.508C294.015 151.916 295.931 141.375 295.569 131.531C295.569 131.461 295.541 131.394 295.492 131.344C295.442 131.295 295.375 131.267 295.304 131.267C295.234 131.267 295.167 131.295 295.117 131.344C295.067 131.394 295.039 131.461 295.039 131.531C293.039 140.62 292.63 150.009 290.811 159.11C289.521 158.118 288.097 157.31 286.582 156.712C286.257 156.712 285.57 163.211 285.233 164.158C285.238 164.19 285.238 164.223 285.233 164.254C281.462 163.847 278.956 162.096 275.992 158.786C275.848 158.547 275.571 158.679 275.691 158.942Z" fill="#263238"/>
<path d="M283.522 164.338C281.948 165.59 280.077 166.416 278.088 166.737C277 166.892 275.891 166.699 274.92 166.185C272.788 165.058 273.233 162.971 274.077 161.305C274.531 160.419 275.089 159.59 275.739 158.834C277.676 161.45 280.403 163.378 283.522 164.338Z" fill="#263238"/>
<path d="M278.077 166.773C276.988 166.928 275.879 166.735 274.908 166.221C272.776 165.094 273.221 163.008 274.065 161.341C276.426 162.168 278.438 164.375 278.077 166.773Z" fill="#FF97B8"/>
<path d="M314.941 123.76C314.303 124.024 313.664 124.252 313.038 124.444C295.786 129.768 279.004 110.606 279.004 110.606C276.966 113.741 273.965 116.135 270.447 117.432C266.93 118.728 263.085 118.858 259.488 117.801C257.617 123.288 255.325 128.624 252.633 133.761C252.957 123.565 255.805 113.605 260.925 104.768C266.044 95.9297 273.276 88.4865 281.98 83.0986C287.475 85.0179 292.823 87.3344 297.979 90.0295C300.114 86.9878 302.937 84.4867 306.219 82.7269C307.01 82.2834 307.883 82.0042 308.786 81.9063C309.688 81.8084 310.601 81.8937 311.469 82.1571C312.338 82.4206 313.143 82.8566 313.837 83.4389C314.531 84.0212 315.1 84.7376 315.508 85.5448C313.769 87.2271 312.431 89.2758 311.592 91.5404C308.725 98.9988 315.062 100.306 316.471 93.2911C317.094 90.6815 316.752 87.9359 315.508 85.5568C319.592 81.6357 325.013 81.204 327.555 84.3577C332.302 89.8976 329.82 117.585 314.941 123.76Z" fill="#263238"/>
<path d="M282.763 135.272C280.758 133.609 278.272 132.626 275.667 132.466C274.883 132.415 274.096 132.444 273.318 132.55C271.365 132.801 269.502 133.515 267.883 134.631C266.265 135.747 264.939 137.234 264.017 138.965C263.751 139.449 263.525 139.955 263.343 140.476C262.924 141.584 262.676 142.748 262.608 143.93C262.44 146.651 263.185 149.35 264.727 151.603C266.269 153.857 268.52 155.536 271.125 156.376C272.103 156.682 273.114 156.872 274.137 156.94H274.908C277.861 156.946 280.719 155.897 282.962 153.986C285.206 152.074 286.687 149.425 287.136 146.52C287.136 146.172 287.22 145.824 287.245 145.464C287.269 145.105 287.245 144.937 287.245 144.685C287.241 142.884 286.837 141.107 286.062 139.479C285.287 137.852 284.161 136.415 282.763 135.272ZM274.233 155.297C271.643 155.132 269.202 154.033 267.367 152.207C265.532 150.38 264.429 147.95 264.263 145.372C264.098 142.794 264.882 140.244 266.469 138.2C268.055 136.155 270.336 134.756 272.884 134.265C273.769 134.094 274.672 134.038 275.571 134.097C276.455 134.154 277.329 134.319 278.173 134.588C279.248 134.933 280.261 135.447 281.173 136.111C283.045 137.461 284.426 139.379 285.108 141.578C285.79 143.777 285.735 146.137 284.952 148.302C284.169 150.467 282.7 152.32 280.767 153.581C278.833 154.843 276.54 155.445 274.233 155.297Z" fill="#407BFF"/>
<path d="M310.508 143.102L310.291 142.587C309.553 140.901 308.285 139.499 306.677 138.594C306.158 138.306 305.603 138.088 305.026 137.946C304.187 137.743 303.317 137.694 302.46 137.802C300.714 138.045 299.076 138.791 297.75 139.949C296.754 140.793 295.892 141.784 295.196 142.886C294.665 143.703 294.217 144.571 293.859 145.476C293.613 146.06 293.412 146.661 293.256 147.275C293.213 147.397 293.177 147.521 293.148 147.647C292.434 150.366 292.509 153.231 293.365 155.909C293.722 157.149 294.351 158.295 295.207 159.263C296.064 160.232 297.125 160.999 298.316 161.509C298.569 161.605 298.822 161.676 299.087 161.748C300.085 161.974 301.118 161.999 302.125 161.822C303.133 161.645 304.094 161.269 304.954 160.717C308.022 158.721 310.184 155.609 310.978 152.048C311.764 149.09 311.6 145.962 310.508 143.102ZM309.303 151.652C308.755 153.991 307.586 156.14 305.918 157.875C305.132 158.786 304.12 159.476 302.983 159.876C301.846 160.276 300.623 160.372 299.437 160.154C295.389 159.158 293.28 153.726 294.702 148.043C295.31 145.4 296.729 143.011 298.762 141.208C299.527 140.487 300.455 139.96 301.468 139.67C302.48 139.38 303.548 139.335 304.581 139.541C304.781 139.588 304.978 139.648 305.171 139.721C306.043 140.091 306.828 140.638 307.475 141.328C308.123 142.018 308.618 142.834 308.93 143.726C309.187 144.357 309.381 145.011 309.508 145.68C309.893 147.658 309.839 149.696 309.351 151.652H309.303Z" fill="#407BFF"/>
<path d="M286.51 146.784L285.727 145.345C287.859 144.145 292.509 142.946 294.834 146.664L293.437 147.527C291.353 144.193 286.714 146.676 286.51 146.784Z" fill="#407BFF"/>
<path d="M264.909 139.229L264.439 140.8L263.343 140.476C260.632 139.685 256.632 138.534 252.645 137.43L250.717 136.903C251.018 136.435 251.331 135.956 251.633 135.452L252.608 135.728C257.427 137.047 262.09 138.402 264.017 138.965L264.909 139.229Z" fill="#407BFF"/>
<g opacity="0.3">
<path d="M328.097 196.007C316.094 198.638 303.577 197.668 292.128 193.218C280.68 188.768 270.814 181.039 263.779 171.008C256.743 160.978 252.855 149.096 252.604 136.865C252.354 124.634 255.753 112.604 262.372 102.297C268.99 91.9887 278.531 83.866 289.788 78.9556C301.045 74.0452 313.512 72.5677 325.613 74.7099C337.714 76.8521 348.904 82.5178 357.77 90.9905C366.635 99.4632 372.777 110.362 375.419 122.31C377.175 130.241 377.343 138.44 375.915 146.436C374.487 154.433 371.49 162.071 367.096 168.915C362.701 175.759 356.995 181.674 350.304 186.322C343.612 190.971 336.067 194.262 328.097 196.007Z" fill="white"/>
<path d="M260.235 165.298C268.106 179.599 281.331 190.231 297.034 194.881C312.738 199.531 329.65 197.824 344.096 190.131L260.235 165.298Z" fill="#EBEBEB"/>
<path d="M262.018 102.908L376.877 136.927C376.977 132.014 376.491 127.108 375.431 122.309C374.23 116.805 372.263 111.493 369.588 106.529L284.799 81.4077C275.483 86.5172 267.639 93.9198 262.018 102.908Z" fill="#EBEBEB"/>
<path d="M253.054 142.826L362.456 175.202C365.063 172.086 367.359 168.725 369.311 165.166L252.813 130.655C252.478 134.71 252.558 138.788 253.054 142.826Z" fill="#EBEBEB"/>
<path d="M258.042 110.39L376.106 145.368C376.226 144.625 376.335 143.881 376.419 143.138L258.982 108.364C258.656 109.023 258.331 109.695 258.042 110.39Z" fill="#EBEBEB"/>
<path d="M304.46 74.6207L356.866 90.1372C355.505 88.8782 354.071 87.739 352.589 86.5399L310.026 73.9492C308.16 74.0779 306.303 74.302 304.46 74.6207Z" fill="#EBEBEB"/>
</g>
<path d="M336.65 272.465L352.604 268.968L337.153 199.138L321.199 202.635L336.65 272.465Z" fill="#EBEBEB"/>
<path d="M382.214 120.823C379.276 107.542 372.447 95.427 362.591 86.0092C352.735 76.5915 340.295 70.2942 326.844 67.9136C313.392 65.533 299.533 67.1761 287.02 72.635C274.507 78.0939 263.901 87.1235 256.543 98.582C249.186 110.04 245.407 123.413 245.685 137.009C245.964 150.605 250.286 163.813 258.106 174.964C265.926 186.115 276.893 194.707 289.619 199.655C302.346 204.602 316.26 205.682 329.603 202.758C347.493 198.831 363.084 187.995 372.949 172.631C382.815 157.266 386.147 138.632 382.214 120.823ZM328.097 196.007C316.094 198.641 303.577 197.672 292.127 193.224C280.677 188.776 270.81 181.049 263.773 171.019C256.736 160.989 252.845 149.107 252.593 136.876C252.341 124.645 255.738 112.614 262.356 102.305C268.974 91.9962 278.514 83.8722 289.771 78.9606C301.028 74.0489 313.496 72.5703 325.597 74.7116C337.698 76.8529 348.889 82.518 357.755 90.9904C366.622 99.4629 372.764 110.362 375.407 122.31C377.163 130.241 377.332 138.438 375.904 146.434C374.477 154.43 371.481 162.068 367.088 168.911C362.695 175.755 356.99 181.67 350.3 186.319C343.61 190.968 336.065 194.26 328.097 196.007Z" fill="#455A64"/>
<path d="M343.241 321.602L367.372 316.314L353.686 254.404L329.543 259.692L343.241 321.602Z" fill="#263238"/>
<path d="M353.77 127.502C353.744 127.431 353.724 127.359 353.71 127.286C353.421 126.255 354.023 128.281 353.806 127.61C353.589 126.938 353.276 125.991 352.975 125.211C351.921 122.43 350.631 119.742 349.12 117.177C348.915 116.818 348.686 116.458 348.481 116.098C348.409 115.978 349.011 116.938 348.481 116.182L348.06 115.535C347.505 114.707 346.939 113.892 346.349 113.136C345.044 111.382 343.623 109.715 342.096 108.148L340.988 107.045C340.482 106.553 341.578 107.584 340.879 106.949L340.181 106.313C339.277 105.534 338.349 104.779 337.386 104.059C336.422 103.34 335.277 102.548 334.181 101.865C333.675 101.553 333.169 101.253 332.651 100.965C331.76 100.45 333.037 101.145 332.374 100.809L331.422 100.33C328.544 98.9204 325.534 97.7958 322.435 96.9723H322.278L321.941 96.9004L320.556 96.6006C319.652 96.4207 318.76 96.2649 317.845 96.133C315.931 95.8604 314.005 95.6843 312.074 95.6053C311.538 95.5447 311.019 95.3795 310.547 95.1192C310.074 94.859 309.658 94.5086 309.322 94.0883C308.643 93.2394 308.331 92.1568 308.454 91.0787C308.577 90.0006 309.125 89.0153 309.978 88.3395C310.831 87.6638 311.919 87.3529 313.002 87.4754C325.311 87.8544 337.083 92.586 346.204 100.821C352.265 106.47 357.003 113.376 360.083 121.051C360.788 122.764 361.375 124.522 361.842 126.315C362.008 127.386 361.742 128.479 361.101 129.356C360.46 130.232 359.496 130.82 358.42 130.991C357.347 131.135 356.26 130.861 355.385 130.227C354.509 129.592 353.914 128.646 353.722 127.586L353.77 127.502Z" fill="white"/>
<path d="M355.457 139.553C355.579 140.341 355.933 141.076 356.475 141.664C357.018 142.251 357.723 142.666 358.502 142.854C359.281 143.042 360.098 142.996 360.851 142.721C361.603 142.447 362.257 141.956 362.729 141.311C363.201 140.666 363.47 139.896 363.502 139.099C363.534 138.302 363.327 137.513 362.908 136.833C362.489 136.153 361.877 135.612 361.149 135.278C360.42 134.945 359.609 134.834 358.818 134.96C357.761 135.128 356.815 135.706 356.185 136.566C355.555 137.427 355.293 138.501 355.457 139.553Z" fill="white"/>
<path d="M396.237 283.578C396.237 283.578 413.489 255.351 392.008 228.419C383.166 217.339 362.3 197.47 319.965 200.24C309.918 200.899 296.075 208.921 312.869 213.778C324.796 217.231 333.41 215.828 339.988 219.09C339.988 219.09 323.591 231.381 324.652 241.369C325.122 245.83 325.471 255.579 328.061 264.86C328.061 264.86 331.458 267.258 334.217 266.851C334.217 266.851 341.65 288.195 368.383 294.754L396.237 283.578Z" fill="#D3766A"/>
<path d="M382.937 224.798C376.022 222.052 361.252 216.488 347.578 216.104C332.386 215.684 303.003 218.958 302.822 230.122C302.677 238.312 314.002 238.036 314.002 238.036C314.002 238.036 302.147 241.933 303.653 249.356C305.015 256.118 313.761 255.351 313.761 255.351C313.761 255.351 306.978 258.948 309.556 265.208C312.653 272.738 326.35 264.009 336.061 268.901C338.301 270.052 382.937 224.798 382.937 224.798Z" fill="#D3766A"/>
<path d="M349.782 232.148C342.855 230.637 326.218 231.213 314.146 237.772C313.869 237.916 313.833 238.204 314.146 238.12C325.745 234.753 337.711 232.796 349.782 232.292C349.891 232.292 349.891 232.232 349.782 232.148Z" fill="#263238"/>
<path d="M348.939 247.401C342.819 246.706 325.7 248.061 313.7 255.123C313.423 255.279 313.411 255.567 313.7 255.471C325.116 251.511 336.946 248.852 348.963 247.545C348.982 247.542 348.999 247.531 349.011 247.515C349.022 247.5 349.026 247.48 349.023 247.461C349.02 247.442 349.009 247.425 348.994 247.414C348.978 247.402 348.958 247.398 348.939 247.401Z" fill="#263238"/>
<path d="M373.6 296.589C367.467 295.14 361.547 292.911 355.987 289.958C350.387 286.942 345.432 282.869 341.397 277.966C340.193 276.468 338.988 274.909 337.94 273.314C336.892 271.719 335.735 269.908 334.494 268.326C334.398 268.206 334.169 268.326 334.241 268.434C335.637 271.762 337.356 274.947 339.373 277.942C341.182 280.744 343.344 283.303 345.807 285.557C350.668 289.862 356.428 293.04 362.673 294.862C366.219 295.845 369.848 296.499 373.515 296.816C373.696 296.864 373.768 296.625 373.6 296.589Z" fill="#263238"/>
<path d="M197.745 206.259C166.711 247.737 114.92 355.837 107.306 371.737C102.137 382.529 158.796 410.948 161.193 403.106C164.278 393.057 214.937 260.411 222.032 212.051C225.912 185.539 208.479 191.906 197.745 206.259Z" fill="#D3766A"/>
<path d="M162.723 397.71C161.41 407.482 154.736 427.172 149.772 430.182C144.809 433.191 118.726 432.58 105.583 432.58C92.4392 432.58 89.9213 428.923 90.0779 424.426C90.2345 419.929 117.871 419.066 117.871 419.066C117.871 419.066 81.0303 429.522 71.7659 431.285C62.5015 433.048 41.1657 438.36 38.0334 430.721C36.648 427.268 42.4909 423.778 42.4909 423.778C42.4909 423.778 33.5398 426.381 32.1061 421.956C30.4918 416.908 37.6117 414.138 37.6117 414.138C37.6117 414.138 32.0097 415.253 31.8772 411.14C31.6363 401.907 66.6699 397.398 66.6699 397.398C66.6699 397.398 39.8526 410.396 38.961 402.89C37.7563 392.518 92.7403 381.138 98.4628 376.617C102.626 373.163 106.521 369.399 110.113 365.358L162.723 397.71Z" fill="#D3766A"/>
<path d="M90.2707 426.656C90.1778 426.019 90.2386 425.37 90.4481 424.761C90.6576 424.152 91.0097 423.601 91.4754 423.155C92.4201 422.294 93.5034 421.597 94.68 421.092C97.1105 420.064 99.631 419.262 102.21 418.694C107.39 417.387 112.703 416.464 117.992 415.097C112.54 415.016 107.1 415.62 101.8 416.896C99.0921 417.514 96.4845 418.507 94.0535 419.845C92.7949 420.534 91.6918 421.473 90.8128 422.603C90.3807 423.176 90.1038 423.849 90.0088 424.559C89.9139 425.269 90.0041 425.991 90.2707 426.656Z" fill="#263238"/>
<path d="M42.5754 423.73C46.3703 422.807 50.105 421.752 53.8276 420.673C57.5503 419.593 61.2608 418.466 64.9714 417.351L76.067 413.898C79.7656 412.699 83.4641 411.595 87.1988 410.48C83.3216 410.905 79.4778 411.59 75.6936 412.531C71.8866 413.394 68.1519 414.473 64.4293 415.6C60.7067 416.728 57.0202 417.999 53.3819 419.342C49.7436 420.685 46.0692 422.1 42.5754 423.73Z" fill="#263238"/>
<path d="M78.2595 401.307C74.6859 401.53 71.1341 402.019 67.6338 402.77C64.1213 403.465 60.6504 404.354 57.2369 405.432C53.8151 406.488 50.4565 407.737 47.1774 409.173C43.8865 410.573 40.7017 412.208 37.6479 414.066C41.0332 412.867 44.3342 411.608 47.6954 410.468C51.0566 409.329 54.4058 408.202 57.7911 407.171C61.1764 406.14 64.5617 405.12 67.9711 404.125C71.3805 403.13 74.8019 402.266 78.2595 401.307Z" fill="#263238"/>
<path d="M72.8383 392.578C67.0826 393.039 61.4123 394.248 55.9721 396.175C50.4788 397.986 45.2494 400.51 40.4189 403.681C45.8643 401.751 51.1652 399.712 56.5744 397.914C61.9837 396.115 67.3447 394.34 72.8383 392.578Z" fill="#263238"/>
<path d="M210.937 277.355L148.05 275.628C148.05 275.628 182.324 221.332 200.684 201.415C219.852 180.67 230.285 182.457 223.743 219.21C217.153 256.214 210.937 277.355 210.937 277.355Z" fill="#407BFF"/>
<path d="M172.024 266.431C170.327 267.169 168.738 268.133 167.301 269.297C170.973 268.706 174.43 267.182 177.337 264.872C175.5 265.134 173.71 265.659 172.024 266.431ZM207.142 226.668C206.415 224.971 205.446 223.388 204.262 221.968C204.842 225.625 206.379 229.067 208.72 231.944C208.455 230.119 207.923 228.341 207.142 226.668ZM178.144 238.468C177.457 240.18 177.019 241.98 176.843 243.816C179.026 240.819 180.381 237.304 180.77 233.623C179.661 235.101 178.776 236.733 178.144 238.468ZM205.853 262.977C205.16 264.691 204.726 266.497 204.564 268.337C206.734 265.334 208.087 261.823 208.491 258.145C207.377 259.621 206.48 261.248 205.829 262.977H205.853ZM224.285 191.69C223.984 192.314 223.707 192.949 223.442 193.597C222.762 195.311 222.324 197.111 222.141 198.945C223.25 197.48 224.143 195.865 224.791 194.148C224.851 193.992 224.9 193.849 224.948 193.693C224.776 193.007 224.546 192.337 224.261 191.69H224.285Z" fill="white"/>
<path d="M206.997 266.467C205.503 266.251 203.973 266.251 202.48 266.179L197.841 265.927C194.725 265.775 191.597 265.652 188.456 265.556C182.192 265.364 175.939 265.148 169.687 265.064C167.964 265.064 166.241 265.064 164.518 265.064C162.796 265.064 160.904 265.244 159.097 265.256C158.989 265.256 159.001 265.424 159.097 265.424C160.639 265.52 162.181 265.747 163.735 265.843C165.289 265.939 166.904 266.035 168.494 266.095C171.626 266.215 174.759 266.323 177.891 266.395C184.047 266.539 190.215 266.707 196.372 266.719H201.6C203.395 266.719 205.214 266.815 207.021 266.659C207.07 266.623 207.094 266.479 206.997 266.467Z" fill="#263238"/>
<path d="M223.129 236.645C223.129 236.525 222.984 236.453 222.924 236.573C221.758 238.712 220.759 240.937 219.936 243.228C220.153 242.137 220.406 241.046 220.611 239.943C221.298 236.417 221.924 232.868 222.623 229.342C222.615 229.321 222.602 229.303 222.583 229.29C222.565 229.277 222.543 229.27 222.52 229.27C222.498 229.27 222.476 229.277 222.458 229.29C222.439 229.303 222.425 229.321 222.418 229.342C220.792 235.41 218.9 241.418 217.454 247.533C216.009 253.648 214.551 259.764 213.202 265.903C212.467 269.297 211.804 273.53 211.057 276.911C209.238 277.127 206.901 276.911 204.937 277.163C204.769 277.163 204.817 277.463 204.937 277.463C207.009 277.523 209.479 277.99 211.66 277.859C211.937 277.859 217.214 256.047 219.406 245.602C220.755 242.629 222.008 239.655 223.129 236.645Z" fill="#263238"/>
<path d="M267.86 202.734C266.981 205.6 265.981 208.43 264.837 211.2C263.881 213.695 262.708 216.103 261.331 218.394C258.729 222.483 254.729 225.865 249.657 225.853C244.838 225.853 240.429 223.071 237.345 219.522C233.971 215.649 231.73 210.792 229.719 206.116C228.514 203.226 227.309 200.276 226.345 197.29C225.851 195.779 225.333 194.268 224.9 192.733C224.466 191.199 224.092 189.652 223.562 188.153C223.562 188.033 223.297 188.045 223.333 188.153C224.225 191.606 226.815 202.542 227.851 205.324C229.755 210.42 231.899 215.684 235.333 219.977C238.585 224.03 243.007 227.1 248.296 227.604C253.584 228.107 258.114 225.337 261.03 221.164C262.744 218.536 264.082 215.683 265.005 212.687C266.126 209.401 267.065 206.032 267.921 202.662C267.969 202.71 267.86 202.698 267.86 202.734Z" fill="#263238"/>
<path d="M465.268 435.482H378.876L375.021 359.89H465.268V435.482Z" fill="#DBDBDB"/>
<path d="M465.268 359.89L496.302 321.218L520.999 359.89L517.144 435.482H465.268V359.89Z" fill="#C7C7C7"/>
<path d="M405.176 308.939H497.398L530.661 362.947H519.951L497.398 325.559L471.388 367.408H367.407L405.176 308.939Z" fill="#A6A6A6"/>
<path d="M415.862 326.027H396.032L385.454 338.641H408.344L415.862 326.027Z" fill="#C7C7C7"/>
<path d="M400.839 336.483V351.844H389.803V336.483L395.321 329.612L400.839 336.483Z" fill="#DBDBDB"/>
<path d="M400.839 336.471H409.513L400.839 351.844V336.471Z" fill="#C7C7C7"/>
<path d="M398.176 336.723H391.9V347.263H398.176V336.723Z" fill="#FBFAFF"/>
<path d="M394.695 337.454H392.671V340.848H394.695V337.454Z" fill="#EBEBEB"/>
<path d="M397.393 337.454H395.369V340.848H397.393V337.454Z" fill="#EBEBEB"/>
<path d="M394.695 341.459H392.671V346.484H394.695V341.459Z" fill="#EBEBEB"/>
<path d="M397.393 341.459H395.369V346.484H397.393V341.459Z" fill="#EBEBEB"/>
<path d="M464.412 326.027H444.583L434.656 338.641H456.847L464.412 326.027Z" fill="#C7C7C7"/>
<path d="M449.39 336.483V351.844H438.354V336.483L443.872 329.612L449.39 336.483Z" fill="#DBDBDB"/>
<path d="M449.389 336.471H458.076L449.389 351.844V336.471Z" fill="#C7C7C7"/>
<path d="M446.727 336.723H440.45V347.263H446.727V336.723Z" fill="#FBFAFF"/>
<path d="M443.245 337.454H441.221V340.848H443.245V337.454Z" fill="#EBEBEB"/>
<path d="M445.956 337.454H443.932V340.848H445.956V337.454Z" fill="#EBEBEB"/>
<path d="M443.245 341.459H441.221V346.484H443.245V341.459Z" fill="#EBEBEB"/>
<path d="M445.956 341.459H443.932V346.484H445.956V341.459Z" fill="#EBEBEB"/>
<path d="M480.857 306.757H469.822V321.218H480.857V306.757Z" fill="#DBDBDB"/>
<path d="M480.857 306.757H489.531V309.083L480.857 321.218V306.757Z" fill="#C7C7C7"/>
<path d="M480.857 301.841H468.581V306.757H480.857V301.841Z" fill="#C7C7C7"/>
<path d="M490.483 301.841H480.857V306.757H490.483V301.841Z" fill="#A6A6A6"/>
<path d="M401.67 373.595H388.008V396.558H401.67V373.595Z" fill="#FBFAFF"/>
<path d="M394.092 375.19H389.695V382.589H394.092V375.19Z" fill="#EBEBEB"/>
<path d="M399.983 375.19H395.586V382.589H399.983V375.19Z" fill="#EBEBEB"/>
<path d="M394.092 383.92H389.695V394.88H394.092V383.92Z" fill="#EBEBEB"/>
<path d="M399.983 383.92H395.586V394.88H399.983V383.92Z" fill="#EBEBEB"/>
<path d="M452.413 373.595H438.752V396.558H452.413V373.595Z" fill="#FBFAFF"/>
<path d="M444.836 375.19H440.438V382.589H444.836V375.19Z" fill="#EBEBEB"/>
<path d="M450.727 375.19H446.33V382.589H450.727V375.19Z" fill="#EBEBEB"/>
<path d="M444.836 383.92H440.438V394.88H444.836V383.92Z" fill="#EBEBEB"/>
<path d="M450.727 383.92H446.33V394.88H450.727V383.92Z" fill="#EBEBEB"/>
<path d="M401.67 405.504H388.008V428.467H401.67V405.504Z" fill="#FBFAFF"/>
<path d="M394.092 407.099H389.695V414.497H394.092V407.099Z" fill="#EBEBEB"/>
<path d="M399.983 407.099H395.586V414.497H399.983V407.099Z" fill="#EBEBEB"/>
<path d="M394.092 415.828H389.695V426.788H394.092V415.828Z" fill="#EBEBEB"/>
<path d="M399.983 415.828H395.586V426.788H399.983V415.828Z" fill="#EBEBEB"/>
<path d="M452.413 405.504H438.752V428.467H452.413V405.504Z" fill="#FBFAFF"/>
<path d="M444.836 407.099H440.438V414.497H444.836V407.099Z" fill="#EBEBEB"/>
<path d="M450.727 407.099H446.33V414.497H450.727V407.099Z" fill="#EBEBEB"/>
<path d="M444.836 415.828H440.438V426.788H444.836V415.828Z" fill="#EBEBEB"/>
<path d="M450.727 415.828H446.33V426.788H450.727V415.828Z" fill="#EBEBEB"/>
<path d="M426.97 373.595H413.308V396.558H426.97V373.595Z" fill="#FBFAFF"/>
<path d="M419.392 375.19H414.994V382.589H419.392V375.19Z" fill="#EBEBEB"/>
<path d="M425.295 375.19H420.898V382.589H425.295V375.19Z" fill="#EBEBEB"/>
<path d="M419.392 383.92H414.994V394.88H419.392V383.92Z" fill="#EBEBEB"/>
<path d="M425.295 383.92H420.898V394.88H425.295V383.92Z" fill="#EBEBEB"/>
<path d="M426.97 405.66H413.308V428.623H426.97V405.66Z" fill="#FBFAFF"/>
<path d="M419.392 407.243H414.994V414.641H419.392V407.243Z" fill="#EBEBEB"/>
<path d="M425.295 407.243H420.898V414.641H425.295V407.243Z" fill="#EBEBEB"/>
<path d="M419.392 415.984H414.994V426.944H419.392V415.984Z" fill="#EBEBEB"/>
<path d="M425.295 415.984H420.898V426.944H425.295V415.984Z" fill="#EBEBEB"/>
<path d="M489.82 396.558H503.482V373.595H489.82V396.558Z" fill="#FBFAFF"/>
<path d="M501.795 375.19H497.398V382.589H501.795V375.19Z" fill="#EBEBEB"/>
<path d="M495.892 375.19H491.495V382.589H495.892V375.19Z" fill="#EBEBEB"/>
<path d="M501.795 383.92H497.398V394.88H501.795V383.92Z" fill="#EBEBEB"/>
<path d="M495.892 383.92H491.495V394.88H495.892V383.92Z" fill="#EBEBEB"/>
<path d="M489.82 361.065H503.482V341.627H489.82V361.065Z" fill="#FBFAFF"/>
<path d="M501.795 343.21H497.398V350.609H501.795V343.21Z" fill="#EBEBEB"/>
<path d="M495.892 343.21H491.495V350.609H495.892V343.21Z" fill="#EBEBEB"/>
<path d="M501.795 352.023H497.398V359.422H501.795V352.023Z" fill="#EBEBEB"/>
<path d="M495.892 352.023H491.495V359.422H495.892V352.023Z" fill="#EBEBEB"/>
<path d="M487.877 435.622L504.441 435.7L504.583 405.758L488.018 405.681L487.877 435.622Z" fill="#FBFAFF"/>
<path d="M494.494 407.754L494.473 412.239L498.039 412.255L498.06 407.771L494.494 407.754Z" fill="#EBEBEB"/>
<path d="M489.834 407.73L489.812 412.214L493.378 412.231L493.4 407.746L489.834 407.73Z" fill="#EBEBEB"/>
<path d="M492.425 428.521L499.954 428.556L499.959 427.477L492.43 427.442L492.425 428.521Z" fill="#EBEBEB"/>
<path d="M496.723 405.468V409.953H500.289V405.468H496.723Z" fill="#EBEBEB"/>
<path d="M494.482 413.417L494.46 417.901L498.026 417.918L498.048 413.433L494.482 413.417Z" fill="#EBEBEB"/>
<path d="M489.785 413.38L489.764 417.865L493.33 417.882L493.351 413.397L489.785 413.38Z" fill="#EBEBEB"/>
<path d="M499.154 413.441L499.133 417.925L502.699 417.942L502.72 413.457L499.154 413.441Z" fill="#EBEBEB"/>
<path d="M494.458 419.091L494.436 423.576L498.002 423.592L498.024 419.108L494.458 419.091Z" fill="#EBEBEB"/>
<path d="M489.773 419.067L489.752 423.552L493.318 423.568L493.339 419.084L489.773 419.067Z" fill="#EBEBEB"/>
<path d="M499.13 419.115L499.108 423.6L502.674 423.616L502.696 419.132L499.13 419.115Z" fill="#EBEBEB"/>
<path d="M227.502 435.686H150.76L147.327 398.669H227.502V435.686Z" fill="#DBDBDB"/>
<path d="M227.478 398.621L255.042 364.278L276.992 398.621L273.559 435.638H227.478V398.621Z" fill="#C7C7C7"/>
<path d="M173.662 353.415H257.018L287.895 405.348H279.474L255.885 366.257L233.224 405.348H140.869L173.662 353.415Z" fill="#A6A6A6"/>
<path d="M171.193 412.411H159.049V429.678H171.193V412.411Z" fill="#FBFAFF"/>
<path d="M164.446 413.826H160.543V420.397H164.446V413.826Z" fill="#DBDBDB"/>
<path d="M169.687 413.826H165.783V420.397H169.687V413.826Z" fill="#DBDBDB"/>
<path d="M164.446 421.644H160.543V428.215H164.446V421.644Z" fill="#DBDBDB"/>
<path d="M169.687 421.644H165.783V428.215H169.687V421.644Z" fill="#DBDBDB"/>
<path d="M215.792 412.411H203.648V429.678H215.792V412.411Z" fill="#FBFAFF"/>
<path d="M209.045 413.826H205.142V420.397H209.045V413.826Z" fill="#DBDBDB"/>
<path d="M214.286 413.826H210.383V420.397H214.286V413.826Z" fill="#DBDBDB"/>
<path d="M209.045 421.644H205.142V428.215H209.045V421.644Z" fill="#DBDBDB"/>
<path d="M214.286 421.644H210.383V428.215H214.286V421.644Z" fill="#DBDBDB"/>
<path d="M193.565 411.487H180.18V435.685H193.565V411.487Z" fill="#FBFAFF"/>
<path d="M188.312 413.154H185.432V416.776H188.312V413.154Z" fill="#DBDBDB"/>
<path d="M192.095 413.154H189.215V416.776H192.095V413.154Z" fill="#DBDBDB"/>
<path d="M189.914 429.042H183.83V429.918H189.914V429.042Z" fill="#DBDBDB"/>
<path d="M184.529 413.154H181.65V416.776H184.529V413.154Z" fill="#DBDBDB"/>
<path d="M188.312 417.735H185.432V421.356H188.312V417.735Z" fill="#DBDBDB"/>
<path d="M192.095 417.735H189.215V421.356H192.095V417.735Z" fill="#DBDBDB"/>
<path d="M184.529 417.735H181.65V421.356H184.529V417.735Z" fill="#DBDBDB"/>
<path d="M188.312 422.315H185.432V425.937H188.312V422.315Z" fill="#DBDBDB"/>
<path d="M192.095 422.315H189.215V425.937H192.095V422.315Z" fill="#DBDBDB"/>
<path d="M184.529 422.315H181.65V425.937H184.529V422.315Z" fill="#DBDBDB"/>
<path d="M191.299 351.34H181.493V364.183H191.299V351.34Z" fill="#DBDBDB"/>
<path d="M191.3 351.34H199.01V353.403L191.3 364.183V351.34Z" fill="#C7C7C7"/>
<path d="M191.3 346.963H180.397V351.328H191.3V346.963Z" fill="#C7C7C7"/>
<path d="M199.853 346.963H191.3V351.328H199.853V346.963Z" fill="#A6A6A6"/>
<path d="M257.837 435.698H282.727L285.1 410.168H257.837V435.698Z" fill="#C7C7C7"/>
<path d="M257.837 410.169L245.537 404.641L245.814 435.698H257.837V410.169Z" fill="#DBDBDB"/>
<path d="M276.896 416.776H266.427V435.686H276.896V416.776Z" fill="#FBFAFF"/>
<path d="M272.788 418.071H270.535V420.9H272.788V418.071Z" fill="#DBDBDB"/>
<path d="M275.739 418.071H273.486V420.9H275.739V418.071Z" fill="#DBDBDB"/>
<path d="M274.041 429.222H269.282V429.906H274.041V429.222Z" fill="#DBDBDB"/>
<path d="M269.836 418.071H267.583V420.9H269.836V418.071Z" fill="#DBDBDB"/>
<path d="M243.657 403.369H279.823L291.509 412.219H256.789L243.657 403.369Z" fill="#A6A6A6"/>
<path d="M256.789 412.219H243.657V403.369L256.789 412.219Z" fill="#C7C7C7"/>
<path d="M249.018 390.431C249.018 391.653 249.383 392.847 250.065 393.863C250.747 394.879 251.717 395.671 252.851 396.138C253.986 396.605 255.234 396.726 256.438 396.487C257.641 396.248 258.747 395.658 259.614 394.793C260.481 393.929 261.071 392.827 261.309 391.628C261.547 390.43 261.423 389.188 260.951 388.06C260.48 386.931 259.683 385.968 258.661 385.291C257.639 384.613 256.438 384.253 255.211 384.256C253.567 384.259 251.992 384.911 250.831 386.069C249.67 387.226 249.018 388.795 249.018 390.431Z" fill="#FBFAFF"/>
<path d="M250.404 390.431C250.404 391.703 250.912 392.923 251.815 393.823C252.719 394.722 253.945 395.227 255.223 395.227C255.63 395.23 256.035 395.178 256.427 395.072C257.55 394.768 258.524 394.072 259.17 393.11C259.817 392.148 260.092 390.985 259.945 389.837C259.799 388.689 259.24 387.633 258.372 386.862C257.504 386.092 256.385 385.66 255.223 385.647C254.816 385.645 254.411 385.697 254.018 385.802C253.457 385.938 252.929 386.182 252.464 386.522C251.831 386.962 251.314 387.546 250.955 388.227C250.597 388.907 250.408 389.663 250.404 390.431Z" fill="#C7C7C7"/>
<path d="M254.548 396.067H255.885V384.699H254.548V396.067Z" fill="#FBFAFF"/>
<path d="M260.933 391.042V389.711H249.512V391.042H260.933Z" fill="#FBFAFF"/>
<path d="M293.304 435.698H254.524L251.874 407.147H293.304V435.698Z" fill="#407BFF"/>
<path opacity="0.2" d="M293.304 435.698H254.524L251.874 407.147H293.304V435.698Z" fill="black"/>
<path d="M293.304 407.147L314.568 380.646L331.494 407.147L328.856 435.697H293.304V407.147Z" fill="#407BFF"/>
<path d="M295.87 410.636H243.248L275.257 370.574H314.785L338.542 410.636H332.506L314.785 383.188L295.87 410.636Z" fill="#407BFF"/>
<path opacity="0.4" d="M295.87 410.636H243.248L275.257 370.574H314.785L338.542 410.636H332.506L314.785 383.188L295.87 410.636Z" fill="black"/>
<path d="M348.975 335.14H338.012V349.505H348.975V335.14Z" fill="#407BFF"/>
<path opacity="0.2" d="M348.975 335.14H338.012V349.505H348.975V335.14Z" fill="black"/>
<path d="M357.601 335.14H348.975V349.505H357.601V335.14Z" fill="#407BFF"/>
<path d="M348.975 330.248H336.783V335.128H348.975V330.248Z" fill="#407BFF"/>
<path opacity="0.5" d="M348.975 330.248H336.783V335.128H348.975V330.248Z" fill="black"/>
<path d="M358.541 330.248H348.975V335.128H358.541V330.248Z" fill="#407BFF"/>
<path opacity="0.4" d="M358.541 330.248H348.975V335.128H358.541V330.248Z" fill="black"/>
<path d="M387.502 435.661H301.665L297.822 394.256H387.502V435.661Z" fill="#407BFF"/>
<path opacity="0.2" d="M387.502 435.661H301.665L297.822 394.256H387.502V435.661Z" fill="black"/>
<path d="M387.502 394.256L418.332 355.825L442.884 394.256L439.041 435.662H387.502V394.256Z" fill="#407BFF"/>
<path d="M417.958 358.259L443.306 397.278H452.16L418.717 343.63H327.41L281.148 401.727H392.671L417.958 358.259Z" fill="#407BFF"/>
<path opacity="0.5" d="M417.958 358.259L443.306 397.278H452.16L418.717 343.63H327.41L281.148 401.727H392.671L417.958 358.259Z" fill="black"/>
<path d="M410.32 400.072H423.897V380.754H410.32V400.072Z" fill="#FBFAFF"/>
<path d="M422.223 382.325H417.85V389.675H422.223V382.325Z" fill="#407BFF"/>
<path d="M416.368 382.325H411.995V389.675H416.368V382.325Z" fill="#407BFF"/>
<path d="M422.223 391.079H417.85V398.429H422.223V391.079Z" fill="#407BFF"/>
<path d="M416.368 391.079H411.995V398.429H416.368V391.079Z" fill="#407BFF"/>
<path d="M324.507 409.617H310.929V428.934H324.507V409.617Z" fill="#FBFAFF"/>
<path d="M316.977 411.2H312.604V418.55H316.977V411.2Z" fill="#407BFF"/>
<path d="M322.844 411.2H318.471V418.55H322.844V411.2Z" fill="#407BFF"/>
<path d="M316.977 419.953H312.604V427.304H316.977V419.953Z" fill="#407BFF"/>
<path d="M322.844 419.953H318.471V427.304H322.844V419.953Z" fill="#407BFF"/>
<path d="M349.457 409.617H335.88V428.934H349.457V409.617Z" fill="#FBFAFF"/>
<path d="M341.915 411.2H337.542V418.55H341.915V411.2Z" fill="#407BFF"/>
<path d="M347.782 411.2H343.409V418.55H347.782V411.2Z" fill="#407BFF"/>
<path d="M341.915 419.953H337.542V427.304H341.915V419.953Z" fill="#407BFF"/>
<path d="M347.782 419.953H343.409V427.304H347.782V419.953Z" fill="#407BFF"/>
<path d="M374.395 409.617H360.817V428.934H374.395V409.617Z" fill="#FBFAFF"/>
<path d="M366.865 411.2H362.492V418.55H366.865V411.2Z" fill="#407BFF"/>
<path d="M372.72 411.2H368.347V418.55H372.72V411.2Z" fill="#407BFF"/>
<path d="M366.865 419.953H362.492V427.304H366.865V419.953Z" fill="#407BFF"/>
<path d="M372.72 419.953H368.347V427.304H372.72V419.953Z" fill="#407BFF"/>
<path d="M409.621 435.65H424.596V408.586H409.621V435.65Z" fill="#FBFAFF"/>
<path d="M418.729 410.456H415.5V414.509H418.729V410.456Z" fill="#407BFF"/>
<path d="M414.5 410.456H411.272V414.509H414.5V410.456Z" fill="#407BFF"/>
<path d="M413.705 429.21H420.512V428.227H413.705V429.21Z" fill="#407BFF"/>
<path d="M422.946 410.456H419.717V414.509H422.946V410.456Z" fill="#407BFF"/>
<path d="M418.729 415.576H415.5V419.629H418.729V415.576Z" fill="#407BFF"/>
<path d="M414.5 415.576H411.272V419.629H414.5V415.576Z" fill="#407BFF"/>
<path d="M422.946 415.576H419.717V419.629H422.946V415.576Z" fill="#407BFF"/>
<path d="M418.729 420.697H415.5V424.75H418.729V420.697Z" fill="#407BFF"/>
<path d="M414.5 420.697H411.272V424.75H414.5V420.697Z" fill="#407BFF"/>
<path d="M422.946 420.697H419.717V424.75H422.946V420.697Z" fill="#407BFF"/>
<path d="M362.757 357.539H343.048L332.916 370.13H355.228L362.757 357.539Z" fill="#407BFF"/>
<path opacity="0.4" d="M362.757 357.539H343.048L332.916 370.13H355.228L362.757 357.539Z" fill="black"/>
<path d="M347.831 367.924V383.188H336.855V367.924L342.349 361.101L347.831 367.924Z" fill="#407BFF"/>
<path opacity="0.2" d="M347.831 367.924V383.188H336.855V367.924L342.349 361.101L347.831 367.924Z" fill="black"/>
<path d="M347.831 367.924H356.456L347.831 383.188V367.924Z" fill="#407BFF"/>
<path d="M345.168 368.164H338.94V378.632H345.168V368.164Z" fill="#FBFAFF"/>
<path d="M341.723 368.883H339.711V372.253H341.723V368.883Z" fill="#407BFF"/>
<path d="M344.409 368.883H342.397V372.253H344.409V368.883Z" fill="#407BFF"/>
<path d="M341.723 372.876H339.711V377.876H341.723V372.876Z" fill="#407BFF"/>
<path d="M344.409 372.876H342.397V377.876H344.409V372.876Z" fill="#407BFF"/>
<path d="M477.026 211.751C482.392 216.292 486.384 222.229 488.556 228.897C490.729 235.565 490.996 242.703 489.329 249.515C487.662 256.326 484.126 262.541 479.116 267.468C474.105 272.395 467.818 275.838 460.955 277.415L452.522 294.598L444.342 277.535C438.225 276.23 432.531 273.428 427.777 269.381C423.975 266.161 420.848 262.228 418.573 257.805C416.299 253.383 414.921 248.558 414.52 243.606C413.71 233.604 416.925 223.692 423.458 216.05C429.99 208.408 439.305 203.662 449.354 202.856C459.402 202.049 469.36 205.249 477.038 211.751H477.026Z" fill="white"/>
<path d="M477.026 211.751C482.391 216.294 486.389 222.224 488.58 228.886C489.128 230.544 489.571 232.234 489.905 233.947C490.193 235.669 490.374 237.407 490.447 239.151C490.611 242.649 490.282 246.152 489.471 249.559C488.674 252.974 487.405 256.263 485.7 259.332C484.838 260.862 483.868 262.328 482.797 263.721C481.762 265.142 480.618 266.481 479.375 267.726C474.351 272.762 468.013 276.301 461.075 277.942L461.449 277.654L453.112 294.886L452.51 296.145L451.907 294.886L443.667 277.858L444.173 278.254C436.994 276.705 430.411 273.142 425.203 267.986C419.994 262.83 416.378 256.298 414.783 249.161C413.187 242.024 413.679 234.581 416.199 227.714C418.72 220.846 423.164 214.841 429.005 210.408C433.639 206.951 438.99 204.567 444.667 203.429C450.342 202.286 456.203 202.441 461.809 203.882C467.415 205.324 472.618 208.015 477.026 211.751ZM477.026 211.751C472.648 208.031 467.47 205.361 461.892 203.948C456.314 202.534 450.484 202.414 444.851 203.596C439.219 204.779 433.935 207.233 429.406 210.77C424.877 214.306 421.224 218.831 418.729 223.994C416.241 229.099 414.956 234.701 414.97 240.374C415.04 246.02 416.339 251.584 418.777 256.682C421.249 261.755 424.845 266.203 429.295 269.692C433.752 273.164 438.935 275.598 444.462 276.815L444.824 276.899L444.968 277.223L453.1 294.31H451.895L460.461 277.187L460.569 276.947H460.822C467.633 275.463 473.892 272.116 478.893 267.282C480.136 266.076 481.284 264.777 482.327 263.397C483.405 262.042 484.384 260.611 485.254 259.116C487.001 256.116 488.315 252.887 489.158 249.523C490.031 246.158 490.405 242.684 490.266 239.211C490.204 237.476 490.039 235.746 489.772 234.031C489.446 232.323 489.016 230.637 488.483 228.982C486.337 222.296 482.371 216.331 477.026 211.751Z" fill="#263238"/>
<path d="M462.726 230.961C462.305 230.534 461.836 230.155 461.329 229.834C460.656 229.401 459.952 229.02 459.22 228.695C457.451 227.896 455.555 227.409 453.618 227.256V238.048L454.618 238.252C456.344 238.662 458.045 239.166 459.714 239.763C461.09 240.243 462.385 240.927 463.557 241.789C464.577 242.57 465.402 243.576 465.967 244.727C466.571 246.059 466.863 247.511 466.822 248.972C466.87 250.594 466.532 252.205 465.834 253.672C465.19 254.96 464.249 256.077 463.087 256.934C461.858 257.826 460.473 258.485 459.003 258.876C457.378 259.322 455.702 259.56 454.016 259.584V265.052H451.305V259.476C448.838 259.328 446.404 258.831 444.077 258.001C441.835 257.198 439.737 256.045 437.86 254.584L440.523 249.595C441.027 250.11 441.589 250.564 442.197 250.95C443.013 251.479 443.867 251.948 444.751 252.353C445.792 252.831 446.868 253.232 447.968 253.552C449.149 253.9 450.358 254.145 451.582 254.284V243.492C451.377 243.432 451.149 243.36 450.932 243.312C450.711 243.266 450.494 243.206 450.281 243.132C448.647 242.711 447.038 242.199 445.462 241.597C444.222 241.137 443.066 240.477 442.041 239.643C441.159 238.919 440.454 238.004 439.981 236.969C439.473 235.792 439.23 234.519 439.27 233.239C439.237 231.686 439.541 230.144 440.161 228.719C440.74 227.417 441.595 226.255 442.667 225.313C443.775 224.336 445.059 223.575 446.45 223.071C448 222.509 449.623 222.17 451.269 222.064V216.8H453.98V222.064C456.132 222.173 458.252 222.63 460.256 223.419C462.057 224.117 463.761 225.04 465.328 226.165L462.726 230.961ZM445.474 232.304C445.432 232.937 445.551 233.57 445.82 234.145C446.09 234.719 446.501 235.216 447.016 235.59C448.453 236.489 450.034 237.138 451.691 237.508V227.256C449.998 227.215 448.34 227.738 446.98 228.743C446.479 229.188 446.084 229.738 445.823 230.354C445.563 230.97 445.444 231.636 445.474 232.304ZM460.618 249.583C460.65 248.897 460.497 248.216 460.175 247.608C459.853 247.001 459.374 246.491 458.787 246.13C457.187 245.183 455.459 244.473 453.654 244.019V254.32C455.452 254.407 457.238 253.992 458.811 253.121C459.397 252.741 459.873 252.214 460.19 251.593C460.507 250.972 460.655 250.279 460.618 249.583Z" fill="#407BFF"/>
</svg>
