<svg width="231" height="36" viewBox="0 0 231 36" fill="none" xmlns="http://www.w3.org/2000/svg">
<path d="M11.9297 1.23438C15.0391 1.23438 17.625 1.61719 19.6875 2.38281C21.75 3.13281 23.2969 4.25781 24.3281 5.75781C25.375 7.25781 25.8984 9.125 25.8984 11.3594C25.8984 12.75 25.6641 14.0156 25.1953 15.1562C24.7266 16.2969 24.0547 17.3203 23.1797 18.2266C22.3203 19.1172 21.2891 19.8984 20.0859 20.5703L30.0703 35.5H19.5703L12.3047 23.0312H9.96094V35.5H0.703125V1.23438H11.9297ZM11.7891 8.24219H9.96094V16.0703H11.6953C13.1172 16.0703 14.2812 15.7578 15.1875 15.1328C16.0938 14.5078 16.5469 13.3906 16.5469 11.7812C16.5469 10.6719 16.1719 9.80469 15.4219 9.17969C14.6719 8.55469 13.4609 8.24219 11.7891 8.24219ZM53.5312 35.5H33.1875V1.23438H53.5312V8.66406H42.4453V14.0547H52.7109V21.4844H42.4453V27.9531H53.5312V35.5ZM92.1562 35.5H80.0156L67.5 11.3594H67.2891C67.3672 12.0938 67.4375 12.9766 67.5 14.0078C67.5625 15.0391 67.6172 16.0938 67.6641 17.1719C67.7109 18.2344 67.7344 19.1953 67.7344 20.0547V35.5H59.5312V1.23438H71.625L84.0938 25.0469H84.2344C84.1875 24.2969 84.1406 23.4297 84.0938 22.4453C84.0469 21.4453 84 20.4375 83.9531 19.4219C83.9219 18.4062 83.9062 17.5078 83.9062 16.7266V1.23438H92.1562V35.5ZM114.68 35.5H105.422V8.80469H97.0547V1.23438H123.023V8.80469H114.68V35.5ZM148.945 35.5L147.258 29.0781H136.125L134.391 35.5H124.219L135.398 1.09375H147.75L159.07 35.5H148.945ZM145.336 21.4844L143.859 15.8594C143.703 15.25 143.477 14.3828 143.18 13.2578C142.883 12.1172 142.586 10.9453 142.289 9.74219C142.008 8.52344 141.789 7.52344 141.633 6.74219C141.492 7.52344 141.289 8.49219 141.023 9.64844C140.773 10.7891 140.508 11.9219 140.227 13.0469C139.961 14.1719 139.727 15.1094 139.523 15.8594L138.047 21.4844H145.336ZM191.883 17.6406C191.883 21.625 191.141 24.9375 189.656 27.5781C188.172 30.2188 186.078 32.2031 183.375 33.5312C180.688 34.8438 177.523 35.5 173.883 35.5H162.797V1.23438H174.656C178.344 1.23438 181.469 1.86719 184.031 3.13281C186.594 4.39844 188.539 6.25 189.867 8.6875C191.211 11.125 191.883 14.1094 191.883 17.6406ZM182.273 17.9688C182.273 15.8906 181.992 14.1719 181.43 12.8125C180.883 11.4375 180.055 10.4141 178.945 9.74219C177.836 9.05469 176.438 8.71094 174.75 8.71094H172.055V27.9062H174.117C176.93 27.9062 178.992 27.0938 180.305 25.4688C181.617 23.8281 182.273 21.3281 182.273 17.9688ZM230.109 18.3203C230.109 20.9609 229.789 23.3672 229.148 25.5391C228.523 27.6953 227.539 29.5547 226.195 31.1172C224.852 32.6797 223.125 33.8828 221.016 34.7266C218.906 35.5547 216.383 35.9688 213.445 35.9688C210.57 35.9688 208.078 35.5547 205.969 34.7266C203.875 33.8828 202.148 32.6875 200.789 31.1406C199.43 29.5781 198.422 27.7109 197.766 25.5391C197.109 23.3672 196.781 20.9453 196.781 18.2734C196.781 14.7109 197.367 11.6172 198.539 8.99219C199.727 6.35156 201.555 4.3125 204.023 2.875C206.492 1.42188 209.648 0.695312 213.492 0.695312C217.398 0.695312 220.57 1.42188 223.008 2.875C225.461 4.32812 227.258 6.375 228.398 9.01562C229.539 11.6562 230.109 14.7578 230.109 18.3203ZM206.531 18.3203C206.531 20.3828 206.766 22.1562 207.234 23.6406C207.703 25.125 208.445 26.2656 209.461 27.0625C210.477 27.8594 211.805 28.2578 213.445 28.2578C215.148 28.2578 216.5 27.8594 217.5 27.0625C218.516 26.2656 219.242 25.125 219.68 23.6406C220.133 22.1562 220.359 20.3828 220.359 18.3203C220.359 15.2266 219.844 12.7812 218.812 10.9844C217.781 9.1875 216.008 8.28906 213.492 8.28906C211.82 8.28906 210.469 8.69531 209.438 9.50781C208.422 10.3203 207.68 11.4766 207.211 12.9766C206.758 14.4766 206.531 16.2578 206.531 18.3203Z" fill="url(#paint0_linear_2_126)"/>
<defs>
<linearGradient id="paint0_linear_2_126" x1="192.211" y1="4.83333" x2="-23.6727" y2="-76.7833" gradientUnits="userSpaceOnUse">
<stop stop-color="#059669"/>
<stop offset="1" stop-color="#00D995"/>
</linearGradient>
</defs>
</svg>
