<svg width="356" height="17" viewBox="0 0 356 17" fill="none" xmlns="http://www.w3.org/2000/svg">
<path d="M6.32031 3.94531C5.95573 3.94531 5.63021 4.02344 5.34375 4.17969C5.05729 4.33073 4.8125 4.55208 4.60938 4.84375C4.40625 5.13542 4.25 5.49219 4.14062 5.91406C4.03646 6.33073 3.98438 6.80469 3.98438 7.33594C3.98438 8.05469 4.07552 8.65885 4.25781 9.14844C4.4401 9.63802 4.71615 10.0078 5.08594 10.2578C5.46094 10.5078 5.92969 10.6328 6.49219 10.6328C7.0026 10.6328 7.49219 10.5625 7.96094 10.4219C8.4349 10.2812 8.91146 10.112 9.39062 9.91406V12.5234C8.88542 12.7474 8.36719 12.9089 7.83594 13.0078C7.3099 13.1068 6.75 13.1562 6.15625 13.1562C4.91667 13.1562 3.90104 12.9115 3.10938 12.4219C2.32292 11.9271 1.74219 11.2422 1.36719 10.3672C0.997396 9.49219 0.8125 8.47656 0.8125 7.32031C0.8125 6.45573 0.932292 5.66406 1.17188 4.94531C1.41667 4.22656 1.77344 3.60417 2.24219 3.07812C2.71094 2.54688 3.28906 2.13802 3.97656 1.85156C4.66927 1.5599 5.46094 1.41406 6.35156 1.41406C6.90365 1.41406 7.48438 1.47917 8.09375 1.60938C8.70833 1.73438 9.30729 1.9375 9.89062 2.21875L8.94531 4.64844C8.52865 4.45052 8.10677 4.28385 7.67969 4.14844C7.2526 4.01302 6.79948 3.94531 6.32031 3.94531ZM20.0547 4.14844V13H17.75L17.3672 11.8984H17.1875C17.0052 12.1953 16.7734 12.4375 16.4922 12.625C16.2161 12.8073 15.9089 12.9401 15.5703 13.0234C15.2318 13.112 14.8802 13.1562 14.5156 13.1562C13.9375 13.1562 13.4141 13.0443 12.9453 12.8203C12.4818 12.5964 12.112 12.2448 11.8359 11.7656C11.5651 11.2865 11.4297 10.6693 11.4297 9.91406V4.14844H14.4844V8.98438C14.4844 9.55729 14.5651 9.99479 14.7266 10.2969C14.8932 10.5938 15.1641 10.7422 15.5391 10.7422C15.9245 10.7422 16.2214 10.638 16.4297 10.4297C16.6432 10.2214 16.7917 9.91406 16.875 9.50781C16.9583 9.10156 17 8.60677 17 8.02344V4.14844H20.0547ZM25.2344 4.14844V13H22.1797V4.14844H25.2344ZM23.7188 0.585938C24.1562 0.585938 24.5365 0.677083 24.8594 0.859375C25.1875 1.04167 25.3516 1.40365 25.3516 1.94531C25.3516 2.47135 25.1875 2.82812 24.8594 3.01562C24.5365 3.19792 24.1562 3.28906 23.7188 3.28906C23.2708 3.28906 22.888 3.19792 22.5703 3.01562C22.2578 2.82812 22.1016 2.47135 22.1016 1.94531C22.1016 1.40365 22.2578 1.04167 22.5703 0.859375C22.888 0.677083 23.2708 0.585938 23.7188 0.585938ZM30.1172 13.1562C29.2057 13.1562 28.4557 12.7682 27.8672 11.9922C27.2786 11.2161 26.9844 10.0807 26.9844 8.58594C26.9844 7.07552 27.2865 5.93229 27.8906 5.15625C28.4948 4.38021 29.276 3.99219 30.2344 3.99219C30.6302 3.99219 30.9714 4.04948 31.2578 4.16406C31.5443 4.27865 31.7917 4.4349 32 4.63281C32.2135 4.82552 32.3984 5.04427 32.5547 5.28906H32.6172C32.5807 5.0651 32.5469 4.75781 32.5156 4.36719C32.4844 3.97135 32.4688 3.58594 32.4688 3.21094V0.84375H35.5469V13H33.2422L32.5859 11.8828H32.4688C32.3281 12.1172 32.151 12.3307 31.9375 12.5234C31.7292 12.7161 31.474 12.8698 31.1719 12.9844C30.875 13.099 30.5234 13.1562 30.1172 13.1562ZM31.3672 10.7422C31.8568 10.7422 32.2005 10.5885 32.3984 10.2812C32.6016 9.96875 32.7109 9.49479 32.7266 8.85938V8.61719C32.7266 7.91927 32.6276 7.38542 32.4297 7.01562C32.237 6.64062 31.8724 6.45312 31.3359 6.45312C30.9714 6.45312 30.6693 6.63021 30.4297 6.98438C30.1901 7.33854 30.0703 7.88802 30.0703 8.63281C30.0703 9.36719 30.1901 9.90365 30.4297 10.2422C30.6745 10.5755 30.987 10.7422 31.3672 10.7422ZM41.9844 3.99219C43.1042 3.99219 43.9792 4.27083 44.6094 4.82812C45.2396 5.38021 45.5547 6.16927 45.5547 7.19531V13H43.4375L42.8516 11.8281H42.7891C42.5391 12.1406 42.2812 12.3958 42.0156 12.5938C41.7552 12.7865 41.4557 12.9271 41.1172 13.0156C40.7786 13.1094 40.3646 13.1562 39.875 13.1562C39.3646 13.1562 38.9062 13.0521 38.5 12.8438C38.0938 12.6354 37.7734 12.3203 37.5391 11.8984C37.3047 11.4766 37.1875 10.9427 37.1875 10.2969C37.1875 9.34896 37.5156 8.64583 38.1719 8.1875C38.8281 7.72917 39.7786 7.47135 41.0234 7.41406L42.5 7.36719V7.24219C42.5 6.84635 42.401 6.5651 42.2031 6.39844C42.0104 6.23177 41.75 6.14844 41.4219 6.14844C41.0729 6.14844 40.6823 6.21094 40.25 6.33594C39.8229 6.45573 39.3932 6.61198 38.9609 6.80469L38.0781 4.78906C38.5885 4.52865 39.1667 4.33073 39.8125 4.19531C40.4583 4.0599 41.1823 3.99219 41.9844 3.99219ZM42.5156 9.04688L41.8125 9.07812C41.25 9.09896 40.8542 9.19792 40.625 9.375C40.401 9.54688 40.2891 9.79427 40.2891 10.1172C40.2891 10.4193 40.3698 10.6432 40.5312 10.7891C40.6927 10.9297 40.9062 11 41.1719 11C41.5417 11 41.8568 10.8828 42.1172 10.6484C42.3828 10.4141 42.5156 10.1094 42.5156 9.73438V9.04688ZM52.9766 3.99219C53.1432 3.99219 53.3177 4.00521 53.5 4.03125C53.6823 4.05208 53.8177 4.07031 53.9062 4.08594L53.6328 6.96875C53.5339 6.94271 53.4062 6.92188 53.25 6.90625C53.0938 6.88542 52.875 6.875 52.5938 6.875C52.401 6.875 52.1953 6.89323 51.9766 6.92969C51.7578 6.96615 51.5495 7.04427 51.3516 7.16406C51.1589 7.27865 51 7.45573 50.875 7.69531C50.75 7.92969 50.6875 8.2474 50.6875 8.64844V13H47.6328V4.14844H49.9062L50.3828 5.5625H50.5312C50.6927 5.27083 50.8984 5.00781 51.1484 4.77344C51.4036 4.53385 51.6875 4.34375 52 4.20312C52.3177 4.0625 52.6432 3.99219 52.9766 3.99219ZM62.0547 13.1562C61.1432 13.1562 60.3932 12.7682 59.8047 11.9922C59.2161 11.2161 58.9219 10.0807 58.9219 8.58594C58.9219 7.07552 59.224 5.93229 59.8281 5.15625C60.4323 4.38021 61.2135 3.99219 62.1719 3.99219C62.5677 3.99219 62.9089 4.04948 63.1953 4.16406C63.4818 4.27865 63.7292 4.4349 63.9375 4.63281C64.151 4.82552 64.3359 5.04427 64.4922 5.28906H64.5547C64.5182 5.0651 64.4844 4.75781 64.4531 4.36719C64.4219 3.97135 64.4062 3.58594 64.4062 3.21094V0.84375H67.4844V13H65.1797L64.5234 11.8828H64.4062C64.2656 12.1172 64.0885 12.3307 63.875 12.5234C63.6667 12.7161 63.4115 12.8698 63.1094 12.9844C62.8125 13.099 62.4609 13.1562 62.0547 13.1562ZM63.3047 10.7422C63.7943 10.7422 64.138 10.5885 64.3359 10.2812C64.5391 9.96875 64.6484 9.49479 64.6641 8.85938V8.61719C64.6641 7.91927 64.5651 7.38542 64.3672 7.01562C64.1745 6.64062 63.8099 6.45312 63.2734 6.45312C62.9089 6.45312 62.6068 6.63021 62.3672 6.98438C62.1276 7.33854 62.0078 7.88802 62.0078 8.63281C62.0078 9.36719 62.1276 9.90365 62.3672 10.2422C62.612 10.5755 62.9245 10.7422 63.3047 10.7422ZM78.0547 8.55469C78.0547 9.29427 77.9531 9.95052 77.75 10.5234C77.5469 11.0964 77.2526 11.5781 76.8672 11.9688C76.4818 12.3594 76.0156 12.6562 75.4688 12.8594C74.9219 13.0573 74.3047 13.1562 73.6172 13.1562C72.9766 13.1562 72.388 13.0573 71.8516 12.8594C71.3203 12.6562 70.8568 12.3594 70.4609 11.9688C70.0651 11.5781 69.7578 11.0964 69.5391 10.5234C69.3255 9.95052 69.2188 9.29427 69.2188 8.55469C69.2188 7.57552 69.3958 6.7474 69.75 6.07031C70.1094 5.39323 70.6198 4.8776 71.2812 4.52344C71.9479 4.16927 72.7422 3.99219 73.6641 3.99219C74.513 3.99219 75.2682 4.16927 75.9297 4.52344C76.5911 4.8776 77.1094 5.39323 77.4844 6.07031C77.8646 6.7474 78.0547 7.57552 78.0547 8.55469ZM72.3203 8.55469C72.3203 9.0599 72.3646 9.48698 72.4531 9.83594C72.5417 10.1797 72.6823 10.4427 72.875 10.625C73.0729 10.8021 73.3307 10.8906 73.6484 10.8906C73.9661 10.8906 74.2188 10.8021 74.4062 10.625C74.5938 10.4427 74.7292 10.1797 74.8125 9.83594C74.901 9.48698 74.9453 9.0599 74.9453 8.55469C74.9453 8.04948 74.901 7.6276 74.8125 7.28906C74.7292 6.95052 74.5911 6.69531 74.3984 6.52344C74.2109 6.35156 73.9557 6.26562 73.6328 6.26562C73.1693 6.26562 72.8333 6.45833 72.625 6.84375C72.4219 7.22917 72.3203 7.79948 72.3203 8.55469ZM90.5391 10.2812C90.5391 10.8438 90.4141 11.3411 90.1641 11.7734C89.9141 12.2057 89.513 12.5443 88.9609 12.7891C88.4141 13.0339 87.6927 13.1562 86.7969 13.1562C86.1667 13.1562 85.6016 13.1224 85.1016 13.0547C84.6068 12.987 84.1042 12.8568 83.5938 12.6641V10.2188C84.151 10.474 84.7188 10.6589 85.2969 10.7734C85.875 10.8828 86.3307 10.9375 86.6641 10.9375C87.0078 10.9375 87.2578 10.901 87.4141 10.8281C87.5755 10.75 87.6562 10.6354 87.6562 10.4844C87.6562 10.3542 87.6016 10.2448 87.4922 10.1562C87.388 10.0625 87.1979 9.95573 86.9219 9.83594C86.651 9.71615 86.2682 9.55469 85.7734 9.35156C85.2839 9.14844 84.875 8.92708 84.5469 8.6875C84.224 8.44792 83.9818 8.16146 83.8203 7.82812C83.6589 7.49479 83.5781 7.08594 83.5781 6.60156C83.5781 5.73698 83.9115 5.08594 84.5781 4.64844C85.2448 4.21094 86.1276 3.99219 87.2266 3.99219C87.8099 3.99219 88.3594 4.05729 88.875 4.1875C89.3906 4.3125 89.9245 4.4974 90.4766 4.74219L89.6406 6.71094C89.2031 6.51302 88.7604 6.35417 88.3125 6.23438C87.8646 6.11458 87.5078 6.05469 87.2422 6.05469C87.0026 6.05469 86.8177 6.08594 86.6875 6.14844C86.5573 6.21094 86.4922 6.30208 86.4922 6.42188C86.4922 6.53125 86.5365 6.6276 86.625 6.71094C86.7188 6.79427 86.8932 6.89062 87.1484 7C87.4036 7.10938 87.776 7.26302 88.2656 7.46094C88.7812 7.66927 89.2057 7.89323 89.5391 8.13281C89.8776 8.36719 90.1276 8.65365 90.2891 8.99219C90.4557 9.33073 90.5391 9.76042 90.5391 10.2812ZM96.2266 3.99219C97.0859 3.99219 97.8281 4.14323 98.4531 4.44531C99.0781 4.74219 99.5599 5.1901 99.8984 5.78906C100.237 6.38802 100.406 7.13802 100.406 8.03906V9.39844H94.9453C94.9714 9.86198 95.1432 10.2422 95.4609 10.5391C95.7839 10.8359 96.2578 10.9844 96.8828 10.9844C97.4349 10.9844 97.9401 10.9297 98.3984 10.8203C98.862 10.7109 99.3385 10.5417 99.8281 10.3125V12.5078C99.401 12.7318 98.9349 12.8958 98.4297 13C97.9245 13.1042 97.2865 13.1562 96.5156 13.1562C95.625 13.1562 94.8281 12.9974 94.125 12.6797C93.4219 12.362 92.8672 11.8698 92.4609 11.2031C92.0599 10.5365 91.8594 9.67969 91.8594 8.63281C91.8594 7.57031 92.0417 6.69792 92.4062 6.01562C92.7708 5.32812 93.2812 4.82031 93.9375 4.49219C94.5938 4.15885 95.3568 3.99219 96.2266 3.99219ZM96.3359 6.07031C95.9766 6.07031 95.6745 6.1849 95.4297 6.41406C95.1901 6.63802 95.0495 6.99219 95.0078 7.47656H97.6328C97.6276 7.21615 97.5755 6.97917 97.4766 6.76562C97.3776 6.55208 97.2318 6.38281 97.0391 6.25781C96.8516 6.13281 96.6172 6.07031 96.3359 6.07031ZM110.742 4.14844V13H108.438L108.055 11.8984H107.875C107.693 12.1953 107.461 12.4375 107.18 12.625C106.904 12.8073 106.596 12.9401 106.258 13.0234C105.919 13.112 105.568 13.1562 105.203 13.1562C104.625 13.1562 104.102 13.0443 103.633 12.8203C103.169 12.5964 102.799 12.2448 102.523 11.7656C102.253 11.2865 102.117 10.6693 102.117 9.91406V4.14844H105.172V8.98438C105.172 9.55729 105.253 9.99479 105.414 10.2969C105.581 10.5938 105.852 10.7422 106.227 10.7422C106.612 10.7422 106.909 10.638 107.117 10.4297C107.331 10.2214 107.479 9.91406 107.562 9.50781C107.646 9.10156 107.688 8.60677 107.688 8.02344V4.14844H110.742ZM121.328 3.99219C122.448 3.99219 123.323 4.27083 123.953 4.82812C124.583 5.38021 124.898 6.16927 124.898 7.19531V13H122.781L122.195 11.8281H122.133C121.883 12.1406 121.625 12.3958 121.359 12.5938C121.099 12.7865 120.799 12.9271 120.461 13.0156C120.122 13.1094 119.708 13.1562 119.219 13.1562C118.708 13.1562 118.25 13.0521 117.844 12.8438C117.438 12.6354 117.117 12.3203 116.883 11.8984C116.648 11.4766 116.531 10.9427 116.531 10.2969C116.531 9.34896 116.859 8.64583 117.516 8.1875C118.172 7.72917 119.122 7.47135 120.367 7.41406L121.844 7.36719V7.24219C121.844 6.84635 121.745 6.5651 121.547 6.39844C121.354 6.23177 121.094 6.14844 120.766 6.14844C120.417 6.14844 120.026 6.21094 119.594 6.33594C119.167 6.45573 118.737 6.61198 118.305 6.80469L117.422 4.78906C117.932 4.52865 118.51 4.33073 119.156 4.19531C119.802 4.0599 120.526 3.99219 121.328 3.99219ZM121.859 9.04688L121.156 9.07812C120.594 9.09896 120.198 9.19792 119.969 9.375C119.745 9.54688 119.633 9.79427 119.633 10.1172C119.633 10.4193 119.714 10.6432 119.875 10.7891C120.036 10.9297 120.25 11 120.516 11C120.885 11 121.201 10.8828 121.461 10.6484C121.727 10.4141 121.859 10.1094 121.859 9.73438V9.04688ZM130.031 13H126.977V0.84375H130.031V13ZM140.758 4.14844V13H138.453L138.07 11.8984H137.891C137.708 12.1953 137.477 12.4375 137.195 12.625C136.919 12.8073 136.612 12.9401 136.273 13.0234C135.935 13.112 135.583 13.1562 135.219 13.1562C134.641 13.1562 134.117 13.0443 133.648 12.8203C133.185 12.5964 132.815 12.2448 132.539 11.7656C132.268 11.2865 132.133 10.6693 132.133 9.91406V4.14844H135.188V8.98438C135.188 9.55729 135.268 9.99479 135.43 10.2969C135.596 10.5938 135.867 10.7422 136.242 10.7422C136.628 10.7422 136.924 10.638 137.133 10.4297C137.346 10.2214 137.495 9.91406 137.578 9.50781C137.661 9.10156 137.703 8.60677 137.703 8.02344V4.14844H140.758ZM145.891 16.8438C144.635 16.8438 143.667 16.6328 142.984 16.2109C142.307 15.7943 141.969 15.1927 141.969 14.4062C141.969 13.8802 142.133 13.4453 142.461 13.1016C142.789 12.7578 143.281 12.5104 143.938 12.3594C143.667 12.2448 143.43 12.0599 143.227 11.8047C143.029 11.5495 142.93 11.2969 142.93 11.0469C142.93 10.7708 143.005 10.5286 143.156 10.3203C143.307 10.1068 143.622 9.85417 144.102 9.5625C143.643 9.35938 143.281 9.04167 143.016 8.60938C142.755 8.17708 142.625 7.65104 142.625 7.03125C142.625 6.39062 142.771 5.84375 143.062 5.39062C143.359 4.9375 143.789 4.59115 144.352 4.35156C144.919 4.11198 145.609 3.99219 146.422 3.99219C146.531 3.99219 146.698 4.0026 146.922 4.02344C147.146 4.03906 147.372 4.0599 147.602 4.08594C147.831 4.10677 148.008 4.1276 148.133 4.14844H151.219V5.625L150.008 6.07031C150.091 6.22135 150.154 6.38542 150.195 6.5625C150.237 6.73958 150.258 6.92708 150.258 7.125C150.258 8.07812 149.922 8.81771 149.25 9.34375C148.583 9.86979 147.586 10.1328 146.258 10.1328C145.93 10.1328 145.669 10.112 145.477 10.0703C145.44 10.138 145.411 10.2057 145.391 10.2734C145.375 10.3359 145.367 10.3958 145.367 10.4531C145.367 10.5729 145.438 10.6693 145.578 10.7422C145.724 10.8099 145.898 10.8568 146.102 10.8828C146.31 10.9089 146.508 10.9219 146.695 10.9219H148.164C149.159 10.9219 149.904 11.1302 150.398 11.5469C150.893 11.9635 151.141 12.5911 151.141 13.4297C151.141 14.5078 150.68 15.3464 149.758 15.9453C148.841 16.5443 147.552 16.8438 145.891 16.8438ZM146.039 14.9375C146.409 14.9375 146.781 14.9036 147.156 14.8359C147.531 14.7734 147.846 14.6693 148.102 14.5234C148.357 14.3776 148.484 14.1849 148.484 13.9453C148.484 13.763 148.409 13.625 148.258 13.5312C148.107 13.4427 147.911 13.3828 147.672 13.3516C147.432 13.3203 147.18 13.3047 146.914 13.3047H145.727C145.508 13.3047 145.307 13.3385 145.125 13.4062C144.948 13.4792 144.807 13.5755 144.703 13.6953C144.599 13.8151 144.547 13.9505 144.547 14.1016C144.547 14.3516 144.682 14.5521 144.953 14.7031C145.224 14.8594 145.586 14.9375 146.039 14.9375ZM146.453 8.40625C146.745 8.40625 146.969 8.29427 147.125 8.07031C147.286 7.84635 147.367 7.51042 147.367 7.0625C147.367 6.60417 147.292 6.26042 147.141 6.03125C146.99 5.80208 146.76 5.6875 146.453 5.6875C146.135 5.6875 145.898 5.80208 145.742 6.03125C145.586 6.25521 145.508 6.59375 145.508 7.04688C145.508 7.5 145.586 7.84115 145.742 8.07031C145.898 8.29427 146.135 8.40625 146.453 8.40625ZM161.18 4.14844V13H158.875L158.492 11.8984H158.312C158.13 12.1953 157.898 12.4375 157.617 12.625C157.341 12.8073 157.034 12.9401 156.695 13.0234C156.357 13.112 156.005 13.1562 155.641 13.1562C155.062 13.1562 154.539 13.0443 154.07 12.8203C153.607 12.5964 153.237 12.2448 152.961 11.7656C152.69 11.2865 152.555 10.6693 152.555 9.91406V4.14844H155.609V8.98438C155.609 9.55729 155.69 9.99479 155.852 10.2969C156.018 10.5938 156.289 10.7422 156.664 10.7422C157.049 10.7422 157.346 10.638 157.555 10.4297C157.768 10.2214 157.917 9.91406 158 9.50781C158.083 9.10156 158.125 8.60677 158.125 8.02344V4.14844H161.18ZM167.273 3.99219C168.133 3.99219 168.875 4.14323 169.5 4.44531C170.125 4.74219 170.607 5.1901 170.945 5.78906C171.284 6.38802 171.453 7.13802 171.453 8.03906V9.39844H165.992C166.018 9.86198 166.19 10.2422 166.508 10.5391C166.831 10.8359 167.305 10.9844 167.93 10.9844C168.482 10.9844 168.987 10.9297 169.445 10.8203C169.909 10.7109 170.385 10.5417 170.875 10.3125V12.5078C170.448 12.7318 169.982 12.8958 169.477 13C168.971 13.1042 168.333 13.1562 167.562 13.1562C166.672 13.1562 165.875 12.9974 165.172 12.6797C164.469 12.362 163.914 11.8698 163.508 11.2031C163.107 10.5365 162.906 9.67969 162.906 8.63281C162.906 7.57031 163.089 6.69792 163.453 6.01562C163.818 5.32812 164.328 4.82031 164.984 4.49219C165.641 4.15885 166.404 3.99219 167.273 3.99219ZM167.383 6.07031C167.023 6.07031 166.721 6.1849 166.477 6.41406C166.237 6.63802 166.096 6.99219 166.055 7.47656H168.68C168.674 7.21615 168.622 6.97917 168.523 6.76562C168.424 6.55208 168.279 6.38281 168.086 6.25781C167.898 6.13281 167.664 6.07031 167.383 6.07031ZM176.234 13H173.18V0.84375H176.234V13ZM188.047 3.99219C188.958 3.99219 189.703 4.25 190.281 4.76562C190.859 5.28125 191.148 6.10677 191.148 7.24219V13H188.094V8.17188C188.094 7.58333 188.008 7.14062 187.836 6.84375C187.669 6.54167 187.398 6.39062 187.023 6.39062C186.445 6.39062 186.057 6.6276 185.859 7.10156C185.661 7.57031 185.562 8.24479 185.562 9.125V13H182.508V4.14844H184.812L185.227 5.32031H185.344C185.531 5.03906 185.755 4.79948 186.016 4.60156C186.276 4.40365 186.576 4.2526 186.914 4.14844C187.253 4.04427 187.63 3.99219 188.047 3.99219ZM197.547 3.99219C198.667 3.99219 199.542 4.27083 200.172 4.82812C200.802 5.38021 201.117 6.16927 201.117 7.19531V13H199L198.414 11.8281H198.352C198.102 12.1406 197.844 12.3958 197.578 12.5938C197.318 12.7865 197.018 12.9271 196.68 13.0156C196.341 13.1094 195.927 13.1562 195.438 13.1562C194.927 13.1562 194.469 13.0521 194.062 12.8438C193.656 12.6354 193.336 12.3203 193.102 11.8984C192.867 11.4766 192.75 10.9427 192.75 10.2969C192.75 9.34896 193.078 8.64583 193.734 8.1875C194.391 7.72917 195.341 7.47135 196.586 7.41406L198.062 7.36719V7.24219C198.062 6.84635 197.964 6.5651 197.766 6.39844C197.573 6.23177 197.312 6.14844 196.984 6.14844C196.635 6.14844 196.245 6.21094 195.812 6.33594C195.385 6.45573 194.956 6.61198 194.523 6.80469L193.641 4.78906C194.151 4.52865 194.729 4.33073 195.375 4.19531C196.021 4.0599 196.745 3.99219 197.547 3.99219ZM198.078 9.04688L197.375 9.07812C196.812 9.09896 196.417 9.19792 196.188 9.375C195.964 9.54688 195.852 9.79427 195.852 10.1172C195.852 10.4193 195.932 10.6432 196.094 10.7891C196.255 10.9297 196.469 11 196.734 11C197.104 11 197.419 10.8828 197.68 10.6484C197.945 10.4141 198.078 10.1094 198.078 9.73438V9.04688ZM193.852 3.33594C193.883 2.84635 193.948 2.43229 194.047 2.09375C194.151 1.75521 194.284 1.48177 194.445 1.27344C194.612 1.0599 194.81 0.90625 195.039 0.8125C195.273 0.713542 195.534 0.664062 195.82 0.664062C196.018 0.664062 196.229 0.703125 196.453 0.78125C196.677 0.854167 196.904 0.940104 197.133 1.03906C197.362 1.13802 197.586 1.22656 197.805 1.30469C198.029 1.3776 198.242 1.41406 198.445 1.41406C198.539 1.41406 198.641 1.36979 198.75 1.28125C198.865 1.19271 198.948 0.981771 199 0.648438H200.43C200.362 1.60677 200.151 2.29167 199.797 2.70312C199.448 3.11458 199.018 3.32031 198.508 3.32031C198.273 3.32031 198.036 3.28385 197.797 3.21094C197.562 3.13281 197.331 3.04427 197.102 2.94531C196.872 2.84635 196.651 2.76042 196.438 2.6875C196.224 2.60938 196.018 2.57031 195.82 2.57031C195.721 2.57031 195.62 2.61198 195.516 2.69531C195.411 2.77865 195.326 2.99219 195.258 3.33594H193.852ZM211.648 8.55469C211.648 9.29427 211.547 9.95052 211.344 10.5234C211.141 11.0964 210.846 11.5781 210.461 11.9688C210.076 12.3594 209.609 12.6562 209.062 12.8594C208.516 13.0573 207.898 13.1562 207.211 13.1562C206.57 13.1562 205.982 13.0573 205.445 12.8594C204.914 12.6562 204.451 12.3594 204.055 11.9688C203.659 11.5781 203.352 11.0964 203.133 10.5234C202.919 9.95052 202.812 9.29427 202.812 8.55469C202.812 7.57552 202.99 6.7474 203.344 6.07031C203.703 5.39323 204.214 4.8776 204.875 4.52344C205.542 4.16927 206.336 3.99219 207.258 3.99219C208.107 3.99219 208.862 4.16927 209.523 4.52344C210.185 4.8776 210.703 5.39323 211.078 6.07031C211.458 6.7474 211.648 7.57552 211.648 8.55469ZM205.914 8.55469C205.914 9.0599 205.958 9.48698 206.047 9.83594C206.135 10.1797 206.276 10.4427 206.469 10.625C206.667 10.8021 206.924 10.8906 207.242 10.8906C207.56 10.8906 207.812 10.8021 208 10.625C208.188 10.4427 208.323 10.1797 208.406 9.83594C208.495 9.48698 208.539 9.0599 208.539 8.55469C208.539 8.04948 208.495 7.6276 208.406 7.28906C208.323 6.95052 208.185 6.69531 207.992 6.52344C207.805 6.35156 207.549 6.26562 207.227 6.26562C206.763 6.26562 206.427 6.45833 206.219 6.84375C206.016 7.22917 205.914 7.79948 205.914 8.55469ZM222.961 3.99219C223.94 3.99219 224.708 4.38542 225.266 5.17188C225.823 5.95312 226.102 7.08073 226.102 8.55469C226.102 9.5599 225.961 10.4062 225.68 11.0938C225.398 11.776 225.013 12.2917 224.523 12.6406C224.039 12.9844 223.487 13.1562 222.867 13.1562C222.451 13.1562 222.096 13.1042 221.805 13C221.518 12.8958 221.279 12.7656 221.086 12.6094C220.898 12.4531 220.74 12.2943 220.609 12.1328H220.516C220.542 12.3359 220.562 12.5547 220.578 12.7891C220.599 13.0234 220.609 13.2969 220.609 13.6094V16.8438H217.555V4.14844H220.039L220.469 5.27344H220.609C220.755 5.04427 220.932 4.83333 221.141 4.64062C221.349 4.44271 221.602 4.28646 221.898 4.17188C222.201 4.05208 222.555 3.99219 222.961 3.99219ZM221.812 6.39062C221.516 6.39062 221.281 6.46094 221.109 6.60156C220.938 6.74219 220.812 6.95573 220.734 7.24219C220.661 7.52344 220.62 7.875 220.609 8.29688V8.53906C220.609 9.00781 220.646 9.40365 220.719 9.72656C220.792 10.0443 220.917 10.2865 221.094 10.4531C221.271 10.6146 221.516 10.6953 221.828 10.6953C222.083 10.6953 222.297 10.6224 222.469 10.4766C222.641 10.3307 222.771 10.099 222.859 9.78125C222.948 9.46354 222.992 9.04427 222.992 8.52344C222.992 7.7474 222.891 7.19792 222.688 6.875C222.49 6.55208 222.198 6.39062 221.812 6.39062ZM233.195 3.99219C233.362 3.99219 233.536 4.00521 233.719 4.03125C233.901 4.05208 234.036 4.07031 234.125 4.08594L233.852 6.96875C233.753 6.94271 233.625 6.92188 233.469 6.90625C233.312 6.88542 233.094 6.875 232.812 6.875C232.62 6.875 232.414 6.89323 232.195 6.92969C231.977 6.96615 231.768 7.04427 231.57 7.16406C231.378 7.27865 231.219 7.45573 231.094 7.69531C230.969 7.92969 230.906 8.2474 230.906 8.64844V13H227.852V4.14844H230.125L230.602 5.5625H230.75C230.911 5.27083 231.117 5.00781 231.367 4.77344C231.622 4.53385 231.906 4.34375 232.219 4.20312C232.536 4.0625 232.862 3.99219 233.195 3.99219ZM239.352 3.99219C240.211 3.99219 240.953 4.14323 241.578 4.44531C242.203 4.74219 242.685 5.1901 243.023 5.78906C243.362 6.38802 243.531 7.13802 243.531 8.03906V9.39844H238.07C238.096 9.86198 238.268 10.2422 238.586 10.5391C238.909 10.8359 239.383 10.9844 240.008 10.9844C240.56 10.9844 241.065 10.9297 241.523 10.8203C241.987 10.7109 242.464 10.5417 242.953 10.3125V12.5078C242.526 12.7318 242.06 12.8958 241.555 13C241.049 13.1042 240.411 13.1562 239.641 13.1562C238.75 13.1562 237.953 12.9974 237.25 12.6797C236.547 12.362 235.992 11.8698 235.586 11.2031C235.185 10.5365 234.984 9.67969 234.984 8.63281C234.984 7.57031 235.167 6.69792 235.531 6.01562C235.896 5.32812 236.406 4.82031 237.062 4.49219C237.719 4.15885 238.482 3.99219 239.352 3.99219ZM239.461 6.07031C239.102 6.07031 238.799 6.1849 238.555 6.41406C238.315 6.63802 238.174 6.99219 238.133 7.47656H240.758C240.753 7.21615 240.701 6.97917 240.602 6.76562C240.503 6.55208 240.357 6.38281 240.164 6.25781C239.977 6.13281 239.742 6.07031 239.461 6.07031ZM249.289 13.1562C248.393 13.1562 247.615 12.9974 246.953 12.6797C246.292 12.3568 245.779 11.862 245.414 11.1953C245.055 10.5234 244.875 9.66406 244.875 8.61719C244.875 7.54427 245.076 6.66667 245.477 5.98438C245.883 5.30208 246.438 4.79948 247.141 4.47656C247.844 4.15365 248.641 3.99219 249.531 3.99219C250.073 3.99219 250.586 4.05208 251.07 4.17188C251.56 4.29167 252.013 4.45573 252.43 4.66406L251.531 6.92188C251.167 6.76042 250.826 6.63281 250.508 6.53906C250.195 6.4401 249.87 6.39062 249.531 6.39062C249.224 6.39062 248.953 6.47135 248.719 6.63281C248.484 6.79427 248.302 7.03906 248.172 7.36719C248.042 7.6901 247.977 8.10156 247.977 8.60156C247.977 9.11198 248.042 9.52344 248.172 9.83594C248.307 10.1484 248.492 10.375 248.727 10.5156C248.966 10.6562 249.24 10.7266 249.547 10.7266C249.99 10.7266 250.43 10.6589 250.867 10.5234C251.31 10.3828 251.729 10.1901 252.125 9.94531V12.375C251.76 12.6146 251.349 12.8047 250.891 12.9453C250.432 13.0859 249.898 13.1562 249.289 13.1562ZM256.953 4.14844V13H253.898V4.14844H256.953ZM255.438 0.585938C255.875 0.585938 256.255 0.677083 256.578 0.859375C256.906 1.04167 257.07 1.40365 257.07 1.94531C257.07 2.47135 256.906 2.82812 256.578 3.01562C256.255 3.19792 255.875 3.28906 255.438 3.28906C254.99 3.28906 254.607 3.19792 254.289 3.01562C253.977 2.82812 253.82 2.47135 253.82 1.94531C253.82 1.40365 253.977 1.04167 254.289 0.859375C254.607 0.677083 254.99 0.585938 255.438 0.585938ZM265.664 10.2812C265.664 10.8438 265.539 11.3411 265.289 11.7734C265.039 12.2057 264.638 12.5443 264.086 12.7891C263.539 13.0339 262.818 13.1562 261.922 13.1562C261.292 13.1562 260.727 13.1224 260.227 13.0547C259.732 12.987 259.229 12.8568 258.719 12.6641V10.2188C259.276 10.474 259.844 10.6589 260.422 10.7734C261 10.8828 261.456 10.9375 261.789 10.9375C262.133 10.9375 262.383 10.901 262.539 10.8281C262.701 10.75 262.781 10.6354 262.781 10.4844C262.781 10.3542 262.727 10.2448 262.617 10.1562C262.513 10.0625 262.323 9.95573 262.047 9.83594C261.776 9.71615 261.393 9.55469 260.898 9.35156C260.409 9.14844 260 8.92708 259.672 8.6875C259.349 8.44792 259.107 8.16146 258.945 7.82812C258.784 7.49479 258.703 7.08594 258.703 6.60156C258.703 5.73698 259.036 5.08594 259.703 4.64844C260.37 4.21094 261.253 3.99219 262.352 3.99219C262.935 3.99219 263.484 4.05729 264 4.1875C264.516 4.3125 265.049 4.4974 265.602 4.74219L264.766 6.71094C264.328 6.51302 263.885 6.35417 263.438 6.23438C262.99 6.11458 262.633 6.05469 262.367 6.05469C262.128 6.05469 261.943 6.08594 261.812 6.14844C261.682 6.21094 261.617 6.30208 261.617 6.42188C261.617 6.53125 261.661 6.6276 261.75 6.71094C261.844 6.79427 262.018 6.89062 262.273 7C262.529 7.10938 262.901 7.26302 263.391 7.46094C263.906 7.66927 264.331 7.89323 264.664 8.13281C265.003 8.36719 265.253 8.65365 265.414 8.99219C265.581 9.33073 265.664 9.76042 265.664 10.2812ZM271.688 3.99219C272.807 3.99219 273.682 4.27083 274.312 4.82812C274.943 5.38021 275.258 6.16927 275.258 7.19531V13H273.141L272.555 11.8281H272.492C272.242 12.1406 271.984 12.3958 271.719 12.5938C271.458 12.7865 271.159 12.9271 270.82 13.0156C270.482 13.1094 270.068 13.1562 269.578 13.1562C269.068 13.1562 268.609 13.0521 268.203 12.8438C267.797 12.6354 267.477 12.3203 267.242 11.8984C267.008 11.4766 266.891 10.9427 266.891 10.2969C266.891 9.34896 267.219 8.64583 267.875 8.1875C268.531 7.72917 269.482 7.47135 270.727 7.41406L272.203 7.36719V7.24219C272.203 6.84635 272.104 6.5651 271.906 6.39844C271.714 6.23177 271.453 6.14844 271.125 6.14844C270.776 6.14844 270.385 6.21094 269.953 6.33594C269.526 6.45573 269.096 6.61198 268.664 6.80469L267.781 4.78906C268.292 4.52865 268.87 4.33073 269.516 4.19531C270.161 4.0599 270.885 3.99219 271.688 3.99219ZM272.219 9.04688L271.516 9.07812C270.953 9.09896 270.557 9.19792 270.328 9.375C270.104 9.54688 269.992 9.79427 269.992 10.1172C269.992 10.4193 270.073 10.6432 270.234 10.7891C270.396 10.9297 270.609 11 270.875 11C271.245 11 271.56 10.8828 271.82 10.6484C272.086 10.4141 272.219 10.1094 272.219 9.73438V9.04688ZM288.07 10.2812C288.07 10.8438 287.945 11.3411 287.695 11.7734C287.445 12.2057 287.044 12.5443 286.492 12.7891C285.945 13.0339 285.224 13.1562 284.328 13.1562C283.698 13.1562 283.133 13.1224 282.633 13.0547C282.138 12.987 281.635 12.8568 281.125 12.6641V10.2188C281.682 10.474 282.25 10.6589 282.828 10.7734C283.406 10.8828 283.862 10.9375 284.195 10.9375C284.539 10.9375 284.789 10.901 284.945 10.8281C285.107 10.75 285.188 10.6354 285.188 10.4844C285.188 10.3542 285.133 10.2448 285.023 10.1562C284.919 10.0625 284.729 9.95573 284.453 9.83594C284.182 9.71615 283.799 9.55469 283.305 9.35156C282.815 9.14844 282.406 8.92708 282.078 8.6875C281.755 8.44792 281.513 8.16146 281.352 7.82812C281.19 7.49479 281.109 7.08594 281.109 6.60156C281.109 5.73698 281.443 5.08594 282.109 4.64844C282.776 4.21094 283.659 3.99219 284.758 3.99219C285.341 3.99219 285.891 4.05729 286.406 4.1875C286.922 4.3125 287.456 4.4974 288.008 4.74219L287.172 6.71094C286.734 6.51302 286.292 6.35417 285.844 6.23438C285.396 6.11458 285.039 6.05469 284.773 6.05469C284.534 6.05469 284.349 6.08594 284.219 6.14844C284.089 6.21094 284.023 6.30208 284.023 6.42188C284.023 6.53125 284.068 6.6276 284.156 6.71094C284.25 6.79427 284.424 6.89062 284.68 7C284.935 7.10938 285.307 7.26302 285.797 7.46094C286.312 7.66927 286.737 7.89323 287.07 8.13281C287.409 8.36719 287.659 8.65365 287.82 8.99219C287.987 9.33073 288.07 9.76042 288.07 10.2812ZM293.758 3.99219C294.617 3.99219 295.359 4.14323 295.984 4.44531C296.609 4.74219 297.091 5.1901 297.43 5.78906C297.768 6.38802 297.938 7.13802 297.938 8.03906V9.39844H292.477C292.503 9.86198 292.674 10.2422 292.992 10.5391C293.315 10.8359 293.789 10.9844 294.414 10.9844C294.966 10.9844 295.471 10.9297 295.93 10.8203C296.393 10.7109 296.87 10.5417 297.359 10.3125V12.5078C296.932 12.7318 296.466 12.8958 295.961 13C295.456 13.1042 294.818 13.1562 294.047 13.1562C293.156 13.1562 292.359 12.9974 291.656 12.6797C290.953 12.362 290.398 11.8698 289.992 11.2031C289.591 10.5365 289.391 9.67969 289.391 8.63281C289.391 7.57031 289.573 6.69792 289.938 6.01562C290.302 5.32812 290.812 4.82031 291.469 4.49219C292.125 4.15885 292.888 3.99219 293.758 3.99219ZM293.867 6.07031C293.508 6.07031 293.206 6.1849 292.961 6.41406C292.721 6.63802 292.581 6.99219 292.539 7.47656H295.164C295.159 7.21615 295.107 6.97917 295.008 6.76562C294.909 6.55208 294.763 6.38281 294.57 6.25781C294.383 6.13281 294.148 6.07031 293.867 6.07031ZM305.008 3.99219C305.174 3.99219 305.349 4.00521 305.531 4.03125C305.714 4.05208 305.849 4.07031 305.938 4.08594L305.664 6.96875C305.565 6.94271 305.438 6.92188 305.281 6.90625C305.125 6.88542 304.906 6.875 304.625 6.875C304.432 6.875 304.227 6.89323 304.008 6.92969C303.789 6.96615 303.581 7.04427 303.383 7.16406C303.19 7.27865 303.031 7.45573 302.906 7.69531C302.781 7.92969 302.719 8.2474 302.719 8.64844V13H299.664V4.14844H301.938L302.414 5.5625H302.562C302.724 5.27083 302.93 5.00781 303.18 4.77344C303.435 4.53385 303.719 4.34375 304.031 4.20312C304.349 4.0625 304.674 3.99219 305.008 3.99219ZM314.086 13.1562C313.174 13.1562 312.424 12.7682 311.836 11.9922C311.247 11.2161 310.953 10.0807 310.953 8.58594C310.953 7.07552 311.255 5.93229 311.859 5.15625C312.464 4.38021 313.245 3.99219 314.203 3.99219C314.599 3.99219 314.94 4.04948 315.227 4.16406C315.513 4.27865 315.76 4.4349 315.969 4.63281C316.182 4.82552 316.367 5.04427 316.523 5.28906H316.586C316.549 5.0651 316.516 4.75781 316.484 4.36719C316.453 3.97135 316.438 3.58594 316.438 3.21094V0.84375H319.516V13H317.211L316.555 11.8828H316.438C316.297 12.1172 316.12 12.3307 315.906 12.5234C315.698 12.7161 315.443 12.8698 315.141 12.9844C314.844 13.099 314.492 13.1562 314.086 13.1562ZM315.336 10.7422C315.826 10.7422 316.169 10.5885 316.367 10.2812C316.57 9.96875 316.68 9.49479 316.695 8.85938V8.61719C316.695 7.91927 316.596 7.38542 316.398 7.01562C316.206 6.64062 315.841 6.45312 315.305 6.45312C314.94 6.45312 314.638 6.63021 314.398 6.98438C314.159 7.33854 314.039 7.88802 314.039 8.63281C314.039 9.36719 314.159 9.90365 314.398 10.2422C314.643 10.5755 314.956 10.7422 315.336 10.7422ZM324.703 4.14844V13H321.648V4.14844H324.703ZM323.188 0.585938C323.625 0.585938 324.005 0.677083 324.328 0.859375C324.656 1.04167 324.82 1.40365 324.82 1.94531C324.82 2.47135 324.656 2.82812 324.328 3.01562C324.005 3.19792 323.625 3.28906 323.188 3.28906C322.74 3.28906 322.357 3.19792 322.039 3.01562C321.727 2.82812 321.57 2.47135 321.57 1.94531C321.57 1.40365 321.727 1.04167 322.039 0.859375C322.357 0.677083 322.74 0.585938 323.188 0.585938ZM332.242 6.4375H330.359V13H327.305V6.4375H326.133V4.9375L327.367 4.1875V4.03906C327.367 3.27344 327.469 2.65104 327.672 2.17188C327.875 1.6875 328.198 1.33073 328.641 1.10156C329.083 0.872396 329.661 0.757812 330.375 0.757812C330.833 0.757812 331.247 0.794271 331.617 0.867188C331.992 0.940104 332.383 1.04427 332.789 1.17969L332.133 3.15625C331.982 3.11458 331.812 3.07812 331.625 3.04688C331.443 3.01562 331.245 3 331.031 3C330.797 3 330.625 3.07292 330.516 3.21875C330.411 3.35938 330.359 3.59115 330.359 3.91406V4.14844H332.242V6.4375ZM336.516 13H333.461V4.14844H336.516V13ZM338.805 0.742188V0.90625C338.617 1.05729 338.378 1.24219 338.086 1.46094C337.794 1.67448 337.484 1.89844 337.156 2.13281C336.833 2.36198 336.518 2.58073 336.211 2.78906C335.909 2.9974 335.648 3.16927 335.43 3.30469H333.398V3.07812C333.581 2.88021 333.799 2.64583 334.055 2.375C334.31 2.09896 334.565 1.81771 334.82 1.53125C335.076 1.24479 335.289 0.981771 335.461 0.742188H338.805ZM342.68 13.1562C341.784 13.1562 341.005 12.9974 340.344 12.6797C339.682 12.3568 339.169 11.862 338.805 11.1953C338.445 10.5234 338.266 9.66406 338.266 8.61719C338.266 7.54427 338.466 6.66667 338.867 5.98438C339.273 5.30208 339.828 4.79948 340.531 4.47656C341.234 4.15365 342.031 3.99219 342.922 3.99219C343.464 3.99219 343.977 4.05208 344.461 4.17188C344.951 4.29167 345.404 4.45573 345.82 4.66406L344.922 6.92188C344.557 6.76042 344.216 6.63281 343.898 6.53906C343.586 6.4401 343.26 6.39062 342.922 6.39062C342.615 6.39062 342.344 6.47135 342.109 6.63281C341.875 6.79427 341.693 7.03906 341.562 7.36719C341.432 7.6901 341.367 8.10156 341.367 8.60156C341.367 9.11198 341.432 9.52344 341.562 9.83594C341.698 10.1484 341.883 10.375 342.117 10.5156C342.357 10.6562 342.63 10.7266 342.938 10.7266C343.38 10.7266 343.82 10.6589 344.258 10.5234C344.701 10.3828 345.12 10.1901 345.516 9.94531V12.375C345.151 12.6146 344.74 12.8047 344.281 12.9453C343.823 13.0859 343.289 13.1562 342.68 13.1562ZM350.344 4.14844V13H347.289V4.14844H350.344ZM348.828 0.585938C349.266 0.585938 349.646 0.677083 349.969 0.859375C350.297 1.04167 350.461 1.40365 350.461 1.94531C350.461 2.47135 350.297 2.82812 349.969 3.01562C349.646 3.19792 349.266 3.28906 348.828 3.28906C348.38 3.28906 347.997 3.19792 347.68 3.01562C347.367 2.82812 347.211 2.47135 347.211 1.94531C347.211 1.40365 347.367 1.04167 347.68 0.859375C347.997 0.677083 348.38 0.585938 348.828 0.585938ZM355.531 13H352.477V0.84375H355.531V13Z" fill="url(#paint0_linear_1_608)"/>
<defs>
<linearGradient id="paint0_linear_1_608" x1="283.521" y1="16.3333" x2="8.17572" y2="-134.854" gradientUnits="userSpaceOnUse">
<stop stop-color="#059669"/>
<stop offset="1" stop-color="#00D995"/>
</linearGradient>
</defs>
</svg>
