<svg width="477" height="106" viewBox="0 0 477 106" fill="none" xmlns="http://www.w3.org/2000/svg">
<g filter="url(#filter0_d_10_6071)">
<path d="M360.247 77.984C363.832 83.343 368.926 87.5184 374.884 89.9822C380.843 92.446 387.398 93.0876 393.721 91.8257C400.044 90.5639 405.851 87.4554 410.407 82.8933C414.963 78.3311 418.064 72.5203 419.318 66.1957C420.572 59.8711 419.922 53.3167 417.451 47.3614C414.979 41.4062 410.797 36.3176 405.434 32.7391C400.07 29.1606 393.766 27.253 387.318 27.2575C380.871 27.262 374.569 29.1785 369.211 32.7645C362.026 37.5726 357.045 45.0377 355.364 53.5179C353.683 61.9981 355.439 70.7987 360.247 77.984ZM409.084 45.3107C411.962 49.6115 413.501 54.6692 413.504 59.8443C413.508 65.0194 411.977 70.0794 409.105 74.3843C406.233 78.6893 402.149 82.0457 397.369 84.0292C392.589 86.0127 387.328 86.5342 382.252 85.5276C377.175 84.521 372.512 82.0316 368.85 78.3743C365.189 74.7169 362.694 70.0559 361.682 64.9808C360.67 59.9056 361.186 54.6443 363.164 49.8622C365.142 45.0801 368.494 40.9921 372.796 38.1151C378.562 34.2585 385.625 32.8499 392.43 34.1993C399.235 35.5487 405.225 39.5455 409.084 45.3107Z" fill="white"/>
<path d="M412.581 39.1944L415.358 43.3062C415.811 43.9762 416.721 44.1526 417.391 43.7L439.054 29.0695C439.724 28.6169 439.9 27.7068 439.448 27.0367L436.671 22.925C436.218 22.2549 435.308 22.0785 434.638 22.5311L412.975 37.1616C412.305 37.6142 412.129 38.5243 412.581 39.1944Z" fill="white"/>
<path d="M467.026 3.12743L470.771 8.71965C471.045 9.12931 471.236 9.58835 471.334 10.0706C471.432 10.5528 471.435 11.0488 471.342 11.5302C471.249 12.0116 471.062 12.469 470.793 12.8762C470.523 13.2835 470.176 13.6326 469.77 13.9038L437.243 35.4014C436.927 35.6131 436.571 35.7597 436.196 35.8328C435.822 35.906 435.436 35.9042 435.061 35.8276C434.686 35.751 434.329 35.6011 434.01 35.3865C433.691 35.1718 433.417 34.8966 433.203 34.5766L428.558 27.6224C428.343 27.3026 428.193 26.944 428.117 26.5672C428.04 26.1904 428.038 25.8028 428.11 25.4266C428.183 25.0504 428.329 24.693 428.54 24.375C428.751 24.0569 429.023 23.7845 429.341 23.5732L461.868 2.0756C462.684 1.53085 463.686 1.33565 464.653 1.53283C465.62 1.73001 466.474 2.30346 467.026 3.12743Z" fill="#407BFF"/>
<path d="M415.573 42.3763C420.359 49.6616 422.083 58.5309 420.367 67.0366C418.652 75.5423 413.637 82.9889 406.424 87.7411C399.211 92.4933 390.389 94.1626 381.897 92.3824C373.404 90.6022 365.935 85.518 361.129 78.2463C356.323 70.9747 354.573 62.1101 356.264 53.5993C357.956 45.0885 362.949 37.6273 370.148 32.8542C377.347 28.0812 386.164 26.3864 394.661 28.1422C403.159 29.898 410.643 34.9608 415.469 42.2188L415.573 42.3763ZM361.463 78.1383L361.568 78.2959C366.383 85.3525 373.761 90.2432 382.1 91.9082C390.44 93.5731 399.07 91.8779 406.12 87.1902C413.171 82.5025 418.073 75.1998 419.764 66.8651C421.456 58.5303 419.8 49.8349 415.157 42.6636L415.053 42.5061C410.237 35.4495 402.86 30.5587 394.52 28.8938C386.18 27.2289 377.55 28.924 370.5 33.6118C363.45 38.2995 358.548 45.6021 356.856 53.9369C355.165 62.2717 356.82 70.9671 361.463 78.1383ZM410.232 45.9065C413.825 51.7617 415.027 58.7684 413.585 65.4527C412.143 72.1371 408.17 77.9781 402.5 81.7474C396.831 85.5166 389.907 86.9202 383.186 85.663C376.465 84.4057 370.47 80.5856 366.462 75.0062L366.377 74.8785C362.784 69.0232 361.582 62.0166 363.024 55.3322C364.466 48.6479 368.44 42.8068 374.109 39.0376C379.778 35.2683 386.702 33.8647 393.423 35.122C400.144 36.3792 406.139 40.1993 410.148 45.7788L410.232 45.9065ZM366.805 74.6081L366.889 74.7359C370.821 80.2051 376.701 83.9489 383.292 85.1802C389.882 86.4114 396.671 85.0342 402.23 81.338C407.789 77.6419 411.685 71.9147 413.1 65.3607C414.514 58.8066 413.337 51.9362 409.816 46.1938L409.731 46.0661C405.799 40.5969 399.919 36.853 393.329 35.6218C386.738 34.3906 379.95 35.7678 374.391 39.4639C368.832 43.1601 364.935 48.8873 363.521 55.4413C362.106 61.9954 363.283 68.8658 366.805 74.6081Z" fill="#407BFF"/>
<path d="M441.859 27.3404C442.099 27.7093 442.181 28.161 442.085 28.598C441.989 29.035 441.724 29.4222 441.348 29.6759L419.609 44.2143C419.226 44.4656 418.762 44.5597 418.319 44.4762C418.1 44.4367 417.892 44.3543 417.707 44.2336C417.523 44.113 417.366 43.9566 417.245 43.7735L414.569 39.7799C414.331 39.4065 414.249 38.9527 414.341 38.5123C414.387 38.2943 414.477 38.0865 414.604 37.9008C414.732 37.715 414.894 37.5552 415.083 37.4306L436.821 22.8922C437.201 22.6396 437.662 22.5426 438.104 22.6223C438.546 22.7021 438.934 22.952 439.182 23.3178L441.854 27.3143L441.859 27.3404ZM414.993 39.4994L417.672 43.4972C417.757 43.6256 417.867 43.7354 417.997 43.8203C418.126 43.9052 418.272 43.9635 418.426 43.9919C418.738 44.048 419.063 43.9797 419.331 43.8017L441.073 29.2605C441.339 29.0807 441.526 28.8065 441.593 28.4972C441.627 28.3456 441.63 28.1896 441.602 28.0385C441.575 27.8873 441.517 27.744 441.432 27.6168L438.76 23.6204C438.586 23.3618 438.313 23.1849 438.001 23.1284C437.69 23.0719 437.365 23.1403 437.097 23.3187L415.355 37.8599C415.222 37.9476 415.108 38.0598 415.018 38.1901C414.929 38.3203 414.865 38.4661 414.832 38.619C414.763 38.9261 414.818 39.2442 414.985 39.5051L414.993 39.4994Z" fill="#407BFF"/>
<path d="M471.776 9.16439C472.363 10.0532 472.58 11.1348 472.38 12.1732C472.179 13.2117 471.577 14.1226 470.705 14.7071L438.118 36.2442C437.422 36.7093 436.567 36.875 435.741 36.7049C434.915 36.5347 434.185 36.0427 433.712 35.3367L429.029 28.3344C428.561 27.6281 428.387 26.7677 428.547 25.9416C428.706 25.1155 429.186 24.3911 429.88 23.9273L462.471 2.38734C462.905 2.09763 463.392 1.89741 463.905 1.79809C464.418 1.69877 464.946 1.70231 465.461 1.80851C465.975 1.9147 466.465 2.12147 466.902 2.41701C467.339 2.71254 467.716 3.09105 468.01 3.53093L471.773 9.16008L471.776 9.16439ZM429.456 28.0581L434.136 35.0561C434.333 35.3498 434.584 35.6025 434.877 35.7997C435.169 35.9969 435.496 36.1348 435.84 36.2055C436.183 36.2763 436.537 36.2784 436.879 36.2119C437.222 36.1453 437.547 36.0113 437.836 35.8176L470.423 14.2805C471.183 13.7705 471.707 12.9763 471.881 12.0713C472.055 11.1663 471.866 10.2238 471.354 9.44932L467.591 3.82016C467.335 3.43613 467.006 3.10565 466.625 2.84762C466.243 2.5896 465.816 2.40911 465.367 2.31645C464.918 2.22379 464.457 2.22079 464.009 2.30763C463.562 2.39447 463.137 2.56944 462.759 2.82253L430.172 24.3596C429.59 24.7493 429.188 25.3571 429.054 26.0501C428.92 26.743 429.064 27.465 429.456 28.0581Z" fill="#407BFF"/>
<path d="M98.5732 47.4409L51.2866 0L4 47.4409H21.6548V93.6179H80.9184V47.4409H98.5732Z" fill="#407BFF"/>
<path d="M345.084 21.3038V93.6179H338.266L335.025 87.5824C330.927 92.5002 325.711 94.9591 319.378 94.9591C305.891 94.9591 299.147 85.7196 299.147 67.2406C299.147 48.1654 306.338 38.6279 320.719 38.6279C325.264 38.6279 329.623 39.9691 333.796 42.6515V22.7568L345.084 21.3038ZM322.507 89.3707C326.978 89.3707 330.741 87.2844 333.796 83.1117V48.3517C330.592 45.9673 327.127 44.7751 323.401 44.7751C319.154 44.7751 315.913 46.6752 313.677 50.4753C311.517 54.2755 310.436 59.8639 310.436 67.2406C310.436 74.5428 311.442 80.0567 313.454 83.7823C315.54 87.5079 318.558 89.3707 322.507 89.3707Z" fill="white"/>
<path d="M256.927 94.9591C252.382 94.9591 248.768 93.7297 246.086 91.2708C243.478 88.7374 242.174 85.3098 242.174 80.9881C242.174 76.3683 243.813 72.7545 247.092 70.1466C250.445 67.4641 255.512 65.5268 262.292 64.3346L274.698 62.3228V56.8461C274.698 48.4263 271.494 44.2163 265.086 44.2163C261.286 44.2163 258.529 45.2967 256.815 47.4576C255.102 49.6184 254.133 52.9342 253.91 57.405L244.521 56.3991C244.968 50.5126 246.756 46.0791 249.886 43.0986C253.015 40.1181 258.157 38.6279 265.31 38.6279C272.239 38.6279 277.418 40.1927 280.846 43.3222C284.273 46.3772 285.987 51.0342 285.987 57.2932V93.6179H278.834L275.369 85.7941C273.059 88.7746 270.302 91.0472 267.098 92.612C263.894 94.1767 260.504 94.9591 256.927 94.9591ZM260.951 89.0354C263.484 89.0354 265.98 88.2903 268.439 86.8C270.973 85.3098 273.059 83.5588 274.698 81.5469V66.9053L263.745 69.0289C260.019 69.8485 257.188 71.1525 255.251 72.9408C253.388 74.7291 252.457 77.1507 252.457 80.2057C252.457 82.8881 253.202 85.049 254.692 86.6883C256.257 88.253 258.343 89.0354 260.951 89.0354Z" fill="white"/>
<path d="M237.397 91.7178C233.448 93.8787 229.648 94.9591 225.997 94.9591C222.271 94.9591 219.477 94.2885 217.614 92.9473C215.826 91.5316 214.708 89.855 214.261 87.9177C213.814 85.9804 213.591 83.596 213.591 80.7645V45.6693H204.873V39.9691H213.591V31.2512L224.991 27.004V39.9691H236.391V45.6693H224.991V82.1058C224.991 84.5647 225.289 86.2785 225.885 87.2471C226.556 88.1413 227.636 88.5883 229.126 88.5883C231.213 88.5883 233.485 87.9177 235.944 86.5765L237.397 91.7178Z" fill="white"/>
<path d="M177.86 38.6279C189.335 38.6279 195.073 44.3281 195.073 55.7284V93.6179H183.784V56.6226C183.784 52.5989 183.076 49.6557 181.661 47.7929C180.245 45.8556 178.009 44.8869 174.954 44.8869C170.409 44.8869 165.938 46.6007 161.542 50.0283V93.6179H150.254V39.9691H155.171L159.642 45.5575C162.325 43.4712 165.268 41.7947 168.472 40.528C171.75 39.2613 174.88 38.6279 177.86 38.6279Z" fill="white"/>
<path d="M101.416 67.4641V67.6877C101.416 75.586 102.348 81.1744 104.21 84.4529C106.148 87.7314 109.426 89.3707 114.046 89.3707C121.646 89.3707 125.633 85.4588 126.005 77.635L135.282 78.0821C134.76 83.298 132.86 87.4334 129.582 90.4884C126.303 93.4689 121.013 94.9591 113.711 94.9591C105.291 94.9591 99.2554 92.6492 95.6043 88.0295C91.9532 83.3352 90.1277 76.2566 90.1277 66.7935C90.1277 58.2991 91.8415 51.4813 95.269 46.3399C98.7711 41.1986 104.881 38.6279 113.599 38.6279C122.019 38.6279 127.868 41.1986 131.147 46.3399C134.425 51.4067 136.064 58.0756 136.064 66.3464V67.4641H101.416ZM113.375 44.2163C109.426 44.2163 106.558 45.6693 104.769 48.5753C102.981 51.4813 101.901 55.9147 101.528 61.8757H125.111C124.888 56.0638 123.882 51.6675 122.093 48.687C120.38 45.7066 117.474 44.2163 113.375 44.2163Z" fill="white"/>
<path d="M80.4282 93.6179H68.1336L58.5216 69.8112C57.6274 67.6504 56.5097 66.2346 55.1685 65.564C53.9018 64.8189 51.9272 64.4464 49.2448 64.4464H43.9917V93.6179H32.5913V25.1039H55.5038C63.6256 25.1039 69.3258 27.1157 72.6044 31.1394C75.8829 35.0885 77.5222 39.8946 77.5222 45.5575C77.5222 49.7302 76.5163 53.4558 74.5044 56.7343C72.5671 59.9384 69.1768 62.1737 64.3335 63.4404C67.0159 64.4091 68.9533 66.1974 70.1455 68.8053L80.4282 93.6179ZM54.2744 60.3109C58.298 60.3109 61.2785 58.8952 63.2158 56.0637C65.1531 53.1578 66.1218 49.6557 66.1218 45.5575C66.1218 41.0123 65.1531 37.1749 63.2158 34.0454C61.2785 30.9159 58.298 29.3511 54.2744 29.3511H43.9917V60.3109H54.2744Z" fill="white"/>
</g>
<defs>
<filter id="filter0_d_10_6071" x="0" y="0" width="476.453" height="102.959" filterUnits="userSpaceOnUse" color-interpolation-filters="sRGB">
<feFlood flood-opacity="0" result="BackgroundImageFix"/>
<feColorMatrix in="SourceAlpha" type="matrix" values="0 0 0 0 0 0 0 0 0 0 0 0 0 0 0 0 0 0 127 0" result="hardAlpha"/>
<feOffset dy="4"/>
<feGaussianBlur stdDeviation="2"/>
<feComposite in2="hardAlpha" operator="out"/>
<feColorMatrix type="matrix" values="0 0 0 0 1 0 0 0 0 1 0 0 0 0 1 0 0 0 0.52 0"/>
<feBlend mode="normal" in2="BackgroundImageFix" result="effect1_dropShadow_10_6071"/>
<feBlend mode="normal" in="SourceGraphic" in2="effect1_dropShadow_10_6071" result="shape"/>
</filter>
</defs>
</svg>
