<svg width="499" height="111" viewBox="0 0 499 111" fill="none" xmlns="http://www.w3.org/2000/svg">
<g filter="url(#filter0_d_11_7056)">
<path d="M376.922 81.6343C380.675 87.2441 386.008 91.615 392.245 94.1941C398.482 96.7732 405.344 97.4448 411.963 96.124C418.582 94.8031 424.661 91.549 429.43 86.7734C434.2 81.9977 437.446 75.9149 438.759 69.2942C440.071 62.6735 439.391 55.8124 436.804 49.5784C434.217 43.3444 429.839 38.0175 424.224 34.2716C418.61 30.5256 412.01 28.5287 405.261 28.5334C398.511 28.5381 391.915 30.5443 386.306 34.2981C378.785 39.3313 373.571 47.1459 371.811 56.023C370.051 64.9001 371.89 74.1127 376.922 81.6343ZM428.045 47.4317C431.058 51.9337 432.669 57.2282 432.673 62.6455C432.677 68.0629 431.074 73.3597 428.067 77.8662C425.061 82.3726 420.785 85.8862 415.782 87.9625C410.778 90.0388 405.271 90.5847 399.957 89.531C394.643 88.4773 389.761 85.8714 385.928 82.0428C382.096 78.2143 379.484 73.3351 378.425 68.0224C377.365 62.7097 377.905 57.2021 379.976 52.1961C382.047 47.1902 385.555 42.9108 390.058 39.8992C396.095 35.862 403.488 34.3876 410.611 35.8001C417.735 37.2127 424.006 41.3965 428.045 47.4317Z" fill="black"/>
<path d="M431.707 41.029L434.614 45.3333C435.087 46.0347 436.04 46.2193 436.741 45.7456L459.418 30.4302C460.12 29.9564 460.304 29.0037 459.83 28.3023L456.923 23.998C456.45 23.2966 455.497 23.112 454.795 23.5857L432.119 38.9011C431.417 39.3748 431.233 40.3275 431.707 41.029Z" fill="#2E7AFF"/>
<path d="M488.7 3.27382L492.62 9.1278C492.907 9.55663 493.107 10.0372 493.209 10.542C493.312 11.0468 493.315 11.566 493.217 12.0699C493.12 12.5738 492.925 13.0526 492.643 13.4789C492.36 13.9053 491.997 14.2708 491.572 14.5546L457.523 37.0584C457.191 37.2801 456.819 37.4336 456.427 37.5101C456.035 37.5867 455.631 37.5848 455.238 37.5046C454.846 37.4245 454.472 37.2675 454.138 37.0428C453.804 36.8181 453.517 36.5301 453.293 36.195L448.431 28.9154C448.206 28.5806 448.049 28.2052 447.969 27.8108C447.889 27.4163 447.886 27.0105 447.962 26.6167C448.039 26.2229 448.191 25.8488 448.412 25.5159C448.633 25.183 448.918 24.8978 449.25 24.6766L483.3 2.17275C484.155 1.6025 485.203 1.39817 486.216 1.60458C487.228 1.81098 488.121 2.41127 488.7 3.27382Z" fill="#263238"/>
<path d="M434.838 44.3599C439.848 51.9861 441.652 61.2707 439.857 70.1745C438.061 79.0783 432.811 86.8735 425.261 91.8481C417.71 96.8228 408.476 98.5702 399.585 96.7067C390.695 94.8431 382.876 89.5209 377.845 81.9089C372.814 74.2969 370.983 65.0174 372.753 56.1082C374.524 47.1991 379.751 39.3886 387.287 34.3921C394.823 29.3956 404.052 27.6216 412.948 29.4595C421.843 31.2975 429.677 36.5973 434.729 44.195L434.838 44.3599ZM378.196 81.7959L378.305 81.9608C383.346 89.3477 391.068 94.4674 399.799 96.2102C408.529 97.9531 417.563 96.1786 424.943 91.2715C432.323 86.3643 437.455 78.7198 439.225 69.9949C440.996 61.27 439.263 52.1676 434.403 44.6607L434.294 44.4958C429.252 37.1088 421.53 31.9891 412.8 30.2463C404.07 28.5035 395.035 30.2779 387.655 35.1851C380.275 40.0923 375.143 47.7367 373.373 56.4616C371.602 65.1866 373.335 74.2889 378.196 81.7959ZM429.247 48.0553C433.008 54.1846 434.267 61.5193 432.757 68.5165C431.248 75.5137 427.088 81.6282 421.153 85.5738C415.218 89.5195 407.971 90.9888 400.935 89.6727C393.899 88.3567 387.624 84.3577 383.428 78.5171L383.339 78.3834C379.578 72.2541 378.32 64.9195 379.829 57.9222C381.339 50.925 385.498 44.8105 391.433 40.8649C397.368 36.9192 404.615 35.4499 411.651 36.766C418.687 38.0821 424.963 42.081 429.159 47.9216L429.247 48.0553ZM383.787 78.1004L383.875 78.2342C387.992 83.9594 394.146 87.8785 401.046 89.1673C407.945 90.4562 415.051 89.0145 420.87 85.1453C426.689 81.2762 430.768 75.281 432.249 68.4201C433.73 61.5593 432.498 54.3672 428.811 48.3561L428.723 48.2224C424.606 42.4971 418.452 38.5781 411.553 37.2892C404.653 36.0003 397.547 37.442 391.728 41.3112C385.909 45.1804 381.83 51.1756 380.349 58.0365C378.868 64.8973 380.101 72.0893 383.787 78.1004Z" fill="#263238"/>
<path d="M462.354 28.6202C462.606 29.0063 462.691 29.4792 462.591 29.9366C462.491 30.3941 462.214 30.7994 461.819 31.065L439.064 46.284C438.662 46.547 438.177 46.6455 437.713 46.558C437.483 46.5167 437.265 46.4304 437.072 46.3042C436.879 46.1779 436.715 46.0142 436.588 45.8225L433.787 41.642C433.538 41.251 433.452 40.7761 433.548 40.315C433.597 40.0869 433.69 39.8692 433.824 39.6748C433.957 39.4804 434.128 39.3131 434.326 39.1827L457.081 23.9637C457.479 23.6993 457.961 23.5978 458.424 23.6813C458.887 23.7647 459.292 24.0264 459.552 24.4093L462.349 28.5928L462.354 28.6202ZM434.231 41.3484L437.036 45.5332C437.124 45.6677 437.24 45.7826 437.375 45.8715C437.511 45.9604 437.663 46.0214 437.825 46.0511C438.151 46.1099 438.491 46.0383 438.772 45.852L461.532 30.6301C461.81 30.4419 462.006 30.1549 462.076 29.8312C462.111 29.6724 462.115 29.5092 462.086 29.3509C462.057 29.1927 461.996 29.0427 461.907 28.9095L459.11 24.726C458.928 24.4554 458.643 24.2702 458.316 24.211C457.99 24.1518 457.65 24.2234 457.37 24.4102L434.61 39.632C434.471 39.7238 434.351 39.8413 434.257 39.9777C434.164 40.1141 434.097 40.2667 434.063 40.4267C433.99 40.7481 434.048 41.0811 434.222 41.3542L434.231 41.3484Z" fill="#263238"/>
<path d="M493.672 9.59336C494.287 10.5237 494.514 11.656 494.304 12.743C494.094 13.8301 493.464 14.7836 492.551 15.3955L458.439 37.9407C457.71 38.4276 456.815 38.6011 455.95 38.423C455.085 38.2449 454.321 37.7298 453.826 36.9908L448.924 29.6607C448.434 28.9214 448.252 28.0206 448.419 27.1559C448.586 26.2911 449.088 25.5328 449.815 25.0473L483.932 2.49908C484.385 2.19581 484.895 1.98621 485.432 1.88225C485.969 1.77828 486.522 1.78199 487.061 1.89315C487.599 2.00432 488.112 2.22077 488.57 2.53013C489.028 2.8395 489.422 3.23573 489.729 3.6962L493.669 9.58884L493.672 9.59336ZM449.371 29.3714L454.27 36.697C454.476 37.0045 454.739 37.269 455.045 37.4754C455.351 37.6819 455.694 37.8262 456.054 37.9003C456.413 37.9743 456.783 37.9765 457.142 37.9069C457.5 37.8372 457.841 37.697 458.144 37.4942L492.256 14.949C493.051 14.415 493.599 13.5837 493.782 12.6363C493.964 11.689 493.766 10.7024 493.23 9.89162L489.291 3.99897C489.023 3.59696 488.679 3.25101 488.28 2.98091C487.88 2.71081 487.433 2.52187 486.963 2.42487C486.493 2.32788 486.01 2.32474 485.542 2.41564C485.073 2.50654 484.628 2.6897 484.233 2.95464L450.121 25.4999C449.511 25.9078 449.09 26.544 448.95 27.2694C448.809 27.9948 448.961 28.7505 449.371 29.3714Z" fill="#263238"/>
<path d="M103 49.6615L53.5 0L4 49.6615H22.4812V98H84.5188V49.6615H103Z" fill="#407BFF"/>
<path d="M361.05 22.301V98H353.913L350.52 91.682C346.23 96.83 340.77 99.404 334.14 99.404C320.022 99.404 312.963 89.732 312.963 70.388C312.963 50.42 320.49 40.436 335.544 40.436C340.302 40.436 344.865 41.84 349.233 44.648V23.822L361.05 22.301ZM337.416 93.554C342.096 93.554 346.035 91.37 349.233 87.002V50.615C345.879 48.119 342.252 46.871 338.352 46.871C333.906 46.871 330.513 48.86 328.173 52.838C325.911 56.816 324.78 62.666 324.78 70.388C324.78 78.032 325.833 83.804 327.939 87.704C330.123 91.604 333.282 93.554 337.416 93.554Z" fill="black"/>
<path d="M268.766 99.404C264.008 99.404 260.225 98.117 257.417 95.543C254.687 92.891 253.322 89.303 253.322 84.779C253.322 79.943 255.038 76.16 258.47 73.43C261.98 70.622 267.284 68.594 274.382 67.346L287.369 65.24V59.507C287.369 50.693 284.015 46.286 277.307 46.286C273.329 46.286 270.443 47.417 268.649 49.679C266.855 51.941 265.841 55.412 265.607 60.092L255.779 59.039C256.247 52.877 258.119 48.236 261.395 45.116C264.671 41.996 270.053 40.436 277.541 40.436C284.795 40.436 290.216 42.074 293.804 45.35C297.392 48.548 299.186 53.423 299.186 59.975V98H291.698L288.071 89.81C285.653 92.93 282.767 95.309 279.413 96.947C276.059 98.585 272.51 99.404 268.766 99.404ZM272.978 93.203C275.63 93.203 278.243 92.423 280.817 90.863C283.469 89.303 285.653 87.47 287.369 85.364V70.037L275.903 72.26C272.003 73.118 269.039 74.483 267.011 76.355C265.061 78.227 264.086 80.762 264.086 83.96C264.086 86.768 264.866 89.03 266.426 90.746C268.064 92.384 270.248 93.203 272.978 93.203Z" fill="black"/>
<path d="M248.322 96.011C244.188 98.273 240.21 99.404 236.388 99.404C232.488 99.404 229.563 98.702 227.613 97.298C225.741 95.816 224.571 94.061 224.103 92.033C223.635 90.005 223.401 87.509 223.401 84.545V47.807H214.275V41.84H223.401V32.714L235.335 28.268V41.84H247.269V47.807H235.335V85.949C235.335 88.523 235.647 90.317 236.271 91.331C236.973 92.267 238.104 92.735 239.664 92.735C241.848 92.735 244.227 92.033 246.801 90.629L248.322 96.011Z" fill="black"/>
<path d="M185.999 40.436C198.011 40.436 204.017 46.403 204.017 58.337V98H192.2V59.273C192.2 55.061 191.459 51.98 189.977 50.03C188.495 48.002 186.155 46.988 182.957 46.988C178.199 46.988 173.519 48.782 168.917 52.37V98H157.1V41.84H162.248L166.928 47.69C169.736 45.506 172.817 43.751 176.171 42.425C179.603 41.099 182.879 40.436 185.999 40.436Z" fill="black"/>
<path d="M105.976 70.622V70.856C105.976 79.124 106.951 84.974 108.901 88.406C110.929 91.838 114.361 93.554 119.197 93.554C127.153 93.554 131.326 89.459 131.716 81.269L141.427 81.737C140.881 87.197 138.892 91.526 135.46 94.724C132.028 97.844 126.49 99.404 118.846 99.404C110.032 99.404 103.714 96.986 99.8922 92.15C96.0702 87.236 94.1592 79.826 94.1592 69.92C94.1592 61.028 95.9532 53.891 99.5412 48.509C103.207 43.127 109.603 40.436 118.729 40.436C127.543 40.436 133.666 43.127 137.098 48.509C140.53 53.813 142.246 60.794 142.246 69.452V70.622H105.976ZM118.495 46.286C114.361 46.286 111.358 47.807 109.486 50.849C107.614 53.891 106.483 58.532 106.093 64.772H130.78C130.546 58.688 129.493 54.086 127.621 50.966C125.827 47.846 122.785 46.286 118.495 46.286Z" fill="black"/>
<path d="M84.0057 98H71.1357L61.0737 73.079C60.1377 70.817 58.9677 69.335 57.5637 68.633C56.2377 67.853 54.1707 67.463 51.3627 67.463H45.8637V98H33.9297V26.279H57.9147C66.4167 26.279 72.3837 28.385 75.8157 32.597C79.2477 36.731 80.9637 41.762 80.9637 47.69C80.9637 52.058 79.9107 55.958 77.8047 59.39C75.7767 62.744 72.2277 65.084 67.1577 66.41C69.9657 67.424 71.9937 69.296 73.2417 72.026L84.0057 98ZM56.6277 63.134C60.8397 63.134 63.9597 61.652 65.9877 58.688C68.0157 55.646 69.0297 51.98 69.0297 47.69C69.0297 42.932 68.0157 38.915 65.9877 35.639C63.9597 32.363 60.8397 30.725 56.6277 30.725H45.8637V63.134H56.6277Z" fill="white"/>
</g>
<defs>
<filter id="filter0_d_11_7056" x="0" y="0" width="498.38" height="107.404" filterUnits="userSpaceOnUse" color-interpolation-filters="sRGB">
<feFlood flood-opacity="0" result="BackgroundImageFix"/>
<feColorMatrix in="SourceAlpha" type="matrix" values="0 0 0 0 0 0 0 0 0 0 0 0 0 0 0 0 0 0 127 0" result="hardAlpha"/>
<feOffset dy="4"/>
<feGaussianBlur stdDeviation="2"/>
<feComposite in2="hardAlpha" operator="out"/>
<feColorMatrix type="matrix" values="0 0 0 0 0 0 0 0 0 0 0 0 0 0 0 0 0 0 0.25 0"/>
<feBlend mode="normal" in2="BackgroundImageFix" result="effect1_dropShadow_11_7056"/>
<feBlend mode="normal" in="SourceGraphic" in2="effect1_dropShadow_11_7056" result="shape"/>
</filter>
</defs>
</svg>
